<svg xmlns="http://www.w3.org/2000/svg" xmlns:xlink="http://www.w3.org/1999/xlink" viewBox="0 0 24 24"><defs><style>.cls-1{fill:none;}.cls-2{clip-path:url(#clip-path);}.cls-3{fill:#036;}</style><clipPath id="clip-path"><rect class="cls-1" width="24" height="24"/></clipPath><symbol id="announcement" data-name="announcement" viewBox="0 0 24 24"><g class="cls-2"><path class="cls-3" d="M16.12,18c-1.29,0-2.42-1.41-3.05-3.52a.69.69,0,0,0,.24.05c.92,0,1.66-1.78,1.66-4s-.74-4-1.66-4a.69.69,0,0,0-.24,0c.63-2.11,1.76-3.52,3.05-3.52.94,0,1.8.76,2.44,2l.81-.36c-.89-1.58-2.15-2.55-3.62-2.44S1.47,6.76,1.47,6.76A2,2,0,0,0,.31,8.06a11.15,11.15,0,0,0-.25,2.17,13.79,13.79,0,0,0,.62,3.49A2.09,2.09,0,0,0,2,15l1,.29a2.5,2.5,0,0,1,1.38,1.18L6,19.87a2.55,2.55,0,0,0,1.38,1.19l2.1.63c.53.16.79-.13.58-.63L8.59,17.65c-.21-.51.05-.8.58-.65l4.49,1.27c.53.15,1.18.32,1.44.38l.59.12h.06a4.35,4.35,0,0,0,3.57-2.53l-.72-.35C18,17.16,17.08,18,16.12,18Z"/><path class="cls-3" d="M19.69,9.71l1,.1A13.68,13.68,0,0,0,20,6.17l-.86.39A13.44,13.44,0,0,1,19.69,9.71Z"/><path class="cls-3" d="M19.18,14.4l.81.4a12.14,12.14,0,0,0,.69-3.33l-1-.11A13.21,13.21,0,0,1,19.18,14.4Z"/><path class="cls-3" d="M16,7.87a.47.47,0,0,0,.42,0l7-3.18a.53.53,0,0,0,.29-.52l-.08-.72a.51.51,0,0,0-.25-.38.5.5,0,0,0-.46,0L15.76,6.3a.48.48,0,0,0-.26.63c.07.2.15.4.21.62A.51.51,0,0,0,16,7.87Z"/><path class="cls-3" d="M23.49,10.06l-6.86-.73a.49.49,0,0,0-.4.13.51.51,0,0,0-.16.39c0,.22,0,.44,0,.7a.5.5,0,0,0,.45.52l6.82.73h.06a.51.51,0,0,0,.33-.13.53.53,0,0,0,.17-.36l0-.75A.51.51,0,0,0,23.49,10.06Z"/><path class="cls-3" d="M23.25,16.36,16.46,13A.5.5,0,0,0,16,13a.49.49,0,0,0-.28.33c-.06.22-.12.43-.19.62a.51.51,0,0,0,.25.62L22.72,18a.54.54,0,0,0,.22.05.53.53,0,0,0,.24-.06.48.48,0,0,0,.25-.38l.09-.73A.48.48,0,0,0,23.25,16.36Z"/></g></symbol></defs><title>announcement-icon</title><g id="Layer_2" data-name="Layer 2"><g id="Layer_1-2" data-name="Layer 1"><use width="24" height="24" xlink:href="#announcement"/></g></g></svg>