<svg xmlns="http://www.w3.org/2000/svg" xmlns:xlink="http://www.w3.org/1999/xlink" viewBox="0 0 24 24"><defs><style>.cls-1{fill:#036;}</style><symbol id="group" data-name="group" viewBox="0 0 24 24"><path class="cls-1" d="M12,0C4,0,0,4,0,12S4,24,12,24s12-3.93,12-12S20.07,0,12,0Zm0,22.25C5.1,22.25,1.75,18.9,1.75,12S5.1,1.75,12,1.75c7.09,0,10.25,3.16,10.25,10.25S19,22.25,12,22.25Z"/><path class="cls-1" d="M2.76,15.61H8.3a2.77,2.77,0,0,0-1.65-2.53,3,3,0,0,0,.8-1.6.26.26,0,0,0,.21-.25A.26.26,0,0,0,7.52,11c0-.12,0-.24,0-.36v-.25a6.28,6.28,0,0,0-.1-1,4.35,4.35,0,0,0,.22-.94c.11-.8-1.05-.88-1.05-.88s.4-.11.4-.11a1.88,1.88,0,0,0-2.27.32c-1.52.14-1.46,2.35-1.43,2.78v.08c0,.13,0,.25,0,.38a.25.25,0,0,0,.06.45,2.88,2.88,0,0,0,.89,1.68A2.77,2.77,0,0,0,2.76,15.61Z"/><path class="cls-1" d="M15.7,15.61h5.54a2.77,2.77,0,0,0-1.65-2.53,3,3,0,0,0,.8-1.6.26.26,0,0,0,.21-.25.25.25,0,0,0-.15-.23c0-.12,0-.24,0-.36a2.09,2.09,0,0,0,0-.25,6.07,6.07,0,0,0-.09-1,6,6,0,0,0,.22-.94c.11-.8-1.05-.88-1.05-.88s.4-.11.4-.11a1.88,1.88,0,0,0-2.27.32c-1.52.14-1.46,2.35-1.44,2.78v.08c0,.13,0,.25,0,.38a.24.24,0,0,0-.11.21.26.26,0,0,0,.17.24,2.82,2.82,0,0,0,.89,1.68A2.77,2.77,0,0,0,15.7,15.61Z"/><path class="cls-1" d="M8,19.18h8.58A4.28,4.28,0,0,0,14,15.26a4.54,4.54,0,0,0,1.24-2.48.4.4,0,0,0,.33-.39.41.41,0,0,0-.23-.36,5,5,0,0,0,0-.55V11.1a9.33,9.33,0,0,0-.15-1.55,8,8,0,0,0,.34-1.46c.18-1.23-1.62-1.36-1.62-1.36s.61-.18.61-.18c-2.23-.84-3.28.23-3.5.51-2.36.21-2.27,3.63-2.23,4.3v.12c0,.2,0,.39,0,.58a.43.43,0,0,0-.17.33.41.41,0,0,0,.27.38,4.42,4.42,0,0,0,1.37,2.6A4.28,4.28,0,0,0,8,19.18Z"/></symbol></defs><title>groups-icon</title><g id="Layer_2" data-name="Layer 2"><g id="Layer_1-2" data-name="Layer 1"><use width="24" height="24" xlink:href="#group"/></g></g></svg>