<svg xmlns="http://www.w3.org/2000/svg" xmlns:xlink="http://www.w3.org/1999/xlink" viewBox="0 0 20.62 19.31"><defs><style>.cls-1{fill:#1c3664;}</style><symbol id="polls-icon" data-name="polls-icon" viewBox="0 0 20.62 19.31"><path class="cls-1" d="M10.69,8,8.37,5.7a.55.55,0,0,0-.77,0L5.48,7.83a.54.54,0,0,0,0,.76l3.27,3.27.77.77,1.17,1.17.39.39h0s.18-.16.39-.37l2.12-2.13L14,11.3a4.44,4.44,0,0,1,.38-.39l6.1-6.1a.56.56,0,0,0,0-.78L18.34,1.91a.55.55,0,0,0-.77,0L17,2.53C15.35.86,12.92,0,9.66,0,3.34,0,0,3.34,0,9.66s3.34,9.65,9.66,9.65,9.65-3.25,9.65-9.65a17.88,17.88,0,0,0-.11-1.94l-2.55,2.54c-.18,4.42-2.34,6.43-7,6.43s-7-2.23-7-7,2.24-7,7-7c2.52,0,4.29.57,5.43,1.77L11.46,8A.55.55,0,0,1,10.69,8Z"/></symbol></defs><title>polls-icon</title><g id="Layer_2" data-name="Layer 2"><g id="Layer_1-2" data-name="Layer 1"><use width="20.62" height="19.31" xlink:href="#polls-icon"/></g></g></svg>