<?xml version="1.0" encoding="utf-8"?>
<!-- Generator: Adobe Illustrator 27.1.0, SVG Export Plug-In . SVG Version: 6.00 Build 0)  -->
<svg version="1.1" id="Layer_1" xmlns="http://www.w3.org/2000/svg" xmlns:xlink="http://www.w3.org/1999/xlink" x="0px" y="0px"
	 viewBox="0 0 800 350" style="enable-background:new 0 0 800 350;" xml:space="preserve">
<style type="text/css">
	.st0{fill:#254AB1;}
	.st1{opacity:0.3;fill:#4867BE;}
</style>
<rect x="-23.2" y="-10.2" class="st0" width="846.5" height="370.3"/>
<path class="st1" d="M81.6,32.1l14.5,26.1c0.3,0.5,0.9,0.8,1.5,0.7l29.3-5.7c1.4-0.3,2.2,1.4,1.3,2.4l-20.3,21.9
	c-0.4,0.5-0.5,1.1-0.2,1.7l14.5,26.1c0.7,1.2-0.6,2.6-1.8,2L93.3,94.6c-0.6-0.3-1.2-0.1-1.6,0.3l-20.3,21.9c-0.9,1-2.6,0.2-2.4-1.1
	L72.5,86c0.1-0.6-0.3-1.2-0.8-1.5L44.6,71.9c-1.2-0.6-1-2.4,0.3-2.7l29.3-5.7c0.6-0.1,1.1-0.6,1.1-1.2L79,32.6
	C79.1,31.3,80.9,30.9,81.6,32.1z"/>
<path class="st1" d="M395.4,233.6l-4.6,29.5c-0.1,0.6,0.2,1.2,0.8,1.5l26.6,13.5c1.2,0.6,0.9,2.5-0.4,2.7l-29.5,4.7
	c-0.6,0.1-1.1,0.6-1.2,1.2l-4.6,29.5c-0.2,1.4-2,1.7-2.7,0.4L366.2,290c-0.3-0.5-0.9-0.9-1.5-0.8l-29.5,4.7
	c-1.4,0.2-2.2-1.4-1.2-2.4l21.1-21.2c0.4-0.4,0.5-1.1,0.3-1.6l-13.6-26.6c-0.6-1.2,0.7-2.5,1.9-1.9l26.6,13.5
	c0.5,0.3,1.2,0.2,1.6-0.3l21.1-21.2C393.9,231.4,395.6,232.2,395.4,233.6z"/>
<path class="st1" d="M665.4-28.4l-4.6,29.5c-0.1,0.6,0.2,1.2,0.8,1.5L688.2,16c1.2,0.6,0.9,2.5-0.4,2.7l-29.5,4.7
	c-0.6,0.1-1.1,0.6-1.2,1.2l-4.6,29.5c-0.2,1.4-2,1.7-2.7,0.4L636.2,28c-0.3-0.5-0.9-0.9-1.5-0.8L605.2,32c-1.4,0.2-2.2-1.4-1.2-2.4
	l21.1-21.2c0.4-0.4,0.5-1.1,0.3-1.6l-13.6-26.6c-0.6-1.2,0.7-2.5,1.9-1.9l26.6,13.5c0.5,0.3,1.2,0.2,1.6-0.3L663-29.7
	C663.9-30.6,665.6-29.8,665.4-28.4z"/>
<path class="st1" d="M722.4,190.6l-4.6,29.5c-0.1,0.6,0.2,1.2,0.8,1.5l26.6,13.5c1.2,0.6,0.9,2.5-0.4,2.7l-29.5,4.7
	c-0.6,0.1-1.1,0.6-1.2,1.2l-4.6,29.5c-0.2,1.4-2,1.7-2.7,0.4L693.2,247c-0.3-0.5-0.9-0.9-1.5-0.8l-29.5,4.7
	c-1.4,0.2-2.2-1.4-1.2-2.4l21.1-21.2c0.4-0.4,0.5-1.1,0.3-1.6l-13.6-26.6c-0.6-1.2,0.7-2.5,1.9-1.9l26.6,13.5
	c0.5,0.3,1.2,0.2,1.6-0.3l21.1-21.2C720.9,188.4,722.6,189.2,722.4,190.6z"/>
<path class="st1" d="M501.4,76.6l-4.6,29.5c-0.1,0.6,0.2,1.2,0.8,1.5l26.6,13.5c1.2,0.6,0.9,2.5-0.4,2.7l-29.5,4.7
	c-0.6,0.1-1.1,0.6-1.2,1.2l-4.6,29.5c-0.2,1.4-2,1.7-2.7,0.4L472.2,133c-0.3-0.5-0.9-0.9-1.5-0.8l-29.5,4.7
	c-1.4,0.2-2.2-1.4-1.2-2.4l21.1-21.2c0.4-0.4,0.5-1.1,0.3-1.7l-13.6-26.6c-0.6-1.2,0.7-2.5,1.9-1.9l26.6,13.5
	c0.5,0.3,1.2,0.2,1.6-0.3L499,75.3C499.9,74.4,501.6,75.2,501.4,76.6z"/>
<path class="st1" d="M164.4,302.6l-4.6,29.5c-0.1,0.6,0.2,1.2,0.8,1.5l26.6,13.5c1.2,0.6,0.9,2.5-0.4,2.7l-29.5,4.7
	c-0.6,0.1-1.1,0.6-1.2,1.2l-4.6,29.5c-0.2,1.4-2,1.7-2.7,0.4L135.2,359c-0.3-0.5-0.9-0.9-1.5-0.8l-29.5,4.7
	c-1.4,0.2-2.2-1.4-1.2-2.4l21.1-21.2c0.4-0.4,0.5-1.1,0.3-1.6l-13.6-26.6c-0.6-1.2,0.7-2.5,1.9-1.9l26.6,13.5
	c0.5,0.3,1.2,0.2,1.6-0.3l21.1-21.2C162.9,300.4,164.6,301.2,164.4,302.6z"/>
<path class="st1" d="M285.2,93.8l-2.2,14.4c0,0.3,0.1,0.6,0.4,0.7l13,6.6c0.6,0.3,0.5,1.2-0.2,1.3l-14.4,2.3c-0.3,0-0.5,0.3-0.6,0.6
	l-2.2,14.4c-0.1,0.7-1,0.8-1.3,0.2l-6.6-13c-0.1-0.3-0.4-0.4-0.7-0.4l-14.4,2.3c-0.7,0.1-1.1-0.7-0.6-1.2l10.3-10.3
	c0.2-0.2,0.3-0.5,0.1-0.8L259,98c-0.3-0.6,0.3-1.2,0.9-0.9l13,6.6c0.3,0.1,0.6,0.1,0.8-0.1l10.3-10.3
	C284.5,92.7,285.3,93.1,285.2,93.8z"/>
<path class="st1" d="M343.2-28.2L341-13.8c0,0.3,0.1,0.6,0.4,0.7l13,6.6c0.6,0.3,0.5,1.2-0.2,1.3l-14.4,2.3c-0.3,0-0.5,0.3-0.6,0.6
	l-2.2,14.4c-0.1,0.7-1,0.8-1.3,0.2l-6.6-13c-0.1-0.3-0.4-0.4-0.7-0.4l-14.4,2.3c-0.7,0.1-1.1-0.7-0.6-1.2l10.3-10.3
	c0.2-0.2,0.3-0.5,0.1-0.8L317-24c-0.3-0.6,0.3-1.2,0.9-0.9l13,6.6c0.3,0.1,0.6,0.1,0.8-0.1l10.3-10.3
	C342.5-29.3,343.3-28.9,343.2-28.2z"/>
<path class="st1" d="M776.2,76.8L774,91.2c0,0.3,0.1,0.6,0.4,0.7l13,6.6c0.6,0.3,0.5,1.2-0.2,1.3l-14.4,2.3c-0.3,0-0.5,0.3-0.6,0.6
	l-2.2,14.4c-0.1,0.7-1,0.8-1.3,0.2l-6.6-13c-0.1-0.3-0.4-0.4-0.7-0.4l-14.4,2.3c-0.7,0.1-1.1-0.7-0.6-1.2l10.3-10.3
	c0.2-0.2,0.3-0.5,0.1-0.8L750,81c-0.3-0.6,0.3-1.2,0.9-0.9l13,6.6c0.3,0.1,0.6,0.1,0.8-0.1l10.3-10.3
	C775.5,75.7,776.3,76.1,776.2,76.8z"/>
<path class="st1" d="M53.2,211.8L51,226.2c0,0.3,0.1,0.6,0.4,0.7l13,6.6c0.6,0.3,0.5,1.2-0.2,1.3l-14.4,2.3c-0.3,0-0.5,0.3-0.6,0.6
	l-2.2,14.4c-0.1,0.7-1,0.8-1.3,0.2l-6.6-13c-0.1-0.3-0.4-0.4-0.7-0.4l-14.4,2.3c-0.7,0.1-1.1-0.7-0.6-1.2l10.3-10.3
	c0.2-0.2,0.3-0.5,0.1-0.8L27,216c-0.3-0.6,0.3-1.2,0.9-0.9l13,6.6c0.3,0.1,0.6,0.1,0.8-0.1l10.3-10.3
	C52.5,210.7,53.3,211.1,53.2,211.8z"/>
<path class="st1" d="M555.2,254.8l-2.2,14.4c0,0.3,0.1,0.6,0.4,0.7l13,6.6c0.6,0.3,0.5,1.2-0.2,1.3l-14.4,2.3
	c-0.3,0-0.5,0.3-0.6,0.6l-2.2,14.4c-0.1,0.7-1,0.8-1.3,0.2l-6.6-13c-0.1-0.3-0.4-0.4-0.7-0.4l-14.4,2.3c-0.7,0.1-1.1-0.7-0.6-1.2
	l10.3-10.3c0.2-0.2,0.3-0.5,0.1-0.8l-6.6-13c-0.3-0.6,0.3-1.2,0.9-0.9l13,6.6c0.3,0.1,0.6,0.1,0.8-0.1l10.3-10.3
	C554.5,253.7,555.3,254.1,555.2,254.8z"/>
</svg>
