<svg id="Layer_1" data-name="Layer 1" xmlns="http://www.w3.org/2000/svg" viewBox="0 0 93.9 94.08"><path d="M96.81,91a4.72,4.72,0,0,0-4.87-5c-.44,0-.88,0-1.37,0V60c0-3.42-1.86-5.28-5.27-5.28H65.5v-1.1c0-2.63,0-5.27,0-7.9a7.27,7.27,0,0,0-.13-1.55,4.58,4.58,0,0,0-4.45-3.55c-1.58,0-3.16,0-4.76,0v0H43.54v0c-1.64,0-3.2,0-4.75,0a4.58,4.58,0,0,0-4.54,4.49c0,1.8,0,3.61,0,5.42,0,.32,0,.64,0,1H14.49c-3.47,0-5.32,1.86-5.32,5.33V86.09H8A4.15,4.15,0,0,0,4.68,87.2a18.53,18.53,0,0,0-1.76,2.71v3.31a5.26,5.26,0,0,0,3.85,3.86H93a4.89,4.89,0,0,0,3.78-3.93A12.34,12.34,0,0,0,96.81,91ZM65.57,57.89H85.23c1.75,0,2.21.47,2.21,2.24V86H65.57Zm-28.21-12c0-1.72.45-2.16,2.18-2.16H60.35c1.5,0,2,.49,2,1.94v39.6c0,.21,0,.42,0,.73h-25V45.94ZM12.3,85V56.93c0-1.7.47-2.17,2.18-2.17h19.7V86H12.3Zm81.38,7.47A1.63,1.63,0,0,1,92,94H8.33c-.85,0-1.87,0-2.06-.93a8.55,8.55,0,0,1,.13-3.1c0-.28.7-.51,1.11-.66a3.32,3.32,0,0,1,1,0H91.22a5,5,0,0,1,1.45.14C93.62,89.68,93.93,90.72,93.68,92.51Z" transform="translate(-2.92 -3)" style="fill:#1c2f59"/><path d="M47.64,33.63c2.28-1.27,2.46-1.37,4.36-.16h0l4.48,2.3a4.79,4.79,0,0,0,5.82-5.84c-.29-1.56-.58-3.13-1-4.67a1.43,1.43,0,0,1,.56-1.65c1.34-1.17,2.66-2.35,3.92-3.6a4.41,4.41,0,0,0,1.11-4.82A4.45,4.45,0,0,0,63.13,12c-1.87-.28-3.76-.44-5.63-.73a1.44,1.44,0,0,1-.91-.65A35.6,35.6,0,0,1,54.88,7a6,6,0,0,0-4.1-4H49.13A5.82,5.82,0,0,0,45,6.83c-.5,1.28-1.17,2.49-1.73,3.75a1.08,1.08,0,0,1-1,.76c-1.79.17-3.57.4-5.36.62a4.59,4.59,0,0,0-4.07,3.34,4.57,4.57,0,0,0,1.48,5.06c1.26,1.16,2.51,2.32,3.8,3.45A1,1,0,0,1,38.56,25c-.4,1.76-.74,3.53-1.06,5.31A4.53,4.53,0,0,0,39,34.68a4.78,4.78,0,0,0,4.52,1.08v.07l3.7-2C47.32,33.75,47.5,33.71,47.64,33.63ZM43.36,32.4a1.74,1.74,0,0,1-2.71-2c.45-2,.83-4.07,1.16-5.74a3.09,3.09,0,0,0-1.06-2.71c-1.36-1.23-2.71-2.48-4.07-3.7-.6-.53-1.1-1.08-.82-2A1.83,1.83,0,0,1,37.69,15c1.76-.2,3.52-.45,5.28-.59a3.35,3.35,0,0,0,3-2.16c.71-1.63,1.49-3.22,2.22-4.83a1.82,1.82,0,0,1,1.72-1.28,1.85,1.85,0,0,1,1.7,1.31c.75,1.64,1.54,3.26,2.28,4.91a3.23,3.23,0,0,0,2.89,2c1.86.17,3.7.42,5.55.63A1.69,1.69,0,0,1,64,16.2a1.78,1.78,0,0,1-.69,1.94c-1.4,1.24-2.76,2.51-4.15,3.76a3,3,0,0,0-1,3.12c.39,1.73.71,3.48,1.06,5.21.17.81.26,1.6-.5,2.18a1.91,1.91,0,0,1-2.3-.06c-1.51-.86-3.06-1.67-4.56-2.55a3.32,3.32,0,0,0-3.7,0C46.54,30.7,44.93,31.52,43.36,32.4Z" transform="translate(-2.92 -3)" style="fill:#1c2f59"/><path d="M2.92,93.22v3.86H6.77A5.26,5.26,0,0,1,2.92,93.22Z" transform="translate(-2.92 -3)" style="fill:#1c2f59"/><path d="M43,71.83a2.7,2.7,0,0,0,1.07.15H55.69a3.59,3.59,0,0,0,.73,0,1.43,1.43,0,0,0,1.25-1.47A1.38,1.38,0,0,0,56.58,69a5.68,5.68,0,0,0-1.37-.11c-1.23,0-2.47,0-3.77,0V50.43a1.72,1.72,0,0,0-1-1.82,1.7,1.7,0,0,0-2,.56C47.12,50.59,45.7,52,44.3,53.4a1.59,1.59,0,1,0,2.21,2.22c.54-.52,1.06-1,1.73-1.72V68.84H47.08c-1.16,0-2.32,0-3.48,0a1.47,1.47,0,0,0-1.52,1.32A1.44,1.44,0,0,0,43,71.83Z" transform="translate(-2.92 -3)" style="fill:#1c2f59"/><path d="M29.74,78.31a6.69,6.69,0,0,0-1,0H22.33c.45-.47.73-.74,1-1,1.27-1.48,2.61-2.92,3.78-4.48a11.26,11.26,0,0,0,2.42-7.35,6.24,6.24,0,0,0-12.47,0,2.16,2.16,0,0,0,.17,1,1.39,1.39,0,0,0,1.57.84,1.6,1.6,0,0,0,1.37-1.61,3.11,3.11,0,0,1,2.22-2.93c2.35-.68,4.31,1.22,4,3.87a10.25,10.25,0,0,1-2.75,5.6c-1.87,2.1-3.83,4.12-5.78,6.15-.59.61-1.06,1.22-.68,2.1s1.15,1,2,1H29a4.14,4.14,0,0,0,1-.1,1.43,1.43,0,0,0,1.11-1.59A1.42,1.42,0,0,0,29.74,78.31Z" transform="translate(-2.92 -3)" style="fill:#1c2f59"/><path d="M82.07,64.49A6.26,6.26,0,0,0,70.22,67c0,1.06.5,1.73,1.4,1.81s1.61-.51,1.72-1.6c0-.09,0-.18,0-.28a3.13,3.13,0,1,1,3.11,3.49,1.56,1.56,0,0,0,0,3.12l.36,0a3.13,3.13,0,1,1-3.47,3.12,1.56,1.56,0,1,0-3.12.16,5.21,5.21,0,0,0,0,.55A6.26,6.26,0,1,0,80.66,72l.37-.43A6.25,6.25,0,0,0,82.07,64.49Z" transform="translate(-2.92 -3)" style="fill:#1c2f59"/><path d="M52,33.47l.54.34a.92.92,0,0,1,.43.61c0,2,0,4.08,0,6.2h3.17V35.77a1.69,1.69,0,0,1,.32,0L52,33.47Z" transform="translate(-2.92 -3)" style="fill:#1c2f59"/><path d="M46.74,38.19c0-1.17,0-2.33,0-3.49,0-.29.28-.58.47-.84l-3.7,2v4.79h3.2Z" transform="translate(-2.92 -3)" style="fill:#1c2f59"/></svg>