<svg id="Layer_1" data-name="Layer 1" xmlns="http://www.w3.org/2000/svg" viewBox="0 0 800 800"><path d="M5.36,49.46,40,119.6a5.55,5.55,0,0,0,4.2,3.05l77.41,11.25a5.58,5.58,0,0,1,3.09,9.52l-56,54.6a5.59,5.59,0,0,0-1.6,4.94l13.22,77.1a5.58,5.58,0,0,1-8.1,5.88L3,249.54a5.6,5.6,0,0,0-5.19,0l-69.24,36.4a5.58,5.58,0,0,1-8.1-5.88L-66.36,203A5.57,5.57,0,0,0-68,198l-56-54.6a5.58,5.58,0,0,1,3.09-9.52l77.41-11.25a5.55,5.55,0,0,0,4.2-3.05L-4.65,49.46A5.58,5.58,0,0,1,5.36,49.46Z" style="fill:#fc0"/><path d="M804.65,49.46l34.62,70.14a5.55,5.55,0,0,0,4.2,3.05l77.41,11.25a5.58,5.58,0,0,1,3.09,9.52L868,198a5.57,5.57,0,0,0-1.6,4.94l13.22,77.1a5.58,5.58,0,0,1-8.1,5.88l-69.24-36.4a5.6,5.6,0,0,0-5.19,0l-69.24,36.4a5.58,5.58,0,0,1-8.1-5.88L732.93,203a5.59,5.59,0,0,0-1.6-4.94l-56-54.6a5.58,5.58,0,0,1,3.09-9.52l77.41-11.25a5.55,5.55,0,0,0,4.2-3.05l34.62-70.14A5.58,5.58,0,0,1,804.65,49.46Z" style="fill:#fc0"/><path d="M446.74,92.64,473.08,19a5.6,5.6,0,0,0-.72-5.15L426.62-49.61a5.59,5.59,0,0,1,4.69-8.85l78.19,2.3a5.6,5.6,0,0,0,4.67-2.28l46.21-63.11a5.59,5.59,0,0,1,9.87,1.73l22,75.07A5.62,5.62,0,0,0,595.84-41l74.3,24.45a5.58,5.58,0,0,1,1.4,9.91l-64.6,44.1A5.61,5.61,0,0,0,604.5,42l-.3,78.22a5.58,5.58,0,0,1-9,4.4L533.3,76.85a5.57,5.57,0,0,0-5.12-.9L453.7,99.84A5.58,5.58,0,0,1,446.74,92.64Z" style="fill:#fc0"/><path d="M446.74,892.64,473.08,819a5.6,5.6,0,0,0-.72-5.15l-45.74-63.45a5.59,5.59,0,0,1,4.69-8.85l78.19,2.3a5.6,5.6,0,0,0,4.67-2.28l46.21-63.11a5.59,5.59,0,0,1,9.87,1.73l22,75.07a5.62,5.62,0,0,0,3.62,3.74l74.3,24.45a5.58,5.58,0,0,1,1.4,9.91l-64.6,44.1A5.61,5.61,0,0,0,604.5,842l-.3,78.22a5.58,5.58,0,0,1-9,4.4L533.3,876.85a5.57,5.57,0,0,0-5.12-.9L453.7,899.84A5.58,5.58,0,0,1,446.74,892.64Z" style="fill:#fc0"/><path d="M483,446.7l72.39-29.62a5.6,5.6,0,0,0,3.34-4l16.63-76.43a5.59,5.59,0,0,1,9.72-2.42l50.54,59.7a5.57,5.57,0,0,0,4.82,1.94l77.83-7.8a5.59,5.59,0,0,1,5.31,8.5l-41.15,66.51a5.59,5.59,0,0,0-.37,5.19l31.47,71.61a5.59,5.59,0,0,1-6.44,7.67l-76-18.58a5.58,5.58,0,0,0-5,1.25l-58.38,52.06a5.58,5.58,0,0,1-9.28-3.75l-5.81-78a5.6,5.6,0,0,0-2.75-4.41l-67.55-39.44A5.58,5.58,0,0,1,483,446.7Z" style="fill:#fc0"/><path d="M230.14,332l19.77-75.68a5.55,5.55,0,0,0-1.18-5.06L197.6,192.1a5.58,5.58,0,0,1,3.9-9.22l78.08-4.58a5.59,5.59,0,0,0,4.45-2.69l40.5-66.92a5.58,5.58,0,0,1,10,.86L363,182.39a5.58,5.58,0,0,0,3.93,3.41l76.16,17.83a5.58,5.58,0,0,1,2.26,9.75L384.87,263a5.59,5.59,0,0,0-2,4.78l6.58,77.94a5.58,5.58,0,0,1-8.57,5.18L315,308.7a5.57,5.57,0,0,0-5.18-.45l-72.09,30.34A5.58,5.58,0,0,1,230.14,332Z" style="fill:#fc0"/><path d="M73.39,659.34l46.31-63a5.62,5.62,0,0,0,.77-5.14L94.79,517.28a5.58,5.58,0,0,1,7-7.13l74.26,24.56a5.58,5.58,0,0,0,5.13-.85l62.33-47.25a5.58,5.58,0,0,1,9,4.47l-.41,78.22a5.57,5.57,0,0,0,2.39,4.61l64.2,44.69a5.58,5.58,0,0,1-1.49,9.9l-74.52,23.78A5.57,5.57,0,0,0,239,656l-22.66,74.87a5.59,5.59,0,0,1-9.88,1.64L160.85,669a5.56,5.56,0,0,0-4.65-2.33L78,668.23A5.58,5.58,0,0,1,73.39,659.34Z" style="fill:#fc0"/></svg>