<svg id="Capa_1" data-name="Capa 1" xmlns="http://www.w3.org/2000/svg" viewBox="0 0 480.01 480.01"><defs><style>.cls-1{fill:#0a2850;}</style></defs><path class="cls-1" d="M96,473.51a4.51,4.51,0,0,1-4.5-4.5V95A4.51,4.51,0,0,1,96,90.51l288-2a4.51,4.51,0,0,1,4.53,4.5V397a4.52,4.52,0,0,1-1.5,3.36c-17.91,16-34,22.19-47.85,18.51-12.93-3.43-20-14.54-23-20.7L97.47,473.27A4.56,4.56,0,0,1,96,473.51Zm4.5-374V462.71l216.69-74.4a4.5,4.5,0,0,1,5.73,2.83c.05.14,5.46,15.61,18.6,19.06,10.37,2.73,23.14-2.4,38-15.23V97.54Z"/><path class="cls-1" d="M96,473.51a4.5,4.5,0,0,1-1.46-8.76L317.2,388.31a4.51,4.51,0,0,1,5.73,2.82c3.06,9.11,7.83,14.53,14.59,16.58,14.87,4.52,36.62-6.77,43.74-12.26a4.5,4.5,0,0,1,7.1,2.4c1.48,5.56.37,11-3.32,16.11-13.64,19-66.59,33.11-157.37,45.91C160.81,469.29,96.94,473.46,96.3,473.5Zm220-75.28L130.88,461.79c83.78-7.39,225.76-23.71,246.85-53.08l.16-.23c-10.38,6.18-28,12.38-43,7.85C326.49,413.77,320.16,407.69,316,398.23Z"/><path class="cls-1" d="M53.54,206.38a4.42,4.42,0,0,1-2-.47,4.49,4.49,0,0,1-2.45-4.69c1.53-10.27,1.89-21.16.8-23.63C48,176,38.84,174.8,30.35,175a4.52,4.52,0,0,1-3.62-1.7,4.48,4.48,0,0,1-.84-3.91c2.06-8.13,2.76-17.2,1.47-19.15-2-1.53-12.13-1.94-21.42-.85a4.5,4.5,0,0,1-3.71-7.65L131.92,12.05a4.5,4.5,0,0,1,7.67,2.87c.62,9,1.91,19.69,3,23.59,3.48,0,11.83-1.35,18.66-2.84A4.5,4.5,0,0,1,166.63,41c-1.72,7.87-2.74,16.32-2.39,19.33,3.39,1,13.75,1.58,22.28,1.43a4.5,4.5,0,0,1,3.3,7.65L56.75,205A4.46,4.46,0,0,1,53.54,206.38ZM35.85,166c8.38.27,18.64,1.7,21.72,6.86,2,3.32,2.19,10.1,1.81,16.63L176,70.7c-15.61-.6-17.93-3.34-18.79-4.36s-3.53-4.16-.67-20.51c-15.8,3-18.33,1.15-19.49.34-1.36-1-3.73-2.64-5.58-20.9L17,139.72c6.81,0,14,1,17.1,4.49C38.12,148.76,37.21,158.77,35.85,166ZM143,39.67h0Z"/><path class="cls-1" d="M423.55,203.65a4.48,4.48,0,0,1-3.15-1.29L284.79,69.3a4.5,4.5,0,0,1,3.82-7.66c10.27,1.53,21.16,1.89,23.62.8,1.55-1.86,2.79-11.06,2.6-19.55a4.5,4.5,0,0,1,5.61-4.46c8.13,2.07,17.2,2.76,19.16,1.48,1.52-2,1.93-12.13.84-21.42a4.5,4.5,0,0,1,7.65-3.71L477.77,144.46a4.49,4.49,0,0,1-2.86,7.67c-9,.63-19.69,1.91-23.59,3,0,3.48,1.34,11.84,2.84,18.66a4.5,4.5,0,0,1-5.36,5.36c-7.87-1.71-16.32-2.73-19.33-2.38-1,3.38-1.58,13.75-1.42,22.28a4.51,4.51,0,0,1-4.5,4.58ZM300.32,71.93,419.12,188.5c.6-15.6,3.35-17.93,4.36-18.79s4.17-3.52,20.52-.66c-2.95-15.8-1.16-18.34-.34-19.5,1-1.35,2.63-3.73,20.9-5.58L350.1,29.52c0,6.8-1,14-4.49,17.09-4.54,4.06-14.56,3.15-21.8,1.79-.27,8.37-1.7,18.64-6.86,21.71C313.64,72.09,306.86,72.3,300.32,71.93Z"/><path class="cls-1" d="M300.67,316.66h-128a4.5,4.5,0,0,1-4.5-4.5V164.7a4.5,4.5,0,0,1,4.5-4.5h128a4.49,4.49,0,0,1,4.5,4.5V312.16A4.49,4.49,0,0,1,300.67,316.66Zm-123.5-9h119V169.2h-119Z"/><path class="cls-1" d="M305.2,348.51H167.36a4.5,4.5,0,0,1,0-9H305.2a4.5,4.5,0,1,1,0,9Z"/><path class="cls-1" d="M201.67,380.51H167.36a4.5,4.5,0,0,1,0-9h34.31a4.5,4.5,0,0,1,0,9Z"/><path class="cls-1" d="M220.67,412.51H167.36a4.5,4.5,0,0,1,0-9h53.31a4.5,4.5,0,0,1,0,9Z"/><path class="cls-1" d="M307.2,380.51H223.67a4.5,4.5,0,1,1,0-9H307.2a4.5,4.5,0,1,1,0,9Z"/><rect class="cls-1" x="164.67" y="120.01" width="16" height="24"/><rect class="cls-1" x="196.67" y="120.01" width="16" height="24"/><rect class="cls-1" x="228.67" y="120.01" width="16" height="24"/><rect class="cls-1" x="260.67" y="120.01" width="16" height="24"/><rect class="cls-1" x="292.67" y="120.01" width="16" height="24"/></svg>