<svg id="Layer_1" data-name="Layer 1" xmlns="http://www.w3.org/2000/svg" viewBox="0 0 1024.47 795.35"><defs><style>.cls-1{fill:#0a2850;}</style></defs><g id="Template"><path class="cls-1" d="M445,242H265a8,8,0,0,1,0-16H445a8,8,0,0,1,0,16Z"/><path class="cls-1" d="M445,145H265a8,8,0,0,1,0-16H445a8,8,0,0,1,0,16Z"/><path class="cls-1" d="M445,274H265a8,8,0,0,1,0-16H445a8,8,0,0,1,0,16Z"/><path class="cls-1" d="M445,306H265a8,8,0,0,1,0-16H445a8,8,0,0,1,0,16Z"/><path class="cls-1" d="M223.8,64.3v372a8,8,0,0,1-8,8H66.8a8,8,0,0,1-8-8V64.3a8,8,0,0,1,8-8h149A8,8,0,0,1,223.8,64.3Zm-16,364V72.3H74.8v356Z"/><path class="cls-1" d="M472,16H40A23.94,23.94,0,0,0,16,40V472a23.94,23.94,0,0,0,24,24H472a23.94,23.94,0,0,0,24-24V40A23.94,23.94,0,0,0,472,16Zm8,456a8,8,0,0,1-8,8H40a8,8,0,0,1-8-8V40a8,8,0,0,1,8-8H472a8,8,0,0,1,8,8Z"/></g><g id="Template-2" data-name="Template"><path class="cls-1" d="M757.5,661.2H587.2a8,8,0,0,1,0-16H757.5a8,8,0,0,1,0,16Z"/><path class="cls-1" d="M757.5,693.2H587.2a8,8,0,0,1,0-16H757.5a8,8,0,0,1,0,16Z"/><path class="cls-1" d="M757.5,725.2H587.2a8,8,0,0,1,0-16H757.5a8,8,0,0,1,0,16Z"/><path class="cls-1" d="M958,661.2H787.7a8,8,0,0,1,0-16H958a8,8,0,0,1,0,16Z"/><path class="cls-1" d="M958,693.2H787.7a8,8,0,0,1,0-16H958a8,8,0,0,1,0,16Z"/><path class="cls-1" d="M958,725.2H787.7a8,8,0,0,1,0-16H958a8,8,0,0,1,0,16Z"/><path class="cls-1" d="M988.5,299.2h-432a23.94,23.94,0,0,0-24,24v432a23.94,23.94,0,0,0,24,24h432a23.94,23.94,0,0,0,24-24v-432A24,24,0,0,0,988.5,299.2Zm8,456a8,8,0,0,1-8,8h-432a8,8,0,0,1-8-8v-432a8,8,0,0,1,8-8h432a8,8,0,0,1,8,8Z"/></g><path class="cls-1" d="M971.1,351V602a8,8,0,0,1-8,8h-378a8,8,0,0,1-8-8V351a8,8,0,0,1,8-8h378A8,8,0,0,1,971.1,351Zm-16,243V359h-362V594Z"/><circle class="cls-1" cx="425.3" cy="426.6" r="9"/><circle class="cls-1" cx="382.2" cy="449.1" r="9"/><circle class="cls-1" cx="382.2" cy="399.6" r="9"/><circle class="cls-1" cx="430" cy="364.5" r="9"/><circle class="cls-1" cx="385.8" cy="56.6" r="9"/><circle class="cls-1" cx="444.4" cy="60.2" r="9"/><circle class="cls-1" cx="415.6" cy="93.5" r="9"/></svg>