<svg id="Layer_1" data-name="Layer 1" xmlns="http://www.w3.org/2000/svg" viewBox="0 0 100 88"><rect x="21.57" y="9.05" width="75.08" height="75.08" rx="9.48" style="fill:#fff"/><path d="M96.65,18.53a9.48,9.48,0,0,0-9.48-9.48H31.05a9.49,9.49,0,0,0-9.48,9.48v7.59H96.65Z" style="fill:#5bb0d8"/><path d="M87.17,86.13H31.05A11.49,11.49,0,0,1,19.57,74.65V18.53A11.49,11.49,0,0,1,31.05,7.05H87.17A11.49,11.49,0,0,1,98.65,18.53V74.65A11.49,11.49,0,0,1,87.17,86.13ZM31.05,11.05a7.49,7.49,0,0,0-7.48,7.48V74.65a7.49,7.49,0,0,0,7.48,7.48H87.17a7.48,7.48,0,0,0,7.48-7.48V18.53a7.49,7.49,0,0,0-7.48-7.48Z" style="fill:#d5d6d9"/><path d="M98.65,28.12H19.57V18.53A11.49,11.49,0,0,1,31.05,7.05H87.17A11.49,11.49,0,0,1,98.65,18.53Zm-75.08-4H94.65V18.53a7.49,7.49,0,0,0-7.48-7.48H31.05a7.49,7.49,0,0,0-7.48,7.48Z" style="fill:#209ecf"/><rect x="21.57" y="23.34" width="75.08" height="2.78" style="fill:#209ecf"/><circle cx="31.94" cy="14.37" r="1.99" style="fill:#1f3a79"/><circle cx="39.66" cy="14.37" r="1.99" style="fill:#1f3a79"/><circle cx="47.38" cy="14.37" r="1.99" style="fill:#1f3a79"/><circle cx="55.1" cy="14.37" r="1.99" style="fill:#1f3a79"/><circle cx="62.82" cy="14.37" r="1.99" style="fill:#1f3a79"/><circle cx="70.54" cy="14.37" r="1.99" style="fill:#1f3a79"/><circle cx="78.26" cy="14.37" r="1.99" style="fill:#1f3a79"/><circle cx="85.98" cy="14.37" r="1.99" style="fill:#1f3a79"/><rect x="30.57" y="1.75" width="2.75" height="13.08" rx="1.37"/><path d="M30.57,3.12V13.46a1.37,1.37,0,0,0,1.35,1.37V1.75A1.37,1.37,0,0,0,30.57,3.12Z" style="opacity:0.07"/><path d="M39.66,1.75h0a1.38,1.38,0,0,0-1.37,1.37V13.46a1.38,1.38,0,0,0,1.37,1.37h0A1.37,1.37,0,0,0,41,13.46V3.12A1.37,1.37,0,0,0,39.66,1.75Z"/><path d="M38.29,3.12V13.46a1.37,1.37,0,0,0,1.35,1.37V1.75A1.37,1.37,0,0,0,38.29,3.12Z" style="opacity:0.07"/><rect x="46.01" y="1.75" width="2.75" height="13.08" rx="1.37"/><path d="M46,3.12V13.46a1.37,1.37,0,0,0,1.35,1.37V1.75A1.37,1.37,0,0,0,46,3.12Z" style="opacity:0.07"/><rect x="53.73" y="1.75" width="2.75" height="13.08" rx="1.37"/><path d="M53.73,3.12V13.46a1.37,1.37,0,0,0,1.35,1.37V1.75A1.37,1.37,0,0,0,53.73,3.12Z" style="opacity:0.07"/><path d="M62.82,1.75h0a1.38,1.38,0,0,0-1.37,1.37V13.46a1.38,1.38,0,0,0,1.37,1.37h0a1.37,1.37,0,0,0,1.37-1.37V3.12A1.37,1.37,0,0,0,62.82,1.75Z"/><path d="M61.45,3.12V13.46a1.37,1.37,0,0,0,1.35,1.37V1.75A1.37,1.37,0,0,0,61.45,3.12Z" style="opacity:0.07"/><rect x="69.17" y="1.75" width="2.75" height="13.08" rx="1.37"/><path d="M69.17,3.12V13.46a1.37,1.37,0,0,0,1.35,1.37V1.75A1.37,1.37,0,0,0,69.17,3.12Z" style="opacity:0.07"/><rect x="76.89" y="1.75" width="2.75" height="13.08" rx="1.37"/><path d="M76.89,3.12V13.46a1.37,1.37,0,0,0,1.35,1.37V1.75A1.37,1.37,0,0,0,76.89,3.12Z" style="opacity:0.07"/><path d="M86,1.75h0a1.38,1.38,0,0,0-1.37,1.37V13.46A1.38,1.38,0,0,0,86,14.83h0a1.37,1.37,0,0,0,1.37-1.37V3.12A1.37,1.37,0,0,0,86,1.75Z"/><path d="M84.61,3.12V13.46A1.37,1.37,0,0,0,86,14.83V1.75A1.37,1.37,0,0,0,84.61,3.12Z" style="opacity:0.07"/><rect x="20.4" y="31.88" width="7.46" height="45.22" rx="3.73" transform="translate(78.63 30.36) rotate(90)" style="fill:#209ecf"/><rect x="42.52" y="37.5" width="7.46" height="23" rx="3.73" transform="translate(113.6 50.95) rotate(135)" style="fill:#209ecf"/><rect x="42.52" y="48.49" width="7.46" height="23" rx="3.73" transform="translate(55.97 -15.13) rotate(45)" style="fill:#209ecf"/></svg>