<svg id="Layer_1" data-name="Layer 1" xmlns="http://www.w3.org/2000/svg" viewBox="0 0 108 88"><rect x="2.95" y="9.05" width="75.08" height="75.08" rx="9.48" style="fill:#fff"/><path d="M78,18.53a9.48,9.48,0,0,0-9.48-9.48H12.43A9.49,9.49,0,0,0,3,18.53v7.59H78Z" style="fill:#f24444"/><path d="M68.55,86.13H12.43A11.49,11.49,0,0,1,1,74.65V18.53A11.49,11.49,0,0,1,12.43,7.05H68.55A11.49,11.49,0,0,1,80,18.53V74.65A11.49,11.49,0,0,1,68.55,86.13ZM12.43,11.05A7.49,7.49,0,0,0,5,18.53V74.65a7.49,7.49,0,0,0,7.48,7.48H68.55A7.48,7.48,0,0,0,76,74.65V18.53a7.49,7.49,0,0,0-7.48-7.48Z" style="fill:#d5d6d9"/><path d="M80,28.12H1V18.53A11.49,11.49,0,0,1,12.43,7.05H68.55A11.49,11.49,0,0,1,80,18.53ZM5,24.12H76V18.53a7.49,7.49,0,0,0-7.48-7.48H12.43A7.49,7.49,0,0,0,5,18.53Z" style="fill:#d83c44"/><rect x="2.95" y="23.34" width="75.08" height="2.78" style="fill:#d83c44"/><circle cx="13.32" cy="14.37" r="1.99" style="fill:#b33338"/><circle cx="21.04" cy="14.37" r="1.99" style="fill:#b33338"/><circle cx="28.76" cy="14.37" r="1.99" style="fill:#b33338"/><circle cx="36.48" cy="14.37" r="1.99" style="fill:#b33338"/><circle cx="44.2" cy="14.37" r="1.99" style="fill:#b33338"/><circle cx="51.92" cy="14.37" r="1.99" style="fill:#b33338"/><circle cx="59.64" cy="14.37" r="1.99" style="fill:#b33338"/><circle cx="67.36" cy="14.37" r="1.99" style="fill:#b33338"/><rect x="11.95" y="1.75" width="2.75" height="13.08" rx="1.37"/><path d="M12,3.12V13.46a1.37,1.37,0,0,0,1.35,1.37V1.75A1.37,1.37,0,0,0,12,3.12Z" style="opacity:0.07"/><path d="M21,1.75h0a1.38,1.38,0,0,0-1.37,1.37V13.46A1.38,1.38,0,0,0,21,14.83h0a1.38,1.38,0,0,0,1.38-1.37V3.12A1.38,1.38,0,0,0,21,1.75Z"/><path d="M19.67,3.12V13.46A1.37,1.37,0,0,0,21,14.83V1.75A1.37,1.37,0,0,0,19.67,3.12Z" style="opacity:0.07"/><rect x="27.39" y="1.75" width="2.75" height="13.08" rx="1.37"/><path d="M27.39,3.12V13.46a1.37,1.37,0,0,0,1.35,1.37V1.75A1.37,1.37,0,0,0,27.39,3.12Z" style="opacity:0.07"/><rect x="35.11" y="1.75" width="2.75" height="13.08" rx="1.37"/><path d="M35.11,3.12V13.46a1.37,1.37,0,0,0,1.35,1.37V1.75A1.37,1.37,0,0,0,35.11,3.12Z" style="opacity:0.07"/><path d="M44.2,1.75h0a1.38,1.38,0,0,0-1.37,1.37V13.46a1.38,1.38,0,0,0,1.37,1.37h0a1.38,1.38,0,0,0,1.38-1.37V3.12A1.38,1.38,0,0,0,44.2,1.75Z"/><path d="M42.83,3.12V13.46a1.37,1.37,0,0,0,1.35,1.37V1.75A1.37,1.37,0,0,0,42.83,3.12Z" style="opacity:0.07"/><rect x="50.55" y="1.75" width="2.75" height="13.08" rx="1.37"/><path d="M50.55,3.12V13.46a1.37,1.37,0,0,0,1.35,1.37V1.75A1.37,1.37,0,0,0,50.55,3.12Z" style="opacity:0.07"/><rect x="58.27" y="1.75" width="2.75" height="13.08" rx="1.37"/><path d="M58.27,3.12V13.46a1.37,1.37,0,0,0,1.35,1.37V1.75A1.37,1.37,0,0,0,58.27,3.12Z" style="opacity:0.07"/><path d="M67.36,1.75h0A1.38,1.38,0,0,0,66,3.12V13.46a1.38,1.38,0,0,0,1.37,1.37h0a1.38,1.38,0,0,0,1.38-1.37V3.12A1.38,1.38,0,0,0,67.36,1.75Z"/><path d="M66,3.12V13.46a1.37,1.37,0,0,0,1.35,1.37V1.75A1.37,1.37,0,0,0,66,3.12Z" style="opacity:0.07"/><rect x="71.79" y="31.88" width="7.46" height="45.22" rx="3.73" transform="translate(130.01 -21.02) rotate(90)" style="fill:#f24444"/><rect x="93.9" y="37.5" width="7.46" height="23" rx="3.73" transform="translate(201.32 14.62) rotate(135)" style="fill:#f24444"/><rect x="93.9" y="48.49" width="7.46" height="23" rx="3.73" transform="translate(71.02 -51.46) rotate(45)" style="fill:#f24444"/></svg>