<svg id="Layer_1" data-name="Layer 1" xmlns="http://www.w3.org/2000/svg" viewBox="0 0 89 87"><path d="M87.27,62.46c0-7.11,0-26.37,0-31.36a7.32,7.32,0,0,0-5.67-7c-.67-.16-1.36-.2-2.14-.31V7a6.17,6.17,0,0,0,0-.86A5.79,5.79,0,0,0,73.28.79H15.93a5.47,5.47,0,0,0-.81,0A5.8,5.8,0,0,0,9.73,7V23.75h0c-.29,0-.5.07-.72.07a7.36,7.36,0,0,0-7.1,7.47V79a7.32,7.32,0,0,0,7.5,7.16H79.77a2.41,2.41,0,0,0,.38,0,7.36,7.36,0,0,0,7.14-7.55V62.52S87.27,62.48,87.27,62.46Z" style="fill:#fff"/><rect x="1.91" y="0.79" width="85.38" height="85.37" style="fill:none"/><path id="Path_12877" data-name="Path 12877" d="M9.73,23.75V7A5.8,5.8,0,0,1,15.12.79a5.47,5.47,0,0,1,.81,0H73.28a5.79,5.79,0,0,1,6.18,5.36,6.17,6.17,0,0,1,0,.86V23.75c.78.11,1.47.15,2.14.31a7.32,7.32,0,0,1,5.67,7c0,5.39,0,27.45,0,32.85a1.7,1.7,0,0,1-1.52,1.87h-.16A1.72,1.72,0,0,1,83.93,64a.49.49,0,0,1,0-.12V36.54L62.78,54,83.94,73.24V62.78a1.68,1.68,0,0,1,3.35-.26v16.1a7.36,7.36,0,0,1-7.14,7.55,2.41,2.41,0,0,1-.38,0H9.41A7.32,7.32,0,0,1,1.91,79V31.3A7.36,7.36,0,0,1,9,23.83c.22,0,.43,0,.72-.07M44.6,4.14H16.1c-2.16,0-3,.87-3,3V37.76a1.69,1.69,0,0,0,.68,1.48Q26.87,50,40,60.87a2,2,0,0,0,1.18.44c2.31,0,4.61,0,6.92,0a2.11,2.11,0,0,0,1.18-.44L75.57,39.19a1.56,1.56,0,0,0,.61-1.34V7.09c-.06-2-1-2.95-3-2.95H44.6m15.59,52C57,58.83,53.84,61.44,50.66,64a3.07,3.07,0,0,1-1.72.63c-2.92.07-5.84.06-8.75,0a2.92,2.92,0,0,1-1.58-.57c-1-.75-2-1.6-3-2.42L29.05,56.2a1.06,1.06,0,0,0-.2.12Q17.21,66.88,5.6,77.45a1.05,1.05,0,0,0-.33.61A4.13,4.13,0,0,0,8.69,82.8a4.33,4.33,0,0,0,.88,0h70a4,4,0,0,0,4.38-3.65,4,4,0,0,0,0-.77,1.67,1.67,0,0,0-.51-1.11Q77,71.41,70.54,65.58L60.19,56.19M5.3,36.56V73.2L26.41,54,5.3,36.56m74.2-.69c1.31-1.08,2.44-2.1,3.67-3A1.83,1.83,0,0,0,84,31a4,4,0,0,0-4.13-3.81l-.32,0Zm-69.83,0V27.26a4.07,4.07,0,0,0-4.45,3.66,4.17,4.17,0,0,0,0,1.06.78.78,0,0,0,.23.39l4.2,3.46" style="fill:#d6d7da"/><path id="Path_12878" data-name="Path 12878" d="M35.76,38.76c.18-1.49.41-3.17.58-4.85a1.5,1.5,0,0,0-.32-1c-1-1.15-2.05-2.25-3.11-3.35a2.82,2.82,0,0,1-.2-4,2.78,2.78,0,0,1,1.78-.91c1.47-.27,2.95-.54,4.4-.88a1.72,1.72,0,0,0,1-.72c.79-1.3,1.49-2.66,2.25-4a2.79,2.79,0,0,1,5.07,0c.76,1.32,1.44,2.68,2.26,4a1.72,1.72,0,0,0,1,.72c1.48.34,3,.59,4.48.89a2.79,2.79,0,0,1,1.59,4.79q-1.5,1.68-3.07,3.28A1.5,1.5,0,0,0,53,34.12c.23,1.5.41,3,.58,4.54a2.79,2.79,0,0,1-2.37,3.16,2.87,2.87,0,0,1-1.58-.24c-1.47-.63-2.9-1.37-4.38-2a1.6,1.6,0,0,0-1.14,0c-1.48.63-2.91,1.37-4.39,2A2.81,2.81,0,0,1,36,40.15a2.86,2.86,0,0,1-.23-1.38" style="fill:#ebd270"/><path id="Path_12879" data-name="Path 12879" d="M28.13,47.82a6.12,6.12,0,0,1-1.29-1.09A1.35,1.35,0,0,1,27,45c1-1,2-2.07,3.05-3a1.64,1.64,0,0,1,2.39,2.23c-1,1.1-2.08,2.14-3.16,3.17a4.51,4.51,0,0,1-1.15.5" style="fill:#e2bd2d"/><path id="Path_12880" data-name="Path 12880" d="M28.22,11.4a7.89,7.89,0,0,1,1.29.75c.94.87,1.83,1.78,2.71,2.69a1.65,1.65,0,0,1,.15,2.34.47.47,0,0,1-.1.1,1.6,1.6,0,0,1-2.28,0,1.14,1.14,0,0,0-.11-.11c-.95-.92-1.91-1.87-2.81-2.83a1.38,1.38,0,0,1-.24-1.82,6.8,6.8,0,0,1,1.39-1.17" style="fill:#e2bd2d"/><path id="Path_12881" data-name="Path 12881" d="M58.07,41.3a7.39,7.39,0,0,1,1.32.73c1,.89,1.88,1.82,2.78,2.77a1.66,1.66,0,0,1-2.23,2.45l-.13-.12c-1-.91-1.85-1.85-2.77-2.77a1.44,1.44,0,0,1-.32-1.84,6.54,6.54,0,0,1,1.35-1.22" style="fill:#e2bd2d"/><path id="Path_12882" data-name="Path 12882" d="M56.56,15.82a3.7,3.7,0,0,1,.48-.9c.89-1,1.82-1.88,2.76-2.78a1.66,1.66,0,1,1,2.47,2.21l-.12.13c-.91,1-1.84,1.87-2.77,2.77a1.59,1.59,0,0,1-1.85.36,1.73,1.73,0,0,1-1-1.79" style="fill:#e2bd2d"/><path id="Path_12883" data-name="Path 12883" d="M64.6,31.29a6.91,6.91,0,0,1-.91,0,1.66,1.66,0,0,1,0-3.31q.91,0,1.83,0a1.62,1.62,0,0,1,1.6,1.62v0a1.63,1.63,0,0,1-1.61,1.65h-.93" style="fill:#ebd270"/><path id="Path_12884" data-name="Path 12884" d="M46.34,9.68a6.34,6.34,0,0,1-.06,1.07,1.6,1.6,0,0,1-1.53,1.39,1.56,1.56,0,0,1-1.68-1.29,10.61,10.61,0,0,1,0-2.39,1.56,1.56,0,0,1,1.67-1.31,1.6,1.6,0,0,1,1.55,1.43,9.73,9.73,0,0,1,0,1.08h0" style="fill:#ebd270"/><path id="Path_12885" data-name="Path 12885" d="M24.73,28a6.91,6.91,0,0,1,.91,0,1.64,1.64,0,0,1,1.52,1.59,1.61,1.61,0,0,1-1.47,1.7,11,11,0,0,1-2,0,1.65,1.65,0,0,1,0-3.29c.33,0,.66,0,1,0h0" style="fill:#ebd270"/><path id="Path_12886" data-name="Path 12886" d="M46.3,49.61a9.73,9.73,0,0,1,0,1.08,1.62,1.62,0,0,1-1.57,1.43,1.58,1.58,0,0,1-1.65-1.33,9.25,9.25,0,0,1,0-2.23,1.59,1.59,0,0,1,1.71-1.44h0a1.6,1.6,0,0,1,1.54,1.55c0,.3,0,.61,0,.91h0" style="fill:#ebd270"/><path id="Path_12887" data-name="Path 12887" d="M44.69,77.65H31.87A1.66,1.66,0,0,1,30,76.22a1.61,1.61,0,0,1,.16-1,1.73,1.73,0,0,1,1.7-1H57.07a3.62,3.62,0,0,1,1.22.15,1.56,1.56,0,0,1,1,1.72,1.61,1.61,0,0,1-1.39,1.43,7.06,7.06,0,0,1-.92,0H44.69" style="fill:#d6d7da"/><path id="Path_12888" data-name="Path 12888" d="M44.62,71H37c-1.25,0-2-.61-2-1.61s.77-1.72,2-1.72H52.37a3.87,3.87,0,0,1,.48,0,1.68,1.68,0,0,1,1.51,1.7A1.62,1.62,0,0,1,52.71,71H44.62Z" style="fill:#d6d7da"/><path id="Path_12878-2" data-name="Path 12878" d="M35.76,38.76c.18-1.49.41-3.17.58-4.85a1.5,1.5,0,0,0-.32-1c-1-1.15-2.05-2.25-3.11-3.35a2.82,2.82,0,0,1-.2-4,2.78,2.78,0,0,1,1.78-.91c1.47-.27,2.95-.54,4.4-.88a1.72,1.72,0,0,0,1-.72c.79-1.3,1.49-2.66,2.25-4a2.79,2.79,0,0,1,5.07,0c.76,1.32,1.44,2.68,2.26,4a1.72,1.72,0,0,0,1,.72c1.48.34,3,.59,4.48.89a2.79,2.79,0,0,1,1.59,4.79q-1.5,1.68-3.07,3.28A1.5,1.5,0,0,0,53,34.12c.23,1.5.41,3,.58,4.54a2.79,2.79,0,0,1-2.37,3.16,2.87,2.87,0,0,1-1.58-.24c-1.47-.63-2.9-1.37-4.38-2a1.6,1.6,0,0,0-1.14,0c-1.48.63-2.91,1.37-4.39,2A2.81,2.81,0,0,1,36,40.15a2.86,2.86,0,0,1-.23-1.38m3.45-.64c1.5-.69,2.87-1.29,4.2-2a2.61,2.61,0,0,1,2.54,0c1.33.67,2.69,1.27,4.17,2-.21-1.71-.37-3.31-.59-4.89a2.06,2.06,0,0,1,.57-1.83c.95-1,1.91-2,2.84-3,.15-.17.28-.36.48-.61-1.59-.32-3-.65-4.52-.88a2.49,2.49,0,0,1-2-1.44c-.69-1.34-1.46-2.64-2.26-4.06-.83,1.5-1.62,2.87-2.39,4.26a2.2,2.2,0,0,1-1.67,1.21c-1.54.27-3.08.6-4.78,1,1,1,1.79,2.07,2.75,2.92a3.42,3.42,0,0,1,1.1,3.51c-.24,1.24-.32,2.51-.48,3.92" style="fill:#e2bd2d"/></svg>