<svg id="Layer_1" data-name="Layer 1" xmlns="http://www.w3.org/2000/svg" viewBox="0 0 82 87"><path d="M41.71,6.07c13.68,0,16,8.72,16,19.47S50.57,45,41.71,45s-16-8.72-16-19.48S28,6.07,41.71,6.07Z" style="fill:#fff"/><path d="M11.47,69.37c.34-18.25,2.94-23.51,21.46-26.85,0,0,2.64,3.35,8.78,3.35s8.78-3.35,8.78-3.35C69.22,45.9,71.67,51.24,72,70a12,12,0,0,0,0,1.3v1.46s-4.46,9-30.29,9-30.28-9-30.28-9v-2C11.43,70.93,11.44,70.86,11.47,69.37Z" style="fill:#fff"/><path d="M41.71,6.07c13.68,0,16,8.72,16,19.47S50.57,45,41.71,45s-16-8.72-16-19.48S28,6.07,41.71,6.07Z" style="fill:none;stroke:#d5d6d9;stroke-miterlimit:10;stroke-width:4px"/><path d="M11.47,69.37c.34-18.25,2.94-23.51,21.46-26.85,0,0,2.64,3.35,8.78,3.35s8.78-3.35,8.78-3.35C69.22,45.9,71.67,51.24,72,70a12,12,0,0,0,0,1.3v1.46s-4.46,9-30.29,9-30.28-9-30.28-9v-2C11.43,70.93,11.44,70.86,11.47,69.37Z" style="fill:none;stroke:#d5d6d9;stroke-miterlimit:10;stroke-width:4px"/><circle cx="65.5" cy="70.5" r="7.5" style="fill:#fff"/><g id="eOShnw.tif"><path d="M54.42,78.07a3.53,3.53,0,0,1,.27-.55c.42-.55.84-1.09,1.28-1.63a.32.32,0,0,0,0-.39c-.31-.7-.6-1.42-.88-2.14-.07-.15-.13-.23-.3-.25-.68-.06-1.35-.16-2-.24A.81.81,0,0,1,52,72V68.74a.82.82,0,0,1,.8-.88l2.05-.24a.29.29,0,0,0,.27-.22q.43-1.09.9-2.19a.29.29,0,0,0,0-.35l-1.29-1.64a.78.78,0,0,1,.06-1.14l2.33-2.33a.78.78,0,0,1,1.14-.06c.55.43,1.1.85,1.64,1.29a.29.29,0,0,0,.35,0c.73-.32,1.47-.61,2.21-.92a.35.35,0,0,0,.18-.23c.1-.68.18-1.36.26-2a.82.82,0,0,1,.9-.83H67a.81.81,0,0,1,.87.8c.08.7.16,1.39.26,2.07a.36.36,0,0,0,.19.23c.73.31,1.47.6,2.2.92a.3.3,0,0,0,.35,0c.54-.44,1.09-.87,1.64-1.29a.79.79,0,0,1,1.15.06L76,62.08A.78.78,0,0,1,76,63.22c-.43.55-.85,1.1-1.29,1.64a.3.3,0,0,0,0,.35c.32.72.62,1.45.91,2.19a.29.29,0,0,0,.26.22c.69.07,1.37.16,2.05.24a.81.81,0,0,1,.8.88V72a.81.81,0,0,1-.8.87l-2.05.25c-.15,0-.21.08-.26.22-.29.73-.59,1.46-.91,2.18a.3.3,0,0,0,0,.35c.44.54.87,1.09,1.3,1.64A.79.79,0,0,1,76,78.65c-.77.78-1.54,1.56-2.32,2.33a.8.8,0,0,1-1.15.07l-1.62-1.28a.32.32,0,0,0-.39,0c-.71.31-1.44.6-2.16.89-.14,0-.21.11-.22.26-.08.68-.17,1.35-.24,2a.83.83,0,0,1-.91.83H63.74a.81.81,0,0,1-.88-.8c-.08-.69-.16-1.38-.26-2.07a.35.35,0,0,0-.18-.22l-2.21-.92a.3.3,0,0,0-.35,0c-.53.44-1.07.86-1.61,1.28A.81.81,0,0,1,57.06,81c-.77-.77-1.54-1.53-2.3-2.32A2.53,2.53,0,0,1,54.42,78.07Zm11-14.38a6.68,6.68,0,1,0,6.68,6.67A6.69,6.69,0,0,0,65.37,63.69Z" style="fill:#209ecf"/></g><g id="eOShnw.tif-2" data-name="eOShnw.tif"><path d="M54.42,78.07a3.53,3.53,0,0,1,.27-.55c.42-.55.84-1.09,1.28-1.63a.32.32,0,0,0,0-.39c-.31-.7-.6-1.42-.88-2.14-.07-.15-.13-.23-.3-.25-.68-.06-1.35-.16-2-.24A.81.81,0,0,1,52,72V68.74a.82.82,0,0,1,.8-.88l2.05-.24a.29.29,0,0,0,.27-.22q.43-1.09.9-2.19a.29.29,0,0,0,0-.35l-1.29-1.64a.78.78,0,0,1,.06-1.14l2.33-2.33a.78.78,0,0,1,1.14-.06c.55.43,1.1.85,1.64,1.29a.29.29,0,0,0,.35,0c.73-.32,1.47-.61,2.21-.92a.35.35,0,0,0,.18-.23c.1-.68.18-1.36.26-2a.82.82,0,0,1,.9-.83H67a.81.81,0,0,1,.87.8c.08.7.16,1.39.26,2.07a.36.36,0,0,0,.19.23c.73.31,1.47.6,2.2.92a.3.3,0,0,0,.35,0c.54-.44,1.09-.87,1.64-1.29a.79.79,0,0,1,1.15.06L76,62.08A.78.78,0,0,1,76,63.22c-.43.55-.85,1.1-1.29,1.64a.3.3,0,0,0,0,.35c.32.72.62,1.45.91,2.19a.29.29,0,0,0,.26.22c.69.07,1.37.16,2.05.24a.81.81,0,0,1,.8.88V72a.81.81,0,0,1-.8.87l-2.05.25c-.15,0-.21.08-.26.22-.29.73-.59,1.46-.91,2.18a.3.3,0,0,0,0,.35c.44.54.87,1.09,1.3,1.64A.79.79,0,0,1,76,78.65c-.77.78-1.54,1.56-2.32,2.33a.8.8,0,0,1-1.15.07l-1.62-1.28a.32.32,0,0,0-.39,0c-.71.31-1.44.6-2.16.89-.14,0-.21.11-.22.26-.08.68-.17,1.35-.24,2a.83.83,0,0,1-.91.83H63.74a.81.81,0,0,1-.88-.8c-.08-.69-.16-1.38-.26-2.07a.35.35,0,0,0-.18-.22l-2.21-.92a.3.3,0,0,0-.35,0c-.53.44-1.07.86-1.61,1.28A.81.81,0,0,1,57.06,81c-.77-.77-1.54-1.53-2.3-2.32A2.53,2.53,0,0,1,54.42,78.07Zm11-14.38a6.68,6.68,0,1,0,6.68,6.67A6.69,6.69,0,0,0,65.37,63.69Z" style="fill:none;stroke:#1074b4;stroke-miterlimit:10;stroke-width:2px"/></g></svg>