<svg id="Layer_1" data-name="Layer 1" xmlns="http://www.w3.org/2000/svg" viewBox="0 0 82 83"><rect x="3.55" y="3.05" width="75.08" height="75.08" rx="9.48" style="fill:#fff"/><path d="M69.15,80.13H13A11.49,11.49,0,0,1,1.55,68.65V12.53A11.49,11.49,0,0,1,13,1.05H69.15A11.49,11.49,0,0,1,80.63,12.53V68.65A11.49,11.49,0,0,1,69.15,80.13ZM13,5.05a7.49,7.49,0,0,0-7.48,7.48V68.65A7.48,7.48,0,0,0,13,76.13H69.15a7.49,7.49,0,0,0,7.48-7.48V12.53a7.49,7.49,0,0,0-7.48-7.48Z" style="fill:#d5d6d9"/><g id="Group_4698" data-name="Group 4698"><g id="Group_4406" data-name="Group 4406"><path id="Path_11742" data-name="Path 11742" d="M45.49,77.14,60.12,51.87q4.58-7.9,9.14-15.8Q64.7,44,60.12,51.87Z" style="fill:#ebd270"/><path id="Path_11743" data-name="Path 11743" d="M42.31,52.34c.71.41,1.44.82,2.14,1.25-.71-.43-1.43-.83-2.14-1.25s-1.43-.84-2.14-1.24C40.88,51.5,41.59,51.92,42.31,52.34Z" style="fill:#ebd270"/><path id="Path_11744" data-name="Path 11744" d="M31.53,49.68c-.75-.41-1.48-.85-2.21-1.28s-1.48-.84-2.21-1.28c.73.44,1.47.86,2.21,1.28S30.78,49.27,31.53,49.68Z" style="fill:#ebd270"/><path id="Path_11745" data-name="Path 11745" d="M9.37,65.46a72.55,72.55,0,0,0,6.61,4,1.42,1.42,0,0,0,1.9-.6c.44-.66.82-1.38,1.29-2a6.19,6.19,0,0,1,10.93,5.3,14.36,14.36,0,0,1-1.25,2.7,1.6,1.6,0,0,0,.27,2.25,1.51,1.51,0,0,0,.42.25c1.68,1,3.35,2,5.07,2.91a9.16,9.16,0,0,0,2.43.92,7.71,7.71,0,0,0,8.46-4L60.13,51.86l9.14-15.8c2-3.41,4-6.8,5.88-10.25a7.45,7.45,0,0,0-2-9.41,71.58,71.58,0,0,0-6.61-4,1.42,1.42,0,0,0-1.91.58c-.43.65-.78,1.35-1.25,2A6.2,6.2,0,0,1,52.73,8.83c.29-.67.68-1.3,1-1.94a1.54,1.54,0,0,0-.38-2.15h0a.89.89,0,0,0-.25-.14c-1.8-1.06-3.6-2.13-5.43-3.14a7.76,7.76,0,0,0-9.32,1.42l0,.05L6.83,57.37A7.48,7.48,0,0,0,9.37,65.46Z" style="fill:#ebd270"/><path id="Path_11746" data-name="Path 11746" d="M29.32,48.4c.73.43,1.46.87,2.21,1.28a1.56,1.56,0,0,0,2.15-.43h0l.06-.1A1.56,1.56,0,0,0,33.13,47h0L33,47c-1.44-.85-2.9-1.69-4.36-2.51A1.55,1.55,0,0,0,27,47h0l.15.09C27.83,47.56,28.58,48,29.32,48.4Z" style="fill:#ebd270"/><path id="Path_11747" data-name="Path 11747" d="M45.15,55.76a1.58,1.58,0,0,0-.63-2.15h0l-.06,0-2.14-1.25c-.72-.42-1.43-.84-2.14-1.24a1.57,1.57,0,0,0-2.2.36,1.53,1.53,0,0,0,.33,2.14l.15.1.11.06c1.44.85,2.9,1.69,4.36,2.52a1.56,1.56,0,0,0,2.17-.43Z" style="fill:#ebd270"/></g><g id="Group_4406-2" data-name="Group 4406-2"><path id="Path_11742-2" data-name="Path 11742-2" d="M45.49,77.14,60.12,51.87q4.58-7.9,9.14-15.8Q64.7,44,60.12,51.87Z" style="fill:#958747"/><path id="Path_11743-2" data-name="Path 11743-2" d="M42.31,52.34c.71.41,1.44.82,2.14,1.25-.71-.43-1.43-.83-2.14-1.25s-1.43-.84-2.14-1.24C40.88,51.5,41.59,51.92,42.31,52.34Z" style="fill:#958747"/><path id="Path_11744-2" data-name="Path 11744-2" d="M31.53,49.68c-.75-.41-1.48-.85-2.21-1.28s-1.48-.84-2.21-1.28c.73.44,1.47.86,2.21,1.28S30.78,49.27,31.53,49.68Z" style="fill:#958747"/><path id="Path_11745-2" data-name="Path 11745-2" d="M9.37,65.46a72.55,72.55,0,0,0,6.61,4,1.42,1.42,0,0,0,1.9-.6c.44-.66.82-1.38,1.29-2a6.19,6.19,0,0,1,10.93,5.3,14.36,14.36,0,0,1-1.25,2.7,1.6,1.6,0,0,0,.27,2.25,1.51,1.51,0,0,0,.42.25c1.68,1,3.35,2,5.07,2.91a9.16,9.16,0,0,0,2.43.92,7.71,7.71,0,0,0,8.46-4L60.13,51.86l9.14-15.8c2-3.41,4-6.8,5.88-10.25a7.45,7.45,0,0,0-2-9.41,71.58,71.58,0,0,0-6.61-4,1.42,1.42,0,0,0-1.91.58c-.43.65-.78,1.35-1.25,2A6.2,6.2,0,0,1,52.73,8.83c.29-.67.68-1.3,1-1.94a1.54,1.54,0,0,0-.38-2.15h0a.89.89,0,0,0-.25-.14c-1.8-1.06-3.6-2.13-5.43-3.14a7.76,7.76,0,0,0-9.32,1.42l0,.05L6.83,57.37A7.48,7.48,0,0,0,9.37,65.46Zm9.5-23.1c.44.25.84.5,1.25.72a1.51,1.51,0,0,0,2.11-.39h0l.09-.15a1.54,1.54,0,0,0-.58-2.1l0,0c-.39-.24-.79-.46-1.28-.74l.41-.7L39.72,6.31A4.7,4.7,0,0,1,46,4.08h0a4.82,4.82,0,0,1,.63.35l3.65,2.11A9.41,9.41,0,1,0,66.6,15.91a50.37,50.37,0,0,1,4.86,3.14,4.41,4.41,0,0,1,.8,5.61c-1.61,2.83-3.26,5.65-4.9,8.47L53.22,57.57l-.47.81c-.47-.28-.89-.54-1.31-.76a1.54,1.54,0,0,0-2.11.49h0l0,.06a1.51,1.51,0,0,0,.51,2.07h0l.1.06c.4.25.83.48,1.31.75l-.44.76L42.84,75.53a4.75,4.75,0,0,1-7,1.89L32.22,75.3a9.45,9.45,0,0,0,.35-8.64,9.33,9.33,0,0,0-11.09-5,9.42,9.42,0,0,0-5.43,4.17A54.52,54.52,0,0,1,11.25,63a4.31,4.31,0,0,1-1.14-5.42C13,52.49,15.9,47.48,18.87,42.35Z" style="fill:#958747"/><path id="Path_11746-2" data-name="Path 11746-2" d="M29.32,48.4c.73.43,1.46.87,2.21,1.28a1.56,1.56,0,0,0,2.15-.43h0l.06-.1A1.56,1.56,0,0,0,33.13,47h0L33,47c-1.44-.85-2.9-1.69-4.36-2.51A1.55,1.55,0,0,0,27,47h0l.15.09C27.83,47.56,28.58,48,29.32,48.4Z" style="fill:#958747"/><path id="Path_11747-2" data-name="Path 11747-2" d="M45.15,55.76a1.58,1.58,0,0,0-.63-2.15h0l-.06,0-2.14-1.25c-.72-.42-1.43-.84-2.14-1.24a1.57,1.57,0,0,0-2.2.36,1.53,1.53,0,0,0,.33,2.14l.15.1.11.06c1.44.85,2.9,1.69,4.36,2.52a1.56,1.56,0,0,0,2.17-.43Z" style="fill:#958747"/></g></g></svg>