<svg id="Layer_1" data-name="Layer 1" xmlns="http://www.w3.org/2000/svg" viewBox="0 0 82 87"><rect x="3.55" y="9.05" width="75.08" height="75.08" rx="9.48" style="fill:#fff"/><path d="M78.63,18.53a9.49,9.49,0,0,0-9.48-9.48H13a9.48,9.48,0,0,0-9.48,9.48v7.59H78.63Z" style="fill:#74c1ab"/><path d="M69.15,86.13H13A11.49,11.49,0,0,1,1.55,74.65V18.53A11.49,11.49,0,0,1,13,7.05H69.15A11.49,11.49,0,0,1,80.63,18.53V74.65A11.49,11.49,0,0,1,69.15,86.13ZM13,11.05a7.49,7.49,0,0,0-7.48,7.48V74.65A7.48,7.48,0,0,0,13,82.13H69.15a7.49,7.49,0,0,0,7.48-7.48V18.53a7.49,7.49,0,0,0-7.48-7.48Z" style="fill:#d5d6d9"/><path d="M80.63,28.12H1.55V18.53A11.49,11.49,0,0,1,13,7.05H69.15A11.49,11.49,0,0,1,80.63,18.53Zm-75.08-4H76.63V18.53a7.49,7.49,0,0,0-7.48-7.48H13a7.49,7.49,0,0,0-7.48,7.48Z" style="fill:#16a280"/><rect x="3.55" y="23.34" width="75.08" height="2.78" style="fill:#16a280"/><circle cx="13.92" cy="14.37" r="1.99" style="fill:#1f3a79"/><circle cx="21.64" cy="14.37" r="1.99" style="fill:#1f3a79"/><circle cx="29.36" cy="14.37" r="1.99" style="fill:#1f3a79"/><circle cx="37.08" cy="14.37" r="1.99" style="fill:#1f3a79"/><circle cx="44.8" cy="14.37" r="1.99" style="fill:#1f3a79"/><circle cx="52.52" cy="14.37" r="1.99" style="fill:#1f3a79"/><circle cx="60.24" cy="14.37" r="1.99" style="fill:#1f3a79"/><circle cx="67.95" cy="14.37" r="1.99" style="fill:#1f3a79"/><rect x="12.54" y="1.75" width="2.75" height="13.08" rx="1.37"/><path d="M12.54,3.12V13.46a1.38,1.38,0,0,0,1.36,1.37V1.75A1.38,1.38,0,0,0,12.54,3.12Z" style="opacity:0.07"/><path d="M21.64,1.75h0a1.38,1.38,0,0,0-1.38,1.37V13.46a1.38,1.38,0,0,0,1.38,1.37h0A1.38,1.38,0,0,0,23,13.46V3.12A1.38,1.38,0,0,0,21.64,1.75Z"/><path d="M20.26,3.12V13.46a1.37,1.37,0,0,0,1.35,1.37V1.75A1.37,1.37,0,0,0,20.26,3.12Z" style="opacity:0.07"/><rect x="27.98" y="1.75" width="2.75" height="13.08" rx="1.37"/><path d="M28,3.12V13.46a1.37,1.37,0,0,0,1.35,1.37V1.75A1.37,1.37,0,0,0,28,3.12Z" style="opacity:0.07"/><rect x="35.7" y="1.75" width="2.75" height="13.08" rx="1.37"/><path d="M35.7,3.12V13.46a1.37,1.37,0,0,0,1.35,1.37V1.75A1.37,1.37,0,0,0,35.7,3.12Z" style="opacity:0.07"/><path d="M44.8,1.75h0a1.38,1.38,0,0,0-1.38,1.37V13.46a1.38,1.38,0,0,0,1.38,1.37h0a1.38,1.38,0,0,0,1.37-1.37V3.12A1.38,1.38,0,0,0,44.8,1.75Z"/><path d="M43.42,3.12V13.46a1.37,1.37,0,0,0,1.35,1.37V1.75A1.37,1.37,0,0,0,43.42,3.12Z" style="opacity:0.07"/><rect x="51.14" y="1.75" width="2.75" height="13.08" rx="1.37"/><path d="M51.14,3.12V13.46a1.37,1.37,0,0,0,1.35,1.37V1.75A1.37,1.37,0,0,0,51.14,3.12Z" style="opacity:0.07"/><rect x="58.86" y="1.75" width="2.75" height="13.08" rx="1.37"/><path d="M58.86,3.12V13.46a1.37,1.37,0,0,0,1.35,1.37V1.75A1.37,1.37,0,0,0,58.86,3.12Z" style="opacity:0.07"/><path d="M68,1.75h0a1.38,1.38,0,0,0-1.37,1.37V13.46A1.38,1.38,0,0,0,68,14.83h0a1.38,1.38,0,0,0,1.38-1.37V3.12A1.38,1.38,0,0,0,68,1.75Z"/><path d="M66.58,3.12V13.46a1.37,1.37,0,0,0,1.35,1.37V1.75A1.37,1.37,0,0,0,66.58,3.12Z" style="opacity:0.07"/><rect x="29.57" y="46.68" width="8.74" height="17.59" rx="4.37" transform="translate(-29.28 40.25) rotate(-45)" style="fill:#16a280"/><rect x="39.83" y="37.02" width="8.74" height="28.91" rx="4.37" transform="translate(49.34 -16.18) rotate(45)" style="fill:#16a280"/></svg>