<svg id="Layer_1" data-name="Layer 1" xmlns="http://www.w3.org/2000/svg" viewBox="0 0 83 83"><rect x="3.55" y="4.05" width="75.08" height="75.08" rx="9.48" style="fill:#fff"/><path d="M69.15,81.13H13A11.49,11.49,0,0,1,1.55,69.65V13.53A11.49,11.49,0,0,1,13,2.05H69.15A11.49,11.49,0,0,1,80.63,13.53V69.65A11.49,11.49,0,0,1,69.15,81.13ZM13,6.05a7.49,7.49,0,0,0-7.48,7.48V69.65A7.48,7.48,0,0,0,13,77.13H69.15a7.49,7.49,0,0,0,7.48-7.48V13.53a7.49,7.49,0,0,0-7.48-7.48Z" style="fill:#d5d6d9"/><path d="M18.5,19.5a31.82,31.82,0,1,0,45,0A31.81,31.81,0,0,0,18.5,19.5Zm41,41a26.11,26.11,0,1,1,0-36.92A26.1,26.1,0,0,1,59.46,60.46Z" style="fill:#b33636"/><rect x="37.97" y="14.69" width="6.58" height="54.11" transform="translate(-17.43 41.4) rotate(-45)" style="fill:#b33636"/></svg>