<svg width="103" height="117" viewBox="0 0 103 117" xmlns="http://www.w3.org/2000/svg">
<path d="M64.1631 30.0776C72.4687 30.0776 79.2019 23.3445 79.2019 15.0388C79.2019 6.73307 72.4687 0 64.1631 0C55.8575 0 49.1243 6.73307 49.1243 15.0388C49.1243 23.3445 55.8575 30.0776 64.1631 30.0776Z"/>
<path d="M37.6971 51.0976C38.4645 50.8308 38.9623 50.6578 39.0984 50.6306C40.101 50.4301 44.2918 49.6838 44.1114 51.6332C43.6764 56.3339 35.933 66.5425 27.1134 78.1705C25.6108 80.1516 24.0768 82.1739 22.5423 84.2172C19.5527 88.1986 16.1596 92.2158 12.9639 95.9992C5.45697 104.887 -0.960216 112.484 1.50048 115.297C9.02061 122.817 40.101 97.2509 45.1137 90.2328C52.7266 90.0839 55.9388 91.0104 57.6463 92.7392C57.6463 92.7392 53.6359 112.791 58.1344 116.3C64.5604 121.313 79.2019 98.2535 77.6838 83.716C76.8386 75.6209 58.6349 71.1836 58.6349 71.1836C62.4969 66.3631 64.0654 62.3507 65.1657 56.1448C65.1657 56.1448 73.9405 59.4272 79.2019 58.6513C89.2278 58.15 106.773 32.7493 101.246 28.0723C95.3214 23.0595 76.6954 37.5969 76.6954 37.5969C76.6954 37.5969 62.6445 31.0803 50.6142 30.0776C35.5762 29.0749 9.00764 47.1215 14.0206 54.1395C16.9892 58.2954 32.81 52.7962 37.6971 51.0976Z"/>
</svg>
