<svg width="104" height="117" viewBox="0 0 104 117" xmlns="http://www.w3.org/2000/svg">
<path d="M25.8789 55.2032C25.8789 56.4426 25.0029 57.0623 23.2512 57.0623H20.128V53.2945H23.2512C24.1602 53.2945 24.8213 53.4598 25.2343 53.7903C25.664 54.1042 25.8789 54.5752 25.8789 55.2032Z"/>
<path d="M41.0094 54.7074L43.4139 60.2847H38.6051L41.0094 54.7074Z"/>
<path fill-rule="evenodd" clip-rule="evenodd" d="M103.119 0L0 12.8898V104.11L103.119 117V0ZM23.8709 49.7746H15.4679V67.4237H20.128V60.5326H23.8709C25.854 60.5326 27.4074 60.0451 28.531 59.0701C29.655 58.0951 30.2168 56.7896 30.2168 55.1536C30.2168 53.501 29.6632 52.1955 28.556 51.2371C27.4487 50.2621 25.8871 49.7746 23.8709 49.7746ZM35.5313 67.4237L37.0929 63.7799H44.9261L46.4877 67.4237H51.0735L42.7941 49.7746H39.1256L30.8712 67.4237H35.5313ZM56.7702 67.1263C58.0589 67.4733 59.3644 67.6468 60.6866 67.6468C63.1158 67.6468 64.9996 67.1593 66.3383 66.1843C67.6769 65.1928 68.346 63.8377 68.346 62.1191C68.346 61.2102 68.156 60.4335 67.7759 59.789C67.3959 59.128 66.7433 58.5579 65.8178 58.0786C64.9088 57.5829 63.653 57.1615 62.05 56.8144C61.0585 56.5996 60.3148 56.4013 59.819 56.2195C59.3233 56.0212 58.9844 55.8229 58.8026 55.6246C58.6208 55.4263 58.53 55.1784 58.53 54.8809C58.53 54.3356 58.7861 53.9059 59.2984 53.5919C59.8108 53.2614 60.4884 53.0962 61.331 53.0962C62.1904 53.0962 63.0497 53.2449 63.9091 53.5424C64.7684 53.8233 65.5864 54.2365 66.363 54.7818L67.8009 51.4849C67.1233 50.9066 66.1812 50.4439 64.9749 50.0968C63.7851 49.7333 62.554 49.5515 61.2814 49.5515C59.8602 49.5515 58.5961 49.7993 57.4889 50.2951C56.3816 50.7743 55.5223 51.4519 54.911 52.3278C54.2996 53.1871 53.9938 54.1538 53.9938 55.228C53.9938 56.1699 54.1756 56.9714 54.5392 57.6324C54.9193 58.2935 55.5719 58.8718 56.4973 59.3676C57.4228 59.8468 58.72 60.2517 60.3891 60.5822C61.7111 60.8632 62.6118 61.1523 63.0911 61.4498C63.5702 61.7307 63.8098 62.0943 63.8098 62.5405C63.8098 63.0362 63.5455 63.4246 63.0166 63.7055C62.4879 63.9699 61.7278 64.1021 60.7363 64.1021C59.7612 64.1021 58.7861 63.9617 57.8111 63.6807C56.8527 63.3832 55.9437 62.9619 55.0844 62.4165L53.622 65.7134C54.4317 66.3083 55.4811 66.7792 56.7702 67.1263ZM75.9035 67.1263C77.1923 67.4733 78.4978 67.6468 79.82 67.6468C82.2492 67.6468 84.133 67.1593 85.4716 66.1843C86.8103 65.1928 87.4794 63.8377 87.4794 62.1191C87.4794 61.2102 87.2893 60.4335 86.9093 59.789C86.5292 59.128 85.8766 58.5579 84.9512 58.0786C84.0422 57.5829 82.7863 57.1615 81.1833 56.8144C80.1918 56.5996 79.4482 56.4013 78.9524 56.2195C78.6895 56.1143 78.4707 56.0091 78.2961 55.904C78.1414 55.8108 78.0214 55.7177 77.9359 55.6246C77.7541 55.4263 77.6634 55.1784 77.6634 54.8809C77.6634 54.3356 77.9195 53.9059 78.4317 53.5919C78.9442 53.2614 79.6217 53.0962 80.4644 53.0962C81.3237 53.0962 82.1831 53.2449 83.0424 53.5424C83.9018 53.8233 84.7197 54.2365 85.4963 54.7818L86.9342 51.4849C86.2567 50.9066 85.3145 50.4439 84.1083 50.0968C82.9185 49.7333 81.6873 49.5515 80.4147 49.5515C78.9935 49.5515 77.7294 49.7993 76.6222 50.2951C75.515 50.7743 74.6556 51.4519 74.0444 52.3278C73.4329 53.1871 73.1272 54.1538 73.1272 55.228C73.1272 56.1699 73.309 56.9714 73.6726 57.6324C74.0526 58.2935 74.7052 58.8718 75.6307 59.3676C76.5561 59.8468 77.8534 60.2517 79.5225 60.5822C80.8444 60.8632 81.7452 61.1523 82.2245 61.4498C82.7035 61.7307 82.9432 62.0943 82.9432 62.5405C82.9432 63.0362 82.6788 63.4246 82.1499 63.7055C81.6212 63.9699 80.8611 64.1021 79.8696 64.1021C78.8945 64.1021 77.9195 63.9617 76.9444 63.6807C75.986 63.3832 75.0771 62.9619 74.2177 62.4165L72.7554 65.7134C73.5651 66.3083 74.6145 66.7792 75.9035 67.1263Z"/>
</svg>
