<svg width="98" height="117" viewBox="0 0 98 117" xmlns="http://www.w3.org/2000/svg">
<path d="M20.4963 0.000433607H95.6753C96.6186 0.000433607 97.3573 0.765156 97.3573 1.70846V106.752C97.3573 107.695 96.5925 108.46 95.6493 108.46H87.2997L90.907 106.647C91.1964 106.502 91.3792 106.205 91.3792 105.879V5.98284C91.3792 5.50882 90.9968 5.1245 90.5252 5.1245H17.1966C17.1192 5.1245 17.0425 5.13503 16.9681 5.15583L10.7504 6.83251C10.2481 6.96061 10.2481 7.68652 10.7504 7.68654H82.8391C83.7824 7.68654 84.5471 8.45126 84.5471 9.39456V115.292C84.5471 116.235 83.7824 117 82.8391 117H1.70802C0.764774 117 0 116.235 0 115.292V9.39456C0 6.83253 5.23603 4.41738 10.6751 2.56247C17.084 -0.0107731 19.4901 -0.00279813 20.411 0.000225109L20.4963 0.000433607Z"/>
</svg>
