<svg width="119" height="118" viewBox="0 0 119 118" xmlns="http://www.w3.org/2000/svg">
<path fill-rule="evenodd" clip-rule="evenodd" d="M105.193 25.2061H67.3156L97.8291 4.62452C98.7924 3.97483 99.0467 2.66717 98.3969 1.70391C97.7472 0.740639 96.4394 0.486452 95.4761 1.13621L59.791 25.2061H58.717L23.0319 1.13621C22.0685 0.486452 20.7611 0.740639 20.1113 1.70391C19.4615 2.66717 19.7158 3.97483 20.6789 4.62452L51.1924 25.2061H13.6751C6.12258 25.2061 0 31.3287 0 38.8813V104.101C0 111.654 6.12258 117.776 13.6751 117.776H105.193C112.746 117.776 118.869 111.654 118.869 104.101V38.8813C118.869 31.3287 112.746 25.2061 105.193 25.2061ZM13.6751 39.9332C13.6751 38.7713 14.6172 37.8293 15.779 37.8293H103.09C104.251 37.8293 105.193 38.7713 105.193 39.9332V94.6338C105.193 95.7957 104.251 96.7376 103.09 96.7376H15.779C14.6172 96.7376 13.6751 95.7957 13.6751 94.6338V39.9332ZM51.5448 109.361C52.7066 109.361 53.6486 108.419 53.6486 107.257C53.6486 106.095 52.7066 105.153 51.5448 105.153C50.3829 105.153 49.4409 106.095 49.4409 107.257C49.4409 108.419 50.3829 109.361 51.5448 109.361ZM62.0641 107.257C62.0641 108.419 61.1221 109.361 59.9602 109.361C58.7984 109.361 57.8564 108.419 57.8564 107.257C57.8564 106.095 58.7984 105.153 59.9602 105.153C61.1221 105.153 62.0641 106.095 62.0641 107.257ZM68.3757 109.361C69.5376 109.361 70.4796 108.419 70.4796 107.257C70.4796 106.095 69.5376 105.153 68.3757 105.153C67.2138 105.153 66.2718 106.095 66.2718 107.257C66.2718 108.419 67.2138 109.361 68.3757 109.361Z"/>
</svg>
