<svg width="93" height="118" viewBox="0 0 93 118" xmlns="http://www.w3.org/2000/svg">
<path d="M25.749 12.6969C33.4553 4.40362 40.2046 0.5 48.3359 0.5C56.4672 0.5 61.4363 5.46911 65.0502 9.53475C65.5229 10.0075 66.2122 10.4493 67.0045 10.9573C69.2407 12.3909 72.2989 14.3515 73.6332 19.0212C75.3151 24.4394 74.7246 27.7718 73.715 33.4671L73.6855 33.6336C75.5361 35.1543 76.7954 38.155 76.7954 41.6081C76.7954 46.5978 74.1661 51.5463 70.9228 51.5463C70.5531 51.5463 70.1539 51.4229 69.7434 51.1953C65.5326 62.6222 56.5181 70.5193 46.0772 70.5193C35.6712 70.5193 26.6818 62.6747 22.4532 51.3093C22.3983 51.3308 22.3429 51.351 22.2873 51.3698C22.1929 51.4016 22.0976 51.4293 22.0017 51.4528C21.7496 51.5143 21.4926 51.5463 21.2317 51.5463C18.8918 51.5463 15.3591 46.5978 15.3591 41.6081C15.3591 37.3357 17.2869 33.7559 19.8771 32.8149C19.9056 23.4654 20.3271 18.6953 25.749 12.6969Z"/>
<path d="M46.0772 81.361C46.0772 81.361 60.5328 68.7124 62.6742 68.7124C64.8155 68.7124 65.0502 68.7124 65.0502 68.7124C79.7171 68.7124 91.663 80.3621 92.1397 94.9131H92.1544V112.079C92.1544 115.073 89.7275 117.5 86.7336 117.5H5.42085C2.42699 117.5 0 115.073 0 112.079V94.9131H0.0147785C0.491441 80.3621 12.4373 68.7124 27.1042 68.7124C27.1042 68.7124 27.3389 68.7124 29.4803 68.7124C31.6216 68.7124 46.0772 81.361 46.0772 81.361Z"/>
</svg>
