<svg width="111" height="117" viewBox="0 0 111 117" xmlns="http://www.w3.org/2000/svg">
<path fill-rule="evenodd" clip-rule="evenodd" d="M0 2C0 0.895431 0.895431 0 2 0H34C35.1046 0 36 0.895431 36 2V10C36 11.1046 35.1046 12 34 12H33V55.9116H36V50.6638C36 49.5592 36.8954 48.6638 38 48.6638H65H81H105C108.314 48.6638 111 51.3501 111 54.6638V55.0886C111 57.7131 109.315 59.944 106.968 60.7585C106.371 72.9175 97.5795 82.9225 86 85.3666V96.292C86 103.022 89.5 110.788 90.5 112.858C91.5 114.929 91 117 89 117H29C27.5 117 26.6232 116.392 27 114.929C29 107.164 28.5 97.8451 26.5 93.7035C25.0403 90.6808 19.0531 84.6248 15.9245 81.5732C9.14753 77.1017 4.54519 69.6014 4.04526 61H2C0.895431 61 0 60.1046 0 59V10.4138C0 10.3439 0.00358214 10.2749 0.0105728 10.2069C0.00358214 10.1389 0 10.0699 0 10V2Z"/>
</svg>
