<svg width="117" height="118" viewBox="0 0 117 118" xmlns="http://www.w3.org/2000/svg">
<path fill-rule="evenodd" clip-rule="evenodd" d="M0 25.1186C0 14.5661 8.19861 5.82915 18.7298 5.15898L95.5237 0.272095C107.046 -0.461129 116.794 8.68633 116.794 20.2317V81.9095C116.794 92.9552 107.84 101.91 96.7939 101.91H71.7664L54.371 115.866C50.4542 119.008 44.6405 116.236 44.6164 111.215L44.5716 101.91H20C8.9543 101.91 0 92.9552 0 81.9095V25.1186ZM49.9959 31.6541C49.2568 26.7209 53.0158 22.2773 57.9273 22.2773H58.8667C63.7782 22.2773 67.5372 26.7209 66.7981 31.6541L62.499 60.3547C62.1908 62.4141 60.4475 63.9359 58.397 63.9359C56.3465 63.9359 54.6032 62.4141 54.2951 60.3547L49.9959 31.6541ZM65.5284 76.6146C65.5284 80.6158 62.3357 83.8596 58.397 83.8596C54.4583 83.8596 51.2656 80.6158 51.2656 76.6146C51.2656 72.6134 54.4583 69.3696 58.397 69.3696C62.3357 69.3696 65.5284 72.6134 65.5284 76.6146Z"/>
</svg>
