<?xml version="1.0" encoding="UTF-8"?><svg id="Layer_1" xmlns="http://www.w3.org/2000/svg" viewBox="0 0 424 270"><path d="m177.01,108.17l-26.76,57.21h15.11l5.06-11.81h25.39l5.07,11.81h14.86l-26.84-57.21h-11.89Zm-1.7,34.06l7.8-18.07,7.8,18.07h-15.6Z"/><path d="m142.77,112.86c-3.59-3.12-8.65-4.69-15.2-4.69h-27.24v57.21h15.11v-22.35h12.14c6.44,0,11.47-1.57,15.11-4.73,3.65-3.16,5.47-7.4,5.47-12.71s-1.81-9.59-5.39-12.73Zm-17.2,18.93h-10.13v-12.22h10.13c2.94,0,5.1.53,6.47,1.57,1.36,1.04,2.05,2.59,2.05,4.63,0,4-2.85,6.02-8.52,6.02Z"/><path d="m263.53,135.06c-2.97-1.59-7.06-2.94-12.26-4.06-3.21-.71-5.62-1.35-7.23-1.96-1.61-.63-2.71-1.26-3.3-1.9-.59-.63-.88-1.43-.88-2.41,0-1.77.83-3.16,2.49-4.22,1.66-1.04,3.86-1.55,6.59-1.55s5.57.45,8.36,1.39,5.44,2.3,7.96,4.06l4.66-10.69c-2.2-1.86-5.24-3.37-9.12-4.53-3.89-1.16-7.89-1.73-12.02-1.73-4.6,0-8.7.78-12.29,2.37-3.59,1.57-6.38,3.77-8.36,6.57-1.98,2.83-2.97,5.96-2.97,9.46,0,3.04.6,5.65,1.81,7.79,1.21,2.14,3.31,4,6.31,5.59,3,1.57,7.21,2.9,12.63,3.98,4.28.9,7.2,1.82,8.75,2.77,1.56.94,2.33,2.12,2.33,3.57,0,1.61-.85,2.85-2.57,3.75-1.72.88-4.18,1.31-7.4,1.31s-6.31-.47-9.44-1.41c-3.14-.92-6.1-2.28-8.89-4.04l-4.74,10.67c2.63,1.94,6.03,3.47,10.2,4.59,4.18,1.12,8.42,1.69,12.7,1.69,7.88,0,13.98-1.59,18.33-4.79,4.34-3.18,6.5-7.57,6.5-13.15,0-2.94-.62-5.47-1.84-7.59-1.24-2.1-3.34-3.96-6.31-5.53Z"/><path d="m331.8,140.59c-1.24-2.1-3.34-3.96-6.31-5.53-2.97-1.59-7.06-2.94-12.26-4.06-3.21-.71-5.62-1.35-7.23-1.96-1.61-.63-2.71-1.26-3.3-1.9-.59-.63-.88-1.43-.88-2.41,0-1.77.83-3.16,2.49-4.22,1.66-1.04,3.86-1.55,6.59-1.55s5.57.45,8.36,1.39,5.44,2.3,7.96,4.06l4.66-10.69c-2.2-1.86-5.24-3.37-9.12-4.53-3.89-1.16-7.89-1.73-12.02-1.73-4.6,0-8.7.78-12.29,2.37-3.59,1.57-6.38,3.77-8.36,6.57-1.98,2.83-2.97,5.96-2.97,9.46,0,3.04.6,5.65,1.8,7.79,1.21,2.14,3.31,4,6.31,5.59,3,1.57,7.21,2.9,12.63,3.98,4.28.9,7.2,1.82,8.75,2.77,1.56.94,2.33,2.12,2.33,3.57,0,1.61-.85,2.85-2.57,3.75-1.72.88-4.18,1.31-7.4,1.31s-6.31-.47-9.44-1.41c-3.14-.92-6.1-2.28-8.89-4.04l-4.74,10.67c2.63,1.94,6.03,3.47,10.2,4.59,4.18,1.12,8.42,1.69,12.7,1.69,7.88,0,13.98-1.59,18.33-4.79,4.34-3.18,6.5-7.57,6.5-13.15,0-2.94-.62-5.47-1.84-7.59Z"/><path d="m401.26,72.46l-44.62-40.12c-1.43-1.22-3.64-.2-3.64,1.68v26.53H69.5s0,27,0,27h283.51v26.53c0,1.93,2.31,2.93,3.72,1.61l44.62-39.94c.96-.9.92-2.43-.08-3.29Z"/><path d="m78.15,154.37c0-1.93-2.31-2.93-3.72-1.61l-44.62,39.94c-.96.9-.92,2.43.08,3.29l44.62,40.12c1.43,1.22,3.64.2,3.64-1.68v-26.53h283.51s0-27,0-27H78.15v-26.53Z"/></svg>