<svg xmlns="http://www.w3.org/2000/svg" width="32" height="32" viewBox="0 0 32 32"><defs><style>.a{fill:#fff;}</style></defs><g transform="translate(-167 -493)"><g transform="translate(172.333 495.666)"><path class="a" d="M198.333,512.4h-1.067V499.067h-19.2V512.4H177V499.067A1.068,1.068,0,0,1,178.067,498h19.2a1.068,1.068,0,0,1,1.067,1.067Z" transform="translate(-177 -498)"/></g><g transform="translate(167 506.333)"><path class="a" d="M192.493,533.466a.531.531,0,0,1-.266-.071l-24.96-14.4a.533.533,0,0,1,.533-.924l24.959,14.4a.533.533,0,0,1-.267,1Z" transform="translate(-167 -517.999)"/></g><g transform="translate(183.031 506.333)"><path class="a" d="M197.593,528.315a.534.534,0,0,1-.282-.987l14.9-9.249a.533.533,0,0,1,.562.907l-14.9,9.249A.529.529,0,0,1,197.593,528.315Z" transform="translate(-197.059 -518)"/></g><g transform="translate(167 501.508)"><path class="a" d="M196.866,532.445H169.133A2.135,2.135,0,0,1,167,530.311V514.279a1.593,1.593,0,0,1,.58-1.232l4.946-4.094.681.822-4.947,4.094a.53.53,0,0,0-.194.41v16.032a1.068,1.068,0,0,0,1.067,1.067h27.733a1.068,1.068,0,0,0,1.067-1.067V514.279a.531.531,0,0,0-.193-.41l-4.947-4.094.681-.822,4.947,4.094a1.594,1.594,0,0,1,.58,1.232v16.032A2.135,2.135,0,0,1,196.866,532.445Z" transform="translate(-167 -508.953)"/></g><g transform="translate(179.438 493)"><path class="a" d="M196.765,496.611l-2.882-2.386L191,496.611l-.68-.822,3.222-2.667a.534.534,0,0,1,.681,0l3.222,2.667Z" transform="translate(-190.321 -493)"/></g><g transform="translate(175.533 503.666)"><rect class="a" width="14.933" height="1.067" transform="translate(0)"/></g><g transform="translate(175.533 506.866)"><rect class="a" width="14.933" height="1.067" transform="translate(0)"/></g><g transform="translate(175.533 499.933)"><rect class="a" width="3.2" height="1.067" transform="translate(0)"/></g></g></svg>