<svg xmlns="http://www.w3.org/2000/svg" width="38.444" height="38.444" viewBox="0 0 38.444 38.444"><defs><style>.a{fill:#fff;stroke:#707070;}.b{fill:#737373;stroke:rgba(0,0,0,0);}</style></defs><g transform="translate(0.709 17.547) rotate(-45)"><path class="a" d="M7.5,1.527S8.263,0,8.874,0s2.137,2.137,2.137,2.137V9.465s.153-2.9,1.221-2.9,2.6,0,2.6,1.221.305-.458,1.527,0,1.679,1.374,2.137,1.679,0,1.221,0,1.221a5.738,5.738,0,0,1,2.6-1.221c1.069,0,1.679,1.221,1.679,1.221V20.762l-2.748,5.954-1.527,1.221L9.7,27.479l-3.42-6.717S.172,17.251.019,16.793.63,13.74,1.7,14.2s3.969.458,4.58,1.069,0-8.7,0-8.7Z" transform="translate(0.439 0.413)"/><path class="b" d="M23.809,18.415c-.049-1.542-.038-3.115-.026-4.635,0-.671.009-1.342.009-2.012a2.425,2.425,0,0,0-1.347-2.238,2.694,2.694,0,0,0-2.725.046,2.583,2.583,0,0,0-1.654-1.7,2.723,2.723,0,0,0-2.371.253A2.6,2.6,0,0,0,14.078,6.54a2.731,2.731,0,0,0-2.188.148V5.564q0-1.393,0-2.787v-.1a2.605,2.605,0,0,0-.047-.617A2.712,2.712,0,0,0,9.166,0a2.967,2.967,0,0,0-.341.02A2.688,2.688,0,0,0,6.456,2.7V14.956a7.716,7.716,0,0,0-2.537-.7,6.913,6.913,0,0,0-.762-.044,3.975,3.975,0,0,0-2.291.644,1.774,1.774,0,0,0-.848,1.3,2.134,2.134,0,0,0,1.294,2.291A13.853,13.853,0,0,1,4.857,20.8a10.791,10.791,0,0,1,2.665,3.678,17.988,17.988,0,0,0,1.408,2.65,2.878,2.878,0,0,0,2.6,1.423h.111c.954-.025,1.97-.037,3.2-.037.892,0,1.785.006,2.678.012l1.562.01a1.863,1.863,0,0,0,1.231-.421,5.238,5.238,0,0,0,.78-.8A11.908,11.908,0,0,0,22.711,24.2,14.66,14.66,0,0,0,23.809,18.415Zm-13.52,8.1-.124-.2a17.46,17.46,0,0,1-1.3-2.392,12.086,12.086,0,0,0-2.914-4.1A14.733,14.733,0,0,0,2.062,17.2a2.355,2.355,0,0,1-.318-.178.635.635,0,0,1-.3-.539A.589.589,0,0,1,1.765,16a2.644,2.644,0,0,1,1.343-.355,3.02,3.02,0,0,1,.357.021,7.721,7.721,0,0,1,1.769.37,4.664,4.664,0,0,1,.878.485c.186.12.378.245.58.353a1.319,1.319,0,0,0,.573.164A.6.6,0,0,0,7.48,17a.844.844,0,0,0,.405-.718c.013-1.805.012-3.641.012-5.415V9.749l0-2.1q0-2.413,0-4.826a1.238,1.238,0,0,1,.68-1.21,1.259,1.259,0,0,1,1.412.126,1.134,1.134,0,0,1,.462.987q-.005,5.917,0,11.833c0,.023,0,.049,0,.074a.629.629,0,0,0,.116.478c.182.189.475.413.717.356a1.16,1.16,0,0,0,.582-.487l.025-.032a.527.527,0,0,0,.07-.388c0-.028-.006-.056-.006-.081V9a1.167,1.167,0,0,1,1.192-1.177h0a1.25,1.25,0,0,1,.908.376,1.16,1.16,0,0,1,.33.806c-.025,1.287-.021,2.594-.017,3.858q0,.846,0,1.692a.845.845,0,0,0,.461.857.858.858,0,0,0,.355.081.709.709,0,0,0,.693-.553,1.757,1.757,0,0,0,.052-.463q0-.8,0-1.591c0-.85,0-1.7,0-2.549a1.151,1.151,0,0,1,1.12-1.175,1.228,1.228,0,0,1,1.27.847,1.191,1.191,0,0,1,.037.33q0,1.072,0,2.144t0,2.145a.8.8,0,0,0,.741.873.756.756,0,0,0,.419-.134.947.947,0,0,0,.349-.706c.016-.593.015-1.194.013-1.775,0-.3,0-.595,0-.892a1.214,1.214,0,0,1,1.089-1.349.961.961,0,0,1,.194-.02,1.213,1.213,0,0,1,1.186,1.1q0,.9.01,1.794c.014,2.065.028,4.2-.029,6.3a11.685,11.685,0,0,1-.97,3.813,10.525,10.525,0,0,1-1.6,3,1.114,1.114,0,0,1-.948.467h0c-1.283-.012-2.551-.018-3.769-.018s-2.428.006-3.617.018A1.233,1.233,0,0,1,10.289,26.519Z" transform="translate(0 0)"/></g></svg>