<?xml version="1.0" encoding="utf-8"?>
<!-- Generator: Adobe Illustrator 24.3.0, SVG Export Plug-In . SVG Version: 6.00 Build 0)  -->
<svg version="1.1" id="Layer_1" xmlns="http://www.w3.org/2000/svg" xmlns:xlink="http://www.w3.org/1999/xlink" x="0px" y="0px"
	 viewBox="0 0 213.4 45.2" style="enable-background:new 0 0 213.4 45.2;" xml:space="preserve">
<style type="text/css">
	.st0{clip-path:url(#SVGID_2_);}
	.st1{clip-path:url(#SVGID_4_);fill:#C7C8CA;}
	.st2{clip-path:url(#SVGID_4_);fill:#FFFFFF;}
</style>
<g id="Artwork_1_1_">
	<g>
		<defs>
			<rect id="SVGID_1_" x="6" y="0.4" width="202.2" height="44.3"/>
		</defs>
		<clipPath id="SVGID_2_">
			<use xlink:href="#SVGID_1_"  style="overflow:visible;"/>
		</clipPath>
		<g class="st0">
			<defs>
				<rect id="SVGID_3_" x="6" y="0.4" width="202.2" height="44.3"/>
			</defs>
			<clipPath id="SVGID_4_">
				<use xlink:href="#SVGID_3_"  style="overflow:visible;"/>
			</clipPath>
			<path class="st1" d="M64.5,43.5c0,0-19.7-41.3-20-41.8c-0.3-0.7-1-0.7-1.3,0.1l-7.9,17.6l-0.2-0.5L27.4,1.7
				c-0.3-0.8-0.9-0.8-1.3-0.1c-0.3,0.6-20,41.8-20,41.8c-0.2,0.5,0,0.9,0.4,1.1c0.1,0.1,0.3,0.1,0.4,0.1h11.5l7.6-17.1
				c0.3-0.8,0.9-0.8,1.3-0.1c0.1,0.1,0.9,1.8,2.1,4.4c0.5,1.1,1.2,2.4,1.9,3.9c0,0,0,0.1,0.1,0.1c0.2,0.4,0.4,0.8,0.6,1.2
				c0.1,0.3,0.3,0.6,0.4,0.9c0.9,1.9,1.9,4,2.9,6.2c0.1,0.1,0.1,0.2,0.2,0.4h0.1l5.7-12.8v0l1.9-4.3c0.3-0.8,0.9-0.8,1.3-0.1
				c0.1,0.3,3.9,8.2,8.2,17.1h11.2c0.1,0,0.3,0,0.4-0.1C64.5,44.4,64.7,43.9,64.5,43.5"/>
			<path class="st2" d="M76.6,17.2h-8c-0.3,0-0.5,0.2-0.5,0.5v25.8c0,0.3,0.2,0.5,0.5,0.5h8c0.3,0,0.5-0.2,0.5-0.5V17.7
				C77.1,17.4,76.9,17.2,76.6,17.2C76.6,17.2,76.6,17.2,76.6,17.2"/>
			<path class="st2" d="M166.3,20.6c0-0.3-0.3-0.6-0.6-0.6h-16.6c-0.3,0-0.6,0.3-0.6,0.6v8c0,0.3,0.3,0.6,0.6,0.6h8v1.5
				c-4.3,4.9-11.8,5.3-16.7,1c-4.8-4.4-5.3-11.8-1-16.7s11.8-5.3,16.7-1c0.7,0.6,1.3,1.3,1.9,2.1c0.1,0.1,0.2,0.2,0.4,0.2h0.1
				c0.1,0,0.2,0,0.4-0.1l6.6-4.6c0.3-0.2,0.3-0.6,0.1-0.9c-6.7-9.6-19.8-12-29.4-5.4c-9.6,6.6-12,19.8-5.4,29.3
				c6.6,9.6,19.8,12,29.3,5.4c2-1.4,3.8-3.1,5.2-5.1l0.8-1.1c0.1-0.1,0.1-0.2,0.1-0.4L166.3,20.6z"/>
			<path class="st2" d="M208.2,43.1l-0.7-1.6L190.9,4.4l-1-2.3c-0.1-0.2-0.3-0.4-0.6-0.4c-0.2,0-0.5,0.1-0.6,0.4l-1,2.2l-17.5,37.1
				l-0.8,1.6c-0.1,0.3,0,0.7,0.3,0.8c0,0,0.1,0,0.2,0h8.3c0.2,0,0.5-0.1,0.6-0.4l0.3-0.7l2.6-5.8h14.1l2.5,5.8l0.3,0.7
				c0.1,0.2,0.3,0.4,0.6,0.4h8.3c0.3,0,0.6-0.3,0.6-0.6C208.2,43.3,208.2,43.2,208.2,43.1 M184.7,29.2l3.9-8.5
				c0.1-0.2,0.4-0.4,0.7-0.2c0.1,0,0.2,0.1,0.2,0.2l3.9,8.5H184.7z"/>
			<path class="st2" d="M72.6,10.5c-2.8,0-5.1-1.2-5.1-5.1c0-3.9,2.3-5.1,5.1-5.1c2.8,0,5.1,1,5.1,5.1C77.7,9.5,75.5,10.5,72.6,10.5
				"/>
			<path class="st2" d="M121.3,2.4c0-0.3-0.3-0.6-0.6-0.6h-7.8c-0.3,0-0.6,0.3-0.6,0.6v21.7L86.6,1.9l-0.1,0h0h0h0h0h-0.1
				c-0.3,0-0.6,0.3-0.6,0.6v11v29.8c0,0.3,0.3,0.6,0.6,0.6H94c0.3,0,0.6-0.3,0.6-0.6V21.6L112.5,37c0,0,0,0.1,0.1,0.1l7.7,6.7
				c0.1,0.1,0.2,0.1,0.4,0.1c0.3,0,0.6-0.3,0.6-0.6V32.1L121.3,2.4z"/>
			<path class="st2" d="M64.5,43.5c0,0-19.7-41.3-20-41.8c-0.3-0.7-1-0.7-1.3,0.1l-7.9,17.6l-0.2-0.5v0.9L29.3,32
				c1.5,3.1,3.6,7.6,5.9,12.3c0.1,0.1,0.1,0.2,0.2,0.4h0.1l5.7-12.8v0l1.9-4.3c0.3-0.8,0.9-0.8,1.3-0.1c0.1,0.3,3.9,8.2,8.2,17.1
				h11.2c0.1,0,0.3,0,0.4-0.1C64.5,44.4,64.7,43.9,64.5,43.5"/>
		</g>
	</g>
</g>
</svg>
