<svg id="Layer_1" data-name="Layer 1" xmlns="http://www.w3.org/2000/svg" xmlns:xlink="http://www.w3.org/1999/xlink" viewBox="0 0 79.72 79.72"><defs><style>.cls-1,.cls-3{fill:#e2e2e2;}.cls-1,.cls-6{stroke:#ccc;}.cls-1,.cls-12,.cls-6{stroke-miterlimit:10;}.cls-12,.cls-2,.cls-6{fill:none;}.cls-4{clip-path:url(#clip-path);}.cls-5{fill:#a4a4a4;}.cls-7{clip-path:url(#clip-path-2);}.cls-8{clip-path:url(#clip-path-3);}.cls-9{fill:#3cf;}.cls-10{fill:#93f;}.cls-11{fill:#036;}.cls-12{stroke:#fff;}</style><clipPath id="clip-path"><path class="cls-1" d="M165.86,1.86c-25.22,0-38,12.78-38,38s12.78,38,38,38c25.57,0,38-12.43,38-38S191.43,1.86,165.86,1.86Z"/></clipPath><clipPath id="clip-path-2"><rect class="cls-2" width="79.72" height="79.72"/></clipPath><clipPath id="clip-path-3"><path class="cls-1" d="M39.86-13.77c-35.58,0-53.63,18.05-53.63,53.63S4.28,93.48,39.86,93.48c36.08,0,53.62-17.54,53.62-53.62S75.94-13.77,39.86-13.77Z"/></clipPath></defs><title>minga_default_avatar</title><g id="person"><path class="cls-3" d="M165.86,1.86c-25.22,0-38,12.78-38,38s12.78,38,38,38c25.57,0,38-12.43,38-38S191.43,1.86,165.86,1.86Z"/><g class="cls-4"><path class="cls-5" d="M166.65,29.28h0L143.19-23.1a2.19,2.19,0,0,0-3.28-1.09c-.54.27-1.09.54-1.09,1.09L79.9,101A2.53,2.53,0,0,0,81,104.3a1.65,1.65,0,0,0,1.09.27h49.1l35.47-75.29Z"/></g><path class="cls-6" d="M165.86,1.86c-25.22,0-38,12.78-38,38s12.78,38,38,38c25.57,0,38-12.43,38-38S191.43,1.86,165.86,1.86Z"/><g class="cls-7"><path class="cls-3" d="M39.86-13.77c-35.58,0-53.63,18.05-53.63,53.63S4.28,93.48,39.86,93.48c36.08,0,53.62-17.54,53.62-53.62S75.94-13.77,39.86-13.77Z"/><g class="cls-8"><path class="cls-9" d="M41,24.92h0L7.87-49a3.09,3.09,0,0,0-4.62-1.54c-.77.39-1.54.77-1.54,1.54L-81.45,126.17a3.56,3.56,0,0,0,1.54,4.62,2.3,2.3,0,0,0,1.54.39h69.3L41,24.92Z"/><path class="cls-10" d="M161.08,126.17,82.55-49.37a3.08,3.08,0,0,0-4.62-1.54c-.77.38-1.54.77-1.54,1.54l-35,74.29L59.45,65.35l29.26,65.83H158a3.45,3.45,0,0,0,3.47-3.47C161.47,126.94,161.08,126.56,161.08,126.17Z"/><polygon class="cls-11" points="40.97 24.92 40.97 24.92 -9.07 131.18 88.71 131.18 40.97 24.92"/><line class="cls-12" x1="24.25" y1="-12.4" x2="69.42" y2="87.77"/><line class="cls-12" x1="58.03" y1="-12.13" x2="11.25" y2="88.02"/></g><path class="cls-6" d="M39.86-13.77c-35.58,0-53.63,18.05-53.63,53.63S4.28,93.48,39.86,93.48c36.08,0,53.62-17.54,53.62-53.62S75.94-13.77,39.86-13.77Z"/></g></g></svg>