<?xml version="1.0" encoding="utf-8"?>
<!-- Generator: Adobe Illustrator 24.3.0, SVG Export Plug-In . SVG Version: 6.00 Build 0)  -->
<svg version="1.1" id="Layer_1" xmlns="http://www.w3.org/2000/svg" xmlns:xlink="http://www.w3.org/1999/xlink" x="0px" y="0px"
	 viewBox="0 0 441.4 113" style="enable-background:new 0 0 441.4 113;" xml:space="preserve">
<style type="text/css">
	.st0{clip-path:url(#SVGID_2_);}
	.st1{clip-path:url(#SVGID_4_);fill:#233A75;}
	.st2{clip-path:url(#SVGID_4_);fill:#70B2D7;}
	.st3{clip-path:url(#SVGID_4_);fill:#2B8DC3;}
</style>
<g id="Artwork_3_1_">
	<g>
		<defs>
			<rect id="SVGID_1_" x="10" y="11" width="425" height="93.1"/>
		</defs>
		<clipPath id="SVGID_2_">
			<use xlink:href="#SVGID_1_"  style="overflow:visible;"/>
		</clipPath>
		<g class="st0">
			<defs>
				<rect id="SVGID_3_" x="10" y="11" width="425" height="93.1"/>
			</defs>
			<clipPath id="SVGID_4_">
				<use xlink:href="#SVGID_3_"  style="overflow:visible;"/>
			</clipPath>
			<path class="st1" d="M158.3,46.4h-16.8c-0.6,0-1.1,0.4-1.1,1v54.3c0,0.6,0.5,1,1.1,1h16.8c0.6,0,1.1-0.4,1.1-1V47.4
				C159.4,46.8,158.9,46.3,158.3,46.4C158.3,46.3,158.3,46.3,158.3,46.4"/>
			<path class="st1" d="M347,53.5c0-0.7-0.6-1.3-1.3-1.3h-35c-0.7,0-1.3,0.6-1.3,1.3v16.9c0,0.7,0.6,1.3,1.3,1.3h16.9v3.2
				c-9.1,10.3-24.9,11.2-35.1,2c-10.2-9.2-11.2-24.9-2-35.1c9.2-10.2,24.9-11.2,35.1-2c1.5,1.3,2.8,2.8,3.9,4.4
				c0.2,0.3,0.5,0.5,0.9,0.5h0.2c0.3,0,0.5-0.1,0.8-0.2l13.9-9.6c0.6-0.4,0.7-1.2,0.3-1.8c-14.1-20.2-41.7-25.2-61.9-11.3
				c-20.2,13.9-25.2,41.6-11.3,61.7c13.9,20.1,41.6,25.2,61.7,11.3c4.3-2.9,8-6.6,11-10.8l1.6-2.3c0.2-0.2,0.2-0.5,0.2-0.8L347,53.5
				z"/>
			<path class="st1" d="M434.9,100.9l-1.5-3.4l-34.9-77.9l-2.1-4.8c-0.2-0.5-0.7-0.8-1.2-0.8c-0.5,0-1,0.3-1.2,0.8l-2.2,4.7
				l-36.7,77.9l-1.6,3.4c-0.3,0.7,0,1.4,0.7,1.7c0.1,0.1,0.3,0.1,0.4,0.1h17.5c0.5,0,1-0.3,1.2-0.8l0.6-1.4l5.5-12.2h29.7l5.3,12.1
				l0.6,1.4c0.2,0.5,0.7,0.8,1.2,0.8h17.5c0.7,0,1.3-0.6,1.3-1.3C435,101.2,435,101,434.9,100.9 M385.4,71.7l8.3-17.9
				c0.2-0.5,0.9-0.8,1.4-0.5c0.2,0.1,0.4,0.3,0.5,0.5l8.2,17.9H385.4z"/>
			<path class="st1" d="M150.1,32.4c-5.9,0-10.7-2.5-10.7-10.7c0-8.2,4.8-10.7,10.7-10.7c5.9,0,10.7,2.1,10.7,10.7
				C160.8,30.3,156,32.4,150.1,32.4"/>
			<path class="st1" d="M252.3,15.3c0-0.7-0.6-1.3-1.3-1.3h-16.3c-0.7,0-1.3,0.6-1.3,1.3V61l-54.1-46.7l-0.2-0.1h-0.1H179h-0.1h-0.1
				h-0.2c-0.7,0-1.3,0.6-1.3,1.3v23.2v62.7c0,0.7,0.6,1.3,1.3,1.3h16.3c0.7,0,1.3-0.6,1.3-1.3V55.6l37.7,32.5
				c0.1,0.1,0.1,0.2,0.2,0.2l16.2,14c0.2,0.2,0.5,0.3,0.9,0.3c0.7,0,1.3-0.6,1.3-1.3V77.8L252.3,15.3z"/>
			<path class="st2" d="M54.9,13.8c-0.6-1.7-2-1.6-2.7-0.1c-0.6,1.2-42.1,87.9-42.1,87.9c-0.4,1,0,1.9,0.8,2.3
				c0.2,0.2,0.6,0.2,0.8,0.2h24.1l16.1-35.8c0.6-1.7,2-1.6,2.7-0.1c0.1,0.2,1.8,3.8,4.4,9.3c3.1,6.4,7.4,15.5,12.1,25.2V49.8
				L54.9,13.8z"/>
			<path class="st3" d="M71.9,104.1l12-26.8l4-9c0.6-1.7,2-1.6,2.7-0.1c0.3,0.5,8.2,17.2,17.2,35.9h23.5c0.2,0,0.6,0,0.8-0.2
				c0.8-0.4,1.2-1.4,0.8-2.3c0,0-41.5-86.7-42.1-87.9c-0.7-1.5-2.1-1.6-2.7,0.1L71.5,50.9l-0.5-1v52.8c0.2,0.5,0.5,1,0.7,1.5H71.9z"
				/>
			<path class="st3" d="M71.8,104.1h0.2l12-26.8L71.5,50.9L59,77.4C62.2,84.2,66.8,93.8,71.8,104.1"/>
		</g>
	</g>
</g>
</svg>
