<?xml version="1.0" encoding="utf-8"?>
<!-- Generator: Adobe Illustrator 24.3.0, SVG Export Plug-In . SVG Version: 6.00 Build 0)  -->
<svg version="1.1" id="Layer_1" xmlns="http://www.w3.org/2000/svg" xmlns:xlink="http://www.w3.org/1999/xlink" x="0px" y="0px"
	 viewBox="0 0 213.4 45.2" style="enable-background:new 0 0 213.4 45.2;" xml:space="preserve">
<style type="text/css">
	.st0{clip-path:url(#SVGID_2_);}
	.st1{clip-path:url(#SVGID_4_);fill:#E2E2E2;}
	.st2{clip-path:url(#SVGID_4_);fill:#C7C8CA;}
</style>
<g id="Artwork_17_1_">
	<g>
		<defs>
			<rect id="SVGID_1_" x="1.1" y="-0.6" width="210.1" height="46"/>
		</defs>
		<clipPath id="SVGID_2_">
			<use xlink:href="#SVGID_1_"  style="overflow:visible;"/>
		</clipPath>
		<g class="st0">
			<defs>
				<rect id="SVGID_3_" x="1.1" y="-0.6" width="210.1" height="46"/>
			</defs>
			<clipPath id="SVGID_4_">
				<use xlink:href="#SVGID_3_"  style="overflow:visible;"/>
			</clipPath>
			<path class="st1" d="M61.8,44.2c0,0-20.5-42.9-20.8-43.5c-0.4-0.7-1-0.8-1.3,0.1l-8.2,18.3l-0.2-0.5l-8-17.8
				C23-0.1,22.3,0,22,0.7C21.7,1.3,1.2,44.2,1.2,44.2c-0.2,0.5,0,1,0.4,1.1c0.1,0.1,0.3,0.1,0.4,0.1h11.9l7.9-17.7
				c0.3-0.8,1-0.8,1.3-0.1c0.1,0.1,0.9,1.9,2.2,4.6c0.6,1.2,1.2,2.5,1.9,4c0,0.1,0,0.1,0.1,0.2c0.2,0.4,0.4,0.9,0.6,1.3
				c0.1,0.3,0.3,0.6,0.4,0.9c1,2,2,4.2,3.1,6.4c0.1,0.1,0.1,0.2,0.2,0.4h0.1l5.9-13.3v0l2-4.4c0.3-0.8,1-0.8,1.3-0.1
				c0.1,0.3,4.1,8.5,8.5,17.8h11.6c0.1,0,0.3,0,0.4-0.1C61.8,45.1,62,44.6,61.8,44.2"/>
			<path class="st2" d="M74.4,16.9h-8.3c-0.3,0-0.5,0.2-0.5,0.5v26.8c0,0.3,0.2,0.5,0.5,0.5h8.3c0.3,0,0.5-0.2,0.5-0.5V17.4
				C74.9,17.1,74.7,16.8,74.4,16.9C74.4,16.8,74.4,16.8,74.4,16.9"/>
			<path class="st2" d="M167.7,20.4c0-0.3-0.3-0.6-0.6-0.6h-17.3c-0.3,0-0.6,0.3-0.6,0.6v8.3c0,0.3,0.3,0.6,0.6,0.6h8.3v1.6
				c-4.5,5.1-12.3,5.5-17.3,1c-5-4.5-5.5-12.3-1-17.3s12.3-5.5,17.3-1c0.7,0.6,1.4,1.4,1.9,2.2c0.1,0.1,0.2,0.2,0.4,0.2h0.1
				c0.1,0,0.2,0,0.4-0.1l6.9-4.7c0.3-0.2,0.3-0.6,0.1-0.9c-7-10-20.6-12.4-30.6-5.6c-10,6.9-12.4,20.5-5.6,30.5
				c6.9,9.9,20.5,12.4,30.5,5.6c2.1-1.4,4-3.3,5.4-5.3l0.8-1.1c0.1-0.1,0.1-0.2,0.1-0.4L167.7,20.4z"/>
			<path class="st2" d="M211.1,43.8l-0.7-1.7L193.1,3.6l-1-2.4c-0.1-0.2-0.3-0.4-0.6-0.4S191,1,190.9,1.2l-1.1,2.3l-18.1,38.5
				l-0.8,1.7c-0.1,0.3,0,0.7,0.3,0.8c0,0,0.1,0,0.2,0h8.6c0.2,0,0.5-0.1,0.6-0.4l0.3-0.7l2.7-6h14.7l2.6,6l0.3,0.7
				c0.1,0.2,0.3,0.4,0.6,0.4h8.6c0.3,0,0.6-0.3,0.6-0.6C211.2,43.9,211.2,43.8,211.1,43.8 M186.7,29.4l4.1-8.8
				c0.1-0.2,0.4-0.4,0.7-0.2c0.1,0,0.2,0.1,0.2,0.2l4.1,8.8H186.7z"/>
			<path class="st2" d="M70.3,9.9c-2.9,0-5.3-1.2-5.3-5.3c0-4.1,2.4-5.3,5.3-5.3c2.9,0,5.3,1,5.3,5.3C75.6,8.9,73.2,9.9,70.3,9.9"/>
			<path class="st2" d="M120.9,1.5c0-0.3-0.3-0.6-0.6-0.6h-8.1c-0.3,0-0.6,0.3-0.6,0.6v22.6L84.8,1l-0.1,0h0h0h0h0h-0.1
				c-0.3,0-0.6,0.3-0.6,0.6v11.5v31c0,0.3,0.3,0.6,0.6,0.6h8.1c0.3,0,0.6-0.3,0.6-0.6V21.4l18.6,16.1c0,0,0,0.1,0.1,0.1l8,6.9
				c0.1,0.1,0.2,0.1,0.4,0.1c0.3,0,0.6-0.3,0.6-0.6V32.4L120.9,1.5z"/>
			<path class="st2" d="M61.8,44.2c0,0-20.5-42.9-20.8-43.5c-0.4-0.7-1-0.8-1.3,0.1l-8.2,18.3l-0.2-0.5v1l-6,12.7
				c1.6,3.2,3.8,7.9,6.1,12.8c0.1,0.1,0.1,0.2,0.2,0.4h0.1l5.9-13.3v0l2-4.4c0.3-0.8,1-0.8,1.3-0.1c0.1,0.3,4.1,8.5,8.5,17.8h11.6
				c0.1,0,0.3,0,0.4-0.1C61.8,45.1,62,44.6,61.8,44.2"/>
		</g>
	</g>
</g>
</svg>
