<svg xmlns="http://www.w3.org/2000/svg" xmlns:xlink="http://www.w3.org/1999/xlink" viewBox="0 0 194 194"><defs><style>.cls-1,.cls-6{fill:none;}.cls-2{fill:#036;}.cls-3{clip-path:url(#clip-path);}.cls-4{fill:#3b5998;}.cls-5{fill:#d93175;}.cls-6{stroke:#036;stroke-linecap:round;stroke-linejoin:round;stroke-width:0;}.cls-7{fill:#1da1f2;}.cls-8{fill:red;}</style><clipPath id="clip-path"><rect class="cls-1" width="24" height="24"/></clipPath><symbol id="food-icon-o-active" data-name="food-icon-o-active" viewBox="0 0 24 24"><path class="cls-2" d="M12,0C4,0,0,4,0,12S4,24,12,24s12-3.93,12-12S20.07,0,12,0ZM5.38,12.88A1.47,1.47,0,0,1,7,11.58h6.16a1.46,1.46,0,0,1,1.59,1.3v1a.15.15,0,0,1-.15.15h-9a.16.16,0,0,1-.16-.15Zm-.54,2.35a.7.7,0,0,1,.71-.7h9.06a.7.7,0,0,1,.71.7.71.71,0,0,1-.71.71H5.55A.71.71,0,0,1,4.84,15.23Zm8.3,2.53H7c-.88,0-1.6-.46-1.6-1V16.6h9.35v.13C14.73,17.3,14,17.76,13.14,17.76Zm3.66-.32a.88.88,0,0,1-.86.79H14.52a1.74,1.74,0,0,0,1-1.5v-.32a1.49,1.49,0,0,0,0-2.37,1,1,0,0,0,0-.17v-1a2.26,2.26,0,0,0-2.39-2.1H11.09l-.26-3A.72.72,0,0,1,11.56,7H15l1-2.26a.55.55,0,1,1,1,.44L16.19,7h.72a.72.72,0,0,1,.73.79Z"/></symbol><symbol id="food-icon-o" data-name="food-icon-o" viewBox="0 0 24 24"><path class="cls-2" d="M12,0C4,0,0,4,0,12S4,24,12,24s12-3.93,12-12S20.07,0,12,0Zm0,22.25C5.1,22.25,1.75,18.9,1.75,12S5.1,1.75,12,1.75c7.09,0,10.25,3.16,10.25,10.25S19,22.25,12,22.25Z"/><path class="cls-2" d="M5.54,14h9a.15.15,0,0,0,.15-.15v-1a1.46,1.46,0,0,0-1.59-1.3H7a1.47,1.47,0,0,0-1.6,1.3v1A.16.16,0,0,0,5.54,14Z"/><path class="cls-2" d="M5.38,16.73c0,.57.72,1,1.6,1h6.16c.88,0,1.59-.46,1.59-1V16.6H5.38Z"/><path class="cls-2" d="M14.61,14.53H5.55a.7.7,0,0,0-.71.7.71.71,0,0,0,.71.71h9.06a.71.71,0,0,0,.71-.71A.7.7,0,0,0,14.61,14.53Z"/><path class="cls-2" d="M16.91,7h-.72L17,5.21a.55.55,0,1,0-1-.44L15,7H11.56a.72.72,0,0,0-.73.79l.26,3h2.05a2.26,2.26,0,0,1,2.39,2.1v1a1,1,0,0,1,0,.17,1.49,1.49,0,0,1,0,2.37v.32a1.74,1.74,0,0,1-1,1.5h1.42a.88.88,0,0,0,.86-.79l.84-9.62A.72.72,0,0,0,16.91,7Z"/></symbol><symbol id="sports-icon-o-active" data-name="sports-icon-o-active" viewBox="0 0 24 24"><path class="cls-2" d="M12,0C4,0,0,4,0,12S4,24,12,24s12-3.93,12-12S20.07,0,12,0Zm3.85,11.21a.69.69,0,0,1,.07.92,3.7,3.7,0,0,1-.37.42.65.65,0,0,1-.9,0,.69.69,0,0,1-.07-.92,3.62,3.62,0,0,1,.36-.42A.67.67,0,0,1,15.85,11.21Zm-1.09-1a.69.69,0,0,1,.06.92,2.86,2.86,0,0,1-.36.42.67.67,0,0,1-.91,0,.69.69,0,0,1-.07-.92,3.7,3.7,0,0,1,.37-.42A.67.67,0,0,1,14.76,10.21Zm-1.15-.93a.68.68,0,0,1,.07.91,2.42,2.42,0,0,1-.36.42.66.66,0,0,1-1-.87,3,3,0,0,1,.37-.42A.67.67,0,0,1,13.61,9.28ZM20,15.07a2.15,2.15,0,0,1-.57.34H13.25c-1-.22-2-.47-2.59-.65a15.24,15.24,0,0,0-2.09-.5,16.66,16.66,0,0,1-4.75-1.75c-.16-.11-.41-.4-.28-.57s.42-.26.48-.46a1.64,1.64,0,0,0,.07-.36,2.88,2.88,0,0,1,.33-.7c.13-.28.18-.32.38-.76s.37-1.33.92-1.75.76-.44,1,.15a2,2,0,0,0,1,1.34c.57.23,1.42-.22,1.83-.36l.68-.22c0-.33.15-1.42.7-1.19a6.51,6.51,0,0,1,1.53,1.24s-.11.07-.15.16-.24.26-.32.37a1.18,1.18,0,0,0,.1,1.6,1.31,1.31,0,0,0,.55.28c.13.07.15-.07.22.05s.22.51.34.59l0,0a.14.14,0,0,0,0,0,2.3,2.3,0,0,0,.52.26c.11,0,.12-.08.17,0a1.92,1.92,0,0,0,.35.64c.13.08-.07,0,.07.05a1.17,1.17,0,0,0,.56.26,1.27,1.27,0,0,0,1-.34c.17-.2.24-.3.37-.43s.17-.34.24-.41v0a.05.05,0,0,0,0,0l2.85.84c.69.2.66.14.92.72A1,1,0,0,1,20,15.07Z"/><path class="cls-2" d="M6.42,9.86a.95.95,0,1,0,1,1A.95.95,0,0,0,6.42,9.86Z"/></symbol><symbol id="apps-o-active" data-name="apps-o-active" viewBox="0 0 24 24"><path class="cls-2" d="M12,0C4,0,0,4,0,12S4,24,12,24s12-3.93,12-12S20.07,0,12,0ZM9.19,17.92a1,1,0,0,1-1,1H6a1,1,0,0,1-1-1V15.74a1,1,0,0,1,1-1H8.19a1,1,0,0,1,1,1Zm0-4.83a1,1,0,0,1-1,1H6a1,1,0,0,1-1-1V10.91a1,1,0,0,1,1-1H8.19a1,1,0,0,1,1,1Zm0-4.83a1,1,0,0,1-1,1H6a1,1,0,0,1-1-1V6.08a1,1,0,0,1,1-1H8.19a1,1,0,0,1,1,1Zm5.14,9.66a1,1,0,0,1-1,1H11.15a1,1,0,0,1-1-1V15.74a1,1,0,0,1,1-1h2.18a1,1,0,0,1,1,1Zm0-4.83a1,1,0,0,1-1,1H11.15a1,1,0,0,1-1-1V10.91a1,1,0,0,1,1-1h2.18a1,1,0,0,1,1,1Zm0-4.83a1,1,0,0,1-1,1H11.15a1,1,0,0,1-1-1V6.08a1,1,0,0,1,1-1h2.18a1,1,0,0,1,1,1Zm5.15,9.66a1,1,0,0,1-1,1H16.29a1,1,0,0,1-1-1V15.74a1,1,0,0,1,1-1h2.19a1,1,0,0,1,1,1Zm0-4.83a1,1,0,0,1-1,1H16.29a1,1,0,0,1-1-1V10.91a1,1,0,0,1,1-1h2.19a1,1,0,0,1,1,1Zm0-4.83a1,1,0,0,1-1,1H16.29a1,1,0,0,1-1-1V6.08a1,1,0,0,1,1-1h2.19a1,1,0,0,1,1,1Z"/></symbol><symbol id="news-o-active" data-name="news-o-active" viewBox="0 0 24 24"><path class="cls-2" d="M16,14.74H8a.46.46,0,0,0-.45.46.45.45,0,0,0,.45.45h8a.45.45,0,0,0,.45-.45A.46.46,0,0,0,16,14.74Z"/><path class="cls-2" d="M16,16.7H8a.46.46,0,0,0,0,.92h8a.46.46,0,0,0,0-.92Z"/><rect class="cls-2" x="7.53" y="6.49" width="3.44" height="3.44" rx="1"/><path class="cls-2" d="M16,12.78H8a.46.46,0,0,0,0,.91h8a.46.46,0,0,0,0-.91Z"/><path class="cls-2" d="M6.23,9.82H5.66a.5.5,0,0,0-.5.5v4.29a3.5,3.5,0,0,0,1.08,2.52s0-.07,0-.1Z"/><path class="cls-2" d="M16,8.82H12.16a.46.46,0,1,0,0,.91H16a.46.46,0,0,0,0-.91Z"/><path class="cls-2" d="M12,0C4,0,0,4,0,12S4,24,12,24s12-3.93,12-12S20.07,0,12,0Zm5.77,17a2,2,0,0,1-2,2H8.23L8,19a4,4,0,0,1-3.79-4.39V10.32a1.5,1.5,0,0,1,1.5-1.5h.57V7a2,2,0,0,1,2-2h7.54a2,2,0,0,1,2,2Z"/><path class="cls-2" d="M16,10.81H8a.46.46,0,0,0,0,.92h8a.46.46,0,0,0,0-.92Z"/><path class="cls-2" d="M16,6.68H12.16a.46.46,0,1,0,0,.91H16a.46.46,0,0,0,0-.91Z"/></symbol><symbol id="city-o-active" data-name="city-o-active" viewBox="0 0 24 24"><rect class="cls-2" x="12.11" y="15.87" width="1.07" height="1.07"/><rect class="cls-2" x="12.11" y="14.03" width="1.07" height="1.07"/><rect class="cls-2" x="12.11" y="12.18" width="1.07" height="1.07"/><rect class="cls-2" x="12.11" y="8.49" width="1.07" height="1.07"/><rect class="cls-2" x="12.11" y="10.34" width="1.07" height="1.07"/><rect class="cls-2" x="9.29" y="12.14" width="1.96" height="0.53"/><rect class="cls-2" x="6.56" y="16.43" width="0.81" height="0.6"/><rect class="cls-2" x="9.29" y="13.58" width="1.96" height="0.53"/><rect class="cls-2" x="6.56" y="15.03" width="0.81" height="0.6"/><rect class="cls-2" x="7.56" y="15.03" width="0.81" height="0.6"/><rect class="cls-2" x="7.56" y="16.43" width="0.81" height="0.6"/><rect class="cls-2" x="9.29" y="15.03" width="1.96" height="0.53"/><rect class="cls-2" x="9.29" y="16.47" width="1.96" height="0.53"/><rect class="cls-2" x="13.57" y="15.87" width="1.07" height="1.07"/><rect class="cls-2" x="16.87" y="13.46" width="0.81" height="0.81"/><rect class="cls-2" x="16.87" y="14.78" width="0.81" height="0.81"/><rect class="cls-2" x="15.87" y="12.14" width="0.81" height="0.81"/><rect class="cls-2" x="16.87" y="16.11" width="0.81" height="0.81"/><rect class="cls-2" x="16.87" y="12.14" width="0.81" height="0.81"/><path class="cls-2" d="M12,0C4,0,0,4,0,12S4,24,12,24s12-3.93,12-12S20.07,0,12,0Zm6.32,18.28H5.66v-2.9a2,2,0,0,1,2-2h.92V12a2,2,0,0,1,2-2h.92V8.86a1.66,1.66,0,0,1,.73-1.37,1,1,0,0,1,.3-.73A.77.77,0,0,1,13.22,6V4.42a.15.15,0,0,1,.15-.15h0a.16.16,0,0,1,.16.15V6a.76.76,0,0,1,.68.74,1,1,0,0,1,.31.73v0a1.66,1.66,0,0,1,.67,1.32v2.69l2.7-1.72a.39.39,0,0,1,.39.39Z"/><rect class="cls-2" x="13.57" y="12.18" width="1.07" height="1.07"/><rect class="cls-2" x="13.57" y="10.34" width="1.07" height="1.07"/><rect class="cls-2" x="13.57" y="8.49" width="1.07" height="1.07"/><rect class="cls-2" x="15.87" y="13.46" width="0.81" height="0.81"/><rect class="cls-2" x="13.57" y="14.03" width="1.07" height="1.07"/><rect class="cls-2" x="15.87" y="16.11" width="0.81" height="0.81"/><rect class="cls-2" x="15.87" y="14.78" width="0.81" height="0.81"/></symbol><symbol id="map-o-active" data-name="map-o-active" viewBox="0 0 24 24"><path class="cls-2" d="M12,6a2.2,2.2,0,1,0,2.2,2.2A2.2,2.2,0,0,0,12,6Z"/><path class="cls-2" d="M12,0C4,0,0,4,0,12S4,24,12,24s12-3.93,12-12S20.07,0,12,0Zm0,20S7.36,11.21,7.36,8.64a4.64,4.64,0,0,1,9.28,0C16.64,11.21,12,20,12,20Z"/></symbol><symbol id="weblink2-o" data-name="weblink2-o" viewBox="0 0 24 24"><path class="cls-2" d="M12,0C4,0,0,4,0,12S4,24,12,24s12-3.93,12-12S20.07,0,12,0Zm0,22.25C5.1,22.25,1.75,18.9,1.75,12S5.1,1.75,12,1.75c7.09,0,10.25,3.16,10.25,10.25S19,22.25,12,22.25Z"/><path class="cls-2" d="M18.6,7.5a7.14,7.14,0,0,0-.68-.86,8,8,0,0,0-4.77-2.55A8.77,8.77,0,0,0,12,4l-.48,0A8.06,8.06,0,0,0,6.08,6.64a9.52,9.52,0,0,0-.68.86,7.93,7.93,0,0,0,0,9,9.52,9.52,0,0,0,.68.86,8.11,8.11,0,0,0,3.29,2.19,8.27,8.27,0,0,0,2.18.43L12,20a8,8,0,0,0,5.92-2.64A7.94,7.94,0,0,0,18.6,7.5Zm-1.69.06a6.79,6.79,0,0,1-1.36.74,8.86,8.86,0,0,0-1.86-2.7A6.66,6.66,0,0,1,16.91,7.56Zm-1.66,4.38H12.46V10.06a10,10,0,0,0,2.43-.38A8,8,0,0,1,15.25,11.94ZM9.14,9.69a10.29,10.29,0,0,0,2.4.37v1.88H8.75A7.28,7.28,0,0,1,9.14,9.69ZM8.8,12.85h2.74v1.09a10.46,10.46,0,0,0-2.41.37A6.9,6.9,0,0,1,8.8,12.85Zm3.66,0h2.75a7.83,7.83,0,0,1-.31,1.47,10,10,0,0,0-2.44-.38Zm0-6.82a7.87,7.87,0,0,1,2,2.63,9,9,0,0,1-2,.31Zm-.92.27V9a9.54,9.54,0,0,1-2-.29A7.68,7.68,0,0,1,11.54,6.3Zm-.77-.81A8.54,8.54,0,0,0,8.51,8.33a6.88,6.88,0,0,1-1.42-.77A6.6,6.6,0,0,1,10.77,5.49Zm-5.4,6.45A6.63,6.63,0,0,1,6.44,8.42a8.24,8.24,0,0,0,1.66.91,8.36,8.36,0,0,0-.45,2.61Zm.06.91H7.69a8.44,8.44,0,0,0,.41,1.82,8.24,8.24,0,0,0-1.66.91A6.62,6.62,0,0,1,5.43,12.85Zm1.66,3.59a6.88,6.88,0,0,1,1.42-.77,8.82,8.82,0,0,0,2.23,2.84A6.67,6.67,0,0,1,7.09,16.44Zm4.45,1.28a7.38,7.38,0,0,1-2-2.4,9.54,9.54,0,0,1,2-.29Zm.92.26V15a9,9,0,0,1,2,.31A8,8,0,0,1,12.46,18Zm1.26.42a9.17,9.17,0,0,0,1.84-2.7,7,7,0,0,1,1.35.74A6.74,6.74,0,0,1,13.72,18.4Zm2.22-3.71a9.23,9.23,0,0,0,.37-1.84h2.26a6.56,6.56,0,0,1-1,2.73A9.08,9.08,0,0,0,15.94,14.69Zm.41-2.75a9.1,9.1,0,0,0-.41-2.63,9.08,9.08,0,0,0,1.63-.89,6.68,6.68,0,0,1,1.06,3.52Z"/></symbol><symbol id="weblink2-o-active" data-name="weblink2-o-active" viewBox="0 0 24 24"><path class="cls-2" d="M9.13,14.31a10.46,10.46,0,0,1,2.41-.37V12.85H8.8A6.9,6.9,0,0,0,9.13,14.31Z"/><path class="cls-2" d="M16.91,7.56a6.66,6.66,0,0,0-3.22-2,8.86,8.86,0,0,1,1.86,2.7A6.79,6.79,0,0,0,16.91,7.56Z"/><path class="cls-2" d="M8.75,11.94h2.79V10.06a10.29,10.29,0,0,1-2.4-.37A7.28,7.28,0,0,0,8.75,11.94Z"/><path class="cls-2" d="M9.57,8.68a9.54,9.54,0,0,0,2,.29V6.3A7.68,7.68,0,0,0,9.57,8.68Z"/><path class="cls-2" d="M12,0C4,0,0,4,0,12S4,24,12,24s12-3.93,12-12S20.07,0,12,0Zm6.6,16.51a7.91,7.91,0,0,1-.68.85A8.2,8.2,0,0,1,12,20l-.45,0a8.27,8.27,0,0,1-2.18-.43,8.11,8.11,0,0,1-3.29-2.19,9.52,9.52,0,0,1-.68-.86,7.93,7.93,0,0,1,0-9,9.52,9.52,0,0,1,.68-.86A8.06,8.06,0,0,1,11.52,4L12,4a8.77,8.77,0,0,1,1.15.09,8,8,0,0,1,4.77,2.55,7.14,7.14,0,0,1,.68.86,7.95,7.95,0,0,1,0,9Z"/><path class="cls-2" d="M8.1,9.33a8.24,8.24,0,0,1-1.66-.91,6.63,6.63,0,0,0-1.07,3.52H7.65A8.36,8.36,0,0,1,8.1,9.33Z"/><path class="cls-2" d="M8.51,15.67a6.88,6.88,0,0,0-1.42.77,6.67,6.67,0,0,0,3.65,2.07A8.82,8.82,0,0,1,8.51,15.67Z"/><path class="cls-2" d="M10.77,5.49A6.6,6.6,0,0,0,7.09,7.56a6.88,6.88,0,0,0,1.42.77A8.54,8.54,0,0,1,10.77,5.49Z"/><path class="cls-2" d="M7.69,12.85H5.43a6.62,6.62,0,0,0,1,2.73,8.24,8.24,0,0,1,1.66-.91A8.44,8.44,0,0,1,7.69,12.85Z"/><path class="cls-2" d="M11.54,17.72V15a9.54,9.54,0,0,0-2,.29A7.38,7.38,0,0,0,11.54,17.72Z"/><path class="cls-2" d="M15.94,14.69a9.08,9.08,0,0,1,1.63.89,6.56,6.56,0,0,0,1-2.73H16.31A9.23,9.23,0,0,1,15.94,14.69Z"/><path class="cls-2" d="M13.72,18.4a6.74,6.74,0,0,0,3.19-2,7,7,0,0,0-1.35-.74A9.17,9.17,0,0,1,13.72,18.4Z"/><path class="cls-2" d="M15.94,9.31a9.1,9.1,0,0,1,.41,2.63h2.28a6.68,6.68,0,0,0-1.06-3.52A9.08,9.08,0,0,1,15.94,9.31Z"/><path class="cls-2" d="M12.46,15v3a8,8,0,0,0,2-2.64A9,9,0,0,0,12.46,15Z"/><path class="cls-2" d="M12.46,6V9a9,9,0,0,0,2-.31A7.87,7.87,0,0,0,12.46,6Z"/><path class="cls-2" d="M14.89,9.68a10,10,0,0,1-2.43.38v1.88h2.79A8,8,0,0,0,14.89,9.68Z"/><path class="cls-2" d="M15.21,12.85H12.46v1.09a10,10,0,0,1,2.44.38A7.83,7.83,0,0,0,15.21,12.85Z"/></symbol><symbol id="map-o" data-name="map-o" viewBox="0 0 24 24"><path class="cls-2" d="M12,0C4,0,0,4,0,12S4,24,12,24s12-3.93,12-12S20.07,0,12,0Zm0,22.25C5.1,22.25,1.75,18.9,1.75,12S5.1,1.75,12,1.75c7.09,0,10.25,3.16,10.25,10.25S19,22.25,12,22.25Z"/><path class="cls-2" d="M12,4A4.64,4.64,0,0,0,7.36,8.64C7.36,11.21,12,20,12,20s4.64-8.79,4.64-11.36A4.64,4.64,0,0,0,12,4Zm0,6.35a2.2,2.2,0,1,1,2.2-2.19A2.2,2.2,0,0,1,12,10.35Z"/></symbol><symbol id="apps-o" data-name="apps-o" viewBox="0 0 24 24"><path class="cls-2" d="M12,0C4,0,0,4,0,12S4,24,12,24s12-3.93,12-12S20.07,0,12,0Zm0,22.25C5.1,22.25,1.75,18.9,1.75,12S5.1,1.75,12,1.75c7.09,0,10.25,3.16,10.25,10.25S19,22.25,12,22.25Z"/><rect class="cls-2" x="5" y="5.08" width="4.19" height="4.19" rx="1"/><rect class="cls-2" x="10.15" y="5.08" width="4.19" height="4.19" rx="1"/><rect class="cls-2" x="15.29" y="5.08" width="4.19" height="4.19" rx="1"/><rect class="cls-2" x="5" y="9.91" width="4.19" height="4.19" rx="1"/><rect class="cls-2" x="10.15" y="9.91" width="4.19" height="4.19" rx="1"/><rect class="cls-2" x="15.29" y="9.91" width="4.19" height="4.19" rx="1"/><rect class="cls-2" x="5" y="14.74" width="4.19" height="4.19" rx="1"/><rect class="cls-2" x="10.15" y="14.74" width="4.19" height="4.19" rx="1"/><rect class="cls-2" x="15.29" y="14.74" width="4.19" height="4.19" rx="1"/></symbol><symbol id="resources-o-active" data-name="resources-o-active" viewBox="0 0 24 24"><circle class="cls-2" cx="12" cy="18.1" r="0.96"/><path class="cls-2" d="M12,0C4,0,0,4,0,12S4,24,12,24s12-3.93,12-12S20.07,0,12,0Zm2.16,11.55v6.89a2.16,2.16,0,1,1-4.32,0V11.55a4.53,4.53,0,0,1,.4-8.15V7.32h3.52V3.4a4.53,4.53,0,0,1,.4,8.15Z"/></symbol><symbol id="resources-o" data-name="resources-o" viewBox="0 0 24 24"><path class="cls-2" d="M12,0C4,0,0,4,0,12S4,24,12,24s12-3.93,12-12S20.07,0,12,0Zm0,22.25C5.1,22.25,1.75,18.9,1.75,12S5.1,1.75,12,1.75c7.09,0,10.25,3.16,10.25,10.25S19,22.25,12,22.25Z"/><path class="cls-2" d="M13.76,3.4V7.32H10.24V3.4a4.53,4.53,0,0,0-.4,8.15v6.89a2.16,2.16,0,1,0,4.32,0V11.55a4.53,4.53,0,0,0-.4-8.15ZM12,19.06a1,1,0,1,1,1-1A1,1,0,0,1,12,19.06Z"/></symbol><symbol id="student-o-active" data-name="student-o-active" viewBox="0 0 24 24"><path class="cls-2" d="M12,0C4,0,0,4,0,12S4,24,12,24s12-3.93,12-12S20.07,0,12,0Zm0,18.67a4.44,4.44,0,1,1,4.44-4.44A4.44,4.44,0,0,1,12,18.67Zm7.1-6.7-1.8.63a5.54,5.54,0,0,0-10.48-.37l-1.26-.54V15a.56.56,0,0,1-1.12,0V11a.62.62,0,0,1,.3-.67l6.35-4.69a1.55,1.55,0,0,1,1.78,0l6.42,5.24C19.76,11.27,19.67,11.76,19.09,12Z"/></symbol><symbol id="documents-o-active" data-name="documents-o-active" viewBox="0 0 24 24"><path class="cls-2" d="M16,10.83H8a.56.56,0,0,0,0,1.11h8a.56.56,0,0,0,0-1.11Z"/><path class="cls-2" d="M16,12.68H8a.55.55,0,1,0,0,1.1h8a.55.55,0,0,0,0-1.1Z"/><path class="cls-2" d="M16,14.52H8a.56.56,0,0,0,0,1.11h8a.56.56,0,0,0,0-1.11Z"/><path class="cls-2" d="M16,16.37H8a.55.55,0,1,0,0,1.1h8a.55.55,0,0,0,0-1.1Z"/><path class="cls-2" d="M16,9H10.84a.55.55,0,0,0-.55.55.55.55,0,0,0,.55.55H16a.54.54,0,0,0,.55-.55A.55.55,0,0,0,16,9Z"/><path class="cls-2" d="M12,0C4,0,0,4,0,12S4,24,12,24s12-3.93,12-12S20.07,0,12,0Zm5.76,17a2,2,0,0,1-2,2H8.24a2,2,0,0,1-2-2v-10a2,2,0,0,1,2-2h7.52a2,2,0,0,1,2,2Z"/></symbol><symbol id="link2-o-active" data-name="link2-o-active" viewBox="0 0 24 24"><path class="cls-2" d="M12,0C4,0,0,4,0,12S4,24,12,24s12-3.93,12-12S20.07,0,12,0Zm0,15.42L9.4,18a2.74,2.74,0,0,1-3.87,0,2.75,2.75,0,0,1,0-3.87L8.1,11.55a2.68,2.68,0,0,1,1.93-.8A2.8,2.8,0,0,1,11.1,11l.17.08-.83.83h-.07a1.37,1.37,0,0,0-.34,0,1.62,1.62,0,0,0-1.17.49L6.29,14.87a1.66,1.66,0,0,0,2.35,2.35l2.57-2.56a1.66,1.66,0,0,0,.47-1.31v-.06l.87-.87.06.19a2.51,2.51,0,0,1,.16.87A2.76,2.76,0,0,1,12,15.42ZM13.83,8.9a.65.65,0,0,1,.91,0,.67.67,0,0,1,0,.91l-4.55,4.55a.67.67,0,0,1-.91,0,.65.65,0,0,1,0-.91ZM18.47,9,15.9,11.61a2.72,2.72,0,0,1-1.93.8,2.8,2.8,0,0,1-1-.19l-.18-.07.86-.85h.06a1.65,1.65,0,0,0,1.41-.46l2.57-2.57a1.68,1.68,0,0,0,0-2.35,1.68,1.68,0,0,0-1.18-.49,1.66,1.66,0,0,0-1.17.49L12.79,8.5a1.65,1.65,0,0,0-.48,1.17,1.5,1.5,0,0,0,0,.22V10l0,.06-.81.81-.07-.18A2.68,2.68,0,0,1,12,7.74L14.6,5.17a2.68,2.68,0,0,1,1.93-.8,2.72,2.72,0,0,1,1.94.8A2.75,2.75,0,0,1,18.47,9Z"/></symbol><symbol id="link2-o" data-name="link2-o" viewBox="0 0 24 24"><path class="cls-2" d="M12,0C4,0,0,4,0,12S4,24,12,24s12-3.93,12-12S20.07,0,12,0Zm0,22.25C5.1,22.25,1.75,18.9,1.75,12S5.1,1.75,12,1.75c7.09,0,10.25,3.16,10.25,10.25S19,22.25,12,22.25Z"/><path class="cls-2" d="M12.55,12.42l-.87.87v.06a1.66,1.66,0,0,1-.47,1.31L8.64,17.22a1.66,1.66,0,0,1-2.35-2.35l2.57-2.56A1.62,1.62,0,0,1,10,11.82a1.37,1.37,0,0,1,.34,0h.07l.83-.83L11.1,11A2.8,2.8,0,0,0,10,10.75a2.68,2.68,0,0,0-1.93.8L5.53,14.11a2.75,2.75,0,0,0,0,3.87A2.74,2.74,0,0,0,9.4,18L12,15.42a2.76,2.76,0,0,0,.8-1.94,2.51,2.51,0,0,0-.16-.87Z"/><path class="cls-2" d="M9.28,14.36a.67.67,0,0,0,.91,0l4.55-4.55a.67.67,0,0,0,0-.91.65.65,0,0,0-.91,0L9.28,13.45A.65.65,0,0,0,9.28,14.36Z"/><path class="cls-2" d="M18.47,5.17a2.72,2.72,0,0,0-1.94-.8,2.68,2.68,0,0,0-1.93.8L12,7.74a2.68,2.68,0,0,0-.61,2.9l.07.18L12.3,10l0-.06V9.89a1.5,1.5,0,0,1,0-.22,1.65,1.65,0,0,1,.48-1.17l2.57-2.57a1.66,1.66,0,0,1,1.17-.49,1.68,1.68,0,0,1,1.18.49,1.68,1.68,0,0,1,0,2.35l-2.57,2.57a1.65,1.65,0,0,1-1.41.46h-.06l-.86.85.18.07a2.8,2.8,0,0,0,1,.19,2.72,2.72,0,0,0,1.93-.8L18.47,9A2.75,2.75,0,0,0,18.47,5.17Z"/></symbol><symbol id="school-o-active" data-name="school-o-active" viewBox="0 0 24 24"><path class="cls-2" d="M5.81,7.69v8.49A5.07,5.07,0,0,1,11.68,16V7.5A5.07,5.07,0,0,0,5.81,7.69Z"/><path class="cls-2" d="M12,0C4,0,0,4,0,12S4,24,12,24s12-3.93,12-12S20.07,0,12,0Zm7.91,16.18a1.27,1.27,0,0,1-1.26,1.26H12.58l-.61.68-.61-.68h-6a1.27,1.27,0,0,1-1.26-1.26v-7A1.25,1.25,0,0,1,4.82,8V7.1a5.91,5.91,0,0,1,7.15,0,5.91,5.91,0,0,1,7.15,0V8a1.27,1.27,0,0,1,.79,1.17Z"/><path class="cls-2" d="M12.32,7.46V16a5.07,5.07,0,0,1,5.82.23V7.69A5.07,5.07,0,0,0,12.32,7.46Z"/></symbol><symbol id="group2-o" data-name="group2-o" viewBox="0 0 24 24"><path class="cls-2" d="M12,0C4,0,0,4,0,12S4,24,12,24s12-3.93,12-12S20.07,0,12,0Zm0,22.25C5.1,22.25,1.75,18.9,1.75,12S5.1,1.75,12,1.75c7.09,0,10.25,3.16,10.25,10.25S19,22.25,12,22.25Z"/><path class="cls-2" d="M2.76,15.61H8.3a2.77,2.77,0,0,0-1.65-2.53,3,3,0,0,0,.8-1.6.26.26,0,0,0,.21-.25A.26.26,0,0,0,7.52,11c0-.12,0-.24,0-.36v-.25a6.28,6.28,0,0,0-.1-1,4.35,4.35,0,0,0,.22-.94c.11-.8-1.05-.88-1.05-.88s.4-.11.4-.11a1.88,1.88,0,0,0-2.27.32c-1.52.14-1.46,2.35-1.43,2.78v.08c0,.13,0,.25,0,.38a.25.25,0,0,0,.06.45,2.88,2.88,0,0,0,.89,1.68A2.77,2.77,0,0,0,2.76,15.61Z"/><path class="cls-2" d="M15.7,15.61h5.54a2.77,2.77,0,0,0-1.65-2.53,3,3,0,0,0,.8-1.6.26.26,0,0,0,.21-.25.25.25,0,0,0-.15-.23c0-.12,0-.24,0-.36a2.09,2.09,0,0,0,0-.25,6.07,6.07,0,0,0-.09-1,6,6,0,0,0,.22-.94c.11-.8-1.05-.88-1.05-.88s.4-.11.4-.11a1.88,1.88,0,0,0-2.27.32c-1.52.14-1.46,2.35-1.44,2.78v.08c0,.13,0,.25,0,.38a.24.24,0,0,0-.11.21.26.26,0,0,0,.17.24,2.82,2.82,0,0,0,.89,1.68A2.77,2.77,0,0,0,15.7,15.61Z"/><path class="cls-2" d="M8,19.18h8.58A4.28,4.28,0,0,0,14,15.26a4.54,4.54,0,0,0,1.24-2.48.4.4,0,0,0,.33-.39.41.41,0,0,0-.23-.36,5,5,0,0,0,0-.55V11.1a9.33,9.33,0,0,0-.15-1.55,8,8,0,0,0,.34-1.46c.18-1.23-1.62-1.36-1.62-1.36s.61-.18.61-.18c-2.23-.84-3.28.23-3.5.51-2.36.21-2.27,3.63-2.23,4.3v.12c0,.2,0,.39,0,.58a.43.43,0,0,0-.17.33.41.41,0,0,0,.27.38,4.42,4.42,0,0,0,1.37,2.6A4.28,4.28,0,0,0,8,19.18Z"/></symbol><symbol id="group2-o-active" data-name="group2-o-active" viewBox="0 0 24 24"><path class="cls-2" d="M12,0C4,0,0,4,0,12S4,24,12,24s12-3.93,12-12S20.07,0,12,0ZM2.76,15.61a2.77,2.77,0,0,1,1.5-2.46,2.88,2.88,0,0,1-.89-1.68A.25.25,0,0,1,3.31,11c0-.13,0-.25,0-.38v-.08c0-.43-.09-2.64,1.43-2.78A1.88,1.88,0,0,1,7,7.46s-.46,0-.4.11,1.16.08,1.05.88a4.35,4.35,0,0,1-.22.94,6.28,6.28,0,0,1,.1,1v.25c0,.12,0,.24,0,.36a.26.26,0,0,1,.14.23.26.26,0,0,1-.21.25,3,3,0,0,1-.8,1.6A2.77,2.77,0,0,1,8.3,15.61ZM8,19.18a4.28,4.28,0,0,1,2.32-3.81,4.42,4.42,0,0,1-1.37-2.6.41.41,0,0,1-.27-.38.43.43,0,0,1,.17-.33c0-.19,0-.38,0-.58v-.12c0-.67-.13-4.09,2.23-4.3.22-.28,1.27-1.35,3.5-.51,0,0-.7,0-.61.18s1.8.13,1.62,1.36a8,8,0,0,1-.34,1.46,9.33,9.33,0,0,1,.15,1.55v.38a5,5,0,0,1,0,.55.41.41,0,0,1,.23.36.4.4,0,0,1-.33.39A4.54,4.54,0,0,1,14,15.26a4.28,4.28,0,0,1,2.56,3.92Zm7.71-3.57a2.77,2.77,0,0,1,1.5-2.46,2.82,2.82,0,0,1-.89-1.68.26.26,0,0,1-.17-.24.24.24,0,0,1,.11-.21c0-.13,0-.25,0-.38v-.08c0-.43-.08-2.64,1.44-2.78a1.88,1.88,0,0,1,2.27-.32s-.46,0-.4.11,1.16.08,1.05.88a6,6,0,0,1-.22.94,6.07,6.07,0,0,1,.09,1,2.09,2.09,0,0,1,0,.25c0,.12,0,.24,0,.36a.25.25,0,0,1,.15.23.26.26,0,0,1-.21.25,3,3,0,0,1-.8,1.6,2.77,2.77,0,0,1,1.65,2.53Z"/></symbol><symbol id="schedule-o-active" data-name="schedule-o-active" viewBox="0 0 24 24"><path class="cls-2" d="M14.88,9.48A.89.89,0,0,1,14,8.63H10a.9.9,0,0,1-1.79,0H7.46v8.16h9.08V8.63h-.76A.89.89,0,0,1,14.88,9.48ZM14,15.82H10V15l2-2.18a3.28,3.28,0,0,0,.53-.72,1.38,1.38,0,0,0,.16-.64.78.78,0,0,0-.23-.61,1,1,0,0,0-.68-.21,2.68,2.68,0,0,0-1.61.61l-.36-.78a2.43,2.43,0,0,1,.9-.5,3.32,3.32,0,0,1,1.11-.19,2.09,2.09,0,0,1,1.41.44,1.44,1.44,0,0,1,.52,1.18,2.1,2.1,0,0,1-.22,1,4.33,4.33,0,0,1-.74,1L11.37,15H14Z"/><path class="cls-2" d="M12,0C4,0,0,4,0,12S4,24,12,24s12-3.93,12-12S20.07,0,12,0Zm6,17.77a.5.5,0,0,1-.5.5h-11a.5.5,0,0,1-.5-.5V7.42a.51.51,0,0,1,.5-.51H8.22V6.62a.9.9,0,0,1,1.79,0v.29h4V6.62a.9.9,0,0,1,1.79,0v.29h1.73a.5.5,0,0,1,.5.5Z"/></symbol><symbol id="school-o" data-name="school-o" viewBox="0 0 24 24"><path class="cls-2" d="M12,0C4,0,0,4,0,12S4,24,12,24s12-3.93,12-12S20.07,0,12,0Zm0,22.25C5.1,22.25,1.75,18.9,1.75,12S5.1,1.75,12,1.75c7.09,0,10.25,3.16,10.25,10.25S19,22.25,12,22.25Z"/><path class="cls-2" d="M19.12,8V7.1a5.91,5.91,0,0,0-7.15,0,5.91,5.91,0,0,0-7.15,0V8a1.25,1.25,0,0,0-.73,1.14v7a1.27,1.27,0,0,0,1.26,1.26h6l.61.68.61-.68h6.07a1.27,1.27,0,0,0,1.26-1.26v-7A1.27,1.27,0,0,0,19.12,8Zm-7.44,8a5.07,5.07,0,0,0-5.87.19V7.69a5.07,5.07,0,0,1,5.87-.19Zm6.46.19A5.07,5.07,0,0,0,12.32,16V7.46a5.07,5.07,0,0,1,5.82.23Z"/></symbol><symbol id="schedule-o" data-name="schedule-o" viewBox="0 0 24 24"><path class="cls-2" d="M12,0C4,0,0,4,0,12S4,24,12,24s12-3.93,12-12S20.07,0,12,0Zm0,22.25C5.1,22.25,1.75,18.9,1.75,12S5.1,1.75,12,1.75c7.09,0,10.25,3.16,10.25,10.25S19,22.25,12,22.25Z"/><path class="cls-2" d="M17.51,6.91H15.78V6.62a.9.9,0,0,0-1.79,0v.29H10V6.62a.9.9,0,0,0-1.79,0v.29H6.49a.51.51,0,0,0-.5.51V17.77a.5.5,0,0,0,.5.5h11a.5.5,0,0,0,.5-.5V7.41A.5.5,0,0,0,17.51,6.91ZM10,8.63h4a.9.9,0,0,0,1.79,0h.76v8.16H7.46V8.63h.76a.9.9,0,0,0,1.79,0Z"/><path class="cls-2" d="M14,15v.87H10V15l2-2.18a3.28,3.28,0,0,0,.53-.72,1.38,1.38,0,0,0,.16-.64.78.78,0,0,0-.23-.61,1,1,0,0,0-.68-.21,2.68,2.68,0,0,0-1.61.61l-.36-.78a2.43,2.43,0,0,1,.9-.5,3.32,3.32,0,0,1,1.11-.19,2.09,2.09,0,0,1,1.41.44,1.44,1.44,0,0,1,.52,1.18,2.1,2.1,0,0,1-.22,1,4.33,4.33,0,0,1-.74,1L11.37,15Z"/></symbol><symbol id="directory-o-active" data-name="directory-o-active" viewBox="0 0 24 24"><path class="cls-2" d="M12,0C4,0,0,4,0,12S4,24,12,24s12-3.93,12-12S20.07,0,12,0ZM6,7.09h.84a.8.8,0,1,1,0,1.59H6A.8.8,0,0,1,6,7.09ZM6,9.71h.84a.79.79,0,1,1,0,1.58H6A.79.79,0,0,1,6,9.71Zm0,2.61h.84a.8.8,0,1,1,0,1.59H6a.8.8,0,0,1,0-1.59Zm-.79,3.41a.8.8,0,0,1,.79-.8h.84a.8.8,0,1,1,0,1.59H6A.8.8,0,0,1,5.23,15.73Zm13,1.05a1.87,1.87,0,0,1-1.86,1.86H8.16A1.85,1.85,0,0,1,6.32,17h.54a1.26,1.26,0,1,0,0-2.51H6.3v-.1h.56a1.26,1.26,0,0,0,0-2.52H6.3v-.09h.56a1.26,1.26,0,0,0,0-2.52H6.3V9.15h.56a1.26,1.26,0,0,0,0-2.52H6.32A1.85,1.85,0,0,1,8.16,5h8.25a1.87,1.87,0,0,1,1.86,1.86Z"/><rect class="cls-2" x="9.57" y="7.11" width="6.99" height="5.19" rx="0.93"/></symbol><symbol id="directory-o" data-name="directory-o" viewBox="0 0 24 24"><path class="cls-2" d="M12,0C4,0,0,4,0,12S4,24,12,24s12-3.93,12-12S20.07,0,12,0Zm0,22.25C5.1,22.25,1.75,18.9,1.75,12S5.1,1.75,12,1.75c7.09,0,10.25,3.16,10.25,10.25S19,22.25,12,22.25Z"/><rect class="cls-2" x="5.23" y="7.09" width="2.43" height="1.59" rx="0.79"/><rect class="cls-2" x="5.23" y="9.71" width="2.43" height="1.59" rx="0.79"/><rect class="cls-2" x="5.23" y="14.93" width="2.43" height="1.59" rx="0.79"/><rect class="cls-2" x="5.23" y="12.32" width="2.43" height="1.59" rx="0.79"/><path class="cls-2" d="M16.41,5H8.16A1.85,1.85,0,0,0,6.32,6.63h.54a1.26,1.26,0,0,1,0,2.52H6.3v.09h.56a1.26,1.26,0,0,1,0,2.52H6.3v.09h.56a1.26,1.26,0,0,1,0,2.52H6.3v.1h.56a1.26,1.26,0,1,1,0,2.51H6.32a1.85,1.85,0,0,0,1.84,1.66h8.25a1.87,1.87,0,0,0,1.86-1.86v-10A1.87,1.87,0,0,0,16.41,5Zm.15,6.4a.93.93,0,0,1-.93.93H10.5a.93.93,0,0,1-.93-.93V8a.93.93,0,0,1,.93-.93h5.13a.93.93,0,0,1,.93.93Z"/></symbol><symbol id="grades-o-active" data-name="grades-o-active" viewBox="0 0 24 24"><polygon class="cls-2" points="8.21 12.48 10.55 12.48 9.38 9.76 8.21 12.48"/><path class="cls-2" d="M12,0C4,0,0,4,0,12S4,24,12,24s12-3.93,12-12S20.07,0,12,0Zm.05,16-.76-1.77H7.47L6.71,16H4.45l4-8.59h1.79l4,8.59Zm6.85-3.77H16.67v2.24H15.2V12.18H13V10.72H15.2V8.47h1.47v2.25H18.9Z"/></symbol><symbol id="grades-o" data-name="grades-o" viewBox="0 0 24 24"><path class="cls-2" d="M12,0C4,0,0,4,0,12S4,24,12,24s12-3.93,12-12S20.07,0,12,0Zm0,22.25C5.1,22.25,1.75,18.9,1.75,12S5.1,1.75,12,1.75c7.09,0,10.25,3.16,10.25,10.25S19,22.25,12,22.25Z"/><path class="cls-2" d="M12.05,16l-.76-1.77H7.47L6.71,16H4.45l4-8.59h1.79l4,8.59ZM8.21,12.48h2.34L9.38,9.76Z"/><path class="cls-2" d="M18.9,10.72v1.46H16.67v2.24H15.2V12.18H13V10.72H15.2V8.47h1.47v2.25Z"/></symbol><symbol id="city-o" data-name="city-o" viewBox="0 0 24 24"><path class="cls-2" d="M12,0C4,0,0,4,0,12S4,24,12,24s12-3.93,12-12S20.07,0,12,0Zm0,22.25C5.1,22.25,1.75,18.9,1.75,12S5.1,1.75,12,1.75c7.09,0,10.25,3.16,10.25,10.25S19,22.25,12,22.25Z"/><path class="cls-2" d="M17.93,9.83l-2.7,1.72V8.86a1.66,1.66,0,0,0-.67-1.32v0a1,1,0,0,0-.31-.73A.76.76,0,0,0,13.57,6V4.42a.16.16,0,0,0-.16-.15h0a.15.15,0,0,0-.15.15V6a.77.77,0,0,0-.69.74,1,1,0,0,0-.3.73,1.66,1.66,0,0,0-.73,1.37V10h-.92a2,2,0,0,0-2,2v1.35H7.66a2,2,0,0,0-2,2v2.9H18.32V10.22A.39.39,0,0,0,17.93,9.83ZM7.37,17H6.56v-.6h.81Zm0-1.4H6.56V15h.81Zm1,1.4h-.8v-.6h.8Zm0-1.4h-.8V15h.8ZM11.25,17h-2v-.53h2Zm0-1.45h-2V15h2Zm0-1.44h-2v-.53h2Zm0-1.44h-2v-.53h2Zm1.93,4.27H12.11V15.87h1.07Zm0-1.84H12.11V14h1.07Zm0-1.85H12.11V12.18h1.07Zm0-1.84H12.11V10.34h1.07Zm0-1.85H12.11V8.49h1.07Zm1.46,7.38H13.57V15.87h1.07Zm0-1.84H13.57V14h1.07Zm0-1.85H13.57V12.18h1.07Zm0-1.84H13.57V10.34h1.07Zm0-1.85H13.57V8.49h1.07Zm2,7.35h-.81v-.8h.81Zm0-1.32h-.81v-.81h.81Zm0-1.32h-.81v-.81h.81Zm0-1.32h-.81v-.81h.81Zm1,4h-.8v-.8h.8Zm0-1.32h-.8v-.81h.8Zm0-1.32h-.8v-.81h.8Zm0-1.32h-.8v-.81h.8Z"/></symbol><symbol id="sports-icon-o" data-name="sports-icon-o" viewBox="0 0 24 24"><path class="cls-2" d="M12,0C4,0,0,4,0,12S4,24,12,24s12-3.93,12-12S20.07,0,12,0Zm0,22.25C5.1,22.25,1.75,18.9,1.75,12S5.1,1.75,12,1.75c7.09,0,10.25,3.16,10.25,10.25S19,22.25,12,22.25Z"/><path class="cls-6" d="M13.23,11.94h0"/><path class="cls-6" d="M16.52,12h0"/><path class="cls-2" d="M20.33,13.61c-.26-.58-.23-.52-.92-.72l-2.85-.84a.05.05,0,0,1,0,0v0c-.07.07-.11.29-.24.41s-.2.23-.37.43a1.27,1.27,0,0,1-1,.34,1.17,1.17,0,0,1-.56-.26c-.14-.09.06,0-.07-.05a1.92,1.92,0,0,1-.35-.64c-.05-.12-.06,0-.17,0a2.3,2.3,0,0,1-.52-.26.14.14,0,0,1,0,0l0,0c-.12-.08-.27-.48-.34-.59s-.09,0-.22-.05a1.31,1.31,0,0,1-.55-.28A1.18,1.18,0,0,1,12,9.4c.08-.11.28-.29.32-.37s.19-.12.15-.16a6.51,6.51,0,0,0-1.53-1.24c-.55-.23-.66.86-.7,1.19L9.55,9c-.41.14-1.26.59-1.83.36a2,2,0,0,1-1-1.34c-.23-.59-.44-.57-1-.15S5,9.22,4.8,9.66s-.25.48-.38.76a2.88,2.88,0,0,0-.33.7,1.64,1.64,0,0,1-.07.36c-.06.2-.34.29-.48.46s.12.46.28.57a16.66,16.66,0,0,0,4.75,1.75,15.24,15.24,0,0,1,2.09.5c.61.18,1.62.43,2.59.65h6.17a2.15,2.15,0,0,0,.57-.34A1,1,0,0,0,20.33,13.61ZM6.42,11.76a1,1,0,1,1,1-.95A.95.95,0,0,1,6.42,11.76Z"/><path class="cls-2" d="M12.4,10.65a.69.69,0,0,0,.92,0,2.42,2.42,0,0,0,.36-.42.68.68,0,0,0-.07-.91.67.67,0,0,0-.91,0,3,3,0,0,0-.37.42A.68.68,0,0,0,12.4,10.65Z"/><path class="cls-2" d="M13.55,11.59a.67.67,0,0,0,.91,0,2.86,2.86,0,0,0,.36-.42.69.69,0,0,0-.06-.92.67.67,0,0,0-.91,0,3.7,3.7,0,0,0-.37.42A.69.69,0,0,0,13.55,11.59Z"/><path class="cls-2" d="M14.58,11.66a.69.69,0,0,0,.07.92.65.65,0,0,0,.9,0,3.7,3.7,0,0,0,.37-.42.69.69,0,0,0-.07-.92.67.67,0,0,0-.91,0A3.62,3.62,0,0,0,14.58,11.66Z"/></symbol><symbol id="student-o" data-name="student-o" viewBox="0 0 24 24"><path class="cls-2" d="M12,0C4,0,0,4,0,12S4,24,12,24s12-3.93,12-12S20.07,0,12,0Zm0,22.25C5.1,22.25,1.75,18.9,1.75,12S5.1,1.75,12,1.75c7.09,0,10.25,3.16,10.25,10.25S19,22.25,12,22.25Z"/><path class="cls-2" d="M19.28,10.88,12.86,5.64a1.55,1.55,0,0,0-1.78,0L4.73,10.28a.62.62,0,0,0-.3.67V15a.56.56,0,0,0,1.12,0V11.69l1.26.54a5.54,5.54,0,0,1,10.48.37l1.8-.63C19.67,11.76,19.76,11.27,19.28,10.88Z"/><path class="cls-2" d="M12,9.79a4.44,4.44,0,1,0,4.44,4.44A4.44,4.44,0,0,0,12,9.79Z"/></symbol><symbol id="news-o" data-name="news-o" viewBox="0 0 24 24"><path class="cls-2" d="M12,0C4,0,0,4,0,12S4,24,12,24s12-3.93,12-12S20.07,0,12,0Zm0,22.25C5.1,22.25,1.75,18.9,1.75,12S5.1,1.75,12,1.75c7.09,0,10.25,3.16,10.25,10.25S19,22.25,12,22.25Z"/><path class="cls-2" d="M15.77,5H8.23a2,2,0,0,0-2,2V8.82H5.66a1.5,1.5,0,0,0-1.5,1.5v4.29A4,4,0,0,0,8,19l.28,0h7.54a2,2,0,0,0,2-2V7A2,2,0,0,0,15.77,5ZM7.53,7.49a1,1,0,0,1,1-1H10a1,1,0,0,1,1,1V8.92a1,1,0,0,1-1,1H8.53a1,1,0,0,1-1-1ZM5.16,14.61V10.32a.5.5,0,0,1,.5-.5h.57V17s0,.06,0,.1A3.5,3.5,0,0,1,5.16,14.61Zm10.86,3H8a.46.46,0,0,1,0-.92h8a.46.46,0,0,1,0,.92Zm0-2H8a.45.45,0,0,1-.45-.45A.46.46,0,0,1,8,14.74h8a.46.46,0,0,1,.45.46A.45.45,0,0,1,16,15.65Zm0-2H8a.46.46,0,0,1,0-.91h8a.46.46,0,0,1,0,.91Zm0-2H8a.46.46,0,0,1,0-.92h8a.46.46,0,0,1,0,.92Zm0-2H12.16a.46.46,0,1,1,0-.91H16a.46.46,0,0,1,0,.91Zm0-2.14H12.16a.46.46,0,1,1,0-.91H16a.46.46,0,0,1,0,.91Z"/></symbol><symbol id="documents-o" data-name="documents-o" viewBox="0 0 24 24"><path class="cls-2" d="M12,0C4,0,0,4,0,12S4,24,12,24s12-3.93,12-12S20.07,0,12,0Zm0,22.25C5.1,22.25,1.75,18.9,1.75,12S5.1,1.75,12,1.75c7.09,0,10.25,3.16,10.25,10.25S19,22.25,12,22.25Z"/><path class="cls-2" d="M15.76,4.91H8.24a2,2,0,0,0-2,2V17a2,2,0,0,0,2,2h7.52a2,2,0,0,0,2-2v-10A2,2,0,0,0,15.76,4.91ZM16,17.47H8a.55.55,0,1,1,0-1.1h8a.55.55,0,0,1,0,1.1Zm0-1.84H8a.56.56,0,0,1,0-1.11h8a.56.56,0,0,1,0,1.11Zm0-1.85H8a.55.55,0,1,1,0-1.1h8a.55.55,0,0,1,0,1.1Zm0-1.84H8a.56.56,0,0,1,0-1.11h8a.56.56,0,0,1,0,1.11Zm0-1.85H10.84a.55.55,0,0,1-.55-.55A.55.55,0,0,1,10.84,9H16a.55.55,0,0,1,.55.55A.54.54,0,0,1,16,10.09Z"/></symbol><symbol id="facebook" data-name="facebook" viewBox="0 0 24 24"><g class="cls-3"><path class="cls-4" d="M9.77,21.37V12.58H7.45V9.41H9.77V6.71c0-2.13,1.37-4.08,4.54-4.08a19.74,19.74,0,0,1,2.23.12l-.08,3h-2c-1.14,0-1.32.53-1.32,1.4V9.41h3.43l-.15,3.17H13.12v8.79Z"/></g></symbol><symbol id="instagram" data-name="instagram" viewBox="0 0 24 24"><g class="cls-3"><path class="cls-5" d="M12,4.07c2.58,0,2.89,0,3.91.06a5.33,5.33,0,0,1,1.79.33A3.13,3.13,0,0,1,19.54,6.3a5.33,5.33,0,0,1,.33,1.79c.05,1,.06,1.33.06,3.91s0,2.89-.06,3.91a5.33,5.33,0,0,1-.33,1.79,3.13,3.13,0,0,1-1.84,1.84,5.33,5.33,0,0,1-1.79.33c-1,.05-1.33.06-3.91.06s-2.89,0-3.91-.06a5.33,5.33,0,0,1-1.79-.33A3.13,3.13,0,0,1,4.46,17.7a5.33,5.33,0,0,1-.33-1.79c0-1-.06-1.33-.06-3.91s0-2.89.06-3.91A5.33,5.33,0,0,1,4.46,6.3,3.13,3.13,0,0,1,6.3,4.46a5.33,5.33,0,0,1,1.79-.33c1,0,1.33-.06,3.91-.06m0-1.74c-2.63,0-3,0-4,.06a6.82,6.82,0,0,0-2.34.45A4.61,4.61,0,0,0,4,4,4.61,4.61,0,0,0,2.84,5.67,6.82,6.82,0,0,0,2.39,8c-.05,1-.06,1.36-.06,4s0,3,.06,4a6.82,6.82,0,0,0,.45,2.34A4.61,4.61,0,0,0,4,20.05a4.61,4.61,0,0,0,1.72,1.11A6.82,6.82,0,0,0,8,21.61c1,.05,1.36.06,4,.06s3,0,4-.06a6.82,6.82,0,0,0,2.34-.45,4.86,4.86,0,0,0,2.83-2.83A6.82,6.82,0,0,0,21.61,16c.05-1,.06-1.36.06-4s0-3-.06-4a6.82,6.82,0,0,0-.45-2.34A4.61,4.61,0,0,0,20.05,4a4.61,4.61,0,0,0-1.72-1.11A6.82,6.82,0,0,0,16,2.39c-1-.05-1.36-.06-4-.06Z"/><path class="cls-5" d="M12,7a5,5,0,1,0,5,5A5,5,0,0,0,12,7Zm0,8.19A3.22,3.22,0,1,1,15.22,12,3.22,3.22,0,0,1,12,15.22Z"/><circle class="cls-5" cx="17.16" cy="6.84" r="1.16"/></g></symbol><symbol id="twitter" data-name="twitter" viewBox="0 0 24 24"><g class="cls-3"><path class="cls-7" d="M21.16,6.32A7.43,7.43,0,0,1,19,6.91a3.72,3.72,0,0,0,1.65-2.08,7.53,7.53,0,0,1-2.38.91,3.76,3.76,0,0,0-6.5,2.57,4,4,0,0,0,.09.86A10.65,10.65,0,0,1,4.12,5.24a3.76,3.76,0,0,0,1.16,5,3.72,3.72,0,0,1-1.7-.47v.05a3.75,3.75,0,0,0,3,3.68,3.59,3.59,0,0,1-1,.14,4.17,4.17,0,0,1-.71-.07A3.77,3.77,0,0,0,8.4,16.2a7.5,7.5,0,0,1-4.66,1.61,6.58,6.58,0,0,1-.9-.06A10.6,10.6,0,0,0,8.6,19.44,10.61,10.61,0,0,0,19.29,8.75c0-.16,0-.32,0-.49A7.54,7.54,0,0,0,21.16,6.32Z"/></g></symbol><symbol id="youtube" data-name="youtube" viewBox="0 0 24 24"><g class="cls-3"><path class="cls-8" d="M21.13,7.41a2.38,2.38,0,0,0-1.68-1.68A56.79,56.79,0,0,0,12,5.33a56.79,56.79,0,0,0-7.45.4A2.38,2.38,0,0,0,2.87,7.41,24.74,24.74,0,0,0,2.47,12a24.74,24.74,0,0,0,.4,4.59,2.38,2.38,0,0,0,1.68,1.68,56.79,56.79,0,0,0,7.45.4,56.79,56.79,0,0,0,7.45-.4,2.38,2.38,0,0,0,1.68-1.68,24.74,24.74,0,0,0,.4-4.59A24.74,24.74,0,0,0,21.13,7.41Zm-11,7.45V9.14l5,2.86Z"/></g></symbol></defs><title>minga_platform_ui_links_icons</title><g id="Layer_2" data-name="Layer 2"><g id="Layer_1-2" data-name="Layer 1"><g id="settings-o"><use width="24" height="24" transform="translate(102)" xlink:href="#food-icon-o-active"/><use width="24" height="24" transform="translate(68)" xlink:href="#food-icon-o"/><g id="food-icon-o-3" data-name="food-icon-o"><use width="24" height="24" transform="translate(170)" xlink:href="#sports-icon-o-active"/><use width="24" height="24" transform="translate(34 102)" xlink:href="#apps-o-active"/><use width="24" height="24" transform="translate(102 136)" xlink:href="#news-o-active"/><use width="24" height="24" transform="translate(170 136)" xlink:href="#city-o-active"/><use width="24" height="24" transform="translate(170 34)" xlink:href="#map-o-active"/><use width="24" height="24" transform="translate(0 34)" xlink:href="#weblink2-o"/><use width="24" height="24" transform="translate(34 34)" xlink:href="#weblink2-o-active"/><use width="24" height="24" transform="translate(136 34)" xlink:href="#map-o"/><use width="24" height="24" transform="translate(0 102)" xlink:href="#apps-o"/><g id="resources-o"><use width="24" height="24" transform="translate(170 68)" xlink:href="#resources-o-active"/><use width="24" height="24" transform="translate(136 68)" xlink:href="#resources-o"/></g><use width="24" height="24" transform="translate(170 102)" xlink:href="#student-o-active"/><use width="24" height="24" transform="translate(102 34)" xlink:href="#documents-o-active"/><use width="24" height="24" transform="translate(34)" xlink:href="#link2-o-active"/><use width="24" height="24" xlink:href="#link2-o"/><use width="24" height="24" transform="translate(34 68)" xlink:href="#school-o-active"/><use width="24" height="24" transform="translate(68 68)" xlink:href="#group2-o"/><use width="24" height="24" transform="translate(101.99 68)" xlink:href="#group2-o-active"/><use width="24" height="24" transform="translate(102 102)" xlink:href="#schedule-o-active"/><use width="24" height="24" transform="translate(0 68)" xlink:href="#school-o"/><use width="24" height="24" transform="translate(68 102)" xlink:href="#schedule-o"/><use width="24" height="24" transform="translate(34 136)" xlink:href="#directory-o-active"/><use width="24" height="24" transform="translate(0 136)" xlink:href="#directory-o"/><g id="directory-o-3" data-name="directory-o"><use width="24" height="24" transform="translate(34 170)" xlink:href="#grades-o-active"/><use width="24" height="24" transform="translate(0 170)" xlink:href="#grades-o"/></g><use width="24" height="24" transform="translate(136 136)" xlink:href="#city-o"/></g><use width="24" height="24" transform="translate(136)" xlink:href="#sports-icon-o"/><use width="24" height="24" transform="translate(136 102)" xlink:href="#student-o"/></g><use width="24" height="24" transform="translate(68 136)" xlink:href="#news-o"/><use width="24" height="24" transform="translate(68 34)" xlink:href="#documents-o"/><use width="24" height="24" transform="translate(102 170)" xlink:href="#facebook"/><use width="24" height="24" transform="translate(68 170)" xlink:href="#instagram"/><use width="24" height="24" transform="translate(136 170)" xlink:href="#twitter"/><use width="24" height="24" transform="translate(170 170)" xlink:href="#youtube"/></g></g></svg>