<?xml version="1.0" encoding="utf-8"?>
<!-- Generator: Adobe Illustrator 25.0.0, SVG Export Plug-In . SVG Version: 6.00 Build 0)  -->
<svg version="1.1" id="Layer_1" xmlns="http://www.w3.org/2000/svg" xmlns:xlink="http://www.w3.org/1999/xlink" x="0px" y="0px"
	 viewBox="0 0 113 113" style="enable-background:new 0 0 113 113;" xml:space="preserve">
<style type="text/css">
	.st0{fill:#FFFFFF;}
	.st1{fill:#233A75;}
	.st2{fill:#70B2D7;}
	.st3{fill:#2B8DC3;}
</style>
<path class="st0" d="M59.7,81.6l0.1-0.1h-0.1C59.7,81.5,59.7,81.6,59.7,81.6z"/>
<g>
	<path class="st1" d="M24.4,0h64.4c13.4,0,24.3,10.9,24.3,24.4v64.4c0,13.4-10.9,24.3-24.3,24.3H24.4C10.9,113.2,0,102.3,0,88.8
		V24.4C0,10.9,10.9,0,24.4,0z"/>
	<g>
		<path class="st2" d="M44.7,19.7c-0.4-1.2-1.4-1.2-2-0.1c-0.4,0.9-30.9,64.5-30.9,64.5c-0.3,0.7,0,1.4,0.6,1.7
			c0.1,0.1,0.4,0.1,0.6,0.1h17.7l11.8-26.3c0.4-1.2,1.4-1.2,2-0.1c0.1,0.2,1.3,2.8,3.3,6.8c2.3,4.8,5.6,11.8,9.2,19.2V46.9
			L44.7,19.7z"/>
		<path class="st3" d="M57.2,85.9l8.8-19.7l3-6.6c0.4-1.2,1.4-1.2,2-0.1C71.2,60,77,72.2,83.6,85.9h17.2c0.1,0,0.4,0,0.6-0.1
			c0.6-0.3,0.8-1,0.6-1.7c0,0-30.4-63.6-30.9-64.5c-0.5-1.1-1.5-1.2-2,0.1L56.9,46.9l0,0v38.7c0.1,0.1,0.1,0.2,0.2,0.4H57.2z"/>
	</g>
	<path class="st3" d="M57.1,85.9h0.1l8.8-19.7l-9.1-19.4l-9.2,19.5C50.1,71.3,53.5,78.4,57.1,85.9z"/>
</g>
</svg>
