<svg xmlns="http://www.w3.org/2000/svg" width="33.334" height="35.064" viewBox="0 0 33.334 35.064"><defs><style>.a{fill:none;stroke:#fff;stroke-linecap:round;stroke-linejoin:round;}</style></defs><g transform="translate(-1682.088 -514.661)"><g transform="translate(1682.588 515.161)"><path class="a" d="M1748.679,535.038h5.8l1.633-8.508-11.437,1.1-.821,5.009" transform="translate(-1726.18 -523.25)"/><line class="a" x2="21.521" transform="translate(10.813 13.891)"/><circle class="a" cx="2.5" cy="2.5" r="2.5" transform="translate(6.862)"/><path class="a" d="M1711.078,545.778h4.769a1.329,1.329,0,0,0,1.328-1.329h0a1.328,1.328,0,0,0-1.328-1.328H1712.8l-5.091-3.437-.007.008a3.593,3.593,0,0,0-2.385-.754,3.7,3.7,0,0,0-3.437,3.743v7.31a2.833,2.833,0,0,0,2.833,2.833h6.721a1.839,1.839,0,0,1,1.839,1.839v8.8a1.876,1.876,0,0,0,1.709,1.906,1.807,1.807,0,0,0,1.9-1.8v-9.91a4.366,4.366,0,0,0-4.262-4.364l-4.448-.083v-5.46Z" transform="translate(-1696.316 -532.075)"/><g transform="translate(0 5)"><line class="a" x1="7.863" transform="translate(3.314 29.064)"/><line class="a" y2="10.965" transform="translate(7.246 18.098)"/><path class="a" d="M1682.588,532.492v14.847a3.251,3.251,0,0,0,3.251,3.251h11.24" transform="translate(-1682.588 -532.492)"/><path class="a" d="M1686.3,576.61h7.6a2.393,2.393,0,0,1,2.177,1.4l1.8,3.968" transform="translate(-1685.231 -563.881)"/></g></g></g></svg>