<svg xmlns="http://www.w3.org/2000/svg" xmlns:xlink="http://www.w3.org/1999/xlink" viewBox="0 0 24 24"><defs><style>.cls-1{fill:#036;}</style><symbol id="play-o" data-name="play-o" viewBox="0 0 24 24"><path class="cls-1" d="M12,0C4,0,0,4,0,12S4,24,12,24s12-3.93,12-12S20.07,0,12,0Zm0,22.25C5.1,22.25,1.75,18.9,1.75,12S5.1,1.75,12,1.75c7.09,0,10.25,3.16,10.25,10.25S19,22.25,12,22.25Z"/><path class="cls-1" d="M18.58,11.13,8.42,5.26a1,1,0,0,0-1.5.87V17.87a1,1,0,0,0,1.5.87l10.16-5.87A1,1,0,0,0,18.58,11.13Z"/></symbol></defs><title>play-o</title><g id="Layer_2" data-name="Layer 2"><g id="Layer_1-2" data-name="Layer 1"><use width="24" height="24" xlink:href="#play-o"/></g></g></svg>