<?xml version="1.0" encoding="utf-8"?>
<!-- Generator: Adobe Illustrator 25.4.1, SVG Export Plug-In . SVG Version: 6.00 Build 0)  -->
<svg version="1.1" id="Layer_1" xmlns="http://www.w3.org/2000/svg" xmlns:xlink="http://www.w3.org/1999/xlink" x="0px" y="0px"
	 viewBox="0 0 229.2 215.9" style="enable-background:new 0 0 229.2 215.9;" xml:space="preserve">
<style type="text/css">
	.st0{fill:#4BA0CD;}
	.st1{fill:#1C2F59;}
</style>
<path class="st0" d="M63.3,209.4H15.4c-3.8,0-6.8-3-6.8-6.8V40.3c0-17,13.8-30.7,30.7-30.7h0c17,0,30.7,13.8,30.7,30.7v162.4
	C70.1,206.4,67,209.4,63.3,209.4z"/>
<path class="st0" d="M210.3,209.4h-47.9c-3.8,0-6.8-3-6.8-6.8V90.3c0-17,13.8-30.7,30.7-30.7h0c17,0,30.7,13.8,30.7,30.7v112.4
	C217.1,206.4,214,209.4,210.3,209.4z"/>
<path class="st0" d="M137.8,209.4H87.9c-2.9,0-5.3-2.4-5.3-5.3v-63.4c0-16.6,13.6-30.2,30.2-30.2h0c16.6,0,30.2,13.6,30.2,30.2v63.4
	C143.1,207.1,140.7,209.4,137.8,209.4z"/>
<g>
	<path class="st1" d="M63.3,211.9H15.4c-5.1,0-9.3-4.2-9.3-9.3V40.3C6.1,22,21,7,39.3,7C57.7,7,72.6,22,72.6,40.3v162.4
		C72.6,207.8,68.4,211.9,63.3,211.9z M39.3,12c-15.6,0-28.2,12.7-28.2,28.2v162.4c0,2.4,1.9,4.3,4.3,4.3h47.9c2.4,0,4.3-1.9,4.3-4.3
		V40.3C67.6,24.7,54.9,12,39.3,12z"/>
</g>
<g>
	<path class="st1" d="M210.3,211.9h-47.9c-5.1,0-9.3-4.2-9.3-9.3V90.3C153.1,72,168,57,186.3,57c18.3,0,33.2,14.9,33.2,33.2v112.4
		C219.6,207.8,215.4,211.9,210.3,211.9z M186.3,62c-15.6,0-28.2,12.7-28.2,28.2v112.4c0,2.4,1.9,4.3,4.3,4.3h47.9
		c2.4,0,4.3-1.9,4.3-4.3V90.3C214.6,74.7,201.9,62,186.3,62z"/>
</g>
<g>
	<path class="st1" d="M137.8,211.9H87.9c-4.3,0-7.8-3.5-7.8-7.8v-63.4c0-18,14.7-32.7,32.7-32.7s32.7,14.7,32.7,32.7v63.4
		C145.6,208.5,142.1,211.9,137.8,211.9z M112.9,113.1c-15.3,0-27.7,12.4-27.7,27.7v63.4c0,1.5,1.2,2.8,2.8,2.8h49.9
		c1.5,0,2.8-1.2,2.8-2.8v-63.4C140.6,125.5,128.1,113.1,112.9,113.1z"/>
</g>
</svg>
