<svg width="160" height="160" viewBox="0 0 160 160" fill="none" xmlns="http://www.w3.org/2000/svg">
<path d="M0 80C0 26.6667 26.6667 0 80 0C134 0 160 26 160 80C160 134 133.333 160 80 160C26.6667 160 0 133.333 0 80Z" fill="#D02A2A"/>
<g clip-path="url(#clip0_336_1996)">
<path d="M109.1 55.25L104.7 50.85C103.05 49.2 100.3 49.2 98.65 50.85L80.5 69L62.35 50.85C60.7 49.2 57.95 49.2 56.3 50.85L51.9 55.25C50.25 56.9 50.25 59.65 51.9 61.3L70.05 79.45L51.9 97.6C50.25 99.25 50.25 102 51.9 103.65L56.3 108.05C57.95 109.7 60.7 109.7 62.35 108.05L80.5 90.45L98.65 108.6C100.3 110.25 103.05 110.25 104.7 108.6L109.1 104.2C110.75 102.55 110.75 99.8 109.1 98.15L90.95 79.45L109.1 61.3C110.75 59.65 110.75 56.9 109.1 55.25Z" fill="white"/>
<path d="M80.5 14C36.5 14 14.5 36 14.5 80C14.5 124 36.5 146 80.5 146C124.5 146 146.5 124.55 146.5 80C146.5 35.45 125.05 14 80.5 14ZM80.5 136.1C42.55 136.1 24.4 117.4 24.4 80C24.4 42.6 42.55 23.9 80.5 23.9C119.55 23.9 136.6 41.5 136.6 80C136.6 118.5 119 136.1 80.5 136.1Z" fill="white"/>
</g>
<defs>
<clipPath id="clip0_336_1996">
<rect width="132" height="132" fill="white" transform="translate(14.5 14)"/>
</clipPath>
</defs>
</svg>
