<svg width="160" height="160" viewBox="0 0 160 160" fill="none" xmlns="http://www.w3.org/2000/svg">
<path d="M0 80C0 26.6667 26.6667 0 80 0C134 0 160 26 160 80C160 134 133.333 160 80 160C26.6667 160 0 133.333 0 80Z" fill="#1B8374"/>
<mask id="mask0_336_1856" style="mask-type:luminance" maskUnits="userSpaceOnUse" x="14" y="13" width="133" height="133">
<path d="M146.596 13.4031H14.2397V145.759H146.596V13.4031Z" fill="white"/>
</mask>
<g mask="url(#mask0_336_1856)">
<g clip-path="url(#clip0_336_1856)">
<path d="M80.6796 13.6094C36.5609 13.6094 14.5016 35.6687 14.5016 79.7874C14.5016 123.906 36.5609 145.965 80.6796 145.965C124.798 145.965 146.858 124.458 146.858 79.7874C146.858 35.1172 125.35 13.6094 80.6796 13.6094ZM80.6796 136.039C42.6272 136.039 24.4283 117.288 24.4283 79.7874C24.4283 42.2865 42.6272 23.5361 80.6796 23.5361C119.835 23.5361 136.931 41.1835 136.931 79.7874C136.931 118.391 119.283 136.039 80.6796 136.039Z" fill="white"/>
<path d="M114.32 65.4488C115.423 64.3459 115.423 63.2429 114.32 62.1399L104.945 52.7647C103.842 51.6618 102.187 51.6618 101.636 52.7647L74.0618 80.3389C72.9589 81.4419 71.3044 81.4419 70.7529 80.3389L60.2747 69.8607C59.1718 68.7577 57.5173 68.7577 56.4144 69.3092L47.0391 78.6844C45.9362 79.7874 45.9362 80.8904 47.0391 81.9933L61.9292 96.8834L65.2381 100.192L70.7529 105.707L72.4074 107.362L74.0618 105.707L83.437 96.3319L85.0915 94.6775L86.7459 93.023L114.32 65.4488Z" fill="white"/>
</g>
</g>
<defs>
<clipPath id="clip0_336_1856">
<rect width="132.356" height="132.356" fill="white" transform="translate(14.5016 13.6094)"/>
</clipPath>
</defs>
</svg>
