<svg xmlns="http://www.w3.org/2000/svg" width="105.995" height="105.995" viewBox="0 0 105.995 105.995"><defs><style>.a{fill:#ccc;}.b{fill:none;}</style></defs><g transform="translate(105.995) rotate(90)"><path class="a" d="M65.831,3v8.833H57V3H21.666v8.833H12.833V3H4V82.5h8.833V73.663h8.833V82.5H57V73.663h8.833V82.5h8.833V3ZM21.666,64.831H12.833V56h8.833Zm0-17.666H12.833V38.332h8.833Zm0-17.666H12.833V20.666h8.833ZM65.831,64.831H57V56h8.833Zm0-17.666H57V38.332h8.833Zm0-17.666H57V20.666h8.833Z" transform="translate(13.666 10.249)"/><path class="b" d="M0,0H106V106H0Z"/></g></svg>