<svg id="Layer_1" data-name="Layer 1" xmlns="http://www.w3.org/2000/svg" xmlns:xlink="http://www.w3.org/1999/xlink" viewBox="0 0 487 270"><defs><clipPath id="clip-path"><rect width="479.88" height="265.91" style="fill:none"/></clipPath><clipPath id="clip-path-2"><rect width="479.88" height="265.91" style="fill:none"/></clipPath></defs><g id="Vector_Smart_Object" data-name="Vector Smart Object"><g style="clip-path:url(#clip-path)"><g style="clip-path:url(#clip-path-2)"><path d="M13.59,82.28A8.17,8.17,0,1,1,2.06,83a8.17,8.17,0,0,1,11.53-.68" style="fill:#3092c6"/><path d="M40.83,106.47a8.17,8.17,0,1,1-11.53.69,8.17,8.17,0,0,1,11.53-.69" style="fill:#3092c6"/><path d="M68.06,130.67a8.16,8.16,0,1,1-11.52.68,8.17,8.17,0,0,1,11.52-.68" style="fill:#3092c6"/><path d="M95.3,154.86a8.16,8.16,0,1,1-11.53.68,8.17,8.17,0,0,1,11.53-.68" style="fill:#3092c6"/><path d="M122.54,179.06a8.17,8.17,0,1,1-11.53.68,8.15,8.15,0,0,1,11.53-.68" style="fill:#3092c6"/><path d="M149.78,203.25a8.17,8.17,0,1,1-11.53.68,8.17,8.17,0,0,1,11.53-.68" style="fill:#3092c6"/><path d="M177,227.44a8.16,8.16,0,1,1-11.52.69,8.17,8.17,0,0,1,11.52-.69" style="fill:#3092c6"/><path d="M204.25,251.64a8.16,8.16,0,1,1-11.53.68,8.16,8.16,0,0,1,11.53-.68" style="fill:#3092c6"/><path d="M47.7,72.25a8.17,8.17,0,1,1-11.53.69,8.17,8.17,0,0,1,11.53-.69" style="fill:#3092c6"/><path d="M74.94,96.45a8.17,8.17,0,1,1-11.53.68,8.17,8.17,0,0,1,11.53-.68" style="fill:#3092c6"/><path d="M102.17,120.64a8.16,8.16,0,1,1-11.52.68,8.17,8.17,0,0,1,11.52-.68" style="fill:#3092c6"/><path d="M129.41,144.84a8.16,8.16,0,1,1-11.53.68,8.15,8.15,0,0,1,11.53-.68" style="fill:#3092c6"/><path d="M156.65,169a8.17,8.17,0,1,1-11.53.68,8.16,8.16,0,0,1,11.53-.68" style="fill:#3092c6"/><path d="M183.89,193.22a8.17,8.17,0,1,1-11.53.68,8.17,8.17,0,0,1,11.53-.68" style="fill:#3092c6"/><path d="M211.13,217.42a8.17,8.17,0,1,1-11.53.68,8.16,8.16,0,0,1,11.53-.68" style="fill:#3092c6"/><path d="M238.36,241.61a8.16,8.16,0,1,1-11.52.68,8.17,8.17,0,0,1,11.52-.68" style="fill:#3092c6"/><path d="M81.81,62.23a8.17,8.17,0,1,1-11.53.68,8.15,8.15,0,0,1,11.53-.68" style="fill:#3092c6"/><path d="M109.05,86.42a8.17,8.17,0,1,1-11.53.68,8.16,8.16,0,0,1,11.53-.68" style="fill:#3092c6"/><path d="M136.29,110.61a8.17,8.17,0,1,1-11.53.69,8.17,8.17,0,0,1,11.53-.69" style="fill:#3092c6"/><path d="M163.52,134.81a8.16,8.16,0,1,1-11.52.68,8.17,8.17,0,0,1,11.52-.68" style="fill:#3092c6"/><path d="M190.76,159a8.16,8.16,0,1,1-11.53.68,8.17,8.17,0,0,1,11.53-.68" style="fill:#3092c6"/><path d="M218,183.2a8.17,8.17,0,1,1-11.53.68A8.15,8.15,0,0,1,218,183.2" style="fill:#3092c6"/><path d="M245.24,207.39a8.17,8.17,0,1,1-11.53.68,8.17,8.17,0,0,1,11.53-.68" style="fill:#3092c6"/><path d="M272.47,231.58a8.16,8.16,0,1,1-11.52.68,8.17,8.17,0,0,1,11.52-.68" style="fill:#3092c6"/><path d="M115.92,52.2a8.16,8.16,0,1,1-11.53.68,8.16,8.16,0,0,1,11.53-.68" style="fill:#3092c6"/><path d="M143.16,76.39a8.17,8.17,0,1,1-11.53.68,8.17,8.17,0,0,1,11.53-.68" style="fill:#3092c6"/><path d="M170.4,100.59a8.17,8.17,0,1,1-11.53.68,8.16,8.16,0,0,1,11.53-.68" style="fill:#3092c6"/><path d="M197.63,124.78a8.16,8.16,0,1,1-11.52.68,8.17,8.17,0,0,1,11.52-.68" style="fill:#3092c6"/><path d="M224.87,149a8.16,8.16,0,1,1-11.53.69,8.17,8.17,0,0,1,11.53-.69" style="fill:#3092c6"/><path d="M252.11,173.17a8.17,8.17,0,1,1-11.53.68,8.16,8.16,0,0,1,11.53-.68" style="fill:#3092c6"/><path d="M279.35,197.36a8.17,8.17,0,1,1-11.53.68,8.17,8.17,0,0,1,11.53-.68" style="fill:#3092c6"/><path d="M306.59,221.56a8.17,8.17,0,1,1-11.53.68,8.16,8.16,0,0,1,11.53-.68" style="fill:#3092c6"/><path d="M150,42.17a8.16,8.16,0,1,1-11.53.68A8.17,8.17,0,0,1,150,42.17" style="fill:#3092c6"/><path d="M177.27,66.36a8.17,8.17,0,1,1-11.53.69,8.17,8.17,0,0,1,11.53-.69" style="fill:#3092c6"/><path d="M204.51,90.56a8.17,8.17,0,1,1-11.53.68,8.17,8.17,0,0,1,11.53-.68" style="fill:#3092c6"/><path d="M231.75,114.75a8.17,8.17,0,1,1-11.53.68,8.17,8.17,0,0,1,11.53-.68" style="fill:#3092c6"/><path d="M259,139a8.16,8.16,0,1,1-11.52.68A8.16,8.16,0,0,1,259,139" style="fill:#3092c6"/><path d="M286.22,163.14a8.16,8.16,0,1,1-11.53.68,8.16,8.16,0,0,1,11.53-.68" style="fill:#3092c6"/><path d="M313.46,187.33a8.17,8.17,0,1,1-11.53.69,8.17,8.17,0,0,1,11.53-.69" style="fill:#3092c6"/><path d="M340.7,211.53a8.17,8.17,0,1,1-11.53.68,8.17,8.17,0,0,1,11.53-.68" style="fill:#3092c6"/><path d="M184.14,32.14a8.16,8.16,0,1,1-11.52.69,8.18,8.18,0,0,1,11.52-.69" style="fill:#3092c6"/><path d="M211.38,56.34a8.16,8.16,0,1,1-11.53.68,8.16,8.16,0,0,1,11.53-.68" style="fill:#3092c6"/><path d="M238.62,80.53a8.17,8.17,0,1,1-11.53.68,8.17,8.17,0,0,1,11.53-.68" style="fill:#3092c6"/><path d="M265.86,104.72a8.17,8.17,0,1,1-11.53.69,8.17,8.17,0,0,1,11.53-.69" style="fill:#3092c6"/><path d="M293.09,128.92a8.16,8.16,0,1,1-11.52.68,8.17,8.17,0,0,1,11.52-.68" style="fill:#3092c6"/><path d="M320.33,153.11a8.16,8.16,0,1,1-11.53.68,8.17,8.17,0,0,1,11.53-.68" style="fill:#3092c6"/><path d="M347.57,177.31A8.17,8.17,0,1,1,336,178a8.15,8.15,0,0,1,11.53-.68" style="fill:#3092c6"/><path d="M374.81,201.5a8.17,8.17,0,1,1-11.53.68,8.17,8.17,0,0,1,11.53-.68" style="fill:#3092c6"/><path d="M218.25,22.12a8.16,8.16,0,1,1-11.52.68,8.15,8.15,0,0,1,11.52-.68" style="fill:#3092c6"/><path d="M245.49,46.31A8.16,8.16,0,1,1,234,47a8.16,8.16,0,0,1,11.53-.68" style="fill:#3092c6"/><path d="M272.73,70.5a8.17,8.17,0,1,1-11.53.69,8.17,8.17,0,0,1,11.53-.69" style="fill:#3092c6"/><path d="M300,94.7a8.17,8.17,0,1,1-11.53.68A8.17,8.17,0,0,1,300,94.7" style="fill:#3092c6"/><path d="M327.21,118.89a8.17,8.17,0,1,1-11.53.68,8.17,8.17,0,0,1,11.53-.68" style="fill:#3092c6"/><path d="M354.44,143.08a8.16,8.16,0,1,1-11.53.69,8.17,8.17,0,0,1,11.53-.69" style="fill:#3092c6"/><path d="M381.68,167.28a8.17,8.17,0,1,1-11.53.68,8.16,8.16,0,0,1,11.53-.68" style="fill:#3092c6"/><path d="M408.92,191.47a8.17,8.17,0,1,1-11.53.68,8.17,8.17,0,0,1,11.53-.68" style="fill:#3092c6"/><path d="M252.37,12.09a8.17,8.17,0,1,1-11.53.68,8.17,8.17,0,0,1,11.53-.68" style="fill:#3092c6"/><path d="M279.6,36.28a8.16,8.16,0,1,1-11.53.68,8.17,8.17,0,0,1,11.53-.68" style="fill:#3092c6"/><path d="M306.84,60.48a8.17,8.17,0,1,1-11.53.68,8.15,8.15,0,0,1,11.53-.68" style="fill:#3092c6"/><path d="M334.08,84.67a8.17,8.17,0,1,1-11.53.68,8.16,8.16,0,0,1,11.53-.68" style="fill:#3092c6"/><path d="M361.32,108.86a8.17,8.17,0,1,1-11.53.69,8.17,8.17,0,0,1,11.53-.69" style="fill:#3092c6"/><path d="M388.55,133.06a8.16,8.16,0,1,1-11.52.68,8.17,8.17,0,0,1,11.52-.68" style="fill:#3092c6"/><path d="M415.79,157.25a8.16,8.16,0,1,1-11.53.68,8.17,8.17,0,0,1,11.53-.68" style="fill:#3092c6"/><path d="M443,181.44a8.17,8.17,0,1,1-11.53.69,8.17,8.17,0,0,1,11.53-.69" style="fill:#3092c6"/><path d="M286.48,2.06A8.17,8.17,0,1,1,275,2.74a8.17,8.17,0,0,1,11.53-.68" style="fill:#3092c6"/><path d="M313.71,26.25a8.16,8.16,0,1,1-11.52.69,8.17,8.17,0,0,1,11.52-.69" style="fill:#3092c6"/><path d="M341,50.45a8.16,8.16,0,1,1-11.53.68A8.16,8.16,0,0,1,341,50.45" style="fill:#3092c6"/><path d="M368.19,74.64a8.17,8.17,0,1,1-11.53.68,8.17,8.17,0,0,1,11.53-.68" style="fill:#3092c6"/><path d="M395.43,98.84a8.17,8.17,0,1,1-11.53.68,8.16,8.16,0,0,1,11.53-.68" style="fill:#3092c6"/><path d="M422.66,123a8.16,8.16,0,1,1-11.52.68,8.17,8.17,0,0,1,11.52-.68" style="fill:#3092c6"/><path d="M449.9,147.22a8.16,8.16,0,1,1-11.53.69,8.17,8.17,0,0,1,11.53-.69" style="fill:#3092c6"/><path d="M477.14,171.42a8.17,8.17,0,1,1-11.53.68,8.16,8.16,0,0,1,11.53-.68" style="fill:#3092c6"/></g></g></g></svg>