<svg id="Layer_1" data-name="Layer 1" xmlns="http://www.w3.org/2000/svg" xmlns:xlink="http://www.w3.org/1999/xlink" viewBox="0 0 291 61"><defs><clipPath id="clip-path"><rect y="3" width="285.39" height="53.47" style="fill:none"/></clipPath></defs><g id="Vector_Smart_Object" data-name="Vector Smart Object"><g style="clip-path:url(#clip-path)"><g style="clip-path:url(#clip-path)"><path d="M281.25,3c8.4,11.17,3.26,31.74-8.56,40.52-12.54,9.3-26.92,7.87-37.1-3.73-2.61-3-5-6.17-7.7-9-6.11-6.45-12.2-7.57-19.37-2.42-5.83,4.19-10.83,9.56-16.17,14.43-2.6,2.36-5,5-7.75,7.13-13.45,10.39-25.67,8.44-35.43-5.57-2.52-3.61-4.69-7.46-7.35-11-4.77-6.25-9.35-7.3-16-3.16-5,3.12-9.44,7.17-14.3,10.57-8.48,5.93-14.73,4-18.7-5.55-5.43-13-7.33-14.06-21.43-10.83-8.27,1.9-16.55,3.35-24.56-.5-17-8.14-34.25.9-40,20A29,29,0,0,1,2.9,52.4c-4.2-5-3.12-10.26-1.23-15.3,5.59-14.9,25.4-25.94,41-21.49C54.45,19,65.56,20,77.59,17.17c10.08-2.4,14.84,1.12,18.91,10.71,3.32,7.8,6.87,9.3,14.38,5.27,5.4-2.9,10.27-6.8,15.64-9.77,7.86-4.35,13.42-3.27,19.16,3.72,3,3.72,5.48,7.95,8.13,12,8.22,12.53,17.76,14,29.16,4.37,6.54-5.54,12.61-11.63,19.27-17,14.8-11.95,24.15-10.49,35,5a54.38,54.38,0,0,0,4.86,6.22c9.4,9.93,23.95,8.92,31.89-2.26,5.57-7.84,7.28-16.82,7.15-26.27,0-2,.06-4.07.09-6.1" style="fill:#4ba0cd"/></g></g></g></svg>