<svg xmlns="http://www.w3.org/2000/svg" viewBox="0 0 100 100"><g style="isolation:isolate"><g id="Layer_1" data-name="Layer 1"><circle cx="50.5" cy="49.73" r="48" style="fill:#1c2f59"/><polygon points="50.5 7.18 58.06 14.94 68 10.9 71.88 21.09 82.47 21.41 82 32.33 91.41 36.9 86.67 46.72 93.28 54.69 85.09 61.76 87.75 71.7 77.53 74.86 75.79 85 65.29 83.75 59.44 92.27 50.5 86.89 41.56 92.27 35.71 83.75 25.21 85 23.47 74.86 13.24 71.7 15.91 61.76 7.72 54.69 14.33 46.72 9.59 36.9 19 32.33 18.53 21.41 29.12 21.09 33 10.9 42.94 14.94 50.5 7.18" style="fill:#fff;mix-blend-mode:soft-light;opacity:0.4"/><path d="M38.44,35.82H50.19a18.33,18.33,0,0,1,8.22,1.71,12.19,12.19,0,0,1,5.29,4.95,15.26,15.26,0,0,1,1.84,7.68,15.48,15.48,0,0,1-1.82,7.73,12,12,0,0,1-5.27,5,18.28,18.28,0,0,1-8.26,1.72H38.44Zm11.23,22.7q4.2,0,6.28-2.08C57.33,55.05,58,53,58,50.16q0-8.28-8.36-8.28H46V58.52Z" style="fill:#fff"/></g></g></svg>