<svg xmlns="http://www.w3.org/2000/svg" viewBox="0 0 100 100"><g style="isolation:isolate"><g id="Layer_1" data-name="Layer 1"><circle cx="50" cy="50" r="48" style="fill:#2364b9"/><polygon points="50.5 7.18 58.06 14.94 68 10.9 71.88 21.09 82.47 21.41 82 32.33 91.41 36.9 86.67 46.72 93.28 54.69 85.09 61.76 87.75 71.7 77.53 74.86 75.79 85 65.29 83.75 59.44 92.27 50.5 86.89 41.56 92.27 35.71 83.75 25.21 85 23.47 74.86 13.24 71.7 15.91 61.76 7.72 54.69 14.33 46.72 9.59 36.9 19 32.33 18.53 21.41 29.12 21.09 33 10.9 42.94 14.94 50.5 7.18" style="fill:#fff;mix-blend-mode:soft-light;opacity:0.4"/><path d="M43,63.14a12.14,12.14,0,0,1-5-5.15,16.62,16.62,0,0,1-1.76-7.83A16.33,16.33,0,0,1,38,42.36a12.44,12.44,0,0,1,5-5.11,15.57,15.57,0,0,1,7.66-1.8,15.56,15.56,0,0,1,7.65,1.8,12.17,12.17,0,0,1,5,5.11A16.56,16.56,0,0,1,65,50.16,16.74,16.74,0,0,1,63.29,58a12,12,0,0,1-5,5.15,15.56,15.56,0,0,1-7.65,1.8A15.68,15.68,0,0,1,43,63.14Zm12.74-6.28c1.23-1.53,1.84-3.77,1.84-6.7s-.61-5.13-1.84-6.65a6.13,6.13,0,0,0-5.06-2.28,6.1,6.1,0,0,0-5,2.26c-1.22,1.51-1.82,3.73-1.82,6.67s.6,5.2,1.82,6.72a6.1,6.1,0,0,0,5,2.29A6.1,6.1,0,0,0,55.71,56.86Z" style="fill:#fff"/></g></g></svg>