<?xml version="1.0" encoding="utf-8"?>
<!-- Generator: Adobe Illustrator 26.0.0, SVG Export Plug-In . SVG Version: 6.00 Build 0)  -->
<svg version="1.1" id="Layer_1" xmlns="http://www.w3.org/2000/svg" xmlns:xlink="http://www.w3.org/1999/xlink" x="0px" y="0px"
	 viewBox="0 0 100 100" style="enable-background:new 0 0 100 100;" xml:space="preserve">
<style type="text/css">
	.st0{fill:#1C2F59;}
	.st1{opacity:0.4;fill:#FFFFFF;}
	.st2{fill:#70B2D7;}
	.st3{fill:#C65583;}
	.st4{fill:#0A6B83;}
	.st5{fill:#86BFAC;}
	.st6{fill:#7F6ACB;}
	.st7{fill:#E27336;}
	.st8{fill:#C53635;}
	.st9{fill:#2364B9;}
	.st10{fill:#FFBD2E;}
	.st11{fill:#FFFFFF;}
	.st12{fill:#A090D8;}
	.st13{fill:#4BA083;}
	.st14{fill:#FFCC00;}
</style>
<circle class="st8" cx="50" cy="50" r="48"/>
<polygon class="st1" points="50.5,7.2 58.1,14.9 68,10.9 71.9,21.1 82.5,21.4 82,32.3 91.4,36.9 86.7,46.7 93.3,54.7 85.1,61.8 
	87.8,71.7 77.5,74.9 75.8,85 65.3,83.7 59.4,92.3 50.5,86.9 41.6,92.3 35.7,83.7 25.2,85 23.5,74.9 13.2,71.7 15.9,61.8 7.7,54.7 
	14.3,46.7 9.6,36.9 19,32.3 18.5,21.4 29.1,21.1 33,10.9 42.9,14.9 "/>
<g>
	<path class="st11" d="M47.6,64.6h-8L35.9,55c-0.4-1.1-1.4-1.6-3-1.6h-2.7v11.2h-7.5V35.8H36c3.5,0,6.1,0.7,7.8,2.2
		c1.8,1.5,2.6,3.6,2.6,6.4c0,1.9-0.5,3.6-1.6,5c-1,1.4-2.5,2.4-4.4,3c0.8,0.2,1.5,0.5,2.2,1.1c0.6,0.6,1.2,1.4,1.5,2.4L47.6,64.6z
		 M38.3,47c0.7-0.5,1.1-1.3,1.1-2.3c0-1.1-0.4-1.9-1.1-2.4s-1.9-0.7-3.5-0.7H30v6.2h4.8C36.4,47.7,37.6,47.5,38.3,47z"/>
	<path class="st11" d="M57.3,63.1c-2.2-1.2-3.9-2.9-5-5.2c-1.2-2.2-1.8-4.8-1.8-7.8s0.6-5.6,1.8-7.8c1.2-2.2,2.9-3.9,5-5.1
		s4.7-1.8,7.7-1.8c2.9,0,5.5,0.6,7.7,1.8s3.8,2.9,5,5.1c1.2,2.2,1.7,4.8,1.7,7.8s-0.6,5.6-1.7,7.8c-1.2,2.2-2.8,4-5,5.2
		s-4.7,1.8-7.7,1.8C62,64.9,59.5,64.3,57.3,63.1z M70,56.9c1.2-1.5,1.8-3.8,1.8-6.7c0-2.9-0.6-5.1-1.8-6.6c-1.2-1.5-2.9-2.3-5.1-2.3
		c-2.2,0-3.8,0.8-5,2.3s-1.8,3.7-1.8,6.7c0,3,0.6,5.2,1.8,6.7c1.2,1.5,2.9,2.3,5,2.3C67.1,59.2,68.8,58.4,70,56.9z"/>
</g>
</svg>
