<svg xmlns="http://www.w3.org/2000/svg" viewBox="0 0 100 100"><g style="isolation:isolate"><g id="Layer_1" data-name="Layer 1"><circle cx="50" cy="50" r="48" style="fill:#ffbd2e"/><polygon points="50.5 7.18 58.06 14.94 68 10.9 71.88 21.09 82.47 21.41 82 32.33 91.41 36.9 86.67 46.72 93.28 54.69 85.09 61.76 87.75 71.7 77.53 74.86 75.79 85 65.29 83.75 59.44 92.27 50.5 86.89 41.56 92.27 35.71 83.75 25.21 85 23.47 74.86 13.24 71.7 15.91 61.76 7.72 54.69 14.33 46.72 9.59 36.9 19 32.33 18.53 21.41 29.12 21.09 33 10.9 42.94 14.94 50.5 7.18" style="fill:#fff;mix-blend-mode:soft-light;opacity:0.4"/><path d="M25.47,64.09a15.25,15.25,0,0,1-5.13-2.3l2.38-5.37a17.7,17.7,0,0,0,4.47,2,16.46,16.46,0,0,0,4.74.71,8.35,8.35,0,0,0,3.72-.67,2,2,0,0,0,.12-3.68,16.14,16.14,0,0,0-4.4-1.39,24.08,24.08,0,0,1-6.34-2,7.48,7.48,0,0,1-3.18-2.81A8.58,8.58,0,0,1,22.44,40a9.9,9.9,0,0,1,4.2-3.32,15.24,15.24,0,0,1,6.18-1.19,21.11,21.11,0,0,1,6,.87,12.62,12.62,0,0,1,4.59,2.28L41.1,44a15.43,15.43,0,0,0-4-2,13.14,13.14,0,0,0-4.2-.71,6.1,6.1,0,0,0-3.31.79,2.38,2.38,0,0,0-1.25,2.12,1.75,1.75,0,0,0,.44,1.21,4.57,4.57,0,0,0,1.66.95,26.82,26.82,0,0,0,3.63,1,24.66,24.66,0,0,1,6.16,2,7.54,7.54,0,0,1,3.17,2.79,7.42,7.42,0,0,1,.93,3.81,7.76,7.76,0,0,1-3.27,6.61q-3.27,2.4-9.21,2.4A24.26,24.26,0,0,1,25.47,64.09Z" style="fill:#fff"/><path d="M77.7,35.82V64.58H71.08l0-13.17L65.58,64.58H60.77l-5.49-13v13H48.7V35.82h5.93l8.61,19.63L71.8,35.82Z" style="fill:#fff"/></g></g></svg>