<svg xmlns="http://www.w3.org/2000/svg" viewBox="0 0 100 100"><g style="isolation:isolate"><g id="Layer_1" data-name="Layer 1"><circle cx="50" cy="50" r="48" style="fill:#7f6acb"/><polygon points="50.5 7.18 58.06 14.94 68 10.9 71.88 21.09 82.47 21.41 82 32.33 91.41 36.9 86.67 46.72 93.28 54.69 85.09 61.76 87.75 71.7 77.53 74.86 75.79 85 65.29 83.75 59.44 92.27 50.5 86.89 41.56 92.27 35.71 83.75 25.21 85 23.47 74.86 13.24 71.7 15.91 61.76 7.72 54.69 14.33 46.72 9.59 36.9 19 32.33 18.53 21.41 29.12 21.09 33 10.9 42.94 14.94 50.5 7.18" style="fill:#fff;mix-blend-mode:soft-light;opacity:0.4"/><path d="M30.88,64.09a15.25,15.25,0,0,1-5.13-2.3l2.38-5.37a17.7,17.7,0,0,0,4.47,2,16.51,16.51,0,0,0,4.74.71,8.35,8.35,0,0,0,3.72-.67,2,2,0,0,0,.12-3.68,16.14,16.14,0,0,0-4.4-1.39,24.21,24.21,0,0,1-6.34-2,7.39,7.39,0,0,1-3.17-2.81,7.84,7.84,0,0,1-.91-3.92A8.06,8.06,0,0,1,27.85,40a9.9,9.9,0,0,1,4.2-3.32,15.31,15.31,0,0,1,6.18-1.19,21.06,21.06,0,0,1,6,.87,12.62,12.62,0,0,1,4.59,2.28L46.51,44a15.37,15.37,0,0,0-4-2,13.24,13.24,0,0,0-4.21-.71A6.12,6.12,0,0,0,35,42a2.4,2.4,0,0,0-1.25,2.12,1.75,1.75,0,0,0,.44,1.21,4.57,4.57,0,0,0,1.66.95,26.62,26.62,0,0,0,3.64,1,24.94,24.94,0,0,1,6.16,2,7.67,7.67,0,0,1,3.17,2.79,7.42,7.42,0,0,1,.93,3.81,7.74,7.74,0,0,1-3.28,6.61q-3.27,2.4-9.21,2.4A24.26,24.26,0,0,1,30.88,64.09Z" style="fill:#fff"/><path d="M54,35.82H74.06v5.94H61.46V47h11.8V52.9H61.46V64.58H54Z" style="fill:#fff"/></g></g></svg>