<svg xmlns="http://www.w3.org/2000/svg" viewBox="0 0 100 100"><g style="isolation:isolate"><g id="Layer_1" data-name="Layer 1"><circle cx="50" cy="50" r="48" style="fill:#0a6b83"/><polygon points="50.5 7.18 58.06 14.94 68 10.9 71.88 21.09 82.47 21.41 82 32.33 91.41 36.9 86.67 46.72 93.28 54.69 85.09 61.76 87.75 71.7 77.53 74.86 75.79 85 65.29 83.75 59.44 92.27 50.5 86.89 41.56 92.27 35.71 83.75 25.21 85 23.47 74.86 13.24 71.7 15.91 61.76 7.72 54.69 14.33 46.72 9.59 36.9 19 32.33 18.53 21.41 29.12 21.09 33 10.9 42.94 14.94 50.5 7.18" style="fill:#fff;mix-blend-mode:soft-light;opacity:0.4"/><path d="M42.68,64.09a15.25,15.25,0,0,1-5.13-2.3l2.38-5.37a17.8,17.8,0,0,0,4.46,2,16.57,16.57,0,0,0,4.75.71,8.35,8.35,0,0,0,3.72-.67A2,2,0,0,0,53,54.82a16.14,16.14,0,0,0-4.4-1.39,24.17,24.17,0,0,1-6.35-2,7.45,7.45,0,0,1-3.17-2.81A8.52,8.52,0,0,1,39.65,40a9.78,9.78,0,0,1,4.2-3.32A15.24,15.24,0,0,1,50,35.45a21.11,21.11,0,0,1,6,.87,12.48,12.48,0,0,1,4.58,2.28L58.31,44a15.59,15.59,0,0,0-4-2,13.14,13.14,0,0,0-4.2-.71A6.1,6.1,0,0,0,46.8,42a2.38,2.38,0,0,0-1.25,2.12A1.7,1.7,0,0,0,46,45.35a4.57,4.57,0,0,0,1.66.95,26.4,26.4,0,0,0,3.63,1,24.8,24.8,0,0,1,6.16,2,7.61,7.61,0,0,1,3.17,2.79,7.42,7.42,0,0,1,.93,3.81,7.76,7.76,0,0,1-3.27,6.61q-3.27,2.4-9.21,2.4A24.26,24.26,0,0,1,42.68,64.09Z" style="fill:#fff"/></g></g></svg>