<svg xmlns="http://www.w3.org/2000/svg" viewBox="0 0 100 100"><g style="isolation:isolate"><g id="Layer_1" data-name="Layer 1"><circle cx="50" cy="50" r="48" style="fill:#86bfac"/><polygon points="50.5 7.18 58.06 14.94 68 10.9 71.88 21.09 82.47 21.41 82 32.33 91.41 36.9 86.67 46.72 93.28 54.69 85.09 61.76 87.75 71.7 77.53 74.86 75.79 85 65.29 83.75 59.44 92.27 50.5 86.89 41.56 92.27 35.71 83.75 25.21 85 23.47 74.86 13.24 71.7 15.91 61.76 7.72 54.69 14.33 46.72 9.59 36.9 19 32.33 18.53 21.41 29.12 21.09 33 10.9 42.94 14.94 50.5 7.18" style="fill:#fff;mix-blend-mode:soft-light;opacity:0.4"/><path d="M31,64.09a15.25,15.25,0,0,1-5.13-2.3l2.39-5.37a17.64,17.64,0,0,0,4.46,2,16.57,16.57,0,0,0,4.75.71,8.33,8.33,0,0,0,3.71-.67,2,2,0,0,0,.12-3.68,16,16,0,0,0-4.4-1.39,24.21,24.21,0,0,1-6.34-2,7.39,7.39,0,0,1-3.17-2.81,7.84,7.84,0,0,1-.91-3.92A8.06,8.06,0,0,1,28,40a9.9,9.9,0,0,1,4.2-3.32,15.31,15.31,0,0,1,6.18-1.19,21.06,21.06,0,0,1,6,.87A12.53,12.53,0,0,1,49,38.6L46.62,44a15.59,15.59,0,0,0-4-2,13.14,13.14,0,0,0-4.2-.71A6.13,6.13,0,0,0,35.1,42a2.4,2.4,0,0,0-1.25,2.12,1.71,1.71,0,0,0,.45,1.21A4.42,4.42,0,0,0,36,46.3a26.62,26.62,0,0,0,3.64,1,24.94,24.94,0,0,1,6.16,2,7.67,7.67,0,0,1,3.17,2.79,7.42,7.42,0,0,1,.93,3.81,7.76,7.76,0,0,1-3.27,6.61q-3.28,2.4-9.21,2.4A24.28,24.28,0,0,1,31,64.09Z" style="fill:#fff"/><path d="M54.09,35.82h7.59V58.44H73.84v6.14H54.09Z" style="fill:#fff"/></g></g></svg>