<svg xmlns="http://www.w3.org/2000/svg" width="92.721" height="47.666" viewBox="0 0 92.721 47.666"><g transform="translate(-159.641 -143.454)"><rect width="92.72" height="14.64" transform="translate(159.64 143.454)" fill="#ccc"/><ellipse cx="14.404" cy="14.403" rx="14.404" ry="14.403" transform="translate(159.64 162.313)" fill="#d2d2d2"/><ellipse cx="14.404" cy="14.403" rx="14.404" ry="14.403" transform="translate(191.849 162.313)" fill="#d2d2d2"/><ellipse cx="14.404" cy="14.403" rx="14.404" ry="14.403" transform="translate(223.553 162.313)" fill="#d2d2d2"/><g transform="translate(166.96 171.839)"><path d="M181.457,228.932c-3.949,0-7.162,2.473-7.162,5.512v.507h1.4v-.507c0-2.321,2.586-4.209,5.764-4.209s5.764,1.888,5.764,4.209v.507h1.4v-.507C188.619,231.4,185.406,228.932,181.457,228.932Z" transform="translate(-174.295 -222.764)" fill="#fff"/><ellipse cx="1.62" cy="1.62" rx="1.62" ry="1.62" transform="translate(0.056)" fill="#fff"/><ellipse cx="1.62" cy="1.62" rx="1.62" ry="1.62" transform="translate(11.09)" fill="#fff"/></g><g transform="translate(198.503 171.434)"><ellipse cx="1.829" cy="1.829" rx="1.829" ry="1.829" transform="translate(0 0.269)" fill="#fff"/><ellipse cx="1.829" cy="1.829" rx="1.829" ry="1.829" transform="translate(12.188 0.586) rotate(-9.217)" fill="#fff"/><rect width="13.603" height="1.527" transform="translate(1.638 9.868)" fill="#fff"/></g><g transform="translate(230.399 171.839)"><path d="M7.162,0C3.213,0,0,2.473,0,5.512V6.02H1.4V5.512C1.4,3.191,3.984,1.3,7.162,1.3s5.764,1.888,5.764,4.209V6.02h1.4V5.512C14.324,2.473,11.111,0,7.162,0Z" transform="translate(14.324 12.188) rotate(180)" fill="#fff"/><ellipse cx="1.62" cy="1.62" rx="1.62" ry="1.62" transform="translate(0.057)" fill="#fff"/><ellipse cx="1.62" cy="1.62" rx="1.62" ry="1.62" transform="translate(11.091)" fill="#fff"/></g></g></svg>