<?xml version="1.0" encoding="utf-8"?>
<!-- Generator: Adobe Illustrator 26.5.0, SVG Export Plug-In . SVG Version: 6.00 Build 0)  -->
<svg version="1.1" id="Layer_1" xmlns="http://www.w3.org/2000/svg" xmlns:xlink="http://www.w3.org/1999/xlink" x="0px" y="0px"
	 viewBox="0 0 225 215" style="enable-background:new 0 0 225 215;" xml:space="preserve">
<style type="text/css">
	.st0{clip-path:url(#SVGID_00000139263428954247889650000002197757765405641866_);}
	.st1{clip-path:url(#SVGID_00000152950237876008833230000008649475084332264345_);}
	.st2{opacity:0.4;clip-path:url(#SVGID_00000129896380175312199430000016831646086023654534_);}
	.st3{clip-path:url(#SVGID_00000095318915149324109020000015812078343655284905_);}
	.st4{clip-path:url(#SVGID_00000129896380175312199430000016831646086023654534_);fill:#FFFFFF;}
	
		.st5{clip-path:url(#SVGID_00000129896380175312199430000016831646086023654534_);fill:none;stroke:#D4D2D0;stroke-width:3.0827;stroke-miterlimit:10;}
	.st6{clip-path:url(#SVGID_00000175313308369403720240000008135367093183824542_);}
	.st7{clip-path:url(#SVGID_00000124129828978550138510000016208032250843453830_);}
	.st8{opacity:0.2;clip-path:url(#SVGID_00000031917852418153949530000006439980839342309505_);}
	.st9{clip-path:url(#SVGID_00000106128839320212823640000001972358187973941416_);}
	.st10{clip-path:url(#SVGID_00000031917852418153949530000006439980839342309505_);fill:#BA802E;}
	.st11{clip-path:url(#SVGID_00000031917852418153949530000006439980839342309505_);fill:#E2C970;}
	.st12{clip-path:url(#SVGID_00000031917852418153949530000006439980839342309505_);fill:#FFFFFF;}
	.st13{clip-path:url(#SVGID_00000031917852418153949530000006439980839342309505_);fill:#8A683D;}
	.st14{clip-path:url(#SVGID_00000031917852418153949530000006439980839342309505_);}
	.st15{clip-path:url(#SVGID_00000164486616810636444430000004603422438881978770_);}
	.st16{clip-path:url(#SVGID_00000126304414268469687640000013177213370971960253_);}
	.st17{opacity:0.2;clip-path:url(#SVGID_00000175287895359080443580000008471349050048450970_);}
	.st18{clip-path:url(#SVGID_00000000924124498084441030000014172928481987154840_);}
	.st19{clip-path:url(#SVGID_00000121961170010783695940000001906907622839427757_);fill:#D5C291;}
	.st20{clip-path:url(#SVGID_00000026123301955842961520000017701706607890457985_);}
	
		.st21{clip-path:url(#SVGID_00000093167572557599037930000005560167264369418932_);fill:url(#SVGID_00000066489376623289164930000013375005796005315479_);}
	.st22{clip-path:url(#SVGID_00000163042603014874383870000006481203501702030005_);}
	
		.st23{clip-path:url(#SVGID_00000170250301657887598420000012927701917266165126_);fill:url(#SVGID_00000137124590406934010080000014357835633376178581_);}
	.st24{clip-path:url(#SVGID_00000106869670903860912260000018429664250757695383_);}
	
		.st25{clip-path:url(#SVGID_00000161599172483458054060000001476559807440478876_);fill:url(#SVGID_00000139975999315291711910000015884325329947060882_);}
	.st26{clip-path:url(#SVGID_00000065775367064988856520000015268272154710404021_);}
	
		.st27{clip-path:url(#SVGID_00000036219994892128013510000000000595129189937822_);fill:url(#SVGID_00000004508753884086608700000000082438209744972435_);}
	.st28{clip-path:url(#SVGID_00000121994510141955485390000007461166102119434907_);}
	
		.st29{clip-path:url(#SVGID_00000127743360487786733340000011097762540031102620_);fill:url(#SVGID_00000019658671613816461080000013661673449737377432_);}
	.st30{clip-path:url(#SVGID_00000106137067411875963010000006775896866023030965_);}
	
		.st31{clip-path:url(#SVGID_00000070105122301410768140000005685761069459208092_);fill:url(#SVGID_00000160162089014078036460000016426211201884017547_);}
	
		.st32{clip-path:url(#SVGID_00000011006306674274979240000005530589872482563995_);fill-rule:evenodd;clip-rule:evenodd;fill:#EB8E80;}
	
		.st33{clip-path:url(#SVGID_00000029024245371888604850000017470516070864357053_);fill:url(#SVGID_00000123416472177777289740000008269657956701736066_);}
	.st34{opacity:0.5;clip-path:url(#SVGID_00000122697127068344785430000014507007296384844426_);}
	.st35{clip-path:url(#SVGID_00000056400609087285728250000012401243379367455621_);}
	
		.st36{clip-path:url(#SVGID_00000012463108480713594180000007084954422032549521_);fill:url(#SVGID_00000010290799745685561000000016782094148261849779_);}
	
		.st37{clip-path:url(#SVGID_00000129925927117338025080000002837335570569866635_);fill:url(#SVGID_00000103982375314115494000000006694357620161604255_);}
	
		.st38{clip-path:url(#SVGID_00000098926558647231436180000014846438942237804684_);fill-rule:evenodd;clip-rule:evenodd;fill:#1E2C5C;}
	
		.st39{clip-path:url(#SVGID_00000002361337963438810800000006146876043586672787_);fill:url(#SVGID_00000057112255501140354740000008990966889223719567_);}
	
		.st40{clip-path:url(#SVGID_00000082347930560927176330000018005736612131151025_);fill:url(#SVGID_00000138570763097753143760000010217652075353502633_);}
	
		.st41{clip-path:url(#SVGID_00000153675609506967159320000011203724575010056606_);fill-rule:evenodd;clip-rule:evenodd;fill:#34211D;}
	
		.st42{clip-path:url(#SVGID_00000040556970199869285850000016693443740982415751_);fill:url(#SVGID_00000026853245046922409270000012895247819484833452_);}
	
		.st43{clip-path:url(#SVGID_00000078735318687682231200000000793975824949419443_);fill-rule:evenodd;clip-rule:evenodd;fill:#34211D;}
	
		.st44{clip-path:url(#SVGID_00000003100242448994820040000011969975434893262519_);fill:url(#SVGID_00000118359521298416132920000012633455525553566384_);}
	
		.st45{clip-path:url(#SVGID_00000147210768737763368090000018088150355215325860_);fill-rule:evenodd;clip-rule:evenodd;fill:#1E2C5C;}
	
		.st46{clip-path:url(#SVGID_00000160163428989843761360000010817748210988045468_);fill:url(#SVGID_00000050647507368138680730000003951268629097903780_);}
	.st47{opacity:0.5;clip-path:url(#SVGID_00000084524289195790756310000012511462787271546274_);}
	.st48{clip-path:url(#SVGID_00000080185915892316525260000004593972261164559263_);}
	
		.st49{clip-path:url(#SVGID_00000142872338726883978620000018050111594538576782_);fill:url(#SVGID_00000140723751455114614820000004954791671388510895_);}
	.st50{opacity:0.2;clip-path:url(#SVGID_00000016757745265742957500000004613495092703072425_);}
	.st51{clip-path:url(#SVGID_00000139987537879521782570000004753543765373321349_);}
	.st52{clip-path:url(#SVGID_00000016757745265742957500000004613495092703072425_);fill:#D99CAC;}
	.st53{clip-path:url(#SVGID_00000115496149394885880520000013771364443456262018_);fill:#CF9EAB;}
	
		.st54{clip-path:url(#SVGID_00000022529381350043340640000010715816829656963483_);fill:url(#SVGID_00000037685600704093747520000007164192186213300927_);}
	
		.st55{clip-path:url(#SVGID_00000165956891398532702970000015363076089555029942_);fill-rule:evenodd;clip-rule:evenodd;fill:#6F143D;}
	
		.st56{clip-path:url(#SVGID_00000052809135041170126430000017991877685340684952_);fill:url(#SVGID_00000105415674201627611310000001177365215417404350_);}
	
		.st57{clip-path:url(#SVGID_00000082345911460432623650000004103952738395523220_);fill-rule:evenodd;clip-rule:evenodd;fill:#C6985B;}
	
		.st58{clip-path:url(#SVGID_00000134955788746415287620000001460061571783972255_);fill:url(#SVGID_00000016780008712982257630000000431925649477960327_);}
	
		.st59{clip-path:url(#SVGID_00000028300053899130141020000014104748454483826602_);fill:url(#SVGID_00000166671877020488924070000000760453738224494766_);}
	
		.st60{clip-path:url(#SVGID_00000116219950297766336720000006992971434394892420_);fill-rule:evenodd;clip-rule:evenodd;fill:#C6985B;}
	
		.st61{clip-path:url(#SVGID_00000051374417658310133400000003920041136657992627_);fill:url(#SVGID_00000036244040279555473070000012151359798848491675_);}
	
		.st62{clip-path:url(#SVGID_00000073716746278354975660000015097382918319154573_);fill-rule:evenodd;clip-rule:evenodd;fill:#6F143D;}
	.st63{opacity:0.2;clip-path:url(#SVGID_00000037664269471016841460000001984091585546265486_);}
	.st64{clip-path:url(#SVGID_00000109724231145982131600000012663781899311559327_);}
	.st65{clip-path:url(#SVGID_00000106149316589230788710000015128326761641006977_);fill:#9CCAD1;}
	
		.st66{clip-path:url(#SVGID_00000106149316589230788710000015128326761641006977_);fill-rule:evenodd;clip-rule:evenodd;fill:#A5E19F;}
	.st67{clip-path:url(#SVGID_00000098203877286004341790000014619423459529774979_);}
	
		.st68{clip-path:url(#SVGID_00000036957207941930935120000015606258404952834230_);fill:url(#SVGID_00000036243575145478709630000015913748252648447665_);}
	
		.st69{clip-path:url(#SVGID_00000034794086519012311290000012709028994075456641_);fill-rule:evenodd;clip-rule:evenodd;fill:#387C8D;}
	
		.st70{clip-path:url(#SVGID_00000034794086519012311290000012709028994075456641_);fill-rule:evenodd;clip-rule:evenodd;fill:#A5E19F;}
	.st71{clip-path:url(#SVGID_00000040574851784477207750000008071313701882414766_);}
	
		.st72{clip-path:url(#SVGID_00000076565938991176959150000013909748154150997904_);fill:url(#SVGID_00000163785882254684802560000012928052915736434066_);}
	
		.st73{clip-path:url(#SVGID_00000105388376704712802060000013969529014335061905_);fill-rule:evenodd;clip-rule:evenodd;fill:#387C8D;}
	
		.st74{clip-path:url(#SVGID_00000105388376704712802060000013969529014335061905_);fill-rule:evenodd;clip-rule:evenodd;fill:#A5E19F;}
	.st75{clip-path:url(#SVGID_00000018955238610209797650000015389099956025831316_);}
	
		.st76{clip-path:url(#SVGID_00000173148750698618686790000000776567738012451243_);fill:url(#SVGID_00000049196952303303349280000018242007631422137997_);}
	
		.st77{clip-path:url(#SVGID_00000021119038624582060140000006119853358068092038_);fill-rule:evenodd;clip-rule:evenodd;fill:#387C8D;}
	
		.st78{clip-path:url(#SVGID_00000021119038624582060140000006119853358068092038_);fill-rule:evenodd;clip-rule:evenodd;fill:#A5E19F;}
	.st79{clip-path:url(#SVGID_00000142895501431611050280000011030753116974817415_);}
	
		.st80{clip-path:url(#SVGID_00000165946249009900827710000007562760995570882944_);fill:url(#SVGID_00000177474502905696717570000002980520420857022614_);}
	
		.st81{clip-path:url(#SVGID_00000127004112936424438850000008412146072107885229_);fill-rule:evenodd;clip-rule:evenodd;fill:#A5E19F;}
	.st82{clip-path:url(#SVGID_00000041996660363642943220000001555325483330548406_);}
	
		.st83{clip-path:url(#SVGID_00000168795859845855824570000011660765463823758768_);fill:url(#SVGID_00000157309872318227080680000017497747974419187129_);}
	
		.st84{clip-path:url(#SVGID_00000161594538543574073740000009735467823002971804_);fill-rule:evenodd;clip-rule:evenodd;fill:#A5E19F;}
	.st85{clip-path:url(#SVGID_00000151515018615662319110000009340343901274148514_);}
	
		.st86{clip-path:url(#SVGID_00000026882804061507674050000000351390445505201280_);fill:url(#SVGID_00000175289823844567280140000002619402173306324357_);}
	
		.st87{clip-path:url(#SVGID_00000063599345137394323730000009698572029344495761_);fill:url(#SVGID_00000146476468314352414610000006402111509963179687_);}
	.st88{opacity:0.5;clip-path:url(#SVGID_00000124844628623519596090000004991448675481335444_);}
	.st89{clip-path:url(#SVGID_00000174585923741364968370000010263161436917429384_);}
	
		.st90{clip-path:url(#SVGID_00000134219216551908760470000001685101122388678282_);fill:url(#SVGID_00000093869361937443405790000016123653319282147208_);}
	
		.st91{clip-path:url(#SVGID_00000138551997493938262460000017431565785580269713_);fill:url(#SVGID_00000108289702208840741390000002421467882849969024_);}
	.st92{opacity:0.5;clip-path:url(#SVGID_00000174598124858702203910000003233613104349688471_);}
	.st93{clip-path:url(#SVGID_00000163066096009840858530000008309255284828041888_);}
	
		.st94{clip-path:url(#SVGID_00000015324732916211182160000000217204259479409077_);fill:url(#SVGID_00000080929169663562690280000013275806540846804865_);}
	
		.st95{clip-path:url(#SVGID_00000174598124858702203910000003233613104349688471_);fill-rule:evenodd;clip-rule:evenodd;fill:#9A80EC;}
	.st96{clip-path:url(#SVGID_00000091003706100249619240000015276395443792593042_);}
	
		.st97{clip-path:url(#SVGID_00000152962513893557903230000012257507157372250044_);fill:url(#SVGID_00000093893553148262871300000007543917323559233418_);}
	
		.st98{clip-path:url(#SVGID_00000139266015235733886770000015596154472579495354_);fill:url(#SVGID_00000008113731392789440290000017742996314659408523_);}
	.st99{opacity:0.5;clip-path:url(#SVGID_00000075844964376827594880000017656541858507703482_);}
	.st100{clip-path:url(#SVGID_00000183237732550362785270000013918556405162529443_);}
	
		.st101{clip-path:url(#SVGID_00000158711905343235983500000016157058939610854279_);fill:url(#SVGID_00000159467623742457490010000008191685168084213391_);}
	
		.st102{clip-path:url(#SVGID_00000075844964376827594880000017656541858507703482_);fill-rule:evenodd;clip-rule:evenodd;fill:#F2A99B;}
	
		.st103{clip-path:url(#SVGID_00000032645813200384423200000009185140638196616339_);fill:url(#SVGID_00000052082715068514436830000011393846264076711345_);}
	
		.st104{clip-path:url(#SVGID_00000104676116187248666170000009128556180384096398_);fill:url(#SVGID_00000104665907956521630020000013199923535661871234_);}
	
		.st105{clip-path:url(#SVGID_00000070094926606867160750000015260834599887292575_);fill-rule:evenodd;clip-rule:evenodd;fill:#1E083A;}
	
		.st106{clip-path:url(#SVGID_00000166651684999640401990000002189766533171624863_);fill:url(#SVGID_00000155148957266339687340000001291585839198249109_);}
	
		.st107{clip-path:url(#SVGID_00000151511381139509362320000008153771637533948564_);fill-rule:evenodd;clip-rule:evenodd;fill:#F2A99B;}
	
		.st108{clip-path:url(#SVGID_00000026870548027785992200000004805995614563079319_);fill:url(#SVGID_00000163071626132071853610000014019656672755538108_);}
	.st109{opacity:0.5;clip-path:url(#SVGID_00000073683188947721786800000014574540092914484356_);}
	.st110{clip-path:url(#SVGID_00000070832231498753891350000018032129593170956699_);}
	
		.st111{clip-path:url(#SVGID_00000070801874689642682690000015795919363868530061_);fill:url(#SVGID_00000077293680671685053120000001002607047427732892_);}
	
		.st112{clip-path:url(#SVGID_00000082365137721241185340000010486844331865499019_);fill:url(#SVGID_00000073711122086838015750000003474044696988723638_);}
	
		.st113{clip-path:url(#SVGID_00000168824379386328154860000008185044975821914508_);fill-rule:evenodd;clip-rule:evenodd;fill:#9A80EC;}
	.st114{clip-path:url(#SVGID_00000023275628360390182280000004735862987567356041_);}
	
		.st115{clip-path:url(#SVGID_00000001654511439799362310000016266489019791667122_);fill:url(#SVGID_00000057141196091113874780000006488942833031306372_);}
	.st116{clip-path:url(#SVGID_00000121250015345983163220000015021472444697502394_);}
	.st117{clip-path:url(#SVGID_00000032641229299680867950000005353236313363822988_);}
	.st118{opacity:0.15;clip-path:url(#SVGID_00000003803384203544483470000002655963122143881633_);}
	.st119{clip-path:url(#SVGID_00000054243273647538498220000006853899445844583556_);}
	.st120{clip-path:url(#SVGID_00000003803384203544483470000002655963122143881633_);fill:#FFFFFF;}
	.st121{clip-path:url(#SVGID_00000003803384203544483470000002655963122143881633_);fill:#8B61D8;}
	.st122{clip-path:url(#SVGID_00000033362153298455148940000001561341035818102707_);fill:#9ECCD3;}
	
		.st123{clip-path:url(#SVGID_00000117646082195901711450000015243685739897381549_);fill:url(#SVGID_00000092419117609668265090000017096274276566346131_);}
	
		.st124{clip-path:url(#SVGID_00000156582472584020570700000007709828118795267975_);fill-rule:evenodd;clip-rule:evenodd;fill:#6E043D;}
	
		.st125{clip-path:url(#SVGID_00000050633865481846432890000007092215562551837326_);fill:url(#SVGID_00000030460241385570171250000000081689735646597030_);}
	
		.st126{clip-path:url(#SVGID_00000111890357419013013990000009126611448281736865_);fill-rule:evenodd;clip-rule:evenodd;fill:#C89A5B;}
	
		.st127{clip-path:url(#SVGID_00000111173699244126477810000010119812622412951695_);fill:url(#SVGID_00000062890848933438631100000015563475020213339577_);}
	
		.st128{clip-path:url(#SVGID_00000120526686501427608250000010809418008761214598_);fill:url(#SVGID_00000183932547323910428640000006606688457830538660_);}
	
		.st129{clip-path:url(#SVGID_00000120516854953555908820000008334269567376443306_);fill-rule:evenodd;clip-rule:evenodd;fill:#C89A5B;}
	
		.st130{clip-path:url(#SVGID_00000000223059992561704820000005289732044599368589_);fill:url(#SVGID_00000065781441195207637860000008900585101341877169_);}
	
		.st131{clip-path:url(#SVGID_00000153706639256758401780000014234885971423611554_);fill-rule:evenodd;clip-rule:evenodd;fill:#6E043D;}
	.st132{clip-path:url(#SVGID_00000103267107364660073910000013322389012043929779_);fill:#1C2F59;}
	.st133{opacity:0.1;clip-path:url(#SVGID_00000103267107364660073910000013322389012043929779_);}
	.st134{clip-path:url(#SVGID_00000078011051182584649370000006351452779178181309_);}
	.st135{clip-path:url(#SVGID_00000103267107364660073910000013322389012043929779_);fill:#FFFFFF;}
	
		.st136{clip-path:url(#SVGID_00000103267107364660073910000013322389012043929779_);fill:none;stroke:#D5D5D5;stroke-width:0.364;stroke-miterlimit:10;}
	.st137{clip-path:url(#SVGID_00000103267107364660073910000013322389012043929779_);fill:#BCBCBC;}
	.st138{clip-path:url(#SVGID_00000129178558304399987860000003207700351486993581_);}
	.st139{clip-path:url(#SVGID_00000078020118899599013630000004672256541016766600_);}
	.st140{opacity:5.000310e-02;clip-path:url(#SVGID_00000155119743056124572050000006049934884347940768_);}
	.st141{clip-path:url(#SVGID_00000074404083728575529410000004028994872299147399_);}
	.st142{opacity:0.1;clip-path:url(#SVGID_00000155119743056124572050000006049934884347940768_);}
	.st143{clip-path:url(#SVGID_00000057827785370243521650000001687135705939284140_);}
	.st144{clip-path:url(#SVGID_00000155119743056124572050000006049934884347940768_);fill:#7EB0D2;}
	.st145{clip-path:url(#SVGID_00000091701508269837473360000006083658677816574868_);}
	.st146{clip-path:url(#SVGID_00000077287588273324119000000009695401552684281271_);}
	.st147{clip-path:url(#SVGID_00000155119743056124572050000006049934884347940768_);fill:#1F2F56;}
	.st148{clip-path:url(#SVGID_00000155119743056124572050000006049934884347940768_);fill:#609EC8;}
	.st149{clip-path:url(#SVGID_00000155119743056124572050000006049934884347940768_);fill:#FFFFFF;}
	
		.st150{clip-path:url(#SVGID_00000066489043620801813710000007645160379700133508_);fill:url(#SVGID_00000013162556402440643750000012558962233265517189_);}
	
		.st151{clip-path:url(#SVGID_00000057125185412570645520000011300694248507533443_);fill:url(#SVGID_00000160899137352892623320000011763580740220278692_);}
	
		.st152{clip-path:url(#SVGID_00000055688239935683218820000009766423327794730915_);fill:url(#SVGID_00000129894061544617966270000004720374519581639334_);}
	.st153{fill:#FFFFFF;}
</style>
<path class="st153" d="M222,62.5C222,31.9,197.1,7,166.5,7c-30.4,0-55.2,24.6-55.5,54.9C102.8,41.5,82.8,27,59.5,27
	C28.9,27,4,51.9,4,82.5S28.9,138,59.5,138c6.8,0,13.3-1.2,19.3-3.5c-2.8,6.6-4.3,13.9-4.3,21.5c0,30.6,24.9,55.5,55.5,55.5
	s55.5-24.9,55.5-55.5c0-14.8-5.8-28.2-15.2-38.1C199.1,115.9,222,91.8,222,62.5z M139.7,45.1C139.7,45.1,139.7,45.1,139.7,45.1
	C139.7,45.1,139.7,45.1,139.7,45.1c0.1,0.2,0.1,0.3,0.2,0.4c0.1,0.2,0.1,0.4,0.2,0.5c0.1,0.1,0.1,0.3,0.2,0.4
	c0.1,0.2,0.2,0.3,0.3,0.5c0.1,0.1,0.1,0.2,0.2,0.4c0.1,0.2,0.2,0.3,0.3,0.5c0.1,0.1,0.1,0.2,0.2,0.3c0.2,0.2,0.4,0.5,0.5,0.7
	c0.1,0.1,0.1,0.2,0.2,0.2c0.2,0.2,0.3,0.4,0.5,0.5c0.1,0.1,0.2,0.2,0.3,0.3c0.2,0.1,0.3,0.3,0.5,0.4c0.1,0.1,0.2,0.2,0.3,0.2
	c0.2,0.1,0.3,0.2,0.5,0.3c0.1,0.1,0.2,0.1,0.3,0.2c0.2,0.1,0.4,0.2,0.7,0.3c0.1,0,0.2,0.1,0.3,0.1c0.3,0.1,0.7,0.3,1,0.4
	c0.1,0,0.2,0.1,0.3,0.1c0.2,0.1,0.4,0.1,0.6,0.2c0.1,0.4,0.2,0.8,0.2,1.2c0.1,0.5,0.2,1,0.3,1.5c0,0.2,0.1,0.4,0.1,0.6c0,0,0,0,0,0
	c0.4,2.2,0.8,4.3,1.3,6.4c0.3-2,0.6-4.1,0.5-6.3c0-1-0.1-2.1-0.3-3.1c0.2,0,0.4,0,0.5,0c0.1,0,0.3,0,0.4,0c0.4,0,0.9,0,1.3-0.1
	c0.4,0,0.8-0.1,1.2-0.2c0,0,0.1,0,0.1,0c0.4-0.1,0.8-0.2,1.1-0.3c0.1,0,0.1,0,0.2,0c0.4-0.1,0.7-0.2,1.1-0.4c0.1,0,0.1,0,0.2-0.1
	c0.4-0.1,0.7-0.3,1.1-0.5c0.1,0,0.1-0.1,0.2-0.1c0.4-0.2,0.8-0.4,1.1-0.5c0,0,0.1,0,0.1-0.1c0.4-0.2,0.8-0.4,1.2-0.7c0,0,0,0,0,0
	c0.4-0.2,0.7-0.5,1.1-0.7c0,0,0.1,0,0.1-0.1c0.4-0.2,0.7-0.5,1-0.8c0,0,0.1-0.1,0.1-0.1c0.3-0.3,0.6-0.5,0.9-0.8
	c0,0,0.1-0.1,0.1-0.1c0.3-0.3,0.6-0.6,0.9-0.9c0,0,0.1-0.1,0.1-0.1c0.1-0.1,0.2-0.2,0.3-0.3c0.8-0.7,1.5-1.3,2.2-1.9
	c2.1,4.4,4.1,6.8,5.4,11.3c0.5,1.6,1.8,3.6,2.5,1c0.6-2.1,1.9-3.2,2.9-2.4c0.2,0.2,0.4,0.4,0.6,0.6c0,0,0,0,0.1,0.1
	c1.3,1.9,1,5-0.1,7c-0.9,1.6-2.1,2-3,2.9c-0.5,1.2-1,2.2-1.5,3.1c-0.1-0.3-0.1-0.5-0.2-0.8c0.1,0.3,0.1,0.5,0.2,0.8
	c-1.5,2.6-3.4,4.4-6.2,6.9c-1.2,1.1-2.4,1.9-3.7,2.5c0,0,0,0,0,0c0,0,0,0,0,0c-2.7,1.2-5.5,0.9-8.4-2.6c-3-3.5-4.4-7.5-5.5-12.1
	c-0.8,5-2.1,9.7-0.6,14.4c0.4,1.1,0.8,2.1,1.2,3c-6.8,1.9-13.7,5.3-19.5,11.4c-3.6-4.5-6.4-9.7-8.1-15.3c-1.1-3.4-1.8-6.9-2.1-10.6
	c0-0.7-0.1-1.4-0.1-2c0-25.6,20.9-46.5,46.5-46.5c20.5,0,37.9,13.3,44.1,31.7c-6.7,1.5-11,2-15.4-0.5c-3.8-2.2-5.3-6.1-11.9-12.9
	c-6.1-6.4-12.7-9.5-21.8-2.6c-3.1-1.6-7.1-2.1-10.5-1.8C140.9,30.7,137.6,38.9,139.7,45.1z M139.6,124.6c-2.4-5.1-6.7-5.5-10.8-3.5
	c-1.2-0.8-2.7-1.2-4.4-1.5c-0.4-0.1-0.8-0.2-1.1-0.2c-2.4-0.4-5.1-0.8-8.2-2.2c-2.5,2.4-3.6,7.1-2.3,11.6c0.5,3,2.9,5.8,5.1,7.4
	c-0.1,0.7-0.2,1.4-0.3,2.1c-1.1,7.4-2.5,14.9-0.1,22.2c0.7,2,1.7,3.5,3.7,4.1c-0.2,1.5-0.5,3.1-0.8,4.3c-1.7,0.3-3.4,0.6-5.2,1.1
	c-9.7,1.2-14.9,5.4-17.5,9.4c-1.2,1.9-2.4,4-3.7,6.1c-6.6-8-10.5-18.3-10.5-29.5c0-12.4,4.9-23.7,12.9-32.1c1-0.9,2-1.9,3-2.8
	c8.2-7.2,18.9-11.6,30.7-11.6c2.8,0,5.6,0.3,8.3,0.7c5.1,3,10.7,5.3,16.7,6.5c13,8.3,21.6,22.8,21.6,39.2c0,12-4.6,23-12.1,31.3
	c-2.5-2.9-5.5-5.6-9-8c-4.2-4.1-10-7.3-16.4-9.2c-0.7-3.3-1-8.2-0.7-12.1c0.1-0.1,0.1-0.3,0.2-0.4c0.3-0.5,0.7-1.1,1.3-1.7
	c2.7,0.6,3.6-0.4,4.4-2.3c0.9-2.1,0.8-1.5,2.3-3.1c0.7-0.8,1.2-1.5,1.6-2.3c1.2-2.6,0.7-4.3,0.9-6.3c0.2-2.6,1.4-3.4,2-5.1
	C153.8,128.9,147.4,121.4,139.6,124.6z M74.8,75.7c0.2,5.1-0.2,9.7-2.3,14.2c-2.1,4.5-4.9,5.6-8.1,5.1c0,0,0,0,0,0c0,0,0,0,0,0
	c-1.5-0.2-3-0.8-4.5-1.6c-3.7-1.8-6.1-3.1-8.4-5.4c0-0.3,0-0.6,0-0.9c0,0.3,0,0.6,0,0.9c-0.8-0.8-1.6-1.7-2.5-2.8
	c-1.2-0.7-2.6-0.7-4-2.1c-1.8-1.8-3-4.9-2.1-7.3c0-0.1,0.1-0.2,0.1-0.3c0-0.1,0-0.1,0.1-0.2c0.1-0.2,0.2-0.3,0.3-0.5
	c0.7-1.1,2.5-0.3,3.7,1.7c1.5,2.5,2.3,0.1,2.4-1.7c0.1-5,1.5-8.1,2.5-13.3c0.9,0.5,1.9,0.9,2.8,1.4c0.1,0.1,0.3,0.2,0.4,0.3
	c0.1,0,0.1,0.1,0.2,0.1c0.4,0.2,0.7,0.4,1.1,0.7c0.1,0,0.1,0.1,0.2,0.1c0.4,0.2,0.8,0.4,1.2,0.6c0.1,0,0.1,0,0.2,0.1
	c0.4,0.2,0.9,0.4,1.3,0.5c0,0,0.1,0,0.1,0c0.5,0.2,0.9,0.3,1.4,0.5c0,0,0,0,0,0c0.5,0.1,0.9,0.3,1.4,0.4c0.1,0,0.1,0,0.1,0
	c0.4,0.1,0.9,0.2,1.3,0.3c0.1,0,0.1,0,0.2,0c0.4,0.1,0.9,0.1,1.3,0.2c0.1,0,0.1,0,0.2,0c0.4,0,0.9,0.1,1.3,0.1c0.1,0,0.1,0,0.2,0
	c0.4,0,0.9,0,1.3,0c0,0,0.1,0,0.1,0c0.4,0,0.9-0.1,1.3-0.1c0.5-0.1,0.9-0.2,1.4-0.3c0.1,0,0.3-0.1,0.4-0.1c0.2-0.1,0.4-0.1,0.6-0.2
	c0.1,1.2,0.3,2.3,0.6,3.3C73,71.6,73.8,73.7,74.8,75.7c-0.1-2.2-0.3-4.6-0.5-7c0,0,0,0,0,0c0-0.6-0.1-1.1-0.1-1.7
	c0-0.2,0-0.4-0.1-0.7c0-0.4-0.1-0.9-0.1-1.3c0.2-0.1,0.4-0.2,0.6-0.4c0.1-0.1,0.2-0.1,0.3-0.2c0.3-0.2,0.6-0.4,0.9-0.7
	c0.1-0.1,0.2-0.1,0.2-0.2c0.2-0.2,0.4-0.4,0.6-0.5c0.1-0.1,0.2-0.2,0.3-0.3c0.2-0.2,0.3-0.3,0.5-0.5c0.1-0.1,0.2-0.2,0.3-0.3
	c0.1-0.2,0.3-0.4,0.4-0.5c0.1-0.1,0.2-0.2,0.2-0.3c0.1-0.2,0.3-0.5,0.4-0.7c0.1-0.1,0.1-0.2,0.2-0.3c0.1-0.3,0.3-0.6,0.4-0.8
	c0.1-0.1,0.1-0.3,0.1-0.4c0.1-0.2,0.1-0.4,0.2-0.6c0-0.2,0.1-0.3,0.1-0.5c0-0.2,0.1-0.4,0.1-0.6c0-0.2,0.1-0.3,0.1-0.5
	c0-0.2,0.1-0.4,0.1-0.6c0-0.1,0-0.3,0-0.4c0,0,0,0,0,0c0,0,0,0,0,0c0.5-7.1-5.3-14.8-16.1-12.8c-3.7,0.7-7.6,2.3-10.5,4.8
	c-11.5-4.6-17.5,0.5-22.1,8.9c-4.9,8.9-5.4,13.5-8.8,16.8c-2.6,2.6-5.5,3.7-9.4,4.3C15.6,54.4,35.4,36,59.5,36
	C85.1,36,106,56.9,106,82.5c0,11.9-4.5,22.7-11.8,30.9c-3.5-4-7.3-7.5-11.5-9.9c-0.3-0.2-0.5-0.3-0.8-0.4c-1-0.6-2-1.1-3.1-1.4
	c-0.9-0.3-1.8-0.5-2.8-0.7c1.8-2.3,3.1-5.5,3.3-10.4C79.7,85.2,77,80.7,74.8,75.7z M110.7,104c2.7-6.4,4.2-13.5,4.3-20.9
	c2.6,6.6,6.5,12.5,11.3,17.5C120.8,101,115.6,102.2,110.7,104z M34.5,105.4c4.9-2.5,10.1-4.1,15.5-5c-0.1,0.3-0.1,0.5-0.2,0.8
	c0.2,0.8,0.6,1.6,1.1,2.3c-2.5,0.6-6.8,1.8-11.5,3.7c-4.5,1.9-9.3,4.5-12.9,8c-0.8-0.8-1.6-1.7-2.3-2.5
	C27.3,109.7,30.8,107.3,34.5,105.4z M201.6,92.9c-6.4-7.1-15.6-11-24.3-12.5c0.2-0.6,0.3-1.3,0.3-2c-0.3-0.4-0.5-0.9-0.7-1.3
	c9.5,1.4,19.6,5.5,26.4,13.6C202.8,91.5,202.2,92.2,201.6,92.9z"/>
</svg>
