<?xml version="1.0" encoding="utf-8"?>
<!-- Generator: Adobe Illustrator 26.5.0, SVG Export Plug-In . SVG Version: 6.00 Build 0)  -->
<svg version="1.1" id="Layer_1" xmlns="http://www.w3.org/2000/svg" xmlns:xlink="http://www.w3.org/1999/xlink" x="0px" y="0px"
	 viewBox="0 0 177 223" style="enable-background:new 0 0 177 223;" xml:space="preserve">
<style type="text/css">
	.st0{clip-path:url(#SVGID_00000019653828305050399820000005527766679280969400_);}
	.st1{clip-path:url(#SVGID_00000167366907072118929780000008365282761117776539_);}
	.st2{opacity:0.4;clip-path:url(#SVGID_00000034779570920447669570000015162795723664553874_);}
	.st3{clip-path:url(#SVGID_00000093160263237503491410000016769119173857665961_);}
	.st4{clip-path:url(#SVGID_00000034779570920447669570000015162795723664553874_);fill:#FFFFFF;}
	
		.st5{clip-path:url(#SVGID_00000034779570920447669570000015162795723664553874_);fill:none;stroke:#D4D2D0;stroke-width:3.0827;stroke-miterlimit:10;}
	.st6{clip-path:url(#SVGID_00000022562045717137996440000005277076464670238604_);}
	.st7{clip-path:url(#SVGID_00000159435701366481197340000006573723660594840253_);}
	.st8{opacity:0.2;clip-path:url(#SVGID_00000090982814956393859690000008732032371350055102_);}
	.st9{clip-path:url(#SVGID_00000154426356334107182040000006796156083483625366_);}
	.st10{clip-path:url(#SVGID_00000090982814956393859690000008732032371350055102_);fill:#BA802E;}
	.st11{clip-path:url(#SVGID_00000090982814956393859690000008732032371350055102_);fill:#E2C970;}
	.st12{clip-path:url(#SVGID_00000090982814956393859690000008732032371350055102_);fill:#FFFFFF;}
	.st13{clip-path:url(#SVGID_00000090982814956393859690000008732032371350055102_);fill:#8A683D;}
	.st14{clip-path:url(#SVGID_00000090982814956393859690000008732032371350055102_);}
	.st15{clip-path:url(#SVGID_00000088851942167602012050000009798560067233680011_);}
	.st16{clip-path:url(#SVGID_00000174601350609427580420000011835553853010682504_);}
	.st17{opacity:0.2;clip-path:url(#SVGID_00000023962546398202530380000002097035066592403349_);}
	.st18{clip-path:url(#SVGID_00000163768839253343964830000016494901555443957942_);}
	.st19{clip-path:url(#SVGID_00000005971901809809136940000001878233088298708901_);fill:#D5C291;}
	.st20{clip-path:url(#SVGID_00000103961881485935870630000006116952639135082923_);}
	
		.st21{clip-path:url(#SVGID_00000005249481832367120570000014901542465447958144_);fill:url(#SVGID_00000172422612501174893400000013277330166548048549_);}
	.st22{clip-path:url(#SVGID_00000121279784659271057570000015897534744748972427_);}
	
		.st23{clip-path:url(#SVGID_00000011751638282705314850000004768812995359779773_);fill:url(#SVGID_00000101096594937016112330000017892330015162800787_);}
	.st24{clip-path:url(#SVGID_00000100345423110507972190000008691382786975380352_);}
	
		.st25{clip-path:url(#SVGID_00000083055216602495424740000008106840925309728404_);fill:url(#SVGID_00000044166765170780219850000010602717387941030789_);}
	.st26{clip-path:url(#SVGID_00000014615333555028315820000008455698127726993567_);}
	
		.st27{clip-path:url(#SVGID_00000073002322289529964500000008317578483066765995_);fill:url(#SVGID_00000178906371415884574570000009934140912139474849_);}
	.st28{clip-path:url(#SVGID_00000003102125101779438940000006696016939055101063_);}
	
		.st29{clip-path:url(#SVGID_00000011714492624317259030000001349018252704794507_);fill:url(#SVGID_00000169531514543720841670000015484927845065440191_);}
	.st30{clip-path:url(#SVGID_00000068678588654598171320000001291479309847221922_);}
	
		.st31{clip-path:url(#SVGID_00000047782989349831814890000005773029964398729108_);fill:url(#SVGID_00000090986983369565416290000009059199360998818433_);}
	
		.st32{clip-path:url(#SVGID_00000033329473665106960570000007774462299698698153_);fill-rule:evenodd;clip-rule:evenodd;fill:#EB8E80;}
	
		.st33{clip-path:url(#SVGID_00000147213488587205106820000013799525989844869792_);fill:url(#SVGID_00000125585171754076476010000015491300915339499176_);}
	.st34{opacity:0.5;clip-path:url(#SVGID_00000068640901392066664550000009623257524935700129_);}
	.st35{clip-path:url(#SVGID_00000173155593389328543140000001064006704468970640_);}
	
		.st36{clip-path:url(#SVGID_00000041974788081883197020000009527740763405060783_);fill:url(#SVGID_00000118382332343914828220000007795730141163067836_);}
	
		.st37{clip-path:url(#SVGID_00000098219014470906371910000002164170341411648182_);fill:url(#SVGID_00000053504374519399935770000006100927009629841062_);}
	
		.st38{clip-path:url(#SVGID_00000072988391579812858300000010167820024897579710_);fill-rule:evenodd;clip-rule:evenodd;fill:#1E2C5C;}
	
		.st39{clip-path:url(#SVGID_00000101091208268273623640000000714061449511599752_);fill:url(#SVGID_00000070109306996479808650000008238031812821094540_);}
	
		.st40{clip-path:url(#SVGID_00000148625583892129877070000003810973118204419517_);fill:url(#SVGID_00000093148177768856276380000016782815972756551073_);}
	
		.st41{clip-path:url(#SVGID_00000071548608141120690590000009617738980821419409_);fill-rule:evenodd;clip-rule:evenodd;fill:#34211D;}
	
		.st42{clip-path:url(#SVGID_00000155139861151848089840000015992315761365963165_);fill:url(#SVGID_00000138560163410229716530000013804094282889527724_);}
	
		.st43{clip-path:url(#SVGID_00000121988302594789095820000005332504064297054624_);fill-rule:evenodd;clip-rule:evenodd;fill:#34211D;}
	
		.st44{clip-path:url(#SVGID_00000145744299927325030750000008442881437960097413_);fill:url(#SVGID_00000138571931769075526150000012757328401092677255_);}
	
		.st45{clip-path:url(#SVGID_00000131342321511825135080000000051048848258285442_);fill-rule:evenodd;clip-rule:evenodd;fill:#1E2C5C;}
	
		.st46{clip-path:url(#SVGID_00000117650253933281694540000003992860398684056749_);fill:url(#SVGID_00000150789944459622546380000016798448434241217716_);}
	.st47{opacity:0.5;clip-path:url(#SVGID_00000173872053140511857030000002967906766945140376_);}
	.st48{clip-path:url(#SVGID_00000095299362310228149870000010256612914872372145_);}
	
		.st49{clip-path:url(#SVGID_00000071530754545175192180000013426160739321131657_);fill:url(#SVGID_00000065790919972806748460000017666706054994845606_);}
	.st50{opacity:0.2;clip-path:url(#SVGID_00000111875854212275330110000002915484626660541568_);}
	.st51{clip-path:url(#SVGID_00000050647694317340011580000010092565597759932818_);}
	.st52{clip-path:url(#SVGID_00000111875854212275330110000002915484626660541568_);fill:#D99CAC;}
	.st53{clip-path:url(#SVGID_00000144339544555765722280000016760424568927039647_);fill:#CF9EAB;}
	
		.st54{clip-path:url(#SVGID_00000131334373101653230970000003393146502644990627_);fill:url(#SVGID_00000163058403072107169570000015811843570898810812_);}
	
		.st55{clip-path:url(#SVGID_00000149342055828479501530000015125258823257800615_);fill-rule:evenodd;clip-rule:evenodd;fill:#6F143D;}
	
		.st56{clip-path:url(#SVGID_00000143602064339256705630000009118392690926375329_);fill:url(#SVGID_00000001630787166967037920000011551626952631142574_);}
	
		.st57{clip-path:url(#SVGID_00000177448768710576924600000016896469805554409914_);fill-rule:evenodd;clip-rule:evenodd;fill:#C6985B;}
	
		.st58{clip-path:url(#SVGID_00000176015564465427757470000009668571966103372182_);fill:url(#SVGID_00000104708112272588190310000013498896590343600532_);}
	
		.st59{clip-path:url(#SVGID_00000155860781317949973410000000970107705393175471_);fill:url(#SVGID_00000147913707005356059320000003673403374844364719_);}
	
		.st60{clip-path:url(#SVGID_00000121249170111334333410000005730215513027777189_);fill-rule:evenodd;clip-rule:evenodd;fill:#C6985B;}
	
		.st61{clip-path:url(#SVGID_00000016765724891408740990000011647733214912698279_);fill:url(#SVGID_00000027605475860726625750000012296815147153553826_);}
	
		.st62{clip-path:url(#SVGID_00000132769879499693471120000013613853543722329494_);fill-rule:evenodd;clip-rule:evenodd;fill:#6F143D;}
	.st63{opacity:0.2;clip-path:url(#SVGID_00000152247343933810852420000004971963259562812290_);}
	.st64{clip-path:url(#SVGID_00000183945160035579685700000002127964716793265566_);}
	.st65{clip-path:url(#SVGID_00000020371480680111767050000001163926736474406074_);fill:#9CCAD1;}
	
		.st66{clip-path:url(#SVGID_00000020371480680111767050000001163926736474406074_);fill-rule:evenodd;clip-rule:evenodd;fill:#A5E19F;}
	.st67{clip-path:url(#SVGID_00000068655427142182368430000008459828198062257572_);}
	
		.st68{clip-path:url(#SVGID_00000150783525782688617400000005724056572779582890_);fill:url(#SVGID_00000084519469475080407300000002455856415011851940_);}
	
		.st69{clip-path:url(#SVGID_00000109745626515824806390000009906957948093392573_);fill-rule:evenodd;clip-rule:evenodd;fill:#387C8D;}
	
		.st70{clip-path:url(#SVGID_00000109745626515824806390000009906957948093392573_);fill-rule:evenodd;clip-rule:evenodd;fill:#A5E19F;}
	.st71{clip-path:url(#SVGID_00000030476094986270308870000013962916922362797709_);}
	
		.st72{clip-path:url(#SVGID_00000041296960601412609150000013609515697927500440_);fill:url(#SVGID_00000062192164754676279210000009165026475585628328_);}
	
		.st73{clip-path:url(#SVGID_00000180333836053175642660000016390698228602597047_);fill-rule:evenodd;clip-rule:evenodd;fill:#387C8D;}
	
		.st74{clip-path:url(#SVGID_00000180333836053175642660000016390698228602597047_);fill-rule:evenodd;clip-rule:evenodd;fill:#A5E19F;}
	.st75{clip-path:url(#SVGID_00000177455769524283107410000012553303533309322890_);}
	
		.st76{clip-path:url(#SVGID_00000163036437741547325220000014968807284966762895_);fill:url(#SVGID_00000150069357431792702980000017924281361990354324_);}
	
		.st77{clip-path:url(#SVGID_00000168114427323494594990000002727903327583173019_);fill-rule:evenodd;clip-rule:evenodd;fill:#387C8D;}
	
		.st78{clip-path:url(#SVGID_00000168114427323494594990000002727903327583173019_);fill-rule:evenodd;clip-rule:evenodd;fill:#A5E19F;}
	.st79{clip-path:url(#SVGID_00000092427150513037334360000006127467909456328833_);}
	
		.st80{clip-path:url(#SVGID_00000047781829427500398190000001335901953779538871_);fill:url(#SVGID_00000098915766648850540040000002557807040120855709_);}
	
		.st81{clip-path:url(#SVGID_00000078010556695633823620000017680645347808048016_);fill-rule:evenodd;clip-rule:evenodd;fill:#A5E19F;}
	.st82{clip-path:url(#SVGID_00000134214782090613293750000012446265695258841756_);}
	
		.st83{clip-path:url(#SVGID_00000016051826187622174360000013524988521298748315_);fill:url(#SVGID_00000016768699915672883290000003914942914010564777_);}
	
		.st84{clip-path:url(#SVGID_00000111896029954803235280000018292323589343516074_);fill-rule:evenodd;clip-rule:evenodd;fill:#A5E19F;}
	.st85{clip-path:url(#SVGID_00000116230083775505413100000015888325118273775758_);}
	
		.st86{clip-path:url(#SVGID_00000060745474443476194960000003043240079529471396_);fill:url(#SVGID_00000048459758732093815590000017743865693323732354_);}
	
		.st87{clip-path:url(#SVGID_00000043449382309076752340000016944237489475777927_);fill:url(#SVGID_00000085970840783395786290000003065330805451011464_);}
	.st88{opacity:0.5;clip-path:url(#SVGID_00000137823504767089544300000017684125022342752171_);}
	.st89{clip-path:url(#SVGID_00000082366424693880567760000016333855257834540212_);}
	
		.st90{clip-path:url(#SVGID_00000010299308463977863200000004719107430132068776_);fill:url(#SVGID_00000164493472950752482570000015063216426802177194_);}
	
		.st91{clip-path:url(#SVGID_00000165936262135655765360000000456432149802632616_);fill:url(#SVGID_00000067934713285516821330000012668169075251456958_);}
	.st92{opacity:0.5;clip-path:url(#SVGID_00000149356869401524739570000013265046712570066597_);}
	.st93{clip-path:url(#SVGID_00000135651482758689950880000007158633385122068658_);}
	
		.st94{clip-path:url(#SVGID_00000054228960594516101240000015528281365850913449_);fill:url(#SVGID_00000060721969945871407420000001004685041226862994_);}
	
		.st95{clip-path:url(#SVGID_00000149356869401524739570000013265046712570066597_);fill-rule:evenodd;clip-rule:evenodd;fill:#9A80EC;}
	.st96{clip-path:url(#SVGID_00000114047418672526605250000008986844020822610072_);}
	
		.st97{clip-path:url(#SVGID_00000128468761330528307760000011619337607827094166_);fill:url(#SVGID_00000020380060718073096240000015874116226923541907_);}
	
		.st98{clip-path:url(#SVGID_00000105415512294419699280000001737849949841243532_);fill:url(#SVGID_00000097461402625590854810000005783008849769358504_);}
	.st99{opacity:0.5;clip-path:url(#SVGID_00000037657469060692094310000004764196150105670289_);}
	.st100{clip-path:url(#SVGID_00000016040146864334716840000010174736386142895030_);}
	
		.st101{clip-path:url(#SVGID_00000011001054599352671830000006711308223459382948_);fill:url(#SVGID_00000161589750475084153880000007849449555537575079_);}
	
		.st102{clip-path:url(#SVGID_00000037657469060692094310000004764196150105670289_);fill-rule:evenodd;clip-rule:evenodd;fill:#F2A99B;}
	
		.st103{clip-path:url(#SVGID_00000012471496957959583550000011592122028255637391_);fill:url(#SVGID_00000072969379740341596960000000274754020426941091_);}
	
		.st104{clip-path:url(#SVGID_00000008128780415558941790000008755545037205649043_);fill:url(#SVGID_00000038403299261700268180000013917364014180687773_);}
	
		.st105{clip-path:url(#SVGID_00000054259133854245473660000008308725410158276748_);fill-rule:evenodd;clip-rule:evenodd;fill:#1E083A;}
	
		.st106{clip-path:url(#SVGID_00000057115970358127544570000004710504286697386153_);fill:url(#SVGID_00000160870421639890055440000002277938744446007168_);}
	
		.st107{clip-path:url(#SVGID_00000145779492315191621580000006954251811310110391_);fill-rule:evenodd;clip-rule:evenodd;fill:#F2A99B;}
	
		.st108{clip-path:url(#SVGID_00000078734105678641559370000008357852096875441580_);fill:url(#SVGID_00000042737961789896572870000003212747673239768454_);}
	.st109{opacity:0.5;clip-path:url(#SVGID_00000055702863833077938940000011543884906628324740_);}
	.st110{clip-path:url(#SVGID_00000125580902214099785390000006358562171590797961_);}
	
		.st111{clip-path:url(#SVGID_00000044173031265742952520000015041686145836185533_);fill:url(#SVGID_00000127723445991272572310000014141676094680967558_);}
	
		.st112{clip-path:url(#SVGID_00000013910343160184787580000014354429615123232686_);fill:url(#SVGID_00000149343366545337345060000012690139881031012021_);}
	
		.st113{clip-path:url(#SVGID_00000072250233062950990420000009949629661843634353_);fill-rule:evenodd;clip-rule:evenodd;fill:#9A80EC;}
	.st114{clip-path:url(#SVGID_00000171687112192326967460000015755029498294439868_);}
	
		.st115{clip-path:url(#SVGID_00000180348358514232857780000000838861790091331974_);fill:url(#SVGID_00000143604675367750500420000002494661627294635710_);}
	.st116{clip-path:url(#SVGID_00000165950063094089042130000001406425795084358075_);}
	.st117{clip-path:url(#SVGID_00000100374940545887293260000018120785098771710127_);}
	.st118{opacity:0.15;clip-path:url(#SVGID_00000036209607878697035740000010490038072297169578_);}
	.st119{clip-path:url(#SVGID_00000121989471366583634390000002126073842238998680_);}
	.st120{clip-path:url(#SVGID_00000036209607878697035740000010490038072297169578_);fill:#FFFFFF;}
	.st121{clip-path:url(#SVGID_00000036209607878697035740000010490038072297169578_);fill:#8B61D8;}
	.st122{clip-path:url(#SVGID_00000049184099237826472460000011088525268480835261_);fill:#9ECCD3;}
	
		.st123{clip-path:url(#SVGID_00000024002379284220616050000007846142226164641455_);fill:url(#SVGID_00000098931318814617581420000012270807326344480161_);}
	
		.st124{clip-path:url(#SVGID_00000120558472564958607030000012737588935803985837_);fill-rule:evenodd;clip-rule:evenodd;fill:#6E043D;}
	
		.st125{clip-path:url(#SVGID_00000046304702137801834570000011806348136885645953_);fill:url(#SVGID_00000050643979699502835360000008246191265217508743_);}
	
		.st126{clip-path:url(#SVGID_00000039129688957512691750000005301119642805160362_);fill-rule:evenodd;clip-rule:evenodd;fill:#C89A5B;}
	
		.st127{clip-path:url(#SVGID_00000126322839587337563640000012873872215802756995_);fill:url(#SVGID_00000157998763646766527160000007990752629800251833_);}
	
		.st128{clip-path:url(#SVGID_00000172421119687000186250000018062276674306790075_);fill:url(#SVGID_00000002376861264009377760000011459453306782277009_);}
	
		.st129{clip-path:url(#SVGID_00000045614592629376521720000006914497623140936601_);fill-rule:evenodd;clip-rule:evenodd;fill:#C89A5B;}
	
		.st130{clip-path:url(#SVGID_00000114067610430335413240000018376557868620366491_);fill:url(#SVGID_00000180367545246671764120000001292840624949772730_);}
	
		.st131{clip-path:url(#SVGID_00000073709486156365933670000015324505099592570809_);fill-rule:evenodd;clip-rule:evenodd;fill:#6E043D;}
	.st132{clip-path:url(#SVGID_00000158011524290923705520000011040616997493617065_);fill:#1C2F59;}
	.st133{opacity:0.1;clip-path:url(#SVGID_00000158011524290923705520000011040616997493617065_);}
	.st134{clip-path:url(#SVGID_00000124880122749677276820000008509731622416327855_);}
	.st135{clip-path:url(#SVGID_00000158011524290923705520000011040616997493617065_);fill:#FFFFFF;}
	
		.st136{clip-path:url(#SVGID_00000158011524290923705520000011040616997493617065_);fill:none;stroke:#D5D5D5;stroke-width:0.364;stroke-miterlimit:10;}
	.st137{clip-path:url(#SVGID_00000158011524290923705520000011040616997493617065_);fill:#BCBCBC;}
	.st138{clip-path:url(#SVGID_00000143595756648982723800000004561256524420197521_);}
	.st139{clip-path:url(#SVGID_00000129908838781061784180000010481104372908660907_);}
	.st140{opacity:5.000310e-02;clip-path:url(#SVGID_00000119825917886885396940000015321379681955227839_);}
	.st141{clip-path:url(#SVGID_00000053520766074056376510000003205286799635661497_);}
	.st142{opacity:0.1;clip-path:url(#SVGID_00000119825917886885396940000015321379681955227839_);}
	.st143{clip-path:url(#SVGID_00000158720793464789473470000008576075715764642692_);}
	.st144{clip-path:url(#SVGID_00000119825917886885396940000015321379681955227839_);fill:#7EB0D2;}
	.st145{clip-path:url(#SVGID_00000159429329888185175930000016973467326552085664_);}
	.st146{clip-path:url(#SVGID_00000013168968943601392370000011302576107409569963_);}
	.st147{clip-path:url(#SVGID_00000119825917886885396940000015321379681955227839_);fill:#1F2F56;}
	.st148{clip-path:url(#SVGID_00000119825917886885396940000015321379681955227839_);fill:#609EC8;}
	.st149{clip-path:url(#SVGID_00000119825917886885396940000015321379681955227839_);fill:#FFFFFF;}
	
		.st150{clip-path:url(#SVGID_00000159466263138817864730000012058031695696154290_);fill:url(#SVGID_00000044895820352493071210000017415474858294613437_);}
	
		.st151{clip-path:url(#SVGID_00000112618092107468873170000014472978096658524050_);fill:url(#SVGID_00000115479512584615315340000011961839451754926240_);}
	
		.st152{clip-path:url(#SVGID_00000148626798981085870100000004640401795856198819_);fill:url(#SVGID_00000045609846828104982830000004823000307572285344_);}
	.st153{fill:#FFFFFF;}
</style>
<g>
	<path class="st153" d="M154.2,7.4c-0.2-2.7-2.6-4.7-5.3-4.5L9.1,13.7c-2.7,0.2-4.7,2.6-4.5,5.3l15.2,196.6c0.2,2.7,2.6,4.7,5.3,4.5
		l139.8-10.8c2.7-0.2,4.7-2.6,4.5-5.3L154.2,7.4z M66.5,25.2L107,22c0.9-0.1,1.7,0.6,1.7,1.5L109,26c0.1,0.9-0.6,1.7-1.5,1.7
		l-40.6,3.2c-0.9,0.1-1.7-0.6-1.7-1.5L65,27C64.9,26.1,65.6,25.3,66.5,25.2z M55.8,25.6c1.8-0.1,3.4,1.2,3.6,3.1
		c0.1,1.8-1.2,3.4-3.1,3.6c-1.8,0.1-3.4-1.2-3.6-3.1C52.6,27.4,54,25.8,55.8,25.6z M37.7,141.7l-0.6-7.7c2.5,1.6,5.1,3,7.6,4.2
		c0,1,0,2,0,3L37.7,141.7z M55.3,110.5c-0.9-0.6-1.8-1.3-2.6-2c2.7-3.7,5.9-6.7,9.3-9.2c4.2-3,8.9-5.3,13.7-6.9
		c0,0.3-0.1,0.5-0.1,0.8c0.3,0.7,0.8,1.4,1.3,2c-2.2,0.9-6.1,2.6-10.1,5.1C62.6,102.9,58.1,106.4,55.3,110.5z M75.9,189.7
		c0,0.9-0.6,1.6-1.5,1.6c-0.8,0.1-1.6-0.6-1.7-1.4c-0.2-1.9-0.3-3.8-0.5-5.7c-0.2-2.9-0.5-5.8-0.7-8.7c-0.4-4.6-0.7-9.3-1.1-13.9
		c0-0.3,0-0.6,0-0.9c0.1-0.7,0.8-1.3,1.6-1.3c0.8,0,1.4,0.6,1.5,1.3c0,0.2,0.1,0.5,0.1,0.7c0.7,9.2,1.5,18.3,2.2,27.5
		C75.9,189.2,75.9,189.5,75.9,189.7z M60.9,161.7c-0.2-3-0.5-6.1-0.7-9.1c-0.1-1.2,0.5-1.9,1.7-2c3-0.3,6.1-0.5,9.2-0.7
		c1.1-0.1,1.8,0.5,1.9,1.4c0.1,1-0.6,1.7-1.7,1.8c-2.3,0.2-4.6,0.4-7,0.6c-0.2,0-0.5,0-0.8,0.1c0,0.3,0,0.6,0.1,0.8
		c0.2,2.3,0.4,4.6,0.5,6.9c0.1,1.1-0.5,1.9-1.5,1.9C61.7,163.5,61,162.8,60.9,161.7z M75.2,200.9c-3.1,0.3-6.3,0.5-9.4,0.7
		c-1.1,0.1-1.7-0.5-1.8-1.6c-0.3-3.1-0.5-6.1-0.7-9.2c-0.1-1.1,0.5-1.8,1.4-1.9c0.9-0.1,1.7,0.6,1.8,1.6c0.2,2.3,0.4,4.6,0.6,7
		c0,0.2,0,0.5,0.1,0.8c1.8-0.1,3.6-0.3,5.3-0.4c0.9-0.1,1.7-0.2,2.6-0.2c1-0.1,1.7,0.6,1.8,1.5C76.8,200.1,76.1,200.8,75.2,200.9z
		 M83.6,190.6c-0.8,0.1-1.7,0.1-2.5,0.2c-1.3,0.1-1.9-0.5-2-1.7c-0.7-8.7-1.4-17.4-2.1-26.1c-0.1-0.7-0.1-1.5-0.2-2.2
		c-0.1-1,0.5-1.7,1.5-1.8c1-0.1,1.9-0.2,2.9-0.2c1.1-0.1,1.8,0.5,1.9,1.6c0.4,4.7,0.7,9.4,1.1,14.1c0.4,4.6,0.7,9.3,1.1,13.9
		C85.6,189.9,85.1,190.5,83.6,190.6z M90.4,190.1c-0.8,0-1.6-0.6-1.7-1.4c-0.2-1.9-0.3-3.9-0.5-5.8c-0.2-2.9-0.5-5.7-0.7-8.6
		c-0.4-4.6-0.7-9.3-1.1-13.9c0-0.3,0-0.6,0-0.9c0.1-0.7,0.8-1.3,1.6-1.3c0.8,0,1.4,0.6,1.5,1.3c0,0.2,0.1,0.5,0.1,0.7
		c0.7,9.2,1.5,18.3,2.2,27.5c0,0.2,0,0.5,0,0.7C91.9,189.3,91.2,190,90.4,190.1z M99.6,189.3c-0.9,0.1-1.7,0.1-2.6,0.2
		c-1.3,0.1-1.9-0.5-2-1.7c-0.6-8-1.3-16.1-1.9-24.1c-0.1-1.4-0.2-2.7-0.3-4.1c-0.1-1.2,0.5-1.9,1.7-2c0.9-0.1,1.9-0.2,2.8-0.2
		c1.1-0.1,1.8,0.5,1.9,1.6c0.4,4.7,0.8,9.5,1.1,14.2c0.4,4.6,0.7,9.3,1.1,13.9C101.5,188.6,101,189.2,99.6,189.3z M106.3,188.8
		c-0.8,0.1-1.6-0.6-1.7-1.4c-0.2-1.8-0.3-3.7-0.5-5.5c-0.2-2.9-0.5-5.9-0.7-8.8c-0.4-4.6-0.7-9.3-1.1-13.9c0-0.3,0-0.6,0-0.9
		c0.1-0.7,0.8-1.3,1.6-1.3c0.8,0,1.4,0.6,1.5,1.3c0,0.2,0.1,0.5,0.1,0.7c0.7,9.2,1.5,18.3,2.2,27.5c0,0.2,0,0.5,0,0.7
		C107.8,188.1,107.2,188.7,106.3,188.8z M111,186.7c-0.8-9.5-1.5-19-2.3-28.4c-0.1-1.1,0.5-1.8,1.6-1.9c0.9-0.1,1.9-0.2,2.8-0.2
		c1.2-0.1,1.9,0.5,1.9,1.7c0.4,4.7,0.7,9.4,1.1,14.1c0.4,4.6,0.7,9.3,1.1,13.9c0.1,1.5-0.4,2.1-1.9,2.2c-0.9,0.1-1.7,0.1-2.6,0.2
		C111.8,188.4,111.1,187.8,111,186.7z M112.6,146.6c3.2-0.3,6.4-0.5,9.6-0.8c1-0.1,1.7,0.6,1.7,1.6c0.3,3.1,0.5,6.1,0.7,9.2
		c0.1,1.1-0.5,1.8-1.5,1.9c-0.9,0.1-1.6-0.6-1.7-1.6c-0.2-2.2-0.4-4.4-0.5-6.6c0-0.4-0.1-0.7-0.1-1.2c-2.7,0.2-5.2,0.4-7.8,0.6
		c-1,0.1-1.7-0.4-1.9-1.3C111.1,147.5,111.6,146.7,112.6,146.6z M126,196.9c-3,0.2-6,0.5-9,0.7c-1.2,0.1-1.9-0.5-2-1.4
		c-0.1-1,0.6-1.7,1.8-1.8c2.3-0.2,4.6-0.4,6.8-0.5c0.2,0,0.4,0,0.8-0.1c-0.2-2.5-0.4-4.9-0.6-7.2c0-0.3-0.1-0.5,0-0.8
		c0-0.9,0.7-1.6,1.5-1.6c0.9-0.1,1.6,0.6,1.7,1.5c0,0.1,0,0.2,0,0.2c0.2,3,0.5,6,0.7,9C127.8,196.1,127.2,196.8,126,196.9z
		 M141.7,133.5c-2.4-9.1-5.9-17.6-10.9-25.3c-0.7-1.1-1.5-2.2-2.2-3.1c-6.4-8.1-14.4-12.2-22.3-14.3c0.4-0.9,0.8-1.8,1.1-2.9
		c1.5-4.7,0.1-9.3-0.7-14.2c-1,4.5-2.4,8.6-5.3,12.1c-2.9,3.5-5.6,3.8-8.3,2.6c0,0,0,0,0,0c0,0,0,0,0,0c0,0.1,0,0.2-0.1,0.2
		c0,0.1,0,0.1-0.1,0.2c-0.1,0.2-0.1,0.4-0.2,0.7c0,0.1,0,0.1,0,0.2c-0.1,0.3-0.1,0.7-0.2,1c0,0.1,0,0.2,0,0.3c0,0.3-0.1,0.6-0.1,0.9
		c-0.1,0.7-0.1,1.5,0,2.3c-4.7,8.1-13.6,2.3-13.6-3.6c0.2-0.4,0.5-0.9,0.7-1.2c1.5-2.8,2.2-4.5,3-7c0.1-0.2,0.1-0.4,0.2-0.6
		c0-0.1,0-0.1,0.1-0.2c0.1-0.2,0.1-0.5,0.2-0.7c0-0.1,0-0.1,0-0.2c0.1-0.3,0.1-0.6,0.2-0.9c0-0.1,0-0.1,0-0.2c0-0.1,0.1-0.2,0.1-0.3
		c0.1-0.3,0.1-0.5,0.2-0.8c-0.1,0.3-0.1,0.5-0.2,0.8c-0.5-0.9-1-1.9-1.6-3c-0.9-0.9-2.1-1.3-3-2.8c-1.2-2-1.5-5.1-0.2-7
		c0-0.1,0.1-0.1,0.1-0.2c0-0.1,0.1-0.1,0.1-0.2c0.1-0.1,0.2-0.2,0.3-0.3c0.9-0.8,2.3,0.3,2.9,2.4c0.7,2.6,2,0.6,2.5-1
		c1.2-4.4,3.1-6.8,5.2-11.2c0.7,0.6,1.4,1.3,2.2,1.9c0.1,0.1,0.1,0.2,0.2,0.2c0.1,0.1,0.2,0.2,0.3,0.3c0.1,0.1,0.2,0.2,0.2,0.2
		c0.1,0.1,0.2,0.2,0.3,0.3c0.1,0.1,0.2,0.2,0.2,0.2c0.1,0.1,0.2,0.2,0.3,0.3c0.1,0.1,0.2,0.1,0.2,0.2c0.1,0.1,0.2,0.2,0.3,0.3
		c0.1,0.1,0.2,0.1,0.3,0.2c0.1,0.1,0.2,0.2,0.3,0.3c0.1,0.1,0.2,0.1,0.2,0.2c0.1,0.1,0.2,0.2,0.4,0.3c0.1,0.1,0.2,0.1,0.2,0.2
		c0.2,0.1,0.3,0.2,0.5,0.3c0.1,0,0.1,0.1,0.2,0.1c0.2,0.1,0.4,0.3,0.6,0.4c0,0,0.1,0,0.1,0.1c0.2,0.1,0.3,0.2,0.5,0.3
		c0.1,0,0.1,0.1,0.2,0.1c0.1,0.1,0.3,0.2,0.4,0.2c0.1,0,0.2,0.1,0.3,0.1c0.1,0.1,0.3,0.1,0.4,0.2c0.1,0,0.2,0.1,0.3,0.1
		c0.1,0.1,0.3,0.1,0.4,0.2c0.1,0,0.2,0.1,0.3,0.1c0.1,0.1,0.3,0.1,0.4,0.2c0.1,0,0.2,0.1,0.3,0.1c0.1,0,0.3,0.1,0.4,0.1
		c0.1,0,0.2,0.1,0.3,0.1c0.1,0,0.3,0.1,0.4,0.1c0.1,0,0.2,0.1,0.3,0.1c0.1,0,0.3,0.1,0.4,0.1c0.1,0,0.2,0,0.3,0.1
		c0.1,0,0.3,0.1,0.4,0.1c0.1,0,0.2,0,0.3,0.1c0.1,0,0.3,0.1,0.4,0.1c0.1,0,0.1,0,0.2,0c0.2,0,0.4,0.1,0.6,0.1c0.4,0,0.9,0.1,1.3,0.1
		c0.1,0,0.3,0,0.4,0c0.2,0,0.4,0,0.5,0c0.1,0,0.2,0,0.3,0c-0.1,0-0.2,0-0.3,0c0-0.2,0-0.3,0.1-0.5c0.7-0.1,1.4-0.3,2.1-0.7
		c0,0.3-0.1,0.5-0.1,0.8c-0.1,0-0.1,0-0.2,0c0.1,0,0.1,0,0.2,0c-0.1,0.4-0.1,0.8-0.2,1.2c0.1-0.4,0.1-0.8,0.2-1.2
		c0.2,0,0.4-0.1,0.6-0.2c0.1,0,0.2-0.1,0.3-0.1c0.3-0.1,0.7-0.2,1-0.4c0.1,0,0.2-0.1,0.3-0.1c0.2-0.1,0.5-0.2,0.7-0.3
		c0.1-0.1,0.2-0.1,0.3-0.2c0.2-0.1,0.4-0.2,0.5-0.3c0.1-0.1,0.2-0.2,0.3-0.2c0.2-0.1,0.3-0.3,0.5-0.4c0.1-0.1,0.2-0.2,0.3-0.2
		c0.2-0.2,0.4-0.3,0.5-0.5c0.1-0.1,0.1-0.1,0.2-0.2c0.2-0.2,0.4-0.4,0.5-0.7c0.1-0.1,0.1-0.2,0.2-0.3c0.1-0.2,0.2-0.3,0.3-0.5
		c0.1-0.1,0.1-0.2,0.2-0.4c0.1-0.2,0.2-0.3,0.2-0.5c0.1-0.1,0.1-0.3,0.2-0.4c0.1-0.2,0.1-0.3,0.2-0.5c0-0.1,0.1-0.2,0.1-0.4
		c0,0,0,0,0,0c0,0,0,0,0,0c2.1-6.2-1.3-14.3-11.3-15c-3.4-0.2-7.3,0.3-10.4,1.9c-9.1-6.7-15.6-3.5-21.6,2.8
		c-6.4,6.8-7.9,10.7-11.6,12.9c-6.3,3.7-12.5,1-26.1-1.6c-1.4-0.3-2.7-0.4-4-0.5l-1-13.2L134.8,36l5.4,68.1l2.3,29.3L141.7,133.5z"
		/>
</g>
</svg>
