<?xml version="1.0" encoding="utf-8"?>
<!-- Generator: Adobe Illustrator 26.5.0, SVG Export Plug-In . SVG Version: 6.00 Build 0)  -->
<svg version="1.1" id="Layer_1" xmlns="http://www.w3.org/2000/svg" xmlns:xlink="http://www.w3.org/1999/xlink" x="0px" y="0px"
	 viewBox="0 0 177 159" style="enable-background:new 0 0 177 159;" xml:space="preserve">
<style type="text/css">
	.st0{clip-path:url(#SVGID_00000168807431986359189270000000145555852752102072_);}
	.st1{clip-path:url(#SVGID_00000065057330709306852180000004139820130975731091_);}
	.st2{opacity:0.4;clip-path:url(#SVGID_00000177484460595034212540000008959418182793746876_);}
	.st3{clip-path:url(#SVGID_00000029736021536290012730000003542063586443106971_);}
	.st4{clip-path:url(#SVGID_00000177484460595034212540000008959418182793746876_);fill:#FFFFFF;}
	
		.st5{clip-path:url(#SVGID_00000177484460595034212540000008959418182793746876_);fill:none;stroke:#D4D2D0;stroke-width:3.0827;stroke-miterlimit:10;}
	.st6{clip-path:url(#SVGID_00000036222963209223889950000015708089610935758009_);}
	.st7{clip-path:url(#SVGID_00000052823175934191405050000002936842972808488345_);}
	.st8{opacity:0.2;clip-path:url(#SVGID_00000019676224549147879490000008463357534823093682_);}
	.st9{clip-path:url(#SVGID_00000059283380599904123850000002631426411131576507_);}
	.st10{clip-path:url(#SVGID_00000019676224549147879490000008463357534823093682_);fill:#BA802E;}
	.st11{clip-path:url(#SVGID_00000019676224549147879490000008463357534823093682_);fill:#E2C970;}
	.st12{clip-path:url(#SVGID_00000019676224549147879490000008463357534823093682_);fill:#FFFFFF;}
	.st13{clip-path:url(#SVGID_00000019676224549147879490000008463357534823093682_);fill:#8A683D;}
	.st14{clip-path:url(#SVGID_00000019676224549147879490000008463357534823093682_);}
	.st15{clip-path:url(#SVGID_00000113325683045818115620000009631785084140551611_);}
	.st16{clip-path:url(#SVGID_00000137838271779229047520000001483116635175892864_);}
	.st17{opacity:0.2;clip-path:url(#SVGID_00000076603466884629943760000012871989800500345241_);}
	.st18{clip-path:url(#SVGID_00000113355285342130362090000013265079498398623122_);}
	.st19{clip-path:url(#SVGID_00000096748141069298783490000012332374878277324173_);fill:#D5C291;}
	.st20{clip-path:url(#SVGID_00000140735173526651706690000012289004634630405294_);}
	
		.st21{clip-path:url(#SVGID_00000058548525709120212780000010907616028856827573_);fill:url(#SVGID_00000104707121219457332500000017975130487503568056_);}
	.st22{clip-path:url(#SVGID_00000147906994689505006000000007791777608189764491_);}
	
		.st23{clip-path:url(#SVGID_00000057123866253928604860000010992151453542909080_);fill:url(#SVGID_00000106837719450827530220000012060480221647567028_);}
	.st24{clip-path:url(#SVGID_00000039092589439030559570000016476802017411973029_);}
	
		.st25{clip-path:url(#SVGID_00000075134444610090242870000013348970118752250754_);fill:url(#SVGID_00000026146407135185363340000017016115123775225479_);}
	.st26{clip-path:url(#SVGID_00000124857533340787086890000014001539387668919981_);}
	
		.st27{clip-path:url(#SVGID_00000016796652062865660750000001600934764634082438_);fill:url(#SVGID_00000032624013884353490960000004350049526970343353_);}
	.st28{clip-path:url(#SVGID_00000069379540484343736080000008374047043209140869_);}
	
		.st29{clip-path:url(#SVGID_00000049930472286876767770000014004645251419120290_);fill:url(#SVGID_00000058583645168981571370000000212106029830917809_);}
	.st30{clip-path:url(#SVGID_00000155827189375254121560000003316135500680281248_);}
	
		.st31{clip-path:url(#SVGID_00000060021990395652660590000018199320013527802774_);fill:url(#SVGID_00000082366789529663242080000012528379146478567584_);}
	
		.st32{clip-path:url(#SVGID_00000166648951056583415420000016835109640900521390_);fill-rule:evenodd;clip-rule:evenodd;fill:#EB8E80;}
	
		.st33{clip-path:url(#SVGID_00000126306496583494999520000010660119629234668217_);fill:url(#SVGID_00000061466027719212629850000018175881845191615388_);}
	.st34{opacity:0.5;clip-path:url(#SVGID_00000119111006042307433730000003832551306166223293_);}
	.st35{clip-path:url(#SVGID_00000029762772702474621460000011982832950036993173_);}
	
		.st36{clip-path:url(#SVGID_00000025415270402691595910000005241939565433118094_);fill:url(#SVGID_00000013182798026007875440000006854037586333861255_);}
	
		.st37{clip-path:url(#SVGID_00000065038586605515500430000002572667357673228932_);fill:url(#SVGID_00000111168894436697262970000016422666308447835271_);}
	
		.st38{clip-path:url(#SVGID_00000096771670464203942890000004926349079704330140_);fill-rule:evenodd;clip-rule:evenodd;fill:#1E2C5C;}
	
		.st39{clip-path:url(#SVGID_00000056397230277824567420000000092775258079329681_);fill:url(#SVGID_00000098217175458579783910000000604578910536030635_);}
	
		.st40{clip-path:url(#SVGID_00000139266406262323688430000017115771545768014750_);fill:url(#SVGID_00000097469453811322245180000007767875503730840705_);}
	
		.st41{clip-path:url(#SVGID_00000065072008222205225930000015752929343436336290_);fill-rule:evenodd;clip-rule:evenodd;fill:#34211D;}
	
		.st42{clip-path:url(#SVGID_00000013184424597982701040000002855167345313541297_);fill:url(#SVGID_00000084494999532556216450000013446457806626320015_);}
	
		.st43{clip-path:url(#SVGID_00000097473068381174642930000015199396546827967634_);fill-rule:evenodd;clip-rule:evenodd;fill:#34211D;}
	
		.st44{clip-path:url(#SVGID_00000010296411619751225100000011418300958983317889_);fill:url(#SVGID_00000014596744056833981510000003931906108299134391_);}
	
		.st45{clip-path:url(#SVGID_00000010994334899780216760000005560238204150706818_);fill-rule:evenodd;clip-rule:evenodd;fill:#1E2C5C;}
	
		.st46{clip-path:url(#SVGID_00000039851202227331848750000008821420633188078979_);fill:url(#SVGID_00000116207016503820159290000014012338748972326070_);}
	.st47{opacity:0.5;clip-path:url(#SVGID_00000021104602767055371260000015207611367864792255_);}
	.st48{clip-path:url(#SVGID_00000179611760421517569910000013845407057203233974_);}
	
		.st49{clip-path:url(#SVGID_00000132801943937226977750000012775769849955856283_);fill:url(#SVGID_00000116223345733265953010000017147107759038790040_);}
	.st50{opacity:0.2;clip-path:url(#SVGID_00000066490792592722431540000002467872020257343669_);}
	.st51{clip-path:url(#SVGID_00000023971594457000544580000007814822222817454229_);}
	.st52{clip-path:url(#SVGID_00000066490792592722431540000002467872020257343669_);fill:#D99CAC;}
	.st53{clip-path:url(#SVGID_00000177465801525068940490000004644775473732959163_);fill:#CF9EAB;}
	
		.st54{clip-path:url(#SVGID_00000013178022831644848200000015015298050899404174_);fill:url(#SVGID_00000034784455401819199310000006408676898030856631_);}
	
		.st55{clip-path:url(#SVGID_00000074419963493580335240000007097550525896483485_);fill-rule:evenodd;clip-rule:evenodd;fill:#6F143D;}
	
		.st56{clip-path:url(#SVGID_00000004504574638957841780000001585157146233519766_);fill:url(#SVGID_00000087408356660942335360000008998843046883550097_);}
	
		.st57{clip-path:url(#SVGID_00000148621553206229302890000012006131228562557587_);fill-rule:evenodd;clip-rule:evenodd;fill:#C6985B;}
	
		.st58{clip-path:url(#SVGID_00000065043342543812437900000004527864660818352020_);fill:url(#SVGID_00000129922298972115770280000007819003794630885017_);}
	
		.st59{clip-path:url(#SVGID_00000019679248835754834430000002300422292896039827_);fill:url(#SVGID_00000154387444076248734790000012272290696601557941_);}
	
		.st60{clip-path:url(#SVGID_00000173148960118366252200000006212740606679325598_);fill-rule:evenodd;clip-rule:evenodd;fill:#C6985B;}
	
		.st61{clip-path:url(#SVGID_00000157282029038204245270000003831413915682291376_);fill:url(#SVGID_00000135678506567473781760000004107353315496904601_);}
	
		.st62{clip-path:url(#SVGID_00000068647890505368271540000012828479503922842019_);fill-rule:evenodd;clip-rule:evenodd;fill:#6F143D;}
	.st63{opacity:0.2;clip-path:url(#SVGID_00000012453882266105243090000016937039782983850898_);}
	.st64{clip-path:url(#SVGID_00000104701415407578557300000000831426928254256294_);}
	.st65{clip-path:url(#SVGID_00000059990340952055132310000004521899526874361786_);fill:#9CCAD1;}
	
		.st66{clip-path:url(#SVGID_00000059990340952055132310000004521899526874361786_);fill-rule:evenodd;clip-rule:evenodd;fill:#A5E19F;}
	.st67{clip-path:url(#SVGID_00000023269103690919762240000017424241287766344351_);}
	
		.st68{clip-path:url(#SVGID_00000159434958591297294720000000583985078694292888_);fill:url(#SVGID_00000169527296449291218190000010653698357897221018_);}
	
		.st69{clip-path:url(#SVGID_00000137127947061292258070000016736434154217865917_);fill-rule:evenodd;clip-rule:evenodd;fill:#387C8D;}
	
		.st70{clip-path:url(#SVGID_00000137127947061292258070000016736434154217865917_);fill-rule:evenodd;clip-rule:evenodd;fill:#A5E19F;}
	.st71{clip-path:url(#SVGID_00000042732357101119194390000008561142981366377355_);}
	
		.st72{clip-path:url(#SVGID_00000030470213262685594900000000700149760333610882_);fill:url(#SVGID_00000047750830364992038530000016383709272181323920_);}
	
		.st73{clip-path:url(#SVGID_00000133486773821147000860000000760745644568587683_);fill-rule:evenodd;clip-rule:evenodd;fill:#387C8D;}
	
		.st74{clip-path:url(#SVGID_00000133486773821147000860000000760745644568587683_);fill-rule:evenodd;clip-rule:evenodd;fill:#A5E19F;}
	.st75{clip-path:url(#SVGID_00000080890120904461300860000013991965245330685097_);}
	
		.st76{clip-path:url(#SVGID_00000179643772289713419620000011150768022073627783_);fill:url(#SVGID_00000165194628945641214150000010732164139647722161_);}
	
		.st77{clip-path:url(#SVGID_00000091734899839845815640000002016961293302062001_);fill-rule:evenodd;clip-rule:evenodd;fill:#387C8D;}
	
		.st78{clip-path:url(#SVGID_00000091734899839845815640000002016961293302062001_);fill-rule:evenodd;clip-rule:evenodd;fill:#A5E19F;}
	.st79{clip-path:url(#SVGID_00000109738987831718003970000013368298277987923895_);}
	
		.st80{clip-path:url(#SVGID_00000011720874513207014520000010278302636339567250_);fill:url(#SVGID_00000139266716193513760980000010973682683114390171_);}
	
		.st81{clip-path:url(#SVGID_00000076565612145032809560000009088184781540328892_);fill-rule:evenodd;clip-rule:evenodd;fill:#A5E19F;}
	.st82{clip-path:url(#SVGID_00000144331281318632731250000015889408292061064841_);}
	
		.st83{clip-path:url(#SVGID_00000003077106407463021020000004356260366765462198_);fill:url(#SVGID_00000176030870123529553660000001219477038203292854_);}
	
		.st84{clip-path:url(#SVGID_00000162346507238269020340000011402026740175655555_);fill-rule:evenodd;clip-rule:evenodd;fill:#A5E19F;}
	.st85{clip-path:url(#SVGID_00000011728305531096517470000013231691812828777118_);}
	
		.st86{clip-path:url(#SVGID_00000119115352823054938220000000776200760197330360_);fill:url(#SVGID_00000102521167231172868410000013364010422777729665_);}
	
		.st87{clip-path:url(#SVGID_00000136396411662112710130000007039247337233446049_);fill:url(#SVGID_00000033365340602855079010000005973330332795389848_);}
	.st88{opacity:0.5;clip-path:url(#SVGID_00000074441951498165023620000001721768760818792600_);}
	.st89{clip-path:url(#SVGID_00000124150751004569152820000010369764387789648315_);}
	
		.st90{clip-path:url(#SVGID_00000131329121944946735020000015309426442772468382_);fill:url(#SVGID_00000112600094487180701220000006745014015349378960_);}
	
		.st91{clip-path:url(#SVGID_00000164486480973472211530000008698664904380445886_);fill:url(#SVGID_00000054959191175076233530000005535681054479630242_);}
	.st92{opacity:0.5;clip-path:url(#SVGID_00000141427054079070135900000006340784390508370100_);}
	.st93{clip-path:url(#SVGID_00000070804582541153016940000010743483527979442836_);}
	
		.st94{clip-path:url(#SVGID_00000084516241960152827150000005154335705946088103_);fill:url(#SVGID_00000019640172889038270210000000620009539332383108_);}
	
		.st95{clip-path:url(#SVGID_00000141427054079070135900000006340784390508370100_);fill-rule:evenodd;clip-rule:evenodd;fill:#9A80EC;}
	.st96{clip-path:url(#SVGID_00000101824459971772805840000014186069947044380051_);}
	
		.st97{clip-path:url(#SVGID_00000050637859689560152680000016432758239181551025_);fill:url(#SVGID_00000088134550239734662000000010617315439065313924_);}
	
		.st98{clip-path:url(#SVGID_00000039134747171157323700000017582110074464517271_);fill:url(#SVGID_00000023965013322182364440000003742387561744198839_);}
	.st99{opacity:0.5;clip-path:url(#SVGID_00000050641565533611990480000007637655456331312540_);}
	.st100{clip-path:url(#SVGID_00000062900967615010669390000000343286020263635628_);}
	
		.st101{clip-path:url(#SVGID_00000168796952766901721410000005731561628689189009_);fill:url(#SVGID_00000055680338312643604300000017622098769363973299_);}
	
		.st102{clip-path:url(#SVGID_00000050641565533611990480000007637655456331312540_);fill-rule:evenodd;clip-rule:evenodd;fill:#F2A99B;}
	
		.st103{clip-path:url(#SVGID_00000062191433464946381050000010820854675851281292_);fill:url(#SVGID_00000149374677750118963430000001198013102483107981_);}
	
		.st104{clip-path:url(#SVGID_00000012471153110187353700000006420184647979895478_);fill:url(#SVGID_00000126314409861486917680000010778367444732725659_);}
	
		.st105{clip-path:url(#SVGID_00000062912423285070149410000005529644883494201019_);fill-rule:evenodd;clip-rule:evenodd;fill:#1E083A;}
	
		.st106{clip-path:url(#SVGID_00000168081589807290984100000012260201273344238740_);fill:url(#SVGID_00000054950700142799402220000012680818357379275683_);}
	
		.st107{clip-path:url(#SVGID_00000124860109095857424430000017094412933625917356_);fill-rule:evenodd;clip-rule:evenodd;fill:#F2A99B;}
	
		.st108{clip-path:url(#SVGID_00000036961814281603393660000009960231049446481584_);fill:url(#SVGID_00000139975897625049429940000012227013269265392029_);}
	.st109{opacity:0.5;clip-path:url(#SVGID_00000121987933925471366450000014611062551831903113_);}
	.st110{clip-path:url(#SVGID_00000076604465256501461920000013843214523760174268_);}
	
		.st111{clip-path:url(#SVGID_00000168092861144558279810000007964141871669766060_);fill:url(#SVGID_00000122713352355725857550000014781400951499054778_);}
	
		.st112{clip-path:url(#SVGID_00000129203857002696004410000013174215456886853021_);fill:url(#SVGID_00000107549925702096837220000007615345601588453266_);}
	
		.st113{clip-path:url(#SVGID_00000093889507288883814790000011132169365163656576_);fill-rule:evenodd;clip-rule:evenodd;fill:#9A80EC;}
	.st114{clip-path:url(#SVGID_00000019649434268083391390000013948412968711681700_);}
	
		.st115{clip-path:url(#SVGID_00000171686207812830707480000009144945204277102503_);fill:url(#SVGID_00000070096362394064532000000000982122491667595166_);}
	.st116{clip-path:url(#SVGID_00000098223395043019121850000006546411836185969324_);}
	.st117{clip-path:url(#SVGID_00000016776213002750361530000008890387395807114925_);}
	.st118{opacity:0.15;clip-path:url(#SVGID_00000026870331006699797060000018144836377360143011_);}
	.st119{clip-path:url(#SVGID_00000118378964947802721400000004167045040149756039_);}
	.st120{clip-path:url(#SVGID_00000026870331006699797060000018144836377360143011_);fill:#FFFFFF;}
	.st121{clip-path:url(#SVGID_00000026870331006699797060000018144836377360143011_);fill:#8B61D8;}
	.st122{clip-path:url(#SVGID_00000109750807261150002020000002718228006584842144_);fill:#9ECCD3;}
	
		.st123{clip-path:url(#SVGID_00000097466806608051652220000002737171337883010234_);fill:url(#SVGID_00000102512371281717279380000013138115032829832628_);}
	
		.st124{clip-path:url(#SVGID_00000105409248180286546300000017869272720230089363_);fill-rule:evenodd;clip-rule:evenodd;fill:#6E043D;}
	
		.st125{clip-path:url(#SVGID_00000006669485946884517090000011974464872846685625_);fill:url(#SVGID_00000123441745255190149780000000200602401245500857_);}
	
		.st126{clip-path:url(#SVGID_00000134948713160984664860000010710749056749889173_);fill-rule:evenodd;clip-rule:evenodd;fill:#C89A5B;}
	
		.st127{clip-path:url(#SVGID_00000083791216974587721820000018091359319750816151_);fill:url(#SVGID_00000088099890467911675640000003817032029486015648_);}
	
		.st128{clip-path:url(#SVGID_00000095308436539027529810000000680548750035626131_);fill:url(#SVGID_00000071534497897003067310000007963423401938175123_);}
	
		.st129{clip-path:url(#SVGID_00000163046229972099989590000002522089328875801016_);fill-rule:evenodd;clip-rule:evenodd;fill:#C89A5B;}
	
		.st130{clip-path:url(#SVGID_00000023282758869888861700000011442017114125442207_);fill:url(#SVGID_00000021811912673472826220000002291828640851954075_);}
	
		.st131{clip-path:url(#SVGID_00000005971516160793921650000008930925577333265325_);fill-rule:evenodd;clip-rule:evenodd;fill:#6E043D;}
	.st132{clip-path:url(#SVGID_00000070839991124046085410000017919968229968248978_);fill:#1C2F59;}
	.st133{opacity:0.1;clip-path:url(#SVGID_00000070839991124046085410000017919968229968248978_);}
	.st134{clip-path:url(#SVGID_00000155127051691851929060000014544410790989844126_);}
	.st135{clip-path:url(#SVGID_00000070839991124046085410000017919968229968248978_);fill:#FFFFFF;}
	
		.st136{clip-path:url(#SVGID_00000070839991124046085410000017919968229968248978_);fill:none;stroke:#D5D5D5;stroke-width:0.364;stroke-miterlimit:10;}
	.st137{clip-path:url(#SVGID_00000070839991124046085410000017919968229968248978_);fill:#BCBCBC;}
	.st138{clip-path:url(#SVGID_00000134965583327163063340000007364756383339819416_);}
	.st139{clip-path:url(#SVGID_00000026149874979822110310000018088761232867970210_);}
	.st140{opacity:5.000310e-02;clip-path:url(#SVGID_00000011015152909136733840000009561419288954771899_);}
	.st141{clip-path:url(#SVGID_00000060748853418199360940000012743386219038672031_);}
	.st142{opacity:0.1;clip-path:url(#SVGID_00000011015152909136733840000009561419288954771899_);}
	.st143{clip-path:url(#SVGID_00000057121687094635118710000000013350765493427364_);}
	.st144{clip-path:url(#SVGID_00000011015152909136733840000009561419288954771899_);fill:#7EB0D2;}
	.st145{clip-path:url(#SVGID_00000125596180854974860610000004995343645179753360_);}
	.st146{clip-path:url(#SVGID_00000178191843928967071950000009833814477682740889_);}
	.st147{clip-path:url(#SVGID_00000011015152909136733840000009561419288954771899_);fill:#1F2F56;}
	.st148{clip-path:url(#SVGID_00000011015152909136733840000009561419288954771899_);fill:#609EC8;}
	.st149{clip-path:url(#SVGID_00000011015152909136733840000009561419288954771899_);fill:#FFFFFF;}
	
		.st150{clip-path:url(#SVGID_00000042702085427232026680000007779577409796983727_);fill:url(#SVGID_00000150809480162199133540000008133027080683600047_);}
	
		.st151{clip-path:url(#SVGID_00000125564671493474563020000005291152388674430391_);fill:url(#SVGID_00000060722878001530265990000006876969867744226181_);}
	
		.st152{clip-path:url(#SVGID_00000002381462325304597890000016955978176144731530_);fill:url(#SVGID_00000142859782643691656100000011285943069079689105_);}
	.st153{fill:#FFFFFF;}
</style>
<g>
	<path class="st153" d="M165.8,79.4c0-6.6-3.9-12.2-9.5-14.8c4-4.7,5.3-11.4,2.6-17.4c-2.7-5.8-8.3-9.3-14.3-9.5
		c1.6-5.8,0-12.2-4.8-16.5c-3.3-2.9-7.5-4.3-11.6-4.1c-1.5-3.8-4.4-7-8.5-8.8c-5.9-2.6-12.4-1.4-17,2.4c-2.6-5.4-8.1-9.1-14.6-9.1
		c-6.6,0-12.2,3.9-14.8,9.5c-4.7-4-11.4-5.3-17.4-2.6c-5.8,2.7-9.3,8.3-9.5,14.3c-5.8-1.6-12.2,0-16.5,4.8
		c-2.9,3.3-4.3,7.5-4.1,11.6c-3.8,1.5-7,4.4-8.8,8.5c-2.6,5.9-1.4,12.4,2.4,17c-5.4,2.6-9.1,8.1-9.1,14.6c0,6.6,3.9,12.2,9.5,14.8
		c-4,4.7-5.3,11.4-2.6,17.4c2.7,5.8,8.3,9.3,14.3,9.5c-1.6,5.8,0,12.2,4.8,16.5c3.3,2.9,7.5,4.3,11.6,4.1c1.5,3.8,4.4,7,8.5,8.8
		c5.9,2.6,12.4,1.4,17-2.4c2.6,5.4,8.1,9.1,14.6,9.1c6.6,0,12.2-3.9,14.8-9.5c4.7,4,11.4,5.3,17.4,2.6c5.8-2.7,9.3-8.3,9.5-14.3
		c5.8,1.6,12.2,0,16.5-4.8c2.9-3.3,4.3-7.5,4.1-11.6c3.8-1.5,7-4.4,8.8-8.5c2.6-5.9,1.4-12.4-2.4-17C162,91.3,165.8,85.8,165.8,79.4
		z M88.1,17.8c34,0,61.5,27.6,61.5,61.5c0,34-27.6,61.5-61.5,61.5s-61.5-27.6-61.5-61.5C26.5,45.4,54.1,17.8,88.1,17.8z"/>
	<polygon class="st153" points="76.8,74.9 73.9,81.6 79.7,81.6 	"/>
	<path class="st153" d="M58.7,75.5c0-0.8-0.3-1.3-0.8-1.7c-0.5-0.4-1.3-0.6-2.4-0.6h-3.8v4.5h3.8C57.6,77.8,58.7,77,58.7,75.5z"/>
	<path class="st153" d="M88.1,135.9c31.2,0,56.6-25.3,56.6-56.6c0-31.2-25.3-56.6-56.6-56.6c-31.2,0-56.6,25.3-56.6,56.6
		C31.5,110.6,56.8,135.9,88.1,135.9z M51.8,90.2h-5.6V69h10.1c2.4,0,4.3,0.6,5.6,1.7c1.3,1.2,2,2.7,2,4.7c0,2-0.7,3.5-2,4.7
		c-1.3,1.2-3.2,1.8-5.6,1.8h-4.5L51.8,90.2z M64.6,90.2L74.6,69H79l9.9,21.2h-5.5l-1.9-4.4h-9.4l-1.9,4.4H64.6z M103.3,83
		c-0.6-0.3-1.7-0.7-3.2-1c-2-0.4-3.6-0.9-4.7-1.5c-1.1-0.6-1.9-1.3-2.3-2.1c-0.4-0.8-0.7-1.8-0.7-2.9c0-1.3,0.4-2.5,1.1-3.5
		c0.7-1,1.8-1.9,3.1-2.4c1.3-0.6,2.8-0.9,4.6-0.9c1.5,0,3,0.2,4.5,0.6c1.4,0.4,2.6,1,3.4,1.7l-1.7,4c-0.9-0.7-1.9-1.2-2.9-1.5
		c-1-0.3-2.1-0.5-3.1-0.5c-1,0-1.8,0.2-2.4,0.6c-0.6,0.4-0.9,0.9-0.9,1.6c0,0.4,0.1,0.7,0.3,0.9c0.2,0.2,0.6,0.5,1.2,0.7
		c0.6,0.2,1.5,0.5,2.7,0.7c1.9,0.4,3.4,0.9,4.5,1.5c1.1,0.6,1.9,1.3,2.3,2c0.5,0.8,0.7,1.7,0.7,2.8c0,2.1-0.8,3.7-2.4,4.9
		c-1.6,1.2-3.9,1.8-6.8,1.8c-1.6,0-3.2-0.2-4.7-0.6c-1.5-0.4-2.8-1-3.8-1.7l1.8-4c1,0.7,2.1,1.2,3.3,1.5c1.2,0.3,2.3,0.5,3.5,0.5
		c1.2,0,2.1-0.2,2.7-0.5c0.6-0.3,1-0.8,1-1.4C104.2,83.8,103.9,83.4,103.3,83z M130.2,88.7c-1.6,1.2-3.9,1.8-6.8,1.8
		c-1.6,0-3.2-0.2-4.7-0.6c-1.5-0.4-2.8-1-3.8-1.7l1.8-4c1,0.7,2.1,1.2,3.3,1.5c1.2,0.3,2.3,0.5,3.5,0.5c1.2,0,2.1-0.2,2.7-0.5
		c0.6-0.3,1-0.8,1-1.4c0-0.5-0.3-1-0.9-1.3c-0.6-0.3-1.7-0.7-3.2-1c-2-0.4-3.6-0.9-4.7-1.5c-1.1-0.6-1.9-1.3-2.3-2.1
		c-0.4-0.8-0.7-1.8-0.7-2.9c0-1.3,0.4-2.5,1.1-3.5c0.7-1,1.8-1.9,3.1-2.4c1.3-0.6,2.8-0.9,4.6-0.9c1.5,0,3,0.2,4.5,0.6
		c1.4,0.4,2.6,1,3.4,1.7l-1.7,4c-0.9-0.7-1.9-1.2-2.9-1.5c-1-0.3-2.1-0.5-3.1-0.5c-1,0-1.8,0.2-2.4,0.6c-0.6,0.4-0.9,0.9-0.9,1.6
		c0,0.4,0.1,0.7,0.3,0.9c0.2,0.2,0.6,0.5,1.2,0.7c0.6,0.2,1.5,0.5,2.7,0.7c1.9,0.4,3.4,0.9,4.5,1.5c1.1,0.6,1.9,1.3,2.3,2
		c0.5,0.8,0.7,1.7,0.7,2.8C132.6,85.9,131.8,87.5,130.2,88.7z"/>
</g>
</svg>
