<?xml version="1.0" encoding="utf-8"?>
<!-- Generator: Adobe Illustrator 26.5.0, SVG Export Plug-In . SVG Version: 6.00 Build 0)  -->
<svg version="1.1" id="Layer_1" xmlns="http://www.w3.org/2000/svg" xmlns:xlink="http://www.w3.org/1999/xlink" x="0px" y="0px"
	 viewBox="0 0 158 224" style="enable-background:new 0 0 158 224;" xml:space="preserve">
<style type="text/css">
	.st0{clip-path:url(#SVGID_00000160163532742171393560000006084300185115940765_);}
	.st1{clip-path:url(#SVGID_00000089572104767653851510000003689444331144276124_);}
	.st2{opacity:0.4;clip-path:url(#SVGID_00000023249678300758960230000009445868676379165605_);}
	.st3{clip-path:url(#SVGID_00000089532783518631426250000002682724980555149758_);}
	.st4{clip-path:url(#SVGID_00000023249678300758960230000009445868676379165605_);fill:#FFFFFF;}
	
		.st5{clip-path:url(#SVGID_00000023249678300758960230000009445868676379165605_);fill:none;stroke:#D4D2D0;stroke-width:3.0827;stroke-miterlimit:10;}
	.st6{clip-path:url(#SVGID_00000128447117566031619010000013313894211782263479_);}
	.st7{clip-path:url(#SVGID_00000170271584695709213280000003255986662709269651_);}
	.st8{opacity:0.2;clip-path:url(#SVGID_00000008834748249048208970000006674015307391772817_);}
	.st9{clip-path:url(#SVGID_00000057128317610216252860000004577875777374830493_);}
	.st10{clip-path:url(#SVGID_00000008834748249048208970000006674015307391772817_);fill:#BA802E;}
	.st11{clip-path:url(#SVGID_00000008834748249048208970000006674015307391772817_);fill:#E2C970;}
	.st12{clip-path:url(#SVGID_00000008834748249048208970000006674015307391772817_);fill:#FFFFFF;}
	.st13{clip-path:url(#SVGID_00000008834748249048208970000006674015307391772817_);fill:#8A683D;}
	.st14{clip-path:url(#SVGID_00000008834748249048208970000006674015307391772817_);}
	.st15{clip-path:url(#SVGID_00000175317785025734473200000005772536472532019079_);}
	.st16{clip-path:url(#SVGID_00000158747834829303891790000001856405969976352441_);}
	.st17{opacity:0.2;clip-path:url(#SVGID_00000170240854976755680700000009138490774179265460_);}
	.st18{clip-path:url(#SVGID_00000078760038273001383120000001731198959411884165_);}
	.st19{clip-path:url(#SVGID_00000165211539610474999790000010130652767719344829_);fill:#D5C291;}
	.st20{clip-path:url(#SVGID_00000105385021604417243260000015421514775996772252_);}
	
		.st21{clip-path:url(#SVGID_00000049221401909973218370000005653230827658753173_);fill:url(#SVGID_00000093176740576358353170000006491022575188112311_);}
	.st22{clip-path:url(#SVGID_00000032616173813012120250000007926398410854257584_);}
	
		.st23{clip-path:url(#SVGID_00000166662409266807318340000010518462044219540887_);fill:url(#SVGID_00000033335161106005657570000001120630708379730610_);}
	.st24{clip-path:url(#SVGID_00000099634205415921886410000005156927676315075723_);}
	
		.st25{clip-path:url(#SVGID_00000133522214120462070270000009358682340978673546_);fill:url(#SVGID_00000070806209163536147070000007333528334637386420_);}
	.st26{clip-path:url(#SVGID_00000087410472250570177180000004114800170388301481_);}
	
		.st27{clip-path:url(#SVGID_00000092451432149628415600000001174330821990727818_);fill:url(#SVGID_00000152985196863168379520000016821780789411413921_);}
	.st28{clip-path:url(#SVGID_00000124144871138822202220000006260976030404032935_);}
	
		.st29{clip-path:url(#SVGID_00000009555018092372280430000001956188546602697911_);fill:url(#SVGID_00000175293039194907898840000006373224272628100008_);}
	.st30{clip-path:url(#SVGID_00000183230913427859432860000001364470928610983584_);}
	
		.st31{clip-path:url(#SVGID_00000054239844706528401940000014887030336350781825_);fill:url(#SVGID_00000044870413095817557580000001041629981936392092_);}
	
		.st32{clip-path:url(#SVGID_00000117669978991367596430000006504418024006691475_);fill-rule:evenodd;clip-rule:evenodd;fill:#EB8E80;}
	
		.st33{clip-path:url(#SVGID_00000109726578269725172090000006862343866727945652_);fill:url(#SVGID_00000137132255047100407270000009685066126096185220_);}
	.st34{opacity:0.5;clip-path:url(#SVGID_00000059272874002256672060000010299865436058808761_);}
	.st35{clip-path:url(#SVGID_00000138573178709300645540000009270435284006554790_);}
	
		.st36{clip-path:url(#SVGID_00000018923821912796264290000001201354282189123238_);fill:url(#SVGID_00000052098128359820602420000006680525218245787523_);}
	
		.st37{clip-path:url(#SVGID_00000124857313363311020830000014481846856971297683_);fill:url(#SVGID_00000061438063464912587440000014048847561084606362_);}
	
		.st38{clip-path:url(#SVGID_00000111902195527717615870000010227149930051637892_);fill-rule:evenodd;clip-rule:evenodd;fill:#1E2C5C;}
	
		.st39{clip-path:url(#SVGID_00000005250595167361794160000002219124768525898428_);fill:url(#SVGID_00000011741568244394369350000008395413133448668582_);}
	
		.st40{clip-path:url(#SVGID_00000091718626808095387870000003277758066812115354_);fill:url(#SVGID_00000153707316402679297180000012360119317325501628_);}
	
		.st41{clip-path:url(#SVGID_00000078014481079520460500000014168748881666330278_);fill-rule:evenodd;clip-rule:evenodd;fill:#34211D;}
	
		.st42{clip-path:url(#SVGID_00000037685242911458462760000013798440050537707681_);fill:url(#SVGID_00000127036837069406044510000000915036905317267117_);}
	
		.st43{clip-path:url(#SVGID_00000029740516719406865690000010007054180976558755_);fill-rule:evenodd;clip-rule:evenodd;fill:#34211D;}
	
		.st44{clip-path:url(#SVGID_00000024683942515970304150000018158636788782711427_);fill:url(#SVGID_00000042006233500496153330000016711654507306935474_);}
	
		.st45{clip-path:url(#SVGID_00000008119911579682306990000013528829665221063602_);fill-rule:evenodd;clip-rule:evenodd;fill:#1E2C5C;}
	
		.st46{clip-path:url(#SVGID_00000147207043400365083130000003116615530844013226_);fill:url(#SVGID_00000067217589170726835920000016199452518153934263_);}
	.st47{opacity:0.5;clip-path:url(#SVGID_00000124155168553041723740000014675459595393270960_);}
	.st48{clip-path:url(#SVGID_00000023245658098540768580000005409784410020229782_);}
	
		.st49{clip-path:url(#SVGID_00000020390235901493599790000003836850195077182110_);fill:url(#SVGID_00000042727748443914837680000000170274045337814202_);}
	.st50{opacity:0.2;clip-path:url(#SVGID_00000015319977829548655390000014487165785324097671_);}
	.st51{clip-path:url(#SVGID_00000040550452317163715240000004005452503190903186_);}
	.st52{clip-path:url(#SVGID_00000015319977829548655390000014487165785324097671_);fill:#D99CAC;}
	.st53{clip-path:url(#SVGID_00000103224067439188768710000004912592943535756672_);fill:#CF9EAB;}
	
		.st54{clip-path:url(#SVGID_00000036941896419568585750000011368223995817685150_);fill:url(#SVGID_00000055691314193535078040000017316179235460723363_);}
	
		.st55{clip-path:url(#SVGID_00000119104907414013440110000008020424679358076826_);fill-rule:evenodd;clip-rule:evenodd;fill:#6F143D;}
	
		.st56{clip-path:url(#SVGID_00000018213198866522649010000000258360844737878946_);fill:url(#SVGID_00000176039965724565838020000009030112903612115856_);}
	
		.st57{clip-path:url(#SVGID_00000163752683995811168200000002071804890754861466_);fill-rule:evenodd;clip-rule:evenodd;fill:#C6985B;}
	
		.st58{clip-path:url(#SVGID_00000176002165363742398750000010237836320841793447_);fill:url(#SVGID_00000011735872565397449920000006955386692343721131_);}
	
		.st59{clip-path:url(#SVGID_00000098929654072315054110000001019147948436321433_);fill:url(#SVGID_00000005232682194460413760000006778842170534132414_);}
	
		.st60{clip-path:url(#SVGID_00000047054910310024741540000002365346169844579988_);fill-rule:evenodd;clip-rule:evenodd;fill:#C6985B;}
	
		.st61{clip-path:url(#SVGID_00000122688614862805763980000003708183345620148119_);fill:url(#SVGID_00000045587097035323211050000011171781290127842690_);}
	
		.st62{clip-path:url(#SVGID_00000101093995306834889930000017091014630023789442_);fill-rule:evenodd;clip-rule:evenodd;fill:#6F143D;}
	.st63{opacity:0.2;clip-path:url(#SVGID_00000150797347930996535100000002374682055825584536_);}
	.st64{clip-path:url(#SVGID_00000130615306840287798380000010510428739036651933_);}
	.st65{clip-path:url(#SVGID_00000176033155102343954370000010657504814083391361_);fill:#9CCAD1;}
	
		.st66{clip-path:url(#SVGID_00000176033155102343954370000010657504814083391361_);fill-rule:evenodd;clip-rule:evenodd;fill:#A5E19F;}
	.st67{clip-path:url(#SVGID_00000045591665575578428000000017593506579255342527_);}
	
		.st68{clip-path:url(#SVGID_00000003071810109267470590000006329977837600225157_);fill:url(#SVGID_00000080174086390366828260000000819578420118668971_);}
	
		.st69{clip-path:url(#SVGID_00000075843270457214056700000014212709933381611149_);fill-rule:evenodd;clip-rule:evenodd;fill:#387C8D;}
	
		.st70{clip-path:url(#SVGID_00000075843270457214056700000014212709933381611149_);fill-rule:evenodd;clip-rule:evenodd;fill:#A5E19F;}
	.st71{clip-path:url(#SVGID_00000127733850431728455610000013615333726603295166_);}
	
		.st72{clip-path:url(#SVGID_00000022520281687724158680000016954707931356916398_);fill:url(#SVGID_00000046300425991776221140000011455179554720905858_);}
	
		.st73{clip-path:url(#SVGID_00000110440037084398976930000017122928642452805812_);fill-rule:evenodd;clip-rule:evenodd;fill:#387C8D;}
	
		.st74{clip-path:url(#SVGID_00000110440037084398976930000017122928642452805812_);fill-rule:evenodd;clip-rule:evenodd;fill:#A5E19F;}
	.st75{clip-path:url(#SVGID_00000142881568725070113040000004627044634087072677_);}
	
		.st76{clip-path:url(#SVGID_00000074430143463130107930000013043562741796487849_);fill:url(#SVGID_00000048473303731487781840000011391023227978896023_);}
	
		.st77{clip-path:url(#SVGID_00000145043480469337713970000004253593059029175954_);fill-rule:evenodd;clip-rule:evenodd;fill:#387C8D;}
	
		.st78{clip-path:url(#SVGID_00000145043480469337713970000004253593059029175954_);fill-rule:evenodd;clip-rule:evenodd;fill:#A5E19F;}
	.st79{clip-path:url(#SVGID_00000018198634037771676790000000452528394113342339_);}
	
		.st80{clip-path:url(#SVGID_00000121272533800371649520000001051556160218285748_);fill:url(#SVGID_00000051353120840465684720000000761470217339829379_);}
	
		.st81{clip-path:url(#SVGID_00000173848671306213523030000014156098230129720988_);fill-rule:evenodd;clip-rule:evenodd;fill:#A5E19F;}
	.st82{clip-path:url(#SVGID_00000036960158174887354050000018420798416871526831_);}
	
		.st83{clip-path:url(#SVGID_00000029039457024463377530000010040181357513761665_);fill:url(#SVGID_00000071558791180935583380000009349226636818710669_);}
	
		.st84{clip-path:url(#SVGID_00000063602256593545133320000001219725610072480135_);fill-rule:evenodd;clip-rule:evenodd;fill:#A5E19F;}
	.st85{clip-path:url(#SVGID_00000091009245974255129580000012710261885483684232_);}
	
		.st86{clip-path:url(#SVGID_00000003806433558701117060000015029986917547845013_);fill:url(#SVGID_00000060021864697746710820000010657160895143606196_);}
	
		.st87{clip-path:url(#SVGID_00000078723391669236850280000007492235387509581758_);fill:url(#SVGID_00000026862720585261738210000004053384243711175054_);}
	.st88{opacity:0.5;clip-path:url(#SVGID_00000166676201694948605580000009839551396020510896_);}
	.st89{clip-path:url(#SVGID_00000173138529533750573290000010092003399788922284_);}
	
		.st90{clip-path:url(#SVGID_00000180358910193251354530000013866715741493322140_);fill:url(#SVGID_00000152961331735503952540000017186248895729063853_);}
	
		.st91{clip-path:url(#SVGID_00000116206125992544420550000017305862622595828364_);fill:url(#SVGID_00000142138000578148222690000013293328188956972210_);}
	.st92{opacity:0.5;clip-path:url(#SVGID_00000092422578895038015330000008067711857488654008_);}
	.st93{clip-path:url(#SVGID_00000101088949045678313760000009140533982584418984_);}
	
		.st94{clip-path:url(#SVGID_00000165933905241252597400000012783665293481197468_);fill:url(#SVGID_00000132784593722283205580000012329240616268741275_);}
	
		.st95{clip-path:url(#SVGID_00000092422578895038015330000008067711857488654008_);fill-rule:evenodd;clip-rule:evenodd;fill:#9A80EC;}
	.st96{clip-path:url(#SVGID_00000097463138380385764910000002675189797973763478_);}
	
		.st97{clip-path:url(#SVGID_00000052824925486286505710000013040307271056700582_);fill:url(#SVGID_00000173848478483267615960000001481401480187494029_);}
	
		.st98{clip-path:url(#SVGID_00000135664913576011186080000016814902974673234585_);fill:url(#SVGID_00000127004990974086446830000010959317132526855841_);}
	.st99{opacity:0.5;clip-path:url(#SVGID_00000168812972526305143700000001249966241236013742_);}
	.st100{clip-path:url(#SVGID_00000044158442290488549670000016966767998543711413_);}
	
		.st101{clip-path:url(#SVGID_00000158021701039846396280000005946279585387210685_);fill:url(#SVGID_00000018213255421082191080000013320298892365275523_);}
	
		.st102{clip-path:url(#SVGID_00000168812972526305143700000001249966241236013742_);fill-rule:evenodd;clip-rule:evenodd;fill:#F2A99B;}
	
		.st103{clip-path:url(#SVGID_00000094605342128970811640000011271012063107959986_);fill:url(#SVGID_00000093143138652601015980000004712923094789323429_);}
	
		.st104{clip-path:url(#SVGID_00000152977603868912340990000008642230952744518315_);fill:url(#SVGID_00000183948141966443784020000011742486403746248616_);}
	
		.st105{clip-path:url(#SVGID_00000129201473508043442090000005213262172892043701_);fill-rule:evenodd;clip-rule:evenodd;fill:#1E083A;}
	
		.st106{clip-path:url(#SVGID_00000166636521941354177480000017655604097135158710_);fill:url(#SVGID_00000137823262418245720500000007302444863051331486_);}
	
		.st107{clip-path:url(#SVGID_00000065069163423169645660000016447868929072815504_);fill-rule:evenodd;clip-rule:evenodd;fill:#F2A99B;}
	
		.st108{clip-path:url(#SVGID_00000047780411074664005520000002477849452433989780_);fill:url(#SVGID_00000022534020541749205840000010096758713689940619_);}
	.st109{opacity:0.5;clip-path:url(#SVGID_00000144333275710356083240000006378836619124154283_);}
	.st110{clip-path:url(#SVGID_00000037669015822869743390000018182935507055394706_);}
	
		.st111{clip-path:url(#SVGID_00000008837102101328335030000000460729219194994573_);fill:url(#SVGID_00000178202711843431576210000007961028211498501310_);}
	
		.st112{clip-path:url(#SVGID_00000180353829802248287180000018233464140934032054_);fill:url(#SVGID_00000054975307700325293320000004623670044335329174_);}
	
		.st113{clip-path:url(#SVGID_00000161590959992311519540000005569955181813549449_);fill-rule:evenodd;clip-rule:evenodd;fill:#9A80EC;}
	.st114{clip-path:url(#SVGID_00000106147239592190772880000011934989160618813340_);}
	
		.st115{clip-path:url(#SVGID_00000070107925456808128060000005094967354014769034_);fill:url(#SVGID_00000058549874536321419410000006507757716486710947_);}
	.st116{clip-path:url(#SVGID_00000151518716922093487980000015548658187970076566_);}
	.st117{clip-path:url(#SVGID_00000125603412442574412430000006250078405592705671_);}
	.st118{opacity:0.15;clip-path:url(#SVGID_00000107552768550362874810000014140384528586079385_);}
	.st119{clip-path:url(#SVGID_00000163754609118189855710000015918644649830427010_);}
	.st120{clip-path:url(#SVGID_00000107552768550362874810000014140384528586079385_);fill:#FFFFFF;}
	.st121{clip-path:url(#SVGID_00000107552768550362874810000014140384528586079385_);fill:#8B61D8;}
	.st122{clip-path:url(#SVGID_00000042717775337900938620000012675229690850722475_);fill:#9ECCD3;}
	
		.st123{clip-path:url(#SVGID_00000147204292078838111730000006859673813854315401_);fill:url(#SVGID_00000072260797366397367860000007248108079248326323_);}
	
		.st124{clip-path:url(#SVGID_00000096055836191118395520000015021188329431491228_);fill-rule:evenodd;clip-rule:evenodd;fill:#6E043D;}
	
		.st125{clip-path:url(#SVGID_00000031178891837729844880000006523385974729445268_);fill:url(#SVGID_00000140697212971716013240000005056162662359751585_);}
	
		.st126{clip-path:url(#SVGID_00000076591010281869587110000012191982828272704412_);fill-rule:evenodd;clip-rule:evenodd;fill:#C89A5B;}
	
		.st127{clip-path:url(#SVGID_00000043429270550961115220000016235828974871404455_);fill:url(#SVGID_00000056415910043397699260000015310703485097059225_);}
	
		.st128{clip-path:url(#SVGID_00000158725508483536833780000017363127313068900785_);fill:url(#SVGID_00000146459581580889844170000011416112363702407811_);}
	
		.st129{clip-path:url(#SVGID_00000045598524211889970600000012502647029416229023_);fill-rule:evenodd;clip-rule:evenodd;fill:#C89A5B;}
	
		.st130{clip-path:url(#SVGID_00000067236892492239082190000010047477086500507020_);fill:url(#SVGID_00000128466863650593807500000003316388879701617569_);}
	
		.st131{clip-path:url(#SVGID_00000097459086265417778240000017661341556053955757_);fill-rule:evenodd;clip-rule:evenodd;fill:#6E043D;}
	.st132{clip-path:url(#SVGID_00000092447945251298677730000011827317791493442235_);fill:#1C2F59;}
	.st133{opacity:0.1;clip-path:url(#SVGID_00000092447945251298677730000011827317791493442235_);}
	.st134{clip-path:url(#SVGID_00000100371053167414464760000009080893885593471663_);}
	.st135{clip-path:url(#SVGID_00000092447945251298677730000011827317791493442235_);fill:#FFFFFF;}
	
		.st136{clip-path:url(#SVGID_00000092447945251298677730000011827317791493442235_);fill:none;stroke:#D5D5D5;stroke-width:0.364;stroke-miterlimit:10;}
	.st137{clip-path:url(#SVGID_00000092447945251298677730000011827317791493442235_);fill:#BCBCBC;}
	.st138{clip-path:url(#SVGID_00000087372555969347957820000000886213537006804874_);}
	.st139{clip-path:url(#SVGID_00000114057951300113528340000014228285246488490377_);}
	.st140{opacity:5.000310e-02;clip-path:url(#SVGID_00000085953616231482676700000001586192674310220222_);}
	.st141{clip-path:url(#SVGID_00000173882888633704612440000010360940803592713391_);}
	.st142{opacity:0.1;clip-path:url(#SVGID_00000085953616231482676700000001586192674310220222_);}
	.st143{clip-path:url(#SVGID_00000066480101717078221240000010305540652717659273_);}
	.st144{clip-path:url(#SVGID_00000085953616231482676700000001586192674310220222_);fill:#7EB0D2;}
	.st145{clip-path:url(#SVGID_00000033358140163449423830000000924234309430526098_);}
	.st146{clip-path:url(#SVGID_00000021100947865750065340000013789528931818078594_);}
	.st147{clip-path:url(#SVGID_00000085953616231482676700000001586192674310220222_);fill:#1F2F56;}
	.st148{clip-path:url(#SVGID_00000085953616231482676700000001586192674310220222_);fill:#609EC8;}
	.st149{clip-path:url(#SVGID_00000085953616231482676700000001586192674310220222_);fill:#FFFFFF;}
	
		.st150{clip-path:url(#SVGID_00000045614849099240554850000000614161773336157334_);fill:url(#SVGID_00000115474691428250625310000011478936716064743101_);}
	
		.st151{clip-path:url(#SVGID_00000077283661712294855340000011174085934840377266_);fill:url(#SVGID_00000155826413733965482160000002803440010434057362_);}
	
		.st152{clip-path:url(#SVGID_00000034091638567285831480000013971443216428001214_);fill:url(#SVGID_00000084506022226562239670000009502409458404273024_);}
	.st153{fill:#FFFFFF;}
</style>
<g>
	<path class="st153" d="M120.3,78.6c-2.6,0-5.3,0-8.1,0c0-1.5,0-2.8,0-4.2c0-5.8-3.8-9.7-9.6-9.7c-23.8,0-47.5,0-71.3,0
		c-5.7,0-9.5,3.8-9.5,9.6c0,1.4,0,2.8,0,4.3c-3.1,0-6,0-8.9,0c-5.3,0.1-9.2,3.9-9.2,9.2c0,6.6,1,13,3.6,19.1
		c3.1,7.5,8,13.6,15.5,16.8c3.5,1.5,5.8,3.4,7.6,6.9c4.7,9,11.5,16.3,19.8,22.1c3.3,2.3,4.8,5.2,4.7,9.2c-0.1,4.7,0,9.3,0,14
		c0,1-0.2,1.5-1.2,1.8c-3.7,1.4-6.2,4-7.3,7.9c-0.3,1.1-0.5,2.2-0.7,3.4c-0.9,0-1.7,0-2.5,0c0,0,0,0,0,0c-5.6,0.1-9.4,3.8-9.4,9.4
		c0,5.7,0,11.5,0,17.2c0,2.4,1.2,3.6,3.6,3.6c2.7,0,5.3,0,8,0c16.9,0,33.9,0,50.8,0c2.7,0,3.9-1.1,3.9-3.5c0-5.8,0.1-11.7,0-17.5
		c-0.1-5.3-3.9-9-9.2-9.2c-0.1,0-0.2,0-0.3,0c-0.8,0-1.6,0-2.5,0c-0.5-5.7-3.2-9.5-8.4-11.5c-0.4-0.1-0.7-0.9-0.7-1.4
		c-0.1-4.7,0-9.4-0.1-14.2c-0.1-4,1.5-7,4.8-9.3c9.5-6.6,16.8-15.2,21.8-25.7c0.5-0.9,1.1-1.4,2-1.7c6.3-2,11.4-5.8,15.2-11.3
		c5.3-7.5,7.2-16.1,7.4-25.2C130.4,82.4,126.6,78.6,120.3,78.6z M13.5,106.3c-2.7-5.7-3.7-11.8-3.8-18.1c0-2.1,1.1-3.4,3.1-3.5
		c2.9-0.1,5.8,0,9,0c0,5.7-0.1,11.3,0,16.9c0.1,5.6,1.2,11,3,16.7C19.5,115.3,15.9,111.3,13.5,106.3z M66.7,207c-0.1,0-0.2,0-0.3,0
		c-1.9,0-3.7,0-5.6,0c-1.9,0-3.7,0-5.6,0c-2,0-3.4-1.3-3.4-3.1c0-1.7,1.4-2.9,3.3-3c3.8,0,7.6,0,11.4,0c1.9,0,3.3,1.3,3.3,3
		C70,205.7,68.6,206.9,66.7,207z M79.1,201c1.6,0.1,2.9,1.5,2.9,3.1c-0.1,1.6-1.5,2.9-3,2.9c-1.6,0-2.9-1.4-2.9-3
		C76,202.3,77.5,200.9,79.1,201z M89.6,103.9c-2.6,2.5-5.2,5.2-7.9,7.7c-0.9,0.8-1,1.6-0.8,2.6c0.7,3.6,1.2,7.2,1.9,10.8
		c0.3,1.4,0,2.6-1.1,3.5c-1.2,0.9-2.4,0.7-3.7,0c-3.3-1.8-6.7-3.5-10-5.3c-0.9-0.5-1.5-0.4-2.3,0c-3.3,1.8-6.7,3.6-10.1,5.3
		c-2.4,1.2-4.8-0.2-4.7-3c0.6-3.8,1.4-7.9,2-12c0.1-0.6-0.2-1.4-0.6-1.8c-2.6-2.6-5.3-5.2-8-7.8c-1.1-1-1.9-2.2-1.4-3.7
		c0.5-1.5,1.8-2,3.3-2.2c3.6-0.5,7.2-1.1,10.9-1.5c1-0.1,1.5-0.6,1.9-1.4c1.6-3.3,3.2-6.6,4.8-9.9c0.6-1.3,1.5-2.3,3-2.4
		c1.6,0,2.5,1,3.1,2.4c1.6,3.3,3.3,6.6,4.8,9.9c0.4,0.9,1,1.3,1.9,1.4c3.7,0.5,7.3,1.1,11,1.6c1.4,0.2,2.5,0.7,3.1,2.1
		C91.3,101.7,90.7,102.9,89.6,103.9z M115.6,113.2c-1.8,1.9-4,3.4-6.1,5c-0.2-0.1-0.3-0.2-0.5-0.3c3.8-10.8,3.1-22,3.1-33.2
		c3.3,0,6.5-0.1,9.6,0c1.5,0.1,2.4,1.3,2.4,2.7C124.1,97,122.4,106,115.6,113.2z"/>
	<path class="st153" d="M70.2,99.6c-1-2.2-2.2-4.4-3.4-6.8c-1.1,2.2-2.3,4.2-3.1,6.3c-0.9,2.3-2.5,3.2-4.8,3.4
		c-2.1,0.2-4.3,0.6-6.4,0.9c1.7,1.7,3.1,3.5,4.8,5c1.7,1.5,2.2,3.2,1.6,5.4c-0.5,2.2-0.8,4.4-1.2,6.8c2.3-1.2,4.5-2.2,6.5-3.4
		c1.8-1.1,3.3-1,5.1,0c2,1.2,4.1,2.2,6.5,3.4c-0.4-2.6-0.7-4.8-1.2-7c-0.5-2.2,0-3.7,1.7-5.2c1.7-1.5,3.1-3.3,4.7-5
		c-2.3-0.3-4.7-0.7-7.2-1C72.1,102.1,70.9,101.3,70.2,99.6z"/>
	<path class="st153" d="M50.5,41.7c3.8-0.2,7.6-0.4,11.4-0.7c0.9-0.1,1.6,0.2,2.1,0.9c2.3,3,4.6,5.9,6.9,8.9
		c0.9,1.1,1.9,1.8,3.4,1.5c1.4-0.3,2.1-1.3,2.5-2.7c0.9-3.6,1.8-7.1,2.7-10.6c0.3-1.1,0.7-1.7,1.9-2.1c3.5-1.2,6.9-2.5,10.3-3.7
		c1.4-0.5,2.4-1.3,2.5-2.9c0.1-1.5-0.8-2.4-1.9-3.1c-3.1-2-6.3-4-9.4-5.9c-0.8-0.5-1.1-1.1-1.2-2.1c-0.1-3.7-0.3-7.3-0.4-11
		c0-1.5-0.4-2.8-1.9-3.5c-1.4-0.6-2.6,0-3.7,0.9c-2.8,2.4-5.7,4.6-8.4,7c-0.7,0.6-1.4,0.8-2.3,0.5c-3.5-1-7-2-10.5-3.1
		c-1.4-0.4-2.8-0.5-3.9,0.7c-1.1,1.2-0.9,2.5-0.3,3.9c1.4,3.4,2.8,6.9,4.1,10.4c0.2,0.5,0.1,1.4-0.2,1.9c-2.2,3.5-4.5,6.9-6.7,10.1
		C46.2,39.6,47.8,41.8,50.5,41.7z M60.5,24c-0.9-2-1.5-4.2-2.3-6.5c2,0.6,4.2,1,6.2,1.8c2.2,0.8,4,0.6,5.8-1.1
		c1.6-1.6,3.4-2.9,5.4-4.5c0.1,2.7,0.3,5.1,0.3,7.6c0,1.8,0.7,3,2.2,3.9c2.1,1.2,4.2,2.6,6.1,3.9C82,30,80,31,77.8,31.7
		c-2.1,0.7-3.3,1.9-3.7,4.1c-0.4,2.2-1.1,4.3-1.8,6.9c-1.6-2.1-3.2-3.8-4.5-5.7c-1.2-1.7-2.6-2.3-4.6-2.1c-2.3,0.3-4.7,0.3-7.3,0.5
		c1.4-2.1,2.5-4,3.9-5.7C61.2,27.8,61.5,26.1,60.5,24z"/>
	<path class="st153" d="M153.3,27.9c-3.1-2-6.3-4-9.4-5.9c-0.8-0.5-1.1-1.1-1.2-2.1c-0.1-3.7-0.3-7.3-0.4-11c0-1.5-0.4-2.8-1.9-3.5
		c-1.4-0.6-2.6,0-3.7,0.9c-2.8,2.4-5.7,4.6-8.4,7c-0.7,0.6-1.4,0.8-2.3,0.5c-3.5-1-7-2-10.5-3.1c-1.4-0.4-2.8-0.5-3.9,0.7
		c-1.1,1.2-0.9,2.5-0.3,3.9c1.4,3.4,2.8,6.9,4.1,10.4c0.2,0.5,0.1,1.4-0.2,1.9c-2.2,3.5-4.5,6.9-6.7,10.1c-1.3,2.5,0.3,4.8,3.1,4.6
		c3.8-0.2,7.6-0.4,11.4-0.7c0.9-0.1,1.6,0.2,2.1,0.9c2.3,3,4.6,5.9,6.9,8.9c0.9,1.1,1.9,1.8,3.4,1.5c1.4-0.3,2.1-1.3,2.5-2.7
		c0.9-3.6,1.8-7.1,2.7-10.6c0.3-1.1,0.7-1.7,1.9-2.1c3.5-1.2,6.9-2.5,10.3-3.7c1.4-0.5,2.4-1.3,2.5-2.9
		C155.3,29.6,154.4,28.6,153.3,27.9z M138.8,32.5c-2.1,0.7-3.3,1.9-3.7,4.1c-0.4,2.2-1.1,4.3-1.8,6.9c-1.6-2.1-3.2-3.8-4.5-5.7
		c-1.2-1.7-2.6-2.3-4.6-2.1c-2.3,0.3-4.7,0.3-7.3,0.5c1.4-2.1,2.5-4,3.9-5.7c1.3-1.8,1.7-3.5,0.7-5.6c-0.9-2-1.5-4.2-2.3-6.5
		c2,0.6,4.2,1,6.2,1.8c2.2,0.8,4,0.6,5.8-1.1c1.6-1.6,3.4-2.9,5.4-4.5c0.1,2.7,0.3,5.1,0.3,7.6c0,1.8,0.7,3,2.2,3.9
		c2.1,1.2,4.2,2.6,6.1,3.9C143,30.8,140.9,31.8,138.8,32.5z"/>
</g>
</svg>
