<?xml version="1.0" encoding="utf-8"?>
<!-- Generator: Adobe Illustrator 26.5.0, SVG Export Plug-In . SVG Version: 6.00 Build 0)  -->
<svg version="1.1" id="Layer_1" xmlns="http://www.w3.org/2000/svg" xmlns:xlink="http://www.w3.org/1999/xlink" x="0px" y="0px"
	 viewBox="0 0 177 159" style="enable-background:new 0 0 177 159;" xml:space="preserve">
<style type="text/css">
	.st0{clip-path:url(#SVGID_00000006678012690131288530000009516100928364404140_);}
	.st1{clip-path:url(#SVGID_00000152954732085215550510000017527567794993556152_);}
	.st2{opacity:0.4;clip-path:url(#SVGID_00000031206548078985596470000017435592160423030451_);}
	.st3{clip-path:url(#SVGID_00000130617660532373896850000003646580251725937335_);}
	.st4{clip-path:url(#SVGID_00000031206548078985596470000017435592160423030451_);fill:#FFFFFF;}
	
		.st5{clip-path:url(#SVGID_00000031206548078985596470000017435592160423030451_);fill:none;stroke:#D4D2D0;stroke-width:3.0827;stroke-miterlimit:10;}
	.st6{clip-path:url(#SVGID_00000021108587838116593680000004092987841565675401_);}
	.st7{clip-path:url(#SVGID_00000013898243151627783840000001568216382276342204_);}
	.st8{opacity:0.2;clip-path:url(#SVGID_00000150823797602085795340000013576525558669115828_);}
	.st9{clip-path:url(#SVGID_00000109724351658292515910000017211863844352561301_);}
	.st10{clip-path:url(#SVGID_00000150823797602085795340000013576525558669115828_);fill:#BA802E;}
	.st11{clip-path:url(#SVGID_00000150823797602085795340000013576525558669115828_);fill:#E2C970;}
	.st12{clip-path:url(#SVGID_00000150823797602085795340000013576525558669115828_);fill:#FFFFFF;}
	.st13{clip-path:url(#SVGID_00000150823797602085795340000013576525558669115828_);fill:#8A683D;}
	.st14{clip-path:url(#SVGID_00000150823797602085795340000013576525558669115828_);}
	.st15{clip-path:url(#SVGID_00000142872961737073116350000006520550841403168662_);}
	.st16{clip-path:url(#SVGID_00000052823148929730832150000011424735800003351953_);}
	.st17{opacity:0.2;clip-path:url(#SVGID_00000049198318946037237110000010669900134213196185_);}
	.st18{clip-path:url(#SVGID_00000095309645884155452230000008376953651239636390_);}
	.st19{clip-path:url(#SVGID_00000021799580501430480890000001506126566065598650_);fill:#D5C291;}
	.st20{clip-path:url(#SVGID_00000137825328080581156710000000795732714750728844_);}
	
		.st21{clip-path:url(#SVGID_00000005226962874015269570000015435824652593629879_);fill:url(#SVGID_00000116949916564597648250000010757277619723039369_);}
	.st22{clip-path:url(#SVGID_00000168100249716829356230000010703962013667877301_);}
	
		.st23{clip-path:url(#SVGID_00000038410253995805865790000015514287732398261402_);fill:url(#SVGID_00000111894067700938097200000005624202473710469767_);}
	.st24{clip-path:url(#SVGID_00000039136175402655595250000014598147211533289111_);}
	
		.st25{clip-path:url(#SVGID_00000065061111833808935400000011959822217399602319_);fill:url(#SVGID_00000109711233766105805000000013957610829780872092_);}
	.st26{clip-path:url(#SVGID_00000121249582647453247420000002830041405719875730_);}
	
		.st27{clip-path:url(#SVGID_00000145770216992529329640000003651996278175128755_);fill:url(#SVGID_00000160149516388105816910000008279673195748423562_);}
	.st28{clip-path:url(#SVGID_00000173854850966774808510000016602418406467065015_);}
	
		.st29{clip-path:url(#SVGID_00000156589501605077869240000007840647617934159234_);fill:url(#SVGID_00000164485581855629147310000013730193227657719206_);}
	.st30{clip-path:url(#SVGID_00000119839751219045855580000010831227328191705990_);}
	
		.st31{clip-path:url(#SVGID_00000173852452883406181690000014092856894241738149_);fill:url(#SVGID_00000121965706847935261520000004359462410971549841_);}
	
		.st32{clip-path:url(#SVGID_00000034051582527647595850000004795582869259058319_);fill-rule:evenodd;clip-rule:evenodd;fill:#EB8E80;}
	
		.st33{clip-path:url(#SVGID_00000036212814335693610980000011754305039878522012_);fill:url(#SVGID_00000034051330331004014470000011944441735938163129_);}
	.st34{opacity:0.5;clip-path:url(#SVGID_00000037655016041464471920000010336947372880421049_);}
	.st35{clip-path:url(#SVGID_00000039111460165611719950000006096654425658184118_);}
	
		.st36{clip-path:url(#SVGID_00000131354190004864339930000012780693864255124911_);fill:url(#SVGID_00000015352240583288534130000008410439554963648177_);}
	
		.st37{clip-path:url(#SVGID_00000153675590818754289850000016338221787968440978_);fill:url(#SVGID_00000078751768386199478710000002746143210947649429_);}
	
		.st38{clip-path:url(#SVGID_00000128457748478737453490000014209179212687743672_);fill-rule:evenodd;clip-rule:evenodd;fill:#1E2C5C;}
	
		.st39{clip-path:url(#SVGID_00000145058652030240993700000007553529590364860039_);fill:url(#SVGID_00000155124697893396822580000000250608915264482198_);}
	
		.st40{clip-path:url(#SVGID_00000098926552402737998760000000578091900486547368_);fill:url(#SVGID_00000066503705369786023100000003037938534550318475_);}
	
		.st41{clip-path:url(#SVGID_00000008146760066738107290000000769435142579449270_);fill-rule:evenodd;clip-rule:evenodd;fill:#34211D;}
	
		.st42{clip-path:url(#SVGID_00000093156147918525972400000001521567408746082201_);fill:url(#SVGID_00000128450634124605917490000005411008279557484466_);}
	
		.st43{clip-path:url(#SVGID_00000138540844207494889260000010464614203750431404_);fill-rule:evenodd;clip-rule:evenodd;fill:#34211D;}
	
		.st44{clip-path:url(#SVGID_00000142897238433850772160000008468500981741130375_);fill:url(#SVGID_00000147923679348122311160000014551327789314931375_);}
	
		.st45{clip-path:url(#SVGID_00000078009321577440604530000016601646682996338850_);fill-rule:evenodd;clip-rule:evenodd;fill:#1E2C5C;}
	
		.st46{clip-path:url(#SVGID_00000143593379876442388630000003066641786378660778_);fill:url(#SVGID_00000149352195006669994020000017046479331233817513_);}
	.st47{opacity:0.5;clip-path:url(#SVGID_00000024690746181161004300000005540898739585861012_);}
	.st48{clip-path:url(#SVGID_00000054250429123871553510000014520269941493776053_);}
	
		.st49{clip-path:url(#SVGID_00000045602822203867969140000002280905606893402265_);fill:url(#SVGID_00000100381330024525435270000012152828001291473067_);}
	.st50{opacity:0.2;clip-path:url(#SVGID_00000126286565306789811320000001309994681954188733_);}
	.st51{clip-path:url(#SVGID_00000141440988582684658430000013068561366224498594_);}
	.st52{clip-path:url(#SVGID_00000126286565306789811320000001309994681954188733_);fill:#D99CAC;}
	.st53{clip-path:url(#SVGID_00000019662706675710785770000017619311955504734872_);fill:#CF9EAB;}
	
		.st54{clip-path:url(#SVGID_00000134936115141674617520000004599843475412938114_);fill:url(#SVGID_00000115477624846833840730000017120775912585362073_);}
	
		.st55{clip-path:url(#SVGID_00000116201349562820884350000015031731587565190812_);fill-rule:evenodd;clip-rule:evenodd;fill:#6F143D;}
	
		.st56{clip-path:url(#SVGID_00000140714190516788587900000002224761612779951269_);fill:url(#SVGID_00000035489618371785194940000002429674793139924906_);}
	
		.st57{clip-path:url(#SVGID_00000168822210184676624880000004502109943245694909_);fill-rule:evenodd;clip-rule:evenodd;fill:#C6985B;}
	
		.st58{clip-path:url(#SVGID_00000124866273618562792440000016632165685766105519_);fill:url(#SVGID_00000046315748480174450830000008253026472772878720_);}
	
		.st59{clip-path:url(#SVGID_00000048472842095915519450000010968754197530018706_);fill:url(#SVGID_00000092413886172950920580000008631028158294843793_);}
	
		.st60{clip-path:url(#SVGID_00000095325700057961963870000012463223277215905201_);fill-rule:evenodd;clip-rule:evenodd;fill:#C6985B;}
	
		.st61{clip-path:url(#SVGID_00000105398563094395919350000010089070794679219117_);fill:url(#SVGID_00000168832043455148415100000000061962901759623560_);}
	
		.st62{clip-path:url(#SVGID_00000161627975225138066210000018185178571179605378_);fill-rule:evenodd;clip-rule:evenodd;fill:#6F143D;}
	.st63{opacity:0.2;clip-path:url(#SVGID_00000011719415160081091740000005634259176061833882_);}
	.st64{clip-path:url(#SVGID_00000157291581956238223480000008278627518952483997_);}
	.st65{clip-path:url(#SVGID_00000086674710303714241020000017325547161638095244_);fill:#9CCAD1;}
	
		.st66{clip-path:url(#SVGID_00000086674710303714241020000017325547161638095244_);fill-rule:evenodd;clip-rule:evenodd;fill:#A5E19F;}
	.st67{clip-path:url(#SVGID_00000150060453908988890060000016070170223359653514_);}
	
		.st68{clip-path:url(#SVGID_00000023277834114409980410000010846916307739807877_);fill:url(#SVGID_00000085944782949423284080000003776315052937938587_);}
	
		.st69{clip-path:url(#SVGID_00000036940048833832968650000000781148901961420478_);fill-rule:evenodd;clip-rule:evenodd;fill:#387C8D;}
	
		.st70{clip-path:url(#SVGID_00000036940048833832968650000000781148901961420478_);fill-rule:evenodd;clip-rule:evenodd;fill:#A5E19F;}
	.st71{clip-path:url(#SVGID_00000048484054945418783780000003632922227418935451_);}
	
		.st72{clip-path:url(#SVGID_00000152973737366809702600000012400397039938851482_);fill:url(#SVGID_00000061466363616662974530000010281580450804175777_);}
	
		.st73{clip-path:url(#SVGID_00000111884270205725440560000000882342188586577825_);fill-rule:evenodd;clip-rule:evenodd;fill:#387C8D;}
	
		.st74{clip-path:url(#SVGID_00000111884270205725440560000000882342188586577825_);fill-rule:evenodd;clip-rule:evenodd;fill:#A5E19F;}
	.st75{clip-path:url(#SVGID_00000065070591639276608480000005081022868714006203_);}
	
		.st76{clip-path:url(#SVGID_00000060720304773825562430000012354563418311130510_);fill:url(#SVGID_00000178191548448374272860000012801036350862982540_);}
	
		.st77{clip-path:url(#SVGID_00000099653929355561794530000017709504755601425557_);fill-rule:evenodd;clip-rule:evenodd;fill:#387C8D;}
	
		.st78{clip-path:url(#SVGID_00000099653929355561794530000017709504755601425557_);fill-rule:evenodd;clip-rule:evenodd;fill:#A5E19F;}
	.st79{clip-path:url(#SVGID_00000007411269170120345320000014862381767554048682_);}
	
		.st80{clip-path:url(#SVGID_00000073703872177906134020000009177760921014033538_);fill:url(#SVGID_00000028324333024998652240000000960904145524959902_);}
	
		.st81{clip-path:url(#SVGID_00000026875268117608546500000003532804291882844094_);fill-rule:evenodd;clip-rule:evenodd;fill:#A5E19F;}
	.st82{clip-path:url(#SVGID_00000008108527346271158930000015261166442152580506_);}
	
		.st83{clip-path:url(#SVGID_00000140716782390007184040000002108560185683890841_);fill:url(#SVGID_00000161599662123873823730000001827856376361945736_);}
	
		.st84{clip-path:url(#SVGID_00000119113630065389589150000004078971686318692024_);fill-rule:evenodd;clip-rule:evenodd;fill:#A5E19F;}
	.st85{clip-path:url(#SVGID_00000039813376818677768910000015419035021606532012_);}
	
		.st86{clip-path:url(#SVGID_00000000912937563036028910000001999502888050968212_);fill:url(#SVGID_00000032635420679810878710000014407100988670446978_);}
	
		.st87{clip-path:url(#SVGID_00000065766429310283123390000011909020326255553190_);fill:url(#SVGID_00000004536598285231561370000003819951204088702613_);}
	.st88{opacity:0.5;clip-path:url(#SVGID_00000069397268387031109480000014703333144948489643_);}
	.st89{clip-path:url(#SVGID_00000015324547762303020750000001629842041513889428_);}
	
		.st90{clip-path:url(#SVGID_00000025429379010243659180000013639857931956643994_);fill:url(#SVGID_00000160899572601630990980000015502737663596096188_);}
	
		.st91{clip-path:url(#SVGID_00000019642404040232443470000011987519101722243508_);fill:url(#SVGID_00000010291343266558384360000010223300889068710051_);}
	.st92{opacity:0.5;clip-path:url(#SVGID_00000100357393002508373300000010953630615555711394_);}
	.st93{clip-path:url(#SVGID_00000054265166436888615730000007956475119383709112_);}
	
		.st94{clip-path:url(#SVGID_00000003077499561376472420000018396567242795539623_);fill:url(#SVGID_00000136406112882461111620000002814599243756331140_);}
	
		.st95{clip-path:url(#SVGID_00000100357393002508373300000010953630615555711394_);fill-rule:evenodd;clip-rule:evenodd;fill:#9A80EC;}
	.st96{clip-path:url(#SVGID_00000057116473205898477430000014137115621122814623_);}
	
		.st97{clip-path:url(#SVGID_00000020400695300848922240000008544633738432185216_);fill:url(#SVGID_00000144307500754146826210000010227258974432715918_);}
	
		.st98{clip-path:url(#SVGID_00000081638894335748559410000015501765995109333670_);fill:url(#SVGID_00000145768690342464317940000002589735240805614474_);}
	.st99{opacity:0.5;clip-path:url(#SVGID_00000029735418596893972900000002748989983546388914_);}
	.st100{clip-path:url(#SVGID_00000061464899912172783030000014067715341663947411_);}
	
		.st101{clip-path:url(#SVGID_00000111899608307245377020000000119590369336772766_);fill:url(#SVGID_00000109003185559044071970000010880298268803170990_);}
	
		.st102{clip-path:url(#SVGID_00000029735418596893972900000002748989983546388914_);fill-rule:evenodd;clip-rule:evenodd;fill:#F2A99B;}
	
		.st103{clip-path:url(#SVGID_00000068653832776064319300000002629485157834842300_);fill:url(#SVGID_00000144317894897109107340000003199555305528587703_);}
	
		.st104{clip-path:url(#SVGID_00000165954691368120414450000012023546708834578051_);fill:url(#SVGID_00000141435122032054595660000016006987558458560951_);}
	
		.st105{clip-path:url(#SVGID_00000181789464537856588740000014742412874945275042_);fill-rule:evenodd;clip-rule:evenodd;fill:#1E083A;}
	
		.st106{clip-path:url(#SVGID_00000103946371398480616410000000593475990723017347_);fill:url(#SVGID_00000011709368817283322620000006578219232253202332_);}
	
		.st107{clip-path:url(#SVGID_00000055705168492401556450000011532810578146595230_);fill-rule:evenodd;clip-rule:evenodd;fill:#F2A99B;}
	
		.st108{clip-path:url(#SVGID_00000170268621754214928200000016056919040058303164_);fill:url(#SVGID_00000092448563827537602690000010122743071990499986_);}
	.st109{opacity:0.5;clip-path:url(#SVGID_00000106837446785304366420000016250308415371050922_);}
	.st110{clip-path:url(#SVGID_00000110452232089194802610000004646346108440685226_);}
	
		.st111{clip-path:url(#SVGID_00000149355433451891342330000008229668437186163332_);fill:url(#SVGID_00000181060444980227604260000002208397988414604163_);}
	
		.st112{clip-path:url(#SVGID_00000071556359333628182400000006086021204432700574_);fill:url(#SVGID_00000004517010999208214220000001546282867998388667_);}
	
		.st113{clip-path:url(#SVGID_00000085952957640608032780000001160746209662726831_);fill-rule:evenodd;clip-rule:evenodd;fill:#9A80EC;}
	.st114{clip-path:url(#SVGID_00000065033748423673458560000004490536785992342429_);}
	
		.st115{clip-path:url(#SVGID_00000115500785332739660330000000432685830165481116_);fill:url(#SVGID_00000078029049304539439060000003337912665807363746_);}
	.st116{clip-path:url(#SVGID_00000150066113263460654030000015236066444541351610_);}
	.st117{clip-path:url(#SVGID_00000002377157115121270050000016999235251917095869_);}
	.st118{opacity:0.15;clip-path:url(#SVGID_00000092455831327887523890000004963176547100217752_);}
	.st119{clip-path:url(#SVGID_00000029024214054606556850000007150577050514606480_);}
	.st120{clip-path:url(#SVGID_00000092455831327887523890000004963176547100217752_);fill:#FFFFFF;}
	.st121{clip-path:url(#SVGID_00000092455831327887523890000004963176547100217752_);fill:#8B61D8;}
	.st122{clip-path:url(#SVGID_00000034069060648925945430000010044890634163432339_);fill:#9ECCD3;}
	
		.st123{clip-path:url(#SVGID_00000145044561394411444120000006091214619050334088_);fill:url(#SVGID_00000178168804328794725960000000783132060039698107_);}
	
		.st124{clip-path:url(#SVGID_00000114053974920496656750000003458621121729905826_);fill-rule:evenodd;clip-rule:evenodd;fill:#6E043D;}
	
		.st125{clip-path:url(#SVGID_00000164478689750528012080000016193863544924177079_);fill:url(#SVGID_00000057135676606305533000000005942544057759137698_);}
	
		.st126{clip-path:url(#SVGID_00000078748001476607418740000016439535929634626995_);fill-rule:evenodd;clip-rule:evenodd;fill:#C89A5B;}
	
		.st127{clip-path:url(#SVGID_00000108300479920526749920000011308208711563286953_);fill:url(#SVGID_00000054237329575877637260000011652378904780377785_);}
	
		.st128{clip-path:url(#SVGID_00000109026089801370321330000009885832245838278847_);fill:url(#SVGID_00000072975741788694193870000000587808983725516717_);}
	
		.st129{clip-path:url(#SVGID_00000149377058388893207050000005939842814909479603_);fill-rule:evenodd;clip-rule:evenodd;fill:#C89A5B;}
	
		.st130{clip-path:url(#SVGID_00000075847420508821883120000016528726091729143987_);fill:url(#SVGID_00000075147862771422532530000004074363856115192235_);}
	
		.st131{clip-path:url(#SVGID_00000033352911198103817900000015796448827844353201_);fill-rule:evenodd;clip-rule:evenodd;fill:#6E043D;}
	.st132{clip-path:url(#SVGID_00000086687461919513035050000007087712485111272612_);fill:#1C2F59;}
	.st133{opacity:0.1;clip-path:url(#SVGID_00000086687461919513035050000007087712485111272612_);}
	.st134{clip-path:url(#SVGID_00000025404327155019282520000002256219975084583342_);}
	.st135{clip-path:url(#SVGID_00000086687461919513035050000007087712485111272612_);fill:#FFFFFF;}
	
		.st136{clip-path:url(#SVGID_00000086687461919513035050000007087712485111272612_);fill:none;stroke:#D5D5D5;stroke-width:0.364;stroke-miterlimit:10;}
	.st137{clip-path:url(#SVGID_00000086687461919513035050000007087712485111272612_);fill:#BCBCBC;}
	.st138{clip-path:url(#SVGID_00000006686508679016041920000008884040787449411982_);}
	.st139{clip-path:url(#SVGID_00000056429880091602870620000006849736614998065284_);}
	.st140{opacity:5.000310e-02;clip-path:url(#SVGID_00000174588982897536138530000007663334327141637269_);}
	.st141{clip-path:url(#SVGID_00000175310061432016599940000002460443224970028949_);}
	.st142{opacity:0.1;clip-path:url(#SVGID_00000174588982897536138530000007663334327141637269_);}
	.st143{clip-path:url(#SVGID_00000036226945022864834210000006647617912159735174_);}
	.st144{clip-path:url(#SVGID_00000174588982897536138530000007663334327141637269_);fill:#7EB0D2;}
	.st145{clip-path:url(#SVGID_00000052784267709951864880000010602445459071684765_);}
	.st146{clip-path:url(#SVGID_00000088852217835793742410000015236201287420915874_);}
	.st147{clip-path:url(#SVGID_00000174588982897536138530000007663334327141637269_);fill:#1F2F56;}
	.st148{clip-path:url(#SVGID_00000174588982897536138530000007663334327141637269_);fill:#609EC8;}
	.st149{clip-path:url(#SVGID_00000174588982897536138530000007663334327141637269_);fill:#FFFFFF;}
	
		.st150{clip-path:url(#SVGID_00000007413887463513148540000005794463414844101273_);fill:url(#SVGID_00000039128108566136227770000013407003868651212432_);}
	
		.st151{clip-path:url(#SVGID_00000032642505537756838410000018414914153146424467_);fill:url(#SVGID_00000040533922647235384730000014635304463980702626_);}
	
		.st152{clip-path:url(#SVGID_00000031888067193267646690000005425867010770329779_);fill:url(#SVGID_00000023990204561499350470000009438041169943476900_);}
	.st153{fill:#FFFFFF;}
</style>
<g id="AUOPji.tif_00000076583618854110118930000011347430161954360231_">
	<g>
		<path class="st153" d="M88.7,117.1c23.4,0,46.8,0,70.3,0c2.8,0,4.3,1,4.3,3c0,2.1-1.4,3.1-4.3,3.1c-47,0-93.9,0-140.9,0
			c-0.3,0-0.5,0-0.8,0c-2.2-0.1-3.5-1.3-3.5-3.1c0.1-1.7,1.5-2.9,3.5-2.9c13.6,0,27.2,0,40.7,0C68.2,117.1,78.4,117.1,88.7,117.1z"
			/>
		<g>
			<path class="st153" d="M58.4,47.9c1.3,2.3,2.6,4.6,4,6.8c0.8,1.3,2,1.9,3.5,1.4c1.4-0.4,2-1.5,2.1-3.2c-0.2-0.5-0.5-1.3-0.9-2
				c-2.8-4.9-5.7-9.9-8.5-14.8c-1.2-2-2.8-2.7-4.5-1.8c-1.7,0.9-2,2.7-0.8,4.8C55.1,42.1,56.7,45,58.4,47.9z"/>
			<path class="st153" d="M113.6,56.2c0.5-0.4,1.6-1,2.2-1.9c3.1-5.1,6-10.3,9-15.5c1-1.8,0.6-3.6-0.9-4.4c-1.6-0.9-3.3-0.3-4.4,1.5
				c-1.8,3-3.5,6.1-5.3,9.1c-1.3,2.2-2.6,4.3-3.7,6.6C109.3,53.8,110.6,56.2,113.6,56.2z"/>
			<path class="st153" d="M85,46.7c0,0.8,0,1.6,0.2,2.3c0.3,1.4,1.8,2.3,3.3,2.1c1.6-0.2,2.5-1.4,2.5-3.1c0-6.2,0-12.3,0-18.5
				c0-5.8,0-11.6,0-17.5c0-0.4,0-0.9,0-1.3c-0.1-1.8-1.2-2.9-2.9-3c-1.7-0.1-3.1,1.1-3.1,2.9c-0.1,3.3,0,6.6,0,9.9
				C85,29.2,85,38,85,46.7z"/>
			<path class="st153" d="M159.7,89.1c-2.9,0-5.8,0-8.7,0c-3,0-6,0-9,0c-2.1,0-3.5,1.3-3.5,3.1c0,1.8,1.3,3,3.4,3c6,0,12,0,17.9,0
				c2.1,0,3.4-1.2,3.4-3C163.3,90.4,161.8,89.1,159.7,89.1z"/>
			<path class="st153" d="M136.3,68c5.9-3.4,11.7-6.7,17.6-10.1c3-1.7,5.9-3.4,8.8-5.1c1.4-0.8,2-2.2,1.5-3.6
				c-0.4-1.3-1.4-2-3.2-2.1c-0.3,0.1-0.9,0.2-1.4,0.5c-8.9,5.1-17.8,10.3-26.7,15.4c-1.2,0.7-1.8,1.8-1.5,3.2
				C131.8,68.3,134.1,69.2,136.3,68z"/>
			<path class="st153" d="M14.7,53c4.2,2.4,8.4,4.8,12.5,7.2c4.5,2.6,9,5.2,13.6,7.8c2.3,1.3,4.8,0,4.8-2.4c0-1.5-0.9-2.3-2.1-3
				c-8.6-4.9-17.1-9.9-25.7-14.8c-2.1-1.2-3.9-0.9-4.8,0.8C12,50.2,12.7,51.8,14.7,53z"/>
			<path class="st153" d="M158.9,117.1c-23.4,0-46.8,0-70.3,0c-10.2,0-20.5,0-30.7,0c-13.6,0-27.2,0-40.7,0c-2,0-3.5,1.2-3.5,2.9
				c-0.1,1.8,1.3,3.1,3.5,3.1c0.3,0,0.5,0,0.8,0c47,0,93.9,0,140.9,0c2.9,0,4.4-1,4.3-3.1C163.2,118.1,161.7,117.1,158.9,117.1z"/>
			<g>
				<path class="st153" d="M171.8,104.7c-12.7,0-25.5,0-38.2,0c-0.5,0-1,0-1.6,0c0-0.1,0-0.2,0-0.3c-0.3-12.6-4.9-23.3-14.4-31.6
					c-13.8-12-29.7-14.7-46.4-7.5c-16.4,7-24.8,20.3-26.2,38c0,0.4,0,0.9,0,1.3c0,0,0,0,0,0.1c-13,0-26,0-39,0c-0.7,0-1.4,0-2.1,0.1
					c-1.5,0.2-2.4,1.3-2.5,2.8c-0.1,2,1.2,3.1,3.6,3.1c27.9,0,55.7,0,83.6,0c0,0,0,0,0,0c27.6,0,55.2,0,82.8,0c0.5,0,1.1,0,1.6,0
					c1.6-0.2,2.7-1.3,2.7-3C175.6,105.7,174.4,104.7,171.8,104.7z M115.2,84.8c-1.4,1.2-3.2,0.8-4.6-0.8c-4.8-5.5-10.9-8.6-18.3-8.9
					c-2.7-0.1-3.9-1.1-3.9-3.2c0.1-2,1.5-3,4.9-2.9c8.4,0.5,16,4.1,21.9,11.1C116.7,81.7,116.6,83.6,115.2,84.8z"/>
			</g>
			<path class="st153" d="M17.5,89c-2.3,0-3.7,1.2-3.8,3c0,1.9,1.4,3.1,3.7,3.1c2.9,0,5.8,0,8.7,0c0,0,0,0,0,0c3,0,6,0,9,0
				c1.4,0,2.6-0.5,3.1-2c0.8-2.2-0.7-4.1-3.2-4.1C29.2,89,23.4,89,17.5,89z"/>
		</g>
		<path class="st153" d="M45.6,65.6c0,2.4-2.5,3.7-4.8,2.4c-4.5-2.6-9-5.2-13.6-7.8c-4.2-2.4-8.4-4.8-12.5-7.2
			c-2-1.2-2.7-2.8-1.8-4.5c0.9-1.7,2.8-2,4.8-0.8c8.6,4.9,17.1,9.9,25.7,14.8C44.7,63.3,45.6,64.1,45.6,65.6z"/>
		<path class="st153" d="M161.1,47c1.7,0,2.7,0.7,3.2,2.1c0.5,1.4-0.1,2.8-1.5,3.6c-2.9,1.7-5.9,3.4-8.8,5.1
			c-5.9,3.4-11.7,6.8-17.6,10.1c-2.2,1.3-4.5,0.4-4.9-1.9c-0.2-1.4,0.3-2.5,1.5-3.2c8.9-5.1,17.8-10.3,26.7-15.4
			C160.2,47.2,160.8,47.1,161.1,47z"/>
		<path class="st153" d="M151,89c2.9,0,5.8,0,8.7,0c2.1,0,3.5,1.3,3.5,3.1c0,1.8-1.4,3-3.4,3c-6,0-12,0-17.9,0c-2.1,0-3.4-1.2-3.4-3
			c0-1.8,1.4-3.1,3.5-3.1C145,89,148,89,151,89z"/>
		<path class="st153" d="M26.1,95.1c-2.9,0-5.8,0-8.7,0c-2.3,0-3.7-1.2-3.7-3.1c0-1.8,1.5-3,3.8-3c5.9,0,11.7,0,17.6,0
			c2.5,0,4,2,3.2,4.1c-0.5,1.4-1.7,2-3.1,2C32.2,95.1,29.2,95.1,26.1,95.1C26.1,95.1,26.1,95.1,26.1,95.1z"/>
	</g>
</g>
</svg>
