<?xml version="1.0" encoding="UTF-8"?><svg id="a" xmlns="http://www.w3.org/2000/svg" xmlns:xlink="http://www.w3.org/1999/xlink" viewBox="0 0 187 146"><defs><style>.g{fill:#00336a;}.h{fill:#fff;filter:url(#b);}.i{filter:url(#d);}</style><filter id="b" filterUnits="userSpaceOnUse"><feOffset dx="3" dy="3"/><feGaussianBlur result="c" stdDeviation="1"/><feFlood flood-color="#000" flood-opacity=".3"/><feComposite in2="c" operator="in"/><feComposite in="SourceGraphic"/></filter><filter id="d" filterUnits="userSpaceOnUse"><feOffset dx="3" dy="3"/><feGaussianBlur result="e" stdDeviation="1"/><feFlood flood-color="#000" flood-opacity=".3"/><feComposite in2="e" operator="in"/><feComposite in="SourceGraphic"/></filter></defs><rect x="13" y="9" width="162" height="126" style="fill:#fff; filter:url(#b);"/><g id="f" style="filter:url(#d);"><g><path d="M69.56,72.3c0-12.42,0-24.84,0-37.26,0-3.14-1.61-4.75-4.7-4.77-2.51-.02-5.01-.03-7.52,0-2.79,.04-4.49,1.71-4.5,4.49-.01,24.89-.01,49.78,0,74.67,0,2.79,1.7,4.48,4.47,4.52,2.34,.03,4.69,.01,7.03,0,3.77,0,5.22-1.46,5.22-5.24,0-12.15,0-24.29,0-36.44Zm41.87-.19c0-12.36,0-24.73,0-37.09,0-3.13-1.62-4.73-4.72-4.75-2.51-.02-5.01-.03-7.52,0-2.78,.04-4.47,1.72-4.47,4.51-.01,24.89-.01,49.78,0,74.67,0,2.79,1.7,4.46,4.49,4.5,2.34,.03,4.69,.01,7.03,0,3.74,0,5.2-1.47,5.2-5.26,0-12.2,0-24.4,0-36.6Zm41.87,.07c0-12.36,0-24.73,0-37.09,0-3.22-1.6-4.8-4.82-4.81-2.34-.01-4.69-.01-7.03,0-3.28,.02-4.87,1.62-4.87,4.94,0,5.83,0,11.66,0,17.48,0,18.79,0,37.58,0,56.37,0,3.29,1.61,4.89,4.92,4.9,2.18,0,4.36,0,6.54,0,3.79,0,5.27-1.45,5.27-5.19,0-12.2,0-24.4,0-36.6Zm-117.2-.22c0,7.74,0,15.47,0,23.21,0,4.9-.03,9.81,.03,14.71,.03,2.31,1.83,4.04,4.05,4.08,2.23,.04,4.02-1.62,4.21-3.92,.05-.6,.04-1.2,.04-1.8,0-24.08,0-48.17,0-72.25,0-.65,0-1.31-.06-1.96-.2-2.01-1.73-3.54-3.71-3.74-1.94-.2-3.86,1.04-4.38,2.94-.2,.72-.19,1.51-.19,2.26-.01,12.15,0,24.3,0,36.45Zm41.87,.16c0,7.52,0,15.04,0,22.56,0,5.07-.03,10.14,.03,15.2,.03,2.32,1.83,4.04,4.05,4.09,2.23,.05,4.02-1.61,4.21-3.92,.05-.6,.04-1.2,.04-1.8,0-24.08,0-48.17,0-72.25,0-.65,0-1.31-.06-1.96-.2-2.01-1.73-3.54-3.7-3.74-1.94-.2-3.86,1.04-4.38,2.94-.2,.72-.19,1.51-.19,2.26-.01,12.21,0,24.41,0,36.62Zm41.87-.16c0,7.74,0,15.47,0,23.21,0,4.9-.03,9.81,.03,14.71,.03,2.31,1.83,4.04,4.06,4.08,2.23,.04,4.02-1.62,4.21-3.92,.05-.6,.04-1.2,.04-1.8,0-24.08,0-48.17,0-72.25,0-.65,0-1.31-.06-1.96-.2-2.01-1.73-3.54-3.71-3.74-1.94-.2-3.86,1.04-4.38,2.94-.2,.72-.19,1.51-.19,2.26-.01,12.15,0,24.3,0,36.45ZM19.36,13.56c.78,0,1.36,0,1.95,0,6.1,0,12.21,.01,18.31,0,2.94,0,4.78-1.65,4.79-4.2,0-2.55-1.84-4.21-4.77-4.21-7.96-.02-15.91-.02-23.87,0-3.18,0-4.8,1.67-4.81,4.87-.01,7.95,0,15.91,0,23.86,0,.22,0,.44,0,.65,.14,2.32,1.84,4.04,4.06,4.11,2.15,.07,3.92-1.46,4.24-3.72,.09-.64,.09-1.3,.09-1.95,0-6.37,0-12.74,0-19.39Zm150.69,0c0,.88,0,1.52,0,2.17,0,6.1-.03,12.2,.02,18.3,.02,2.77,1.82,4.64,4.25,4.61,2.39-.03,4.12-1.88,4.13-4.54,.02-8.12,.02-16.23,0-24.35,0-2.82-1.65-4.58-4.41-4.59-8.23-.05-16.46-.05-24.69,0-2.58,.01-4.32,1.77-4.35,4.13-.03,2.44,1.73,4.18,4.39,4.26,1.69,.05,3.38,.01,5.07,.01,5.11,0,10.23,0,15.59,0Zm0,117.12c-.77,0-1.36,0-1.94,0-6.21,0-12.43-.02-18.64,.01-2.61,.02-4.38,1.68-4.46,4.02-.08,2.39,1.59,4.33,4.11,4.35,8.39,.07,16.79,.07,25.18,0,2.44-.02,4.13-1.77,4.14-4.18,.05-8.39,.04-16.78,0-25.17-.01-2.22-1.59-3.83-3.72-4.08-2.62-.31-4.63,1.64-4.65,4.65-.04,5.88-.01,11.77-.01,17.65,0,.85,0,1.71,0,2.73Zm-150.69,0c0-.8,0-1.39,0-1.97,0-5.94,.02-11.87-.02-17.81,0-.91-.08-1.88-.38-2.72-.63-1.79-2.59-2.8-4.49-2.48-2.1,.35-3.5,1.97-3.51,4.26-.03,8.06-.02,16.12-.01,24.18,0,3.37,1.62,4.97,5.04,4.97,7.79,.01,15.59,0,23.38,0,.7,0,1.42-.06,2.09-.25,1.79-.5,2.91-2.03,2.94-3.87,.03-1.92-1.08-3.53-2.92-4.04-.77-.21-1.61-.25-2.42-.26-6.48-.02-12.96-.01-19.71-.01Z" style="fill:#00336a;"/><path d="M69.56,72.3c0,12.15,0,24.29,0,36.44,0,3.78-1.46,5.23-5.22,5.24-2.34,0-4.69,.03-7.03,0-2.77-.04-4.47-1.73-4.47-4.52-.01-24.89-.01-49.78,0-74.67,0-2.79,1.71-4.46,4.5-4.49,2.51-.03,5.01-.02,7.52,0,3.09,.02,4.7,1.63,4.7,4.77,.01,12.42,0,24.84,0,37.26Z" style="fill:#00336a;"/><path d="M111.43,72.11c0,12.2,0,24.4,0,36.6,0,3.79-1.46,5.25-5.2,5.26-2.34,0-4.69,.03-7.03,0-2.78-.04-4.49-1.71-4.49-4.5-.01-24.89-.01-49.78,0-74.67,0-2.79,1.7-4.48,4.47-4.51,2.51-.03,5.01-.02,7.52,0,3.1,.02,4.72,1.62,4.72,4.75,.01,12.36,0,24.73,0,37.09Z" style="fill:#00336a;"/><path d="M153.31,72.18c0,12.2,0,24.4,0,36.6,0,3.74-1.48,5.19-5.27,5.19-2.18,0-4.36,0-6.54,0-3.31-.01-4.92-1.61-4.92-4.9,0-18.79,0-37.58,0-56.37,0-5.83,0-11.66,0-17.48,0-3.32,1.59-4.93,4.87-4.94,2.34-.01,4.69-.01,7.03,0,3.22,.02,4.82,1.59,4.82,4.81,.01,12.36,0,24.73,0,37.09Z" style="fill:#00336a;"/><path d="M36.1,71.96c0-12.15,0-24.3,0-36.45,0-.76,0-1.55,.19-2.26,.52-1.9,2.43-3.14,4.38-2.94,1.97,.2,3.5,1.72,3.71,3.74,.07,.65,.06,1.31,.06,1.96,0,24.08,0,48.17,0,72.25,0,.6,0,1.2-.04,1.8-.19,2.31-1.98,3.97-4.21,3.92-2.22-.04-4.03-1.77-4.05-4.08-.06-4.9-.03-9.81-.03-14.71,0-7.74,0-15.47,0-23.21Z" style="fill:#00336a;"/><path d="M77.97,72.12c0-12.21,0-24.41,0-36.62,0-.76,0-1.55,.19-2.26,.52-1.9,2.44-3.14,4.38-2.94,1.97,.2,3.5,1.73,3.7,3.74,.06,.65,.06,1.31,.06,1.96,0,24.08,0,48.17,0,72.25,0,.6,0,1.2-.04,1.8-.19,2.31-1.99,3.97-4.21,3.92-2.22-.05-4.02-1.77-4.05-4.09-.06-5.07-.03-10.13-.03-15.2,0-7.52,0-15.04,0-22.56Z" style="fill:#00336a;"/><path d="M119.85,71.96c0-12.15,0-24.3,0-36.45,0-.76,0-1.55,.19-2.26,.52-1.9,2.44-3.14,4.38-2.94,1.97,.2,3.5,1.72,3.71,3.74,.07,.65,.06,1.31,.06,1.96,0,24.08,0,48.17,0,72.25,0,.6,0,1.2-.04,1.8-.19,2.31-1.99,3.97-4.21,3.92-2.22-.04-4.03-1.77-4.06-4.08-.06-4.9-.03-9.81-.03-14.71,0-7.74,0-15.47,0-23.21Z" style="fill:#00336a;"/><path d="M19.36,13.56c0,6.65,0,13.02,0,19.39,0,.65,0,1.31-.09,1.95-.32,2.26-2.08,3.79-4.24,3.72-2.22-.07-3.93-1.8-4.06-4.11-.01-.22,0-.44,0-.65,0-7.95,0-15.91,0-23.86,0-3.2,1.63-4.86,4.81-4.87,7.96-.02,15.91-.02,23.87,0,2.93,0,4.78,1.66,4.77,4.21,0,2.55-1.84,4.19-4.79,4.2-6.1,.02-12.21,0-18.31,0-.59,0-1.17,0-1.95,0Z" style="fill:#00336a;"/><path d="M170.05,13.56c-5.36,0-10.48,0-15.59,0-1.69,0-3.38,.04-5.07-.01-2.66-.08-4.42-1.82-4.39-4.26,.03-2.36,1.78-4.12,4.35-4.13,8.23-.04,16.46-.05,24.69,0,2.76,.02,4.4,1.78,4.41,4.59,.02,8.12,.02,16.23,0,24.35,0,2.65-1.74,4.51-4.13,4.54-2.43,.03-4.23-1.83-4.25-4.61-.05-6.1-.02-12.2-.02-18.3,0-.65,0-1.29,0-2.17Z" style="fill:#00336a;"/><path d="M170.05,130.68c0-1.02,0-1.88,0-2.73,0-5.88-.03-11.77,.01-17.65,.02-3.01,2.03-4.95,4.65-4.65,2.12,.25,3.7,1.86,3.72,4.08,.05,8.39,.05,16.78,0,25.17-.01,2.41-1.7,4.16-4.14,4.18-8.39,.07-16.79,.07-25.18,0-2.52-.02-4.19-1.96-4.11-4.35,.08-2.34,1.85-4,4.46-4.02,6.21-.04,12.43-.01,18.64-.01,.59,0,1.17,0,1.94,0Z" style="fill:#00336a;"/><path d="M19.36,130.68c6.75,0,13.23,0,19.71,.01,.81,0,1.65,.04,2.42,.26,1.85,.51,2.96,2.12,2.92,4.04-.03,1.84-1.15,3.36-2.94,3.87-.67,.19-1.39,.25-2.09,.25-7.79,.02-15.59,.02-23.38,0-3.42,0-5.04-1.6-5.04-4.97,0-8.06-.02-16.12,.01-24.18,0-2.29,1.41-3.91,3.51-4.26,1.9-.31,3.85,.69,4.49,2.48,.3,.85,.37,1.81,.38,2.72,.03,5.94,.02,11.87,.02,17.81,0,.59,0,1.18,0,1.97Z" style="fill:#00336a;"/></g></g></svg>