<svg xmlns="http://www.w3.org/2000/svg" xmlns:xlink="http://www.w3.org/1999/xlink" width="98" height="98" viewBox="0 0 98 98">
  <defs>
    <filter id="border" x="0" y="0" width="98" height="98" filterUnits="userSpaceOnUse">
      <feOffset dy="2" input="SourceAlpha"/>
      <feGaussianBlur stdDeviation="1" result="blur"/>
      <feFlood flood-opacity="0.161"/>
      <feComposite operator="in" in2="blur"/>
      <feComposite in="SourceGraphic"/>
    </filter>
    <filter id="backround" x="11.34" y="9.341" width="75.32" height="75.32" filterUnits="userSpaceOnUse">
      <feOffset input="SourceAlpha"/>
      <feGaussianBlur stdDeviation="0.5" result="blur-2"/>
      <feFlood flood-opacity="0.161"/>
      <feComposite operator="in" in2="blur-2"/>
      <feComposite in="SourceGraphic"/>
    </filter>
    <filter id="Subtraction_17" x="32.592" y="18.464" width="38.046" height="59.071" filterUnits="userSpaceOnUse">
      <feOffset dy="1" input="SourceAlpha"/>
      <feGaussianBlur stdDeviation="0.5" result="blur-3"/>
      <feFlood flood-opacity="0.161"/>
      <feComposite operator="in" in2="blur-3"/>
      <feComposite in="SourceGraphic"/>
    </filter>
    <filter id="Path_118" x="27.363" y="56.414" width="25.752" height="21.121" filterUnits="userSpaceOnUse">
      <feOffset dy="1" input="SourceAlpha"/>
      <feGaussianBlur stdDeviation="0.5" result="blur-4"/>
      <feFlood flood-opacity="0.161"/>
      <feComposite operator="in" in2="blur-4"/>
      <feComposite in="SourceGraphic"/>
    </filter>
  </defs>
  <g id="check_in" data-name="check in" transform="translate(3 1)">
    <g transform="matrix(1, 0, 0, 1, -3, -1)" filter="url(#border)">
      <g id="border-2" data-name="border" transform="translate(3 1)" fill="#fff">
        <path d="M 46.00008010864258 91.50000762939453 C 42.21954727172852 91.50000762939453 38.62399673461914 91.25877380371094 35.31331253051758 90.78300476074219 C 32.01066589355469 90.30839538574219 28.90011405944824 89.58718109130859 26.06807899475098 88.639404296875 C 24.65499496459961 88.16651153564453 23.28150177001953 87.62722015380859 21.98574829101562 87.0364990234375 C 20.69151306152344 86.44645690917969 19.4387378692627 85.78862762451172 18.26220703125 85.081298828125 C 17.08665466308594 84.37455749511719 15.95399570465088 83.59845733642578 14.89570140838623 82.7745361328125 C 13.8379373550415 81.95100402832031 12.8246898651123 81.05653381347656 11.88412570953369 80.11597442626953 C 10.94358444213867 79.17543029785156 10.04911327362061 78.16219329833984 9.225560188293457 77.10440826416016 C 8.401654243469238 76.04619598388672 7.625548839569092 74.91355133056641 6.918772220611572 73.73792266845703 C 6.211349010467529 72.56123352050781 5.553513526916504 71.30846405029297 4.96357250213623 70.01441955566406 C 4.372854709625244 68.71871185302734 3.833548784255981 67.34522247314453 3.360619306564331 65.93207550048828 C 2.412866353988647 63.10010147094727 1.691654682159424 59.98955917358398 1.217031121253967 56.68684387207031 C 0.7412429451942444 53.37626647949219 0.5000076293945312 49.78071212768555 0.5000076293945312 46.00008010864258 C 0.5000076293945312 42.21944427490234 0.7412429451942444 38.6239013671875 1.217031121253967 35.31332397460938 C 1.691642880439758 32.01066589355469 2.412854671478271 28.90011405944824 3.360619306564331 26.06807899475098 C 3.833537101745605 24.65497207641602 4.372842788696289 23.28147888183594 4.96357250213623 21.98574829101562 C 5.553501605987549 20.69172477722168 6.211325168609619 19.43894958496094 6.918772220611572 18.26220703125 C 7.62552547454834 17.08663177490234 8.401631355285645 15.95397186279297 9.225560188293457 14.89571380615234 C 10.0490550994873 13.83797264099121 10.94352531433105 12.82473659515381 11.88412570953369 11.88412570953369 C 12.82473659515381 10.94352531433105 13.83797264099121 10.0490550994873 14.89570140838623 9.225560188293457 C 15.95397186279297 8.401631355285645 17.08663177490234 7.62552547454834 18.26220703125 6.918772220611572 C 19.43894958496094 6.211325168609619 20.69172477722168 5.553501605987549 21.98574829101562 4.96357250213623 C 23.28147888183594 4.372842788696289 24.65497207641602 3.833537101745605 26.06807899475098 3.360619306564331 C 28.90011405944824 2.412854671478271 32.01066589355469 1.691642880439758 35.31331253051758 1.217031121253967 C 38.6239013671875 0.7412429451942444 42.21944427490234 0.5000076293945312 46.00008010864258 0.5000076293945312 C 49.78071212768555 0.5000076293945312 53.37626647949219 0.7412429451942444 56.68684387207031 1.217031121253967 C 59.98955917358398 1.691654682159424 63.10010147094727 2.412866353988647 65.93207550048828 3.360619306564331 C 67.34522247314453 3.833548784255981 68.71871185302734 4.372854709625244 70.01441955566406 4.96357250213623 C 71.30846405029297 5.553513526916504 72.56123352050781 6.211349010467529 73.73792266845703 6.918772220611572 C 74.91355133056641 7.625548839569092 76.04619598388672 8.401654243469238 77.10440826416016 9.22554874420166 C 78.16219329833984 10.04911327362061 79.17543029785156 10.94358444213867 80.11597442626953 11.88412570953369 C 81.05653381347656 12.8246898651123 81.95100402832031 13.8379373550415 82.7745361328125 14.89571380615234 C 83.59845733642578 15.95399570465088 84.37455749511719 17.08665466308594 85.081298828125 18.26220703125 C 85.78862762451172 19.4387378692627 86.44645690917969 20.69151306152344 87.0364990234375 21.98574829101562 C 87.62722015380859 23.28150177001953 88.16651153564453 24.65499496459961 88.639404296875 26.06807899475098 C 89.58718109130859 28.90011405944824 90.30839538574219 32.01066589355469 90.78300476074219 35.31331253051758 C 91.25877380371094 38.62399673461914 91.50000762939453 42.21954727172852 91.50000762939453 46.00008010864258 C 91.50000762939453 49.78062057495117 91.25877380371094 53.37617111206055 90.78300476074219 56.68685531616211 C 90.30835723876953 59.98960876464844 89.58715057373047 63.10014724731445 88.639404296875 65.93207550048828 C 88.16650390625 67.34518432617188 87.62720489501953 68.71868896484375 87.0364990234375 70.01441955566406 C 86.44646453857422 71.30863952636719 85.78862762451172 72.56140899658203 85.081298828125 73.7379150390625 C 84.37458038330078 74.91349029541016 83.59848022460938 76.04613494873047 82.7745361328125 77.10440826416016 C 81.95099639892578 78.16219329833984 81.05652618408203 79.17543029785156 80.11597442626953 80.11597442626953 C 79.17543029785156 81.05652618408203 78.16219329833984 81.95099639892578 77.10440826416016 82.7745361328125 C 76.04613494873047 83.59848022460938 74.91349029541016 84.37458038330078 73.73793792724609 85.08129119873047 C 72.56140899658203 85.78862762451172 71.30863952636719 86.44646453857422 70.01441955566406 87.0364990234375 C 68.71868896484375 87.62720489501953 67.34518432617188 88.16650390625 65.93207550048828 88.639404296875 C 63.10014724731445 89.58715057373047 59.98960876464844 90.30835723876953 56.68684387207031 90.78300476074219 C 53.37617111206055 91.25877380371094 49.78062057495117 91.50000762939453 46.00008010864258 91.50000762939453 Z" stroke="none"/>
        <path d="M 46.00006866455078 91.00000762939453 C 49.75691986083984 91.00000762939453 53.32854461669922 90.76048278808594 56.6157341003418 90.28809356689453 C 59.8887939453125 89.81771087646484 62.96987152099609 89.10349273681641 65.77339172363281 88.16526794433594 C 67.17019653320312 87.69780731201172 68.52729797363281 87.16497039794922 69.8070068359375 86.58154296875 C 71.08402252197266 85.99935913085938 72.31988525390625 85.35041809082031 73.48030853271484 84.65277099609375 C 74.63875579833984 83.95634460449219 75.75473022460938 83.19168090820312 76.79725646972656 82.3800048828125 C 77.83882141113281 81.56908416748047 78.83645629882812 80.68839263916016 79.76242065429688 79.76242065429688 C 80.68839263916016 78.83645629882812 81.56908416748047 77.83882141113281 82.3800048828125 76.79725646972656 C 83.19168090820312 75.75473022460938 83.95634460449219 74.63875579833984 84.65278625488281 73.48028564453125 C 85.35041809082031 72.31988525390625 85.99935913085938 71.08402252197266 86.58154296875 69.8070068359375 C 87.16497039794922 68.52729797363281 87.69780731201172 67.17019653320312 88.16526794433594 65.77339172363281 C 89.10349273681641 62.96987152099609 89.81771087646484 59.8887939453125 90.2880859375 56.6157341003418 C 90.76048278808594 53.32854461669922 91.00000762939453 49.75691986083984 91.00000762939453 46.00006866455078 C 91.00000762939453 42.24323272705078 90.76048278808594 38.6716194152832 90.2880859375 35.38444519042969 C 89.81774139404297 32.11146926879883 89.10352325439453 29.03038215637207 88.16526794433594 26.22677040100098 C 87.69782257080078 24.83002090454102 87.16498565673828 23.47291946411133 86.58154296875 22.19315719604492 C 85.99936676025391 20.91618347167969 85.35044860839844 19.68029594421387 84.65278625488281 18.51983261108398 C 83.95626831054688 17.36129570007324 83.19160461425781 16.24530792236328 82.37999725341797 15.20287036895752 C 81.56922912597656 14.16147041320801 80.68856048583984 13.16383266448975 79.76242065429688 12.2376823425293 C 78.83647155761719 11.31171989440918 77.83884429931641 10.43103218078613 76.79725646972656 9.620082855224609 C 75.75478363037109 8.808444976806641 74.6387939453125 8.043769836425781 73.48028564453125 7.34729528427124 C 72.31981658935547 6.64960765838623 71.08394622802734 6.000669956207275 69.80699157714844 5.418519973754883 C 68.52725982666016 4.835070133209229 67.17015838623047 4.302220344543457 65.77339172363281 3.834770202636719 C 62.96985626220703 2.896532535552979 59.88877105712891 2.182307720184326 56.6157341003418 1.71193265914917 C 53.32862091064453 1.239532589912415 49.75699615478516 1.000007629394531 46.00006866455078 1.000007629394531 C 42.24315643310547 1.000007629394531 38.67154693603516 1.239532589912415 35.38444519042969 1.71193265914917 C 32.11144638061523 2.182295083999634 29.03035736083984 2.896532535552979 26.22677040100098 3.834770202636719 C 24.83005714416504 4.302207469940186 23.47295761108398 4.835057735443115 22.19314575195312 5.418519973754883 C 20.91623306274414 6.000657558441162 19.68035697937012 6.649582862854004 18.51983261108398 7.34729528427124 C 17.36135673522949 8.043757438659668 16.24538230895996 8.808432579040527 15.20287036895752 9.620095252990723 C 14.1613826751709 10.43092060089111 13.16375732421875 11.31160736083984 12.2376823425293 12.2376823425293 C 11.31160736083984 13.16375732421875 10.43092060089111 14.1613826751709 9.620082855224609 15.20288276672363 C 8.808432579040527 16.24538230895996 8.043757438659668 17.36135673522949 7.34729528427124 18.51983261108398 C 6.649582862854004 19.68035697937012 6.000657558441162 20.91623306274414 5.418519973754883 22.19315719604492 C 4.835057735443115 23.47295761108398 4.302207469940186 24.83005714416504 3.834770202636719 26.22677040100098 C 2.896532535552979 29.03035736083984 2.182295083999634 32.11144638061523 1.71193265914917 35.38444519042969 C 1.239532589912415 38.67154693603516 1.000007629394531 42.24315643310547 1.000007629394531 46.00006866455078 C 1.000007629394531 49.75699615478516 1.239532589912415 53.32862091064453 1.71193265914917 56.6157341003418 C 2.182307720184326 59.88877105712891 2.896532535552979 62.96985626220703 3.834770202636719 65.77339172363281 C 4.302220344543457 67.17015838623047 4.835070133209229 68.52725982666016 5.418519973754883 69.8070068359375 C 6.000669956207275 71.08394622802734 6.64960765838623 72.31981658935547 7.347307682037354 73.48030853271484 C 8.043769836425781 74.6387939453125 8.808444976806641 75.75478363037109 9.620082855224609 76.79724884033203 C 10.43103218078613 77.83884429931641 11.31171989440918 78.83647155761719 12.23766994476318 79.76242065429688 C 13.16383266448975 80.68856048583984 14.16147041320801 81.56922912597656 15.20288276672363 82.3800048828125 C 16.24530792236328 83.19160461425781 17.36129570007324 83.95626831054688 18.51983261108398 84.65278625488281 C 19.68029594421387 85.35044860839844 20.91618347167969 85.99936676025391 22.19315719604492 86.58154296875 C 23.47291946411133 87.16498565673828 24.83002090454102 87.69782257080078 26.22677040100098 88.16526794433594 C 29.03038215637207 89.10352325439453 32.11146926879883 89.81774139404297 35.38444519042969 90.28809356689453 C 38.6716194152832 90.76048278808594 42.24323272705078 91.00000762939453 46.00006866455078 91.00000762939453 M 46.00006866455078 92.00000762939453 C 42.19578170776367 92.00000762939453 38.5762939453125 91.75705718994141 35.24219512939453 91.27792358398438 C 31.90977096557617 90.79903411865234 28.7697696685791 90.07082366943359 25.90940856933594 89.11357116699219 C 24.47977066040039 88.63511657714844 23.08987045288086 88.08937072753906 21.7783317565918 87.49144744873047 C 20.46693229675293 86.89358520507812 19.19726943969727 86.22686004638672 18.00458335876465 85.50981903076172 C 16.81183242797852 84.79274749755859 15.66250801086426 84.00519561767578 14.58855724334717 83.16905975341797 C 13.51455783843994 82.33292388916016 12.48571968078613 81.42465972900391 11.5305700302124 80.46953582763672 C 10.57546997070312 79.51443481445312 9.667220115661621 78.48558044433594 8.831032752990723 77.41158294677734 C 7.994820117950439 76.33754730224609 7.207282543182373 75.188232421875 6.490257740020752 73.99554443359375 C 5.773132801055908 72.80274200439453 5.106407642364502 71.53307342529297 4.508620262145996 70.22183227539062 C 3.910682678222656 68.91030883789062 3.364920139312744 67.52039337158203 2.886470079421997 66.09075927734375 C 1.929182648658752 63.23030853271484 1.200995087623596 60.09029388427734 0.7221076488494873 56.75798416137695 C 0.2429576367139816 53.42391967773438 7.62939453125e-06 49.804443359375 7.62939453125e-06 46.00006866455078 C 7.62939453125e-06 42.19572067260742 0.2429576367139816 38.57624435424805 0.7221076488494873 35.24219512939453 C 1.200995087623596 31.90987014770508 1.929182648658752 28.76988220214844 2.886470079421997 25.90940856933594 C 3.364920139312744 24.47977066040039 3.910682678222656 23.08987045288086 4.508620262145996 21.7783317565918 C 5.106407642364502 20.46706962585449 5.773132801055908 19.19739532470703 6.490257740020752 18.00458335876465 C 7.207307815551758 16.81187057495117 7.994857788085938 15.66255760192871 8.831032752990723 14.58855724334717 C 9.667182922363281 13.51454544067383 10.5754451751709 12.48569488525391 11.5305700302124 11.5305700302124 C 12.48569488525391 10.5754451751709 13.51454544067383 9.667182922363281 14.58855724334717 8.831032752990723 C 15.66255760192871 7.994857788085938 16.81187057495117 7.207307815551758 18.00458335876465 6.490257740020752 C 19.19739532470703 5.773132801055908 20.46706962585449 5.106407642364502 21.7783317565918 4.508620262145996 C 23.08987045288086 3.910682678222656 24.47977066040039 3.364920139312744 25.90940856933594 2.886470079421997 C 28.76988220214844 1.929182648658752 31.90987014770508 1.200995087623596 35.24219512939453 0.7221076488494873 C 38.57624435424805 0.2429576367139816 42.19572067260742 7.62939453125e-06 46.00006866455078 7.62939453125e-06 C 49.804443359375 7.62939453125e-06 53.42391967773438 0.2429576367139816 56.75798416137695 0.7221076488494873 C 60.09029388427734 1.200995087623596 63.23030853271484 1.929182648658752 66.09075927734375 2.886470079421997 C 67.52039337158203 3.364920139312744 68.91030883789062 3.910682678222656 70.22183227539062 4.508620262145996 C 71.53307342529297 5.106407642364502 72.80274200439453 5.773132801055908 73.99554443359375 6.490257740020752 C 75.188232421875 7.207282543182373 76.33754730224609 7.994820117950439 77.41158294677734 8.831032752990723 C 78.48558044433594 9.667220115661621 79.51443481445312 10.57546997070312 80.46953582763672 11.5305700302124 C 81.42465972900391 12.48571968078613 82.33292388916016 13.51455783843994 83.16905975341797 14.58855724334717 C 84.00519561767578 15.66250801086426 84.79274749755859 16.81183242797852 85.50981903076172 18.00458335876465 C 86.22686004638672 19.19726943969727 86.89358520507812 20.46693229675293 87.49144744873047 21.7783317565918 C 88.08937072753906 23.08987045288086 88.63511657714844 24.47977066040039 89.11357116699219 25.90940856933594 C 90.07082366943359 28.7697696685791 90.79903411865234 31.90977096557617 91.27792358398438 35.24219512939453 C 91.75705718994141 38.5762939453125 92.00000762939453 42.19578170776367 92.00000762939453 46.00006866455078 C 92.00000762939453 49.80438232421875 91.75705718994141 53.42387008666992 91.27792358398438 56.75798416137695 C 90.79901123046875 60.09041976928711 90.07080841064453 63.23041915893555 89.11357116699219 66.09075927734375 C 88.63511657714844 67.52039337158203 88.08937072753906 68.91030883789062 87.49144744873047 70.22183227539062 C 86.89358520507812 71.53321838378906 86.22686004638672 72.80287933349609 85.50981903076172 73.99554443359375 C 84.79278564453125 75.18828582763672 84.00523376464844 76.33759307861328 83.16905975341797 77.41158294677734 C 82.3328857421875 78.48558044433594 81.42464447021484 79.51441955566406 80.46953582763672 80.46953582763672 C 79.51441955566406 81.42464447021484 78.48558044433594 82.3328857421875 77.41158294677734 83.16905975341797 C 76.33759307861328 84.00523376464844 75.18828582763672 84.79278564453125 73.99554443359375 85.50981903076172 C 72.80287933349609 86.22686004638672 71.53321838378906 86.89358520507812 70.22183227539062 87.49144744873047 C 68.91030883789062 88.08937072753906 67.52039337158203 88.63511657714844 66.09075927734375 89.11357116699219 C 63.23041915893555 90.07080841064453 60.09041976928711 90.79901123046875 56.75798416137695 91.27792358398438 C 53.42387008666992 91.75705718994141 49.80438232421875 92.00000762939453 46.00006866455078 92.00000762939453 Z" stroke="none" fill="#cecdce"/>
      </g>
    </g>
    <g transform="matrix(1, 0, 0, 1, -3, -1)" filter="url(#backround)">
      <path id="backround-2" data-name="backround" d="M49.013,12.853a59.8,59.8,0,0,0-8.457.568,42.053,42.053,0,0,0-7.336,1.7,31.428,31.428,0,0,0-6.214,2.833,26.1,26.1,0,0,0-9.051,9.051,31.428,31.428,0,0,0-2.833,6.214,42.053,42.053,0,0,0-1.7,7.336,63.279,63.279,0,0,0,0,16.913,42.053,42.053,0,0,0,1.7,7.336,31.428,31.428,0,0,0,2.833,6.214,26.1,26.1,0,0,0,9.051,9.051A31.429,31.429,0,0,0,33.22,82.9a42.057,42.057,0,0,0,7.336,1.7,63.278,63.278,0,0,0,16.913,0,42.055,42.055,0,0,0,7.336-1.7,31.429,31.429,0,0,0,6.214-2.833,26.1,26.1,0,0,0,9.051-9.051A31.429,31.429,0,0,0,82.9,64.806a42.055,42.055,0,0,0,1.7-7.336,63.278,63.278,0,0,0,0-16.913,42.057,42.057,0,0,0-1.7-7.336,31.429,31.429,0,0,0-2.833-6.214,26.1,26.1,0,0,0-9.051-9.051,31.428,31.428,0,0,0-6.214-2.833,42.053,42.053,0,0,0-7.336-1.7A59.8,59.8,0,0,0,49.013,12.853Z" transform="translate(-0.01 -2.01)" fill="#e6fbff"/>
    </g>
    <g id="icon" transform="translate(1306.928 -12741.036)">
      <g transform="matrix(1, 0, 0, 1, -1309.93, 12740.04)" filter="url(#Subtraction_17)">
        <path id="Subtraction_17-2" data-name="Subtraction 17" d="M17.522,56.071v0c-.044-.071-4.464-7.194-8.755-15.3-2.54-4.8-4.562-9.04-6.009-12.6C.948,23.714.036,20.319.047,18.072.014,17.594,0,17.22,0,16.82A16.379,16.379,0,0,1,5.132,4.927,17.782,17.782,0,0,1,17.522,0,17.785,17.785,0,0,1,29.913,4.927,16.378,16.378,0,0,1,35.046,16.82c0,.389-.014.763-.048,1.251.022,4.011-4.731,14.129-8.722,21.912-4.3,8.377-8.709,16.011-8.753,16.087Zm0-44.857a4.673,4.673,0,1,0,4.672,4.672A4.678,4.678,0,0,0,17.523,11.215Z" transform="translate(34.09 18.96)" fill="#0094ae"/>
      </g>
      <g transform="matrix(1, 0, 0, 1, -1309.93, 12740.04)" filter="url(#Path_118)">
        <path id="Path_118-2" data-name="Path 118" d="M8.535,18.181.355,10a.5.5,0,0,1,0-.712L3.911,5.733a.5.5,0,0,1,.712,0L8.894,10l9.65-9.65a.5.5,0,0,1,.712,0l3.556,3.556a.5.5,0,0,1,0,.712L9.652,17.783a.5.5,0,0,1-.055.048l-.351.351a.5.5,0,0,1-.712,0Z" transform="translate(28.66 56.71)" fill="#dfb77b"/>
      </g>
    </g>
  </g>
</svg>
