<?xml version="1.0" encoding="UTF-8"?><svg id="Layer_1" xmlns="http://www.w3.org/2000/svg" xmlns:xlink="http://www.w3.org/1999/xlink" viewBox="0 0 142 142"><defs><filter id="drop-shadow-1" filterUnits="userSpaceOnUse"><feOffset dx="1" dy="1"/><feGaussianBlur result="blur" stdDeviation="1"/><feFlood flood-color="#494849" flood-opacity=".4"/><feComposite in2="blur" operator="in"/><feComposite in="SourceGraphic"/></filter><filter id="drop-shadow-2" filterUnits="userSpaceOnUse"><feOffset dx="2" dy="2"/><feGaussianBlur result="blur-2" stdDeviation="2"/><feFlood flood-color="#000" flood-opacity=".3"/><feComposite in2="blur-2" operator="in"/><feComposite in="SourceGraphic"/></filter></defs><path d="m69.68,137.14c44.62,0,66.92-22.31,66.92-66.92S114.29,3.29,69.68,3.29,2.76,25.04,2.76,70.21s22.31,66.92,66.92,66.92Z" style="fill:#fff; filter:url(#drop-shadow-1); stroke:#d1d1d1; stroke-miterlimit:10;"/><path d="m69.68,122.83c35.08,0,52.62-17.54,52.62-52.62s-17.54-52.62-52.62-52.62-52.62,17.1-52.62,52.62,17.54,52.62,52.62,52.62Z" style="fill:#d5e5e0;"/><path d="m36.09,92.32c2.01-2.01,4.42-4.42,6.43-6.43,1.61-1.61,3.62-2.01,5.63-1.61,5.23,1.21,7.23,6.83,3.62,10.85-2.01,2.01-4.02,4.02-6.03,6.43-1.61,2.01-1.61,3.22,0,5.23,6.43,6.43,12.86,12.46,19.29,18.89,2.01,2.01,3.62,2.01,5.63,0,5.63-5.63,10.85-11.25,16.48-16.88q0-.8.4-1.21c1.61,1.61,3.22,3.22,5.23,4.82,4.42,4.02,10.85,4.02,16.08.4,4.42-3.62,6.03-10.05,3.22-15.27-.8-1.21-1.61-2.81-2.81-4.02-1.21-1.21-2.81-2.41-4.42-4.02.4-.4.8-.4.8-.8,5.23-5.63,10.85-11.25,16.08-16.88,2.01-2.01,2.01-3.62,0-5.63-5.23-5.23-10.85-10.45-16.48-16.08-.4-.4-.8-.4-.8-.8,1.21-1.21,2.81-2.81,4.02-4.02.8-.8,1.21-1.61,2.01-2.41,3.62-5.23,2.81-12.46-2.01-16.48-4.42-4.02-12.06-4.02-16.48.4-1.61,1.61-3.22,3.62-5.23,5.23-.8-.4-.8-.8-1.21-.8-5.63-5.23-11.25-10.85-16.88-16.08q-.4-.4-.8-.8c-1.61-1.21-3.22-1.21-4.42.4-6.43,6.83-12.86,13.26-19.69,20.1-1.21,1.61-1.21,3.22,0,4.42,2.01,2.01,4.02,4.02,6.03,6.03,1.21.4,1.61.8,2.01,1.21,2.01,2.81,1.61,6.43-1.21,8.44-2.41,2.01-6.03,2.41-8.44,0-2.41-2.01-4.42-4.42-6.83-6.43-2.01-1.61-3.22-1.61-5.23,0-6.43,6.43-12.46,12.86-18.89,19.69-1.61,1.61-1.61,3.22,0,5.23,6.43,6.43,12.86,12.46,19.29,18.89,2.41,2.01,4.02,2.01,5.63,0Z" style="fill:#84bdab; filter:url(#drop-shadow-2); stroke:#77a092; stroke-miterlimit:10;"/></svg>