<?xml version="1.0" encoding="UTF-8"?><svg id="a" xmlns="http://www.w3.org/2000/svg" xmlns:xlink="http://www.w3.org/1999/xlink" viewBox="0 0 187 135"><defs><style>.d{fill:#eaeaea;}.e,.f{fill:#fff;}.g{fill:#e1c764;}.h{fill:#1d2e59;}.f{filter:url(#b);}</style><filter id="b" filterUnits="userSpaceOnUse"><feOffset dx="3" dy="3"/><feGaussianBlur result="c" stdDeviation="1"/><feFlood flood-color="#000" flood-opacity=".3"/><feComposite in2="c" operator="in"/><feComposite in="SourceGraphic"/></filter></defs><path d="M175.25,4H9.75c-3.17,0-5.75,2.57-5.75,5.75V123.25c0,3.17,2.57,5.75,5.75,5.75H175.25c3.17,0,5.75-2.57,5.75-5.75V9.75c0-3.17-2.57-5.75-5.75-5.75Z" style="fill:#fff; filter:url(#b);"/><rect x="4" y="4" width="177" height="125" rx="5.75" ry="5.75" style="fill:#fff;"/><g><path d="M181,9.75c0-3.17-2.57-5.75-5.75-5.75H9.75c-3.17,0-5.75,2.57-5.75,5.75v8.25H181V9.75Z" style="fill:#e1c764;"/><path d="M4,123.25c0,3.17,2.57,5.75,5.75,5.75H175.25c3.17,0,5.75-2.57,5.75-5.75v-2.25H4v2.25Z" style="fill:#eaeaea;"/><rect x="4" y="18" width="177" height="103" style="fill:#fff;"/></g><rect x="20" y="30" width="22" height="29" rx="2.57" ry="2.57" style="fill:#1d2e59;"/><rect x="46" y="30" width="22" height="29" rx="2.57" ry="2.57" style="fill:#1d2e59;"/><rect x="72" y="30" width="22" height="29" rx="2.57" ry="2.57" style="fill:#1d2e59;"/><rect x="20" y="64" width="148" height="9" rx="4.5" ry="4.5" style="fill:#1d2e59;"/><rect x="20" y="80" width="148" height="9" rx="4.5" ry="4.5" style="fill:#1d2e59;"/><rect x="20" y="96" width="148" height="9" rx="4.5" ry="4.5" style="fill:#1d2e59;"/><circle cx="168.5" cy="11.5" r="1.5" style="fill:#1d2e59;"/><circle cx="162.5" cy="11.5" r="1.5" style="fill:#1d2e59;"/><circle cx="156.5" cy="11.5" r="1.5" style="fill:#1d2e59;"/></svg>