<?xml version="1.0" encoding="utf-8"?>
<!-- Generator: Adobe Illustrator 27.4.0, SVG Export Plug-In . SVG Version: 6.00 Build 0)  -->
<svg version="1.1" id="Layer_1" xmlns="http://www.w3.org/2000/svg" xmlns:xlink="http://www.w3.org/1999/xlink" x="0px" y="0px"
	 viewBox="0 0 142 142" style="enable-background:new 0 0 142 142;" xml:space="preserve">
<style type="text/css">
	.st0{fill:#C9A036;}
	.st1{fill:#FFD65E;}
	.st2{fill:#FFE495;}
	.st3{fill:#FFFFFF;}
	.st4{fill:none;stroke:#D1D1D1;stroke-miterlimit:10;}
	.st5{fill:#254AB1;stroke:#D1D1D1;stroke-miterlimit:10;}
</style>
<path class="st1" d="M73.8,15.5l12.1,35.3h37.9c5.2,0,7.8,6.9,3.4,9.5L97.1,82.7l12.1,36.2c1.7,5.2-4.3,9.5-8.6,6l-31.9-22.4
	l-30.1,22.4c-4.3,3.4-10.3-0.9-8.6-6L42,83.5L11.8,61.1c-4.3-3.4-1.7-9.5,3.4-9.5h37.9l10.3-36.2C65.2,10.3,73,10.3,73.8,15.5z"/>
<g>
	<path class="st1" d="M73.8,15.5l12.1,35.3h37.9c5.2,0,7.8,6.9,3.4,9.5L97.1,82.7l12.1,36.2c1.7,5.2-4.3,9.5-8.6,6l-31.9-22.4
		l-30.1,22.4c-4.3,3.4-10.3-0.9-8.6-6L42,83.5L11.8,61.1c-4.3-3.4-1.7-9.5,3.4-9.5h37.9l10.3-36.2C65.2,10.3,73,10.3,73.8,15.5z"/>
	<path class="st0" d="M35.1,128.1c-1.5,0-3-0.5-4.3-1.4c-2.8-1.9-3.9-5.3-2.8-8.5l11.6-33.9l-29-21.5C8,60.6,7,57.5,8,54.6
		c1.1-3,3.9-4.9,7.2-4.9h36.4l9.9-34.7c1.1-3.4,4.4-5.6,8-5.3c3.2,0.2,5.6,2.3,6.2,5.3l11.5,33.8h36.5c3.4,0,6.4,2.3,7.3,5.7
		c0.8,3-0.3,5.9-2.8,7.4L99.5,83.4l11.6,34.8c1.1,3.2,0,6.6-2.8,8.5c-2.8,1.9-6.2,1.8-8.9-0.3l-30.6-21.5l-29,21.5
		C38.4,127.6,36.7,128.1,35.1,128.1z M15.3,53.6c-2,0-3.1,1.2-3.4,2.3c-0.5,1.3,0,2.6,1.3,3.6l31.3,23.2l-12.5,36.7
		c-0.6,1.8,0.3,3.3,1.3,4c1,0.7,2.6,1,4.1-0.2L68.6,100l33.2,23.3c1.5,1.2,3.1,0.9,4.1,0.2c1-0.7,1.9-2.2,1.3-4L94.7,81.9l31.5-23.4
		c1.5-0.9,1.2-2.4,1.1-3c-0.4-1.3-1.6-2.8-3.5-2.8H84.5l-12.6-37c-0.3-1.8-1.9-2.1-2.6-2.2c-1.5-0.1-3.3,0.6-3.9,2.5L54.7,53.6H15.3
		z"/>
</g>
<polygon class="st2" points="73,37 80,57 104.5,57 98,64 76.1,64 69,42 "/>
</svg>
