<?xml version="1.0" encoding="UTF-8"?><svg id="a" xmlns="http://www.w3.org/2000/svg" xmlns:xlink="http://www.w3.org/1999/xlink" viewBox="0 0 187 206"><defs><style>.d{fill:#f8fafb;}.e{fill:#b6c3d0;}.f{fill:#e1c764;}.g{fill:#38485c;}.h{fill:#586472;}.i{filter:url(#b);}</style><filter id="b" filterUnits="userSpaceOnUse"><feOffset dx="3" dy="3"/><feGaussianBlur result="c" stdDeviation="1"/><feFlood flood-color="#000" flood-opacity=".3"/><feComposite in2="c" operator="in"/><feComposite in="SourceGraphic"/></filter></defs><g style="filter:url(#b);"><g><rect x="117.54" y="102.32" width="18" height="70" transform="translate(-58.85 114.97) rotate(-40.47)" style="fill:#586472;"/><path d="M137.89,138.09h29.44v45.44c0,7.8-6.34,14.14-14.14,14.14h-1.16c-7.8,0-14.14-6.34-14.14-14.14v-45.44h0Z" transform="translate(-72.45 139.19) rotate(-40.47)" style="fill:#38485c;"/><path d="M142.43,143.41h29.44v45.44c0,7.8-6.34,14.14-14.14,14.14h-1.16c-7.8,0-14.14-6.34-14.14-14.14v-45.44h0Z" transform="translate(-74.82 143.42) rotate(-40.47)" style="fill:#e1c764;"/></g><circle cx="76.25" cy="78.36" r="72" transform="translate(-29.47 50.48) rotate(-31.01)" style="fill:#38485c;"/><circle cx="76.25" cy="78.36" r="63.3" transform="translate(-29.47 50.48) rotate(-31.01)" style="fill:#b6c3d0;"/><circle cx="76.25" cy="78.36" r="60.89" transform="translate(-27.46 43.75) rotate(-27.33)" style="fill:#f8fafb;"/></g></svg>