<?xml version="1.0" encoding="UTF-8"?><svg xmlns="http://www.w3.org/2000/svg" xmlns:xlink="http://www.w3.org/1999/xlink" viewBox="0 0 146 168"><defs><style>.ag{fill:none;}.ah{fill:url(#u);}.ah,.ai,.aj,.ak,.al,.am,.an,.ao,.ap,.aq,.ar,.as,.at,.au,.av,.aw,.ax,.ay,.b`,.ba,.bb,.bc,.bd,.be,.bf,.bg,.bh,.bi,.bj,.bk,.bl,.bm,.bn,.bo{fill-rule:evenodd;}.ai{fill:url(#v);}.aj{fill:url(#p);}.ak{fill:url(#e);}.al{fill:url(#g);}.am{fill:url(#m);}.an{fill:url(#h);}.ao{fill:url(#i);}.ap{fill:url(#k);}.aq{fill:url(#o);}.ar{fill:url(#q);}.as{fill:url(#s);}.at{fill:url(#w);}.au{fill:url(#a`);}.av{fill:url(#ab);}.aw{fill:url(#ac);}.aw,.ax,.ay,.b`,.ba,.bb,.bc,.bd,.be,.bf{mix-blend-mode:multiply;}.aw,.ax,.b`,.ba,.bb{opacity:.5;}.ax{fill:url(#aa);}.bp{fill:#80cdd4;}.bq{fill:#bababa;}.br{fill:#112d5f;}.bs{fill:#8466d1;}.bt{filter:url(#b);}.bt,.bu,.bl{fill:#fff;}.bu{filter:url(#ae);stroke:#d3d3d3;stroke-miterlimit:10;}.ay{fill:url(#f);opacity:.3;}.b`{fill:url(#n);}.ba{fill:url(#l);}.bb{fill:url(#t);}.bc{fill:url(#j);}.bc,.bd,.be,.bf{opacity:.35;}.bd{fill:url(#r);}.be{fill:url(#y);}.bf{fill:url(#x);}.bg{fill:#593a37;}.bh{fill:#7165ff;}.bi{fill:#260040;}.bj{fill:#ff7c72;}.bk{fill:#ff9f00;}.bm{fill:#fdca17;}.bn{fill:#ec9d00;}.bo{fill:#00aaf6;}.bv{clip-path:url(#d);}.bw{isolation:isolate;}</style><filter id="b" filterUnits="userSpaceOnUse"><feOffset dx="7" dy="7"/><feGaussianBlur result="c" stdDeviation="5"/><feFlood flood-color="#000" flood-opacity=".15"/><feComposite in2="c" operator="in"/><feComposite in="SourceGraphic"/></filter><clipPath id="d"><rect x="40.81" y="27.07" width="64.7" height="64.7" transform="translate(3.29 -3.84) rotate(3.08)" style="fill:none;"/></clipPath><linearGradient id="e" x1="50.23" y1="124.41" x2="78.76" y2="192.89" gradientTransform="matrix(1, 0, 0, 1, 0, 0)" gradientUnits="userSpaceOnUse"><stop offset="0" stop-color="#005da2"/><stop offset="1" stop-color="#00397a"/></linearGradient><linearGradient id="f" x1="41.43" y1="129.39" x2="90.45" y2="190.69" xlink:href="#e"/><linearGradient id="g" x1="68.24" y1="114.11" x2="97.56" y2="186.76" xlink:href="#e"/><linearGradient id="h" x1="12.23" y1="58.12" x2="9.74" y2="62.96" gradientTransform="matrix(1, 0, 0, 1, 0, 0)" gradientUnits="userSpaceOnUse"><stop offset="0" stop-color="#ffaf92"/><stop offset="1" stop-color="#ff9c8f"/></linearGradient><linearGradient id="i" x1="39.53" y1="71.97" x2="43.02" y2="91.52" gradientTransform="matrix(1, 0, 0, 1, 0, 0)" gradientUnits="userSpaceOnUse"><stop offset="0" stop-color="#ffcb12"/><stop offset="1" stop-color="#ffb500"/></linearGradient><linearGradient id="j" x1="39.38" y1="68.82" x2="39.96" y2="95.2" xlink:href="#i"/><linearGradient id="k" x1="86.66" y1="108.52" x2="81.02" y2="95.77" gradientTransform="matrix(1, 0, 0, 1, 0, 0)" gradientUnits="userSpaceOnUse"><stop offset="0" stop-color="#0088f6"/><stop offset="1" stop-color="#00ccda"/></linearGradient><linearGradient id="l" x1="86.67" y1="108.53" x2="81.02" y2="95.78" xlink:href="#k"/><linearGradient id="m" x1="46.56" y1="80.85" x2="75.68" y2="118.21" xlink:href="#i"/><linearGradient id="n" x1="46.73" y1="109.75" x2="56.54" y2="117.73" xlink:href="#i"/><linearGradient id="o" x1="70.26" y1="33.02" x2="69.56" y2="39.82" gradientTransform="matrix(1, 0, 0, 1, 0, 0)" gradientUnits="userSpaceOnUse"><stop offset="0" stop-color="#61286b"/><stop offset="1" stop-color="#260040"/></linearGradient><linearGradient id="p" x1="63.88" y1="47.49" x2="73.08" y2="46.33" gradientTransform="matrix(1, 0, 0, 1, 0, 0)" gradientUnits="userSpaceOnUse"><stop offset="0" stop-color="#a26a59"/><stop offset="1" stop-color="#754848"/></linearGradient><linearGradient id="q" x1="78.95" y1="34.14" x2="82.29" y2="118.43" xlink:href="#i"/><linearGradient id="r" x1="98.56" y1="84.34" x2="75.36" y2="115.63" xlink:href="#i"/><linearGradient id="s" x1="78.81" y1="115" x2="66.8" y2="91.8" gradientTransform="matrix(1, 0, 0, 1, 0, 0)" gradientUnits="userSpaceOnUse"><stop offset="0" stop-color="#7165ff"/><stop offset="1" stop-color="#00abf7"/></linearGradient><linearGradient id="t" x1="79.74" y1="114.64" x2="70.05" y2="107.33" xlink:href="#s"/><linearGradient id="u" x1="65.51" y1="106.16" x2="67.92" y2="111.89" xlink:href="#h"/><linearGradient id="v" x1="68.4" y1="112.89" x2="66.7" y2="109.83" gradientTransform="matrix(1, 0, 0, 1, 0, 0)" gradientUnits="userSpaceOnUse"><stop offset="0" stop-color="#ff7d72"/><stop offset="1" stop-color="#ff9c8f"/></linearGradient><linearGradient id="w" x1="78.41" y1="56.31" x2="88.19" y2="105.66" xlink:href="#i"/><linearGradient id="x" x1="91.21" y1="78.37" x2="84.23" y2="108.61" xlink:href="#i"/><linearGradient id="y" x1="86.92" y1="37.71" x2="87.41" y2="84.06" xlink:href="#i"/><linearGradient id="a`" x1="86.02" y1="105.51" x2="88.26" y2="81.11" xlink:href="#k"/><linearGradient id="aa" x1="87.59" y1="105.78" x2="89.35" y2="81.37" xlink:href="#k"/><linearGradient id="ab" x1="50.4" y1="101.06" x2="53.61" y2="77.72" xlink:href="#k"/><linearGradient id="ac" x1="48.64" y1="103.11" x2="50.05" y2="89.58" xlink:href="#k"/><filter id="ae" filterUnits="userSpaceOnUse"><feOffset dx="7" dy="7"/><feGaussianBlur result="af" stdDeviation="5"/><feFlood flood-color="#000" flood-opacity=".1"/><feComposite in2="af" operator="in"/><feComposite in="SourceGraphic"/></filter></defs><g style="isolation:isolate;"><g id="a"><g><g><rect x="18.68" y="14.57" width="107.55" height="137.77" rx="7.38" ry="7.38" transform="translate(4.58 -3.77) rotate(3.08)" style="fill:#fff; filter:url(#b);"/><path d="M30.54,14.63H117.88c5.77,0,10.46,4.69,10.46,10.46v48.67H20.79V24.38c0-5.38,4.37-9.75,9.75-9.75Z" transform="translate(2.48 -3.94) rotate(3.08)" style="fill:#8466d1;"/><g style="clip-path:url(#d);"><rect x="38.48" y="25.67" width="75.13" height="76.7" transform="translate(3.55 -3.99) rotate(3.08)" style="fill:#80cdd4;"/><g><g><path d="M48.22,112.08c-.91,5.45-1.21,10.65-1.13,17.43,.29,25.48,4.26,52.27,7.98,77.9,3.63,1.39,5.48,1.32,8.5,.07,.44-14.74,1.88-28.03,2.65-42.6,.97-18.34,3.28-32.7,7.46-55.58l-17.21-.58-8.24,3.36Z" style="fill:url(#e); fill-rule:evenodd;"/><path d="M47.03,124.63c1.29,4.41,10.91,4.8,11.28,10.92,1.54,25.53,2.03,45.87,5.27,71.93,.44-14.74,1.88-28.03,2.65-42.6,.85-16.07,2.73-29.07,5.99-47.42l-25.18,7.17Z" style="fill:url(#f); fill-rule:evenodd; mix-blend-mode:multiply; opacity:.3;"/><path d="M82.29,113.98c1.36,4.12,3.15,7.24,5.03,15.67,.98,4.4,.13-.22,2.19,12.91,2.07,13.13,7.54,43.49,11.37,65.41-2.85,.7-5.91,.78-8.07,.02-14.15-32.2-28.02-66.7-39.55-99.84l29.03,5.83Z" style="fill:url(#g); fill-rule:evenodd;"/></g><path d="M61.77,60.67c-1.18,4.35,1.91,3.3,2.44,3.88,.52,.58,4.87,.17,5.45-.66,.58-.83,4.71-6.44,4.71-7.02s3.2-16.31-.21-22.27c-2.94-5.14-7.02-5.26-9.38-3.78-1.3,.82-4.46,3.02-5.25,4.82-3.38,7.69,3.41,20.68,2.24,25.03Z" style="fill:#ff9f00; fill-rule:evenodd;"/><g><g><path d="M20.19,62.4c-.22-2.91-1.11-3.09-4.89-5.52-.79-.51-1.54-1.19-3.28-3.19-1.21,1-.3,2.07,.52,3.54,.4,.72,.83,1.7,1,2.46-3.41-.21-4.56-.85-5.36-1.74-3.98-4.44-4.7-5.26-9.95-5.25,2.45,3.18,4.29,5.23,5.57,8.57,.79,2.05,.62,1.89,2.04,2.54,1.92,.88,3.56,1.8,5.37,2.68,4.03,1.97,3.93,2.98,6.54,6.68l4.99-2.85c-1.76-3.74-2.25-3.78-2.56-7.92Z" style="fill:url(#h); fill-rule:evenodd;"/><path d="M17.95,65.42c-1.92-4.55-3.54-4.84-9.23-6.47l-3.14,1.9,2.68-1.01c3.92,1.86,7.7,1.64,9.7,5.59Z" style="fill:#ff7c72; fill-rule:evenodd;"/></g><path d="M59.46,60.18c-11.4,3.68-14.93,19.92-20.95,19.67-5.3-.23-10.1-4.64-16.96-14.5-1.74-.07-4.98,2.15-6.38,4.92,4.84,8.46,11.76,23.91,22.68,24.27,5.65,.19,14.43-4.33,19.68-11.16,8.93-11.62,6.25-11.44,1.93-23.19Z" style="fill:url(#i); fill-rule:evenodd;"/><path d="M54.21,63.75c-6.47,9.98-3.96,24.86-15.85,27.19-3.09,.61-8.97-1.67-16.53-9,4.13,6.48,9.33,12.38,16.02,12.6,5.65,.19,14.43-4.33,19.68-11.16l-3.32-19.63Z" style="fill:url(#j); fill-rule:evenodd; mix-blend-mode:multiply; opacity:.35;"/></g><path d="M83.41,80.06c.11,11.07,1.17,32.48,2.63,44.3-12.04,2.58-27.59,4.52-39.22,.55,.22-10.65,2.52-44.96,4.88-55.29,1.21-5.31,4.17-8.55,8.43-9.79,3.05-.89,6.41-1.26,9.82-1.12,7.47,.3,15.93,2.36,21.26,8.85,6.74,7.45-1.29,18.7-7.81,12.5Z" style="fill:#fff; fill-rule:evenodd;"/><path d="M61.82,60.08l.12-.7c1.19-1.45,3.45-1.77,4.77-1.6,.66,.09,.48,2.09-.39,2.28-1.81,.4-2.68,.66-4.14,5.72,.21-3.19,.66-2.47-.37-5.7Z" style="fill:#ff9f00; fill-rule:evenodd;"/><g><path d="M75.02,53.52c.12,2.29,.25,4.06,.66,6.31-.99,3.47-4.23,5.74-7.44,5.31-2.77-.37-3.5-4.12-2.55-6.44,.14-1.13,.19-2.08,.22-3.21l7-2.04,2.12,.07Z" style="fill:#593a37; fill-rule:evenodd;"/><path d="M75.04,52.93c.05,.78,.14,2.15,.18,2.74,0,.07,0,.13-.04,.2-2.02,4.08-7.43,5-9.48,3.11-.09-.08-.13-.2-.11-.32,.12-1.06,.26-2.73,.31-3.83,0-.16,.11-.29,.27-.34l6.69-1.95s.08-.02,.12-.01l1.72,.06c.19,0,.35,.15,.36,.34Z" style="fill:#593a37; fill-rule:evenodd;"/></g><path d="M95.9,107.26c.12,7.68-5.13,13.54-13.74,12.62l-12.15-19.15c5.46-8.32,7.11-21.53,11.85-21.67,7.92-.23,13.93,21.07,14.04,28.2Z" style="fill:url(#k); fill-rule:evenodd;"/><path d="M90.35,118.3c-2.18,1.31-4.95,1.93-8.19,1.58l-12.15-19.15c5.46-8.32,7.11-21.53,11.85-21.67,7.59-.22,13.42,19.31,14,27.22-3.54,4.46-4.45,6.87-5.5,12.02Z" style="fill:url(#l); fill-rule:evenodd; mix-blend-mode:multiply; opacity:.5;"/><path d="M62.1,59.31c-4.33,.82-6.49,2.54-8.47,5.3-.67,.94-1.3,2.52-1.84,4.55-1.83,6.99-2.84,19.2-3.42,27.77-.26,3.85-.43,7.53-1.5,10.52-1.73,4.86-2.23,8.46-.18,11.52-.05,.3-.22,1.14-.28,1.44,.56,2.25,1.86,4.68,4.04,6.35l.39-1.67c4.76-2.38,6.89-22.9,7.07-29.6,.18-6.82,5.3-30.53,4.18-36.19Z" style="fill:url(#m); fill-rule:evenodd;"/><path d="M47.03,119.32c2.21,2.38,3.43,4.05,4.91,1.21,3.28-6.29,4.73-13.19,5.29-16.25-.37,3.51-1.55,11.67-3.51,16.75-.77,1.99-1.67,3.45-2.88,4.05l-.37,1.67c-.4-.24-1.03-.93-1.55-1.47l.66-1.21c-1.19-1.77-1.54-2.45-2.54-4.77Z" style="fill:url(#n); fill-rule:evenodd; mix-blend-mode:multiply; opacity:.5;"/><g><path d="M75.25,50.43c1.81,.36,2.28-.25,2.71-1.46,.44-1.25,.41-.9,1.18-1.85,.38-.46,.63-.91,.81-1.37,.6-1.53,.27-2.47,.3-3.65,.04-1.47,.68-2.02,.95-2.97,1.31-4.59-2.62-8.64-6.96-6.56-1.54-2.82-4.02-2.9-6.28-1.62-1.75-1.08-4.44-.38-8.03-1.68-2.11,2.32-2.07,7.89,2.26,10.73,.3,.2,.59,.41,.9,.55l7.54,5.45,4.6,4.44Z" style="fill:url(#o); fill-rule:evenodd;"/><path d="M75.25,50.43c1.81,.36,2.28-.25,2.71-1.46,.44-1.25,.41-.9,1.18-1.85,.38-.46,.63-.91,.81-1.37,.6-1.53,.27-2.47,.3-3.65v-.05c-1.14,1.93-3.54,2.28-3.74-.44-1.18-.95-1.94-2.12-2.09-3.48-.2-1.73-7.84-8.44-9.78-7.91,2.89,2.27,5.19,5.18,3.94,5.99-2.97,1.92-6.58,2.31-9.61-.61,.26,2.26,2.64,4.26,4.14,4.94l7.54,5.45,4.6,4.44Z" style="fill:#260040; fill-rule:evenodd;"/><g><path d="M62.21,40c-.37,4.69-1.15,9.5,.64,13.97,.65,1.63,1.7,2.64,4.23,2.12,1.76-.36,3.59-1.15,5.22-1.8,2.47-.98,2.12-1.97,2.55-2.83,.17-.34,.44-.72,.82-1.16,.98-1.13,2.61-1.81,2.69-3.42,.07-1.48-1.04-2.29-1.62-1.27-.81,1.42-2.65,3.8-1.21-3.68-1.49-1.15-1.77-1.6-2.16-2.82-.38-1.2-.79-2.14-2.22-1.39-2.95,1.54-5.49,3.04-8.92,2.29Z" style="fill:url(#p); fill-rule:evenodd;"/><path d="M62.21,40c-.04,.46-.08,.92-.12,1.38,4.55,.82,6.85-1.17,9.78-2.99,1.03,1.8,1.29,2.32,2.77,3.78-.04,.52-.61,3.4-.25,4.82,.29,1.16,.91,1,1.58,.3,.45-.47,1.45-2.57,2.28-1.23-.28-.91-1.07-1.25-1.53-.45-.81,1.42-2.65,3.8-1.21-3.68-1.49-1.15-1.77-1.6-2.16-2.82-.38-1.2-.79-2.14-2.22-1.39-2.95,1.54-5.49,3.04-8.92,2.29Z" style="fill:#593a37; fill-rule:evenodd;"/></g></g><path d="M61.33,71.65c.62-1.67,1.01-5.07,1.23-7.9,.14-1.83-.28-4.75-1.12-8.28-1.98-8.33-2.71-12.7-1.83-18.06-.26-.68-.38-.94-.56-1.27-1.76,7.47-.47,12.71,1.43,20.85,.84,3.6,.77,11.27,.86,14.66Z" style="fill:#fdca17; fill-rule:evenodd;"/><path d="M65.94,98.82c-.23,11.52,2.53,20.64,8.2,26.13l.79,1.74c4.41-.06,10.17-2.38,13.21-4.58l-.18-1.73c4.54-5.74-1.24-14.72-1.56-28.19-.06-2.62,.32-7.09,1.84-9.03,3.63-4.63,10.23-5.65,7.23-10.79-1.97-3.38-4.96-6.92-8.24-9.15-9.32-6.34,2.8-5.9,2.68-14.2-.21-13.99-10.57-22.26-24.22-18.72,12.16,4.51,9.35,23.25,6.01,34.88-2.48,8.63-5.58,25.24-5.75,33.64Z" style="fill:url(#q); fill-rule:evenodd;"/><path d="M70.41,70.13c1.38-1.39,2.55-2.96,3.09-5.66,2.99-14.7,4.79-31.52-7.82-34.17,12.16,4.51,9.35,23.25,6.01,34.88-.45,1.65-.87,3.29-1.28,4.95Z" style="fill:#fdca17; fill-rule:evenodd;"/><path d="M81.47,110.63c0,8.79-14.58,4.28-10.87,9.77,3.13-.29,10.07-1.08,12.91-.98,1.13,.04,1.01,.98,.3,1.56-1.66,1.35-6.33,2.88-8.64,3.51,3.94-.35,5.26-1.06,8.79-2.2,.95-.31,1.48,.33,1.77,1.29,.91-.48,1.73-.98,2.42-1.48l-.18-1.73c4.54-5.74-1.24-14.72-1.56-28.19-.04-1.85,.14-4.61,.78-6.77-.52-1.6-1.57-5.28-1.87-6.93-5.07,9.86-3.85,21.18-3.85,32.13Z" style="fill:url(#r); fill-rule:evenodd; mix-blend-mode:multiply; opacity:.35;"/><g><g><g><path d="M72.65,64.16c.36,0,.65,.29,.65,.65s-.29,.65-.65,.65-.65-.29-.65-.65,.29-.65,.65-.65Z" style="fill:#ec9d00; fill-rule:evenodd;"/><path d="M72.27,64.69c.11-.2,.35-.27,.55-.16,.2,.11,.27,.35,.16,.55-2.28,4.21-2.46,7.38-2.73,11.93-.18,2.98-.39,6.54-1.23,11.33-.04,.22-.25,.37-.47,.33-.22-.04-.37-.25-.33-.47,.83-4.76,1.04-8.29,1.22-11.24,.28-4.65,.47-7.9,2.83-12.27Z" style="fill:#7165ff; fill-rule:evenodd;"/></g><path d="M68.84,86.74h0c.28,.04,.47,.29,.43,.57l-.23,1.72c-.04,.28-.29,.47-.57,.43h0c-.28-.04-.47-.29-.43-.57l.23-1.72c.04-.28,.29-.47,.57-.43Z" style="fill:#00aaf6; fill-rule:evenodd;"/></g><g><g><path d="M61.79,61.52c.36,0,.65,.29,.65,.65s-.29,.65-.65,.65-.65-.29-.65-.65,.29-.65,.65-.65Z" style="fill:#ec9d00; fill-rule:evenodd;"/><path d="M61.43,62.26c-.04-.22,.1-.43,.32-.47,.22-.04,.43,.1,.47,.32,.79,4.11,.24,7.63-.39,11.7-.59,3.76-1.25,7.98-.96,13.56,.01,.22-.16,.41-.39,.42-.22,.01-.41-.16-.42-.39-.29-5.65,.38-9.92,.97-13.72,.62-3.99,1.16-7.45,.4-11.43Z" style="fill:#7165ff; fill-rule:evenodd;"/></g><path d="M60.39,85.47h0c-.28,.02-.49,.26-.48,.53l.1,1.73c.02,.28,.26,.49,.53,.48h0c.28-.02,.49-.26,.48-.53l-.1-1.73c-.02-.28-.26-.49-.53-.48Z" style="fill:#00aaf6; fill-rule:evenodd;"/></g></g><g><g><path d="M57.62,86.18l21.52-4.53c.88-.18,1.74,.41,1.91,1.29l6,31.46c.17,.88-.41,1.73-1.29,1.91l-21.52,4.53c-.88,.18-1.74-.41-1.91-1.29l-6-31.46c-.17-.88,.41-1.73,1.29-1.91Z" style="fill:url(#s); fill-rule:evenodd;"/><path d="M84.97,103.48l1.73,9.08c-3.93,.32-9.06,.94-12.91,1.88-2.15,1.59-4.92,2.63-12.11,1.68l-1.09-5.73,5.68,.08,18.7-6.99Z" style="fill:url(#t); fill-rule:evenodd; mix-blend-mode:multiply; opacity:.5;"/></g><g><path d="M59.72,109.23c.42,2.54,.65,3.87,1.14,4.24,1.22,.95,6.03,.7,8.54,.33,2.23-.33,3.17-3.07,4.77-3.18,.92-2.17-1.2-4.87-2.4-6.57-3.33,1.26-9.08-.52-11.88,.33-1.7,.52-.39,3.53-.17,4.85Z" style="fill:url(#u); fill-rule:evenodd;"/><path d="M60.07,111.21c.24,1.27,.46,2,.79,2.26,1.22,.95,6.03,.7,8.54,.33,2.23-.33,3.17-3.07,4.77-3.18,.92-2.17-.11,.09-1.31-1.61-3.61,2.91-7.64,2.17-12.8,2.2Z" style="fill:url(#v); fill-rule:evenodd;"/></g><g><path d="M81.51,80.7c3.67,5.02,7.82,8.27,6.85,11.39-1.57,5.03-7.02,7.94-18.24,12-.51,1.66,.73,5.67,3.03,7.72,9.36-2.49,25.96-5.2,29.1-15.59,3.57-11.81-6.73-30.41-17.32-34.65-2.99-1.2-6.72,14.6-3.41,19.13Z" style="fill:url(#w); fill-rule:evenodd;"/><path d="M73.58,102.82c-1.1,.41-2.26,.83-3.46,1.27-.51,1.66,.73,5.67,3.03,7.72,9.36-2.49,25.96-5.2,29.1-15.59-5.42,8.9-24.45,13.69-28.66,6.6Z" style="fill:url(#x); fill-rule:evenodd; mix-blend-mode:multiply; opacity:.35;"/></g></g><path d="M101.46,82.17c-2.87-8.9-9.43-17.54-16.17-20.45-5.36-4.83,4.74-5.12,4.63-12.7-.15-10.05-5.53-17.14-13.61-19.03,4.37,2.61,7.83,6.86,9.07,11.55,.95,3.57,.79,10.07-2.67,13.58-1.69,1.71-7.47,4.9-9.6,6.17,13.77-.43,22.43,9.87,28.35,20.88Z" style="fill:url(#y); fill-rule:evenodd; mix-blend-mode:multiply; opacity:.35;"/><g><path d="M85.55,61.51c-4.71,9.58-6.11,24.36-2.37,36.73,1.65-1.07,2.9-2.19,3.8-3.44-3.2-10.39-2.34-23.33,1.17-32.01-.61-.45-1.84-1.08-2.61-1.28h0Zm2.02,46.38c.84,1.29,1.76,2.52,2.77,3.66l2.91-5.53c-.11-.11-.21-.22-.32-.34-1.69,.84-3.51,1.57-5.37,2.21Z" style="fill:url(#a`); fill-rule:evenodd;"/><path d="M87.57,107.89c.84,1.29,1.76,2.52,2.78,3.65l2.91-5.53c-.11-.11-.21-.22-.32-.34-1.7,.84-3.51,1.57-5.37,2.21h0Zm-.58-13.09c-3.2-10.39-2.34-23.33,1.17-32.01l-.09-.05c-5.86,9.82-4.65,24.58-2.25,33.41,.44-.44,.83-.88,1.17-1.35Z" style="fill:url(#aa); fill-rule:evenodd; mix-blend-mode:multiply; opacity:.5;"/></g><g><path d="M56.56,61.37c-3.32,6.21-7.97,24.69-7.99,29.6,0,2.67-.56,9.56-1.18,15.07,4.47-11.54,7.1-34.93,11.99-46.04,.07-.17-2.33,.84-2.83,1.36Z" style="fill:url(#ab); fill-rule:evenodd;"/><path d="M50.82,79.16c-1.1,4.48-2.26,9.21-2.27,12.02,0,2.67-.62,9.32-1.16,14.87,1.46-4.11,2.74-8.86,3.76-13.65-2.61,4.94-.25-11.48-.34-13.24Z" style="fill:url(#ac); fill-rule:evenodd; mix-blend-mode:multiply; opacity:.5;"/></g></g></g></g><g id="ad"><g><path d="M64.91,113.73c.16-2.9,.31-5.8,.47-8.7,.04-.71-.32-1.11-1.03-1.16-.6-.04-1.2-.07-1.8-.1-.63-.02-1.04,.35-1.09,.98-.03,.45-.05,.89-.07,1.34-.29,5.37-.58,10.74-.86,16.1-.04,.78,.31,1.17,1.09,1.22,.51,.03,1.02,.06,1.53,.08,.91,.05,1.26-.27,1.31-1.18,.15-2.86,.31-5.73,.46-8.59Zm9.82,.56c.16-2.91,.32-5.83,.47-8.74,.04-.71-.33-1.11-1.03-1.15-.57-.04-1.15-.07-1.73-.09-.72-.03-1.13,.33-1.17,1.06-.05,.84-.09,1.69-.14,2.53-.27,4.95-.53,9.89-.8,14.84-.04,.78,.31,1.17,1.09,1.21,.52,.03,1.05,.06,1.57,.08,.85,.04,1.22-.29,1.27-1.15,.15-2.86,.31-5.73,.46-8.59Zm9.82,.5c.16-2.9,.31-5.8,.47-8.7,.04-.73-.32-1.12-1.05-1.17-.57-.03-1.15-.07-1.73-.09-.68-.03-1.1,.33-1.14,1.01-.32,5.84-.63,11.68-.94,17.52-.03,.65,.35,1.06,1,1.11,.54,.04,1.07,.06,1.61,.09,.91,.05,1.27-.27,1.32-1.17,.15-2.86,.31-5.73,.46-8.59Zm-27.49-1.47c-.1,1.79-.19,3.58-.29,5.37-.06,1.16-.13,2.33-.18,3.49-.02,.54,.38,.97,.9,1.01,.52,.04,.96-.33,1.04-.87,.02-.14,.02-.28,.03-.42,.3-5.65,.61-11.3,.91-16.95,0-.15,.02-.31,.01-.46-.02-.48-.36-.85-.82-.92-.45-.07-.92,.2-1.06,.64-.05,.17-.06,.35-.07,.53-.16,2.86-.31,5.73-.46,8.59Zm9.82,.53c-.09,1.76-.19,3.53-.28,5.29-.06,1.19-.13,2.38-.18,3.57-.02,.54,.38,.97,.9,1.01,.52,.04,.96-.33,1.04-.87,.02-.14,.02-.28,.03-.42,.3-5.65,.61-11.3,.91-16.95,0-.15,.02-.31,.01-.46-.02-.48-.36-.85-.82-.92-.45-.07-.92,.2-1.06,.64-.06,.17-.06,.35-.07,.53-.16,2.86-.31,5.73-.46,8.59Zm9.82,.53c-.1,1.82-.2,3.63-.29,5.45-.06,1.14-.13,2.28-.18,3.41-.02,.54,.38,.97,.9,1.01,.52,.04,.96-.33,1.04-.87,.02-.14,.02-.28,.03-.42,.3-5.65,.61-11.3,.91-16.95,0-.15,.02-.31,.01-.46-.02-.47-.36-.85-.82-.92-.45-.07-.92,.2-1.06,.64-.05,.17-.06,.35-.07,.53-.16,2.86-.31,5.73-.46,8.59Zm-22.83-15.01l.48,.03c1.43,.08,2.86,.16,4.29,.23,.68,.03,1.13-.34,1.16-.94,.02-.58-.38-.99-1.05-1.03-1.88-.11-3.76-.21-5.64-.3-.72-.04-1.13,.34-1.17,1.06-.1,1.87-.2,3.73-.3,5.6-.04,.68,.33,1.15,.91,1.19,.58,.04,1.01-.39,1.05-1.07,.08-1.42,.16-2.84,.23-4.26l.03-.51Zm35.34,1.9l-.04,.73c-.07,1.35-.15,2.71-.21,4.06-.03,.66,.36,1.11,.93,1.14,.57,.03,1-.39,1.04-1.04,.11-1.89,.21-3.78,.3-5.67,.03-.65-.31-1.1-.93-1.14-1.97-.12-3.94-.23-5.9-.32-.6-.03-1.02,.43-1.01,1.02,.01,.54,.41,.92,1.04,.96,1.57,.09,3.14,.17,4.78,.26Zm-1.48,27.48l-.47-.03c-1.41-.08-2.81-.15-4.22-.23-.75-.04-1.21,.31-1.24,.93-.03,.61,.39,1,1.12,1.04,1.84,.1,3.68,.2,5.52,.3,.77,.04,1.18-.32,1.22-1.09,.1-1.85,.2-3.71,.3-5.56,0-.05,0-.1,0-.15,0-.57-.38-1.01-.91-1.05-.52-.04-.95,.32-1.04,.87-.03,.16-.03,.33-.04,.5-.08,1.47-.16,2.94-.24,4.46Zm-35.34-1.9l.03-.51c.08-1.43,.16-2.86,.23-4.29,.03-.65-.37-1.11-.94-1.13-.57-.02-.99,.4-1.03,1.05-.1,1.89-.21,3.78-.3,5.67-.03,.66,.33,1.09,.98,1.13,1.93,.11,3.86,.22,5.79,.31,.6,.03,1.03-.36,1.07-.92,.04-.57-.35-1.01-.98-1.05-.52-.04-1.05-.06-1.57-.09-1.07-.06-2.14-.12-3.27-.18Z" style="fill:#112d5f;"/><path d="M64.91,113.73c-.15,2.86-.31,5.73-.46,8.59-.05,.91-.4,1.23-1.31,1.18-.51-.03-1.02-.05-1.53-.08-.77-.05-1.13-.44-1.09-1.22,.29-5.37,.58-10.74,.86-16.1,.02-.45,.04-.9,.07-1.34,.05-.63,.46-1.01,1.09-.98,.6,.02,1.2,.06,1.8,.1,.7,.04,1.06,.44,1.03,1.16-.15,2.9-.31,5.8-.47,8.7Z" style="fill:#112d5f;"/><path d="M74.73,114.3c-.15,2.86-.31,5.73-.46,8.59-.05,.86-.41,1.19-1.27,1.15-.52-.03-1.05-.05-1.57-.08-.77-.05-1.13-.44-1.09-1.21,.26-4.95,.53-9.89,.8-14.84,.05-.84,.09-1.69,.14-2.53,.04-.73,.45-1.09,1.17-1.06,.58,.03,1.15,.06,1.73,.09,.7,.04,1.07,.44,1.03,1.15-.15,2.91-.31,5.83-.47,8.74Z" style="fill:#112d5f;"/><path d="M84.55,114.8c-.15,2.86-.31,5.73-.46,8.59-.05,.91-.4,1.22-1.32,1.17-.54-.03-1.07-.05-1.61-.09-.65-.04-1.04-.46-1-1.11,.31-5.84,.62-11.68,.94-17.52,.04-.67,.46-1.04,1.14-1.01,.58,.03,1.15,.06,1.73,.09,.73,.04,1.09,.44,1.05,1.17-.15,2.9-.31,5.8-.47,8.7Z" style="fill:#112d5f;"/><path d="M57.07,113.33c.15-2.86,.31-5.73,.46-8.59,0-.18,.02-.36,.07-.53,.15-.44,.61-.71,1.06-.64,.46,.07,.8,.45,.82,.92,0,.15,0,.31-.01,.46-.3,5.65-.61,11.3-.91,16.95,0,.14-.01,.28-.03,.42-.07,.54-.52,.91-1.04,.87-.52-.04-.92-.47-.9-1.01,.05-1.16,.12-2.33,.18-3.49,.1-1.79,.19-3.58,.29-5.37Z" style="fill:#112d5f;"/><path d="M66.89,113.86c.15-2.86,.31-5.73,.46-8.59,0-.18,.02-.36,.07-.53,.15-.44,.61-.71,1.06-.64,.46,.07,.8,.45,.82,.92,0,.15,0,.31-.01,.46-.3,5.65-.61,11.3-.91,16.95,0,.14-.01,.28-.03,.42-.07,.54-.52,.91-1.04,.87-.52-.04-.92-.47-.9-1.01,.05-1.19,.12-2.38,.18-3.57,.09-1.76,.19-3.53,.28-5.29Z" style="fill:#112d5f;"/><path d="M76.71,114.39c.15-2.86,.31-5.73,.46-8.59,0-.18,.02-.36,.07-.53,.15-.44,.61-.71,1.06-.64,.46,.07,.8,.45,.82,.92,0,.15,0,.31-.01,.46-.3,5.65-.61,11.3-.91,16.95,0,.14-.01,.28-.03,.42-.07,.54-.52,.91-1.04,.87-.52-.04-.92-.47-.9-1.01,.05-1.14,.12-2.28,.18-3.41,.1-1.82,.2-3.63,.29-5.45Z" style="fill:#112d5f;"/><path d="M53.88,99.38l-.03,.51c-.08,1.42-.15,2.84-.23,4.26-.04,.68-.47,1.11-1.05,1.07-.58-.04-.95-.51-.91-1.19,.1-1.87,.2-3.73,.3-5.6,.04-.72,.45-1.1,1.17-1.06,1.88,.1,3.76,.2,5.64,.3,.66,.04,1.07,.45,1.05,1.03-.02,.6-.48,.98-1.16,.94-1.43-.07-2.86-.15-4.29-.23l-.48-.03Z" style="fill:#112d5f;"/><path d="M89.22,101.28c-1.64-.09-3.21-.17-4.78-.26-.63-.04-1.03-.41-1.04-.96-.01-.58,.4-1.04,1.01-1.02,1.97,.09,3.94,.19,5.9,.32,.62,.04,.96,.49,.93,1.14-.1,1.89-.2,3.78-.3,5.67-.04,.65-.47,1.07-1.04,1.04-.57-.03-.96-.49-.93-1.14,.06-1.36,.14-2.71,.21-4.06l.04-.73Z" style="fill:#112d5f;"/><path d="M87.74,128.76c.08-1.53,.16-2.99,.24-4.46,0-.17,.01-.33,.04-.5,.09-.55,.53-.91,1.04-.87,.53,.04,.92,.48,.91,1.05,0,.05,0,.1,0,.15-.1,1.85-.2,3.71-.3,5.56-.04,.77-.44,1.13-1.22,1.09-1.84-.1-3.68-.2-5.52-.3-.72-.04-1.14-.44-1.12-1.04,.03-.62,.49-.97,1.24-.93,1.41,.07,2.81,.15,4.22,.23l.47,.03Z" style="fill:#112d5f;"/><path d="M52.4,126.86c1.13,.06,2.2,.12,3.27,.18,.52,.03,1.05,.05,1.57,.09,.62,.05,1.01,.48,.98,1.05-.04,.55-.47,.95-1.07,.92-1.93-.09-3.86-.2-5.79-.31-.65-.04-1.01-.47-.98-1.13,.1-1.89,.2-3.78,.3-5.67,.04-.65,.46-1.07,1.03-1.05,.57,.02,.97,.48,.94,1.13-.07,1.43-.15,2.86-.23,4.29l-.03,.51Z" style="fill:#112d5f;"/></g></g><g><path d="M129.99,15.32c.1-1.9-1.36-3.52-3.26-3.63L26.18,6.29c-1.9-.1-3.52,1.36-3.63,3.26l-1.04,19.31,107.44,5.77,1.04-19.31Z" style="fill:#fff; filter:url(#ae); stroke:#d3d3d3; stroke-miterlimit:10;"/><g><circle cx="59.51" cy="22.73" r="2.05" style="fill:#bababa;"/><rect x="65.06" y="21.99" width="27" height="3.52" rx="1.76" ry="1.76" transform="translate(1.39 -4.18) rotate(3.08)" style="fill:#bababa;"/></g></g></g></g></g></svg>