<svg xmlns="http://www.w3.org/2000/svg" width="40.307" height="35.338" viewBox="0 0 40.307 35.338"><defs><style>.a{fill:#009ed2;}.b,.j{fill:none;}.b{stroke:#fff;stroke-miterlimit:10;stroke-width:2px;}.c{fill:#fc0;}.d{fill:#1b8930;}.e,.g{fill:#fff;}.f{fill:#1dce4d;}.g{stroke:#3cf;}.h{fill:#3cf;}.i{stroke:none;}</style></defs><g transform="translate(-10.693 -156.691)"><g transform="translate(-30.829 150.393)"><g transform="translate(42.864 7.64)"><rect class="a" width="27.782" height="9.415" transform="translate(4.346 11.539) rotate(26.557)"/><rect class="a" width="27.782" height="17.068" transform="translate(10.113 0) rotate(26.557)"/><rect class="b" width="27.782" height="22.62" transform="translate(10.113 0) rotate(26.557)"/><circle class="c" cx="2.464" cy="2.464" r="2.464" transform="translate(25.155 11.296)"/><g transform="translate(9.914 13.032)"><path class="d" d="M64.685,20.7,52.8,29.078l12.319,6.158Z" transform="translate(-52.798 -20.698)"/><path class="e" d="M65.076,33.423,64.7,20.7,61.9,24.769l.669,1.177-3.234.125Z" transform="translate(-52.811 -20.698)"/></g><g transform="translate(3.066 9.866)"><path class="f" d="M59.585,17.526l-13.65,9.015,14.632,7.313Z" transform="translate(-45.936 -17.526)"/><path class="e" d="M60.469,32.014,59.6,17.526l-4,5.919.969,1.7-4.684.182Z" transform="translate(-45.948 -17.526)"/></g></g><g transform="translate(45.954 12.657)"><rect class="f" width="27.782" height="9.415" transform="translate(0 12.9)"/><rect class="a" width="27.782" height="17.068"/><rect class="b" width="27.782" height="22.62"/><circle class="c" cx="2.464" cy="2.464" r="2.464" transform="translate(19.346 2.017)"/><g transform="translate(9.395 6.432)"><path class="f" d="M62.26,19.112l-6.886,12.81H69.147Z" transform="translate(-55.374 -19.112)"/><path class="e" d="M68.3,30.325,62.273,19.112,61.595,24l1.125.754.846,3.313Z" transform="translate(-55.386 -19.112)"/></g><g transform="translate(2.138 5.874)"><path class="f" d="M56.281,18.553,48.1,32.719H64.46Z" transform="translate(-48.102 -18.553)"/><path class="e" d="M63.553,31.122,56.3,18.553l-.931,7.083,1.629,1.092.013,3.083Z" transform="translate(-48.117 -18.553)"/></g></g></g><g class="g" transform="translate(34 174)"><circle class="i" cx="8" cy="8" r="8"/><circle class="j" cx="8" cy="8" r="8.5"/></g><path class="h" d="M9.5-1.753H5.886V1.857H4.313V-1.753H.7V-3.344H4.313V-6.955H5.886v3.611H9.5Z" transform="translate(37.173 184.83)"/></g></svg>