<svg id="Layer_1" data-name="Layer 1" xmlns="http://www.w3.org/2000/svg" xmlns:xlink="http://www.w3.org/1999/xlink" viewBox="0 0 209 156"><defs><clipPath id="clip-path"><rect width="209.34" height="155.8" style="fill:none"/></clipPath></defs><g id="Artwork_20" data-name="Artwork 20"><g style="clip-path:url(#clip-path)"><g style="clip-path:url(#clip-path)"><path d="M111.21,145.7l.13-.28h-.26l.13.28" style="fill:#fff"/><path d="M76.43,2.13C75.4-.72,73.08-.64,71.85,2,70.86,4,.26,151.53.26,151.53a3,3,0,0,0,1.31,3.94,2,2,0,0,0,1.31.33h41l27.31-61c1-2.85,3.36-2.77,4.58-.19l7.55,15.78,21.31,44.52V65.17Z" style="fill:#c7c8ca"/><path d="M209.08,151.53S138.47,4,137.49,2c-1.23-2.59-3.55-2.67-4.58.18l-28.24,63h0L83.36,110.41l21.31,44.52c.14.29.28.58.41.87h.31l20.45-45.67,6.86-15.31c1-2.85,3.36-2.77,4.58-.19.43.91,14,29.34,29.27,61.17h39.9a2,2,0,0,0,1.32-.33,3,3,0,0,0,1.31-3.94" style="fill:#fff"/></g></g></g></svg>