<svg xmlns="http://www.w3.org/2000/svg" width="99" height="26.146" viewBox="0 0 99 26.146"><defs><style>.a{fill:#fc0;}.b{fill:#3cf;}.c{fill:#93f;}.d{fill:#036;}</style></defs><path class="a" d="M14.712,18.975H4.288A4.286,4.286,0,0,1,0,14.712V4.288A4.291,4.291,0,0,1,4.288,0H14.712a4.286,4.286,0,0,1,4.263,4.288V14.712A4.281,4.281,0,0,1,14.712,18.975ZM4.288.641A3.639,3.639,0,0,0,.641,4.288V14.712a3.628,3.628,0,0,0,3.622,3.622H14.687a3.628,3.628,0,0,0,3.622-3.622V4.288A3.628,3.628,0,0,0,14.687.665H4.288Z"/><g transform="translate(1.799 1.774)"><path class="a" d="M14.989,22.6c-5.1,0-7.689-2.587-7.689-7.689S9.863,7.2,14.989,7.2c5.175,0,7.689,2.514,7.689,7.689C22.677,20.088,20.164,22.6,14.989,22.6Zm0-14.736c-4.756,0-7.048,2.316-7.048,7.048,0,4.756,2.316,7.048,7.048,7.048,4.805,0,7.048-2.242,7.048-7.048C22.036,10.034,19.868,7.865,14.989,7.865Z" transform="translate(-7.3 -7.2)"/></g><g transform="translate(4.038 4.878)"><path class="b" d="M19.987,28.151h-3.13a.416.416,0,0,1-.246-.074.5.5,0,0,1-.2-.591v-.025l3.475-7.344a.437.437,0,0,1,.2-.246.393.393,0,0,1,.37-.049.465.465,0,0,1,.3.271l1.454,3.228Zm-2.859-.641h2.44l1.947-4.165-1.183-2.612Zm3.056-7.122Z" transform="translate(-16.386 -19.796)"/></g><g transform="translate(9.192 4.878)"><path class="c" d="M42.574,28.151h-3.13L37.3,23.346l1.528-3.228a.437.437,0,0,1,.2-.246.393.393,0,0,1,.37-.049.465.465,0,0,1,.3.271l3.327,7.442v.025a1.067,1.067,0,0,1,.025.123A.468.468,0,0,1,42.574,28.151Zm-2.711-.641H42.3l-3.056-6.777L38.015,23.37ZM39.1,20.364Z" transform="translate(-37.3 -19.796)"/></g><g transform="translate(6.925 7.664)"><path class="d" d="M33.226,36.669H28.1L30.737,31.1Zm-4.115-.641h3.1l-1.528-3.376Z" transform="translate(-28.1 -31.1)"/></g><g transform="translate(48.092 7.92)"><path class="a" d="M195.227,41.4h-2.809a.5.5,0,0,1-.517-.493V31.793a.5.5,0,0,1,.517-.493h2.809a.518.518,0,0,1,.37.123.49.49,0,0,1,.173.394v9.118A.538.538,0,0,1,195.227,41.4Zm-2.686-.665h2.514V31.99l-.172.025v-.049h-2.341Z" transform="translate(-191.9 -31.3)"/></g><g transform="translate(25.298 1.937)"><path class="b" d="M107.41,23.765h-5.964a.861.861,0,0,1-.3-.074.645.645,0,0,1-.3-.813L107.78,8.215a.575.575,0,0,1,.3-.3.688.688,0,0,1,.493-.025.594.594,0,0,1,.345.345l2.834,6.309Zm.936-15.18L101.5,23.1h5.471l4.041-8.551Z" transform="translate(-100.808 -7.861)"/></g><g transform="translate(35.684 1.912)"><path class="c" d="M152.328,23.69h-6.013L142.2,14.473l2.982-6.333a.749.749,0,0,1,.3-.32.688.688,0,0,1,.493-.025.594.594,0,0,1,.345.345l6.555,14.638a.6.6,0,0,1,.074.271A.589.589,0,0,1,152.328,23.69Zm-5.569-.665h5.52L145.773,8.51l-2.834,5.964Z" transform="translate(-142.2 -7.761)"/></g><g transform="translate(31.232 8.02)"><path class="d" d="M133.716,41.73H124.5l4.731-10.03Zm-8.132-.665h7.122l-3.45-7.738Z" transform="translate(-124.5 -31.7)"/></g><g transform="translate(69.413 2.251)"><path class="a" d="M284.2,24.7a9.328,9.328,0,0,1-1.429-.123,7.793,7.793,0,0,1-3.031-14.071,7.838,7.838,0,0,1,10.843,1.971.627.627,0,0,1,.1.419.584.584,0,0,1-.222.37l-2.366,1.626-.074.025a.492.492,0,0,1-.222.049h-.025a.484.484,0,0,1-.419-.222,3.089,3.089,0,0,0-.591-.665,3.7,3.7,0,0,0-2.76-.961,3.862,3.862,0,0,0-2.661,1.281,3.7,3.7,0,0,0-.961,2.76,3.862,3.862,0,0,0,1.281,2.661,3.821,3.821,0,0,0,2.76.986,3.735,3.735,0,0,0,2.563-1.183v-.074H284.5a.547.547,0,0,1-.542-.542V16.125a.547.547,0,0,1,.542-.542h5.865a.547.547,0,0,1,.542.542h0l-.025,4.608a.531.531,0,0,1-.1.345l-.246.37a7.4,7.4,0,0,1-1.922,1.9A7.885,7.885,0,0,1,284.2,24.7Zm-.025-14.884a6.988,6.988,0,0,0-4.041,1.257,7.1,7.1,0,0,0,2.76,12.839,7.015,7.015,0,0,0,5.323-1.134,7.346,7.346,0,0,0,1.774-1.725l.246-.345.025-4.46h-5.643v2.612h3.056v1.01l-.074.1a4.411,4.411,0,0,1-3.1,1.5,4.472,4.472,0,0,1-3.253-1.134,4.609,4.609,0,0,1-1.5-3.1,4.472,4.472,0,0,1,1.134-3.253,4.609,4.609,0,0,1,3.105-1.5,4.472,4.472,0,0,1,3.253,1.134,4.547,4.547,0,0,1,.641.715l2.144-1.479A7.124,7.124,0,0,0,284.176,9.817Zm3.746,4.534Zm2.169-1.626Z" transform="translate(-276.385 -9.135)"/></g><g transform="translate(84.621 2.242)"><path class="c" d="M340.437,24.674H337.5a.416.416,0,0,1-.246-.074.488.488,0,0,1-.271-.271.611.611,0,0,1,0-.419l6.8-14.465a.57.57,0,0,1,.517-.345.6.6,0,0,1,.517.345l.345.789,5.865,13.085.246.542a.405.405,0,0,1,.049.222.547.547,0,0,1-.542.542h-2.932a.6.6,0,0,1-.518-.345l-.1-.222-.789-1.824h-4.559l-.936,2.07A.556.556,0,0,1,340.437,24.674Zm-.1-.616Zm7.615-.025ZM337.7,23.984h2.661l.074-.173,1.01-2.242h5.421l1.06,2.39h2.661l-.172-.37L344.552,10.5l-.246-.567-.271.567Zm6.506-14.268Zm2.07,9.759h-4.14l1.6-3.475a.533.533,0,0,1,.3-.271.547.547,0,0,1,.394.025.484.484,0,0,1,.222.222Zm-3.08-.665h2.045l-1.01-2.218Z" transform="translate(-336.95 -9.1)"/></g><g transform="translate(47.895 2.242)"><path class="a" d="M193.219,13.363a1.918,1.918,0,0,1-2.119-2.144,2.132,2.132,0,0,1,4.263,0A1.915,1.915,0,0,1,193.219,13.363Zm0-3.573c-1.01,0-1.454.444-1.454,1.454s.444,1.454,1.454,1.454c1.035,0,1.454-.419,1.454-1.454S194.254,9.79,193.219,9.79Z" transform="translate(-191.1 -9.1)"/></g><g transform="translate(54.483 2.267)"><path class="b" d="M220.277,24.75h-2.735a.547.547,0,0,1-.542-.542V9.791a.547.547,0,0,1,.542-.542h.173l.148.074,8.551,7.393V9.742a.547.547,0,0,1,.542-.542h2.735a.547.547,0,0,1,.542.542l.025,10.5v3.943a.547.547,0,0,1-.542.542.472.472,0,0,1-.37-.148l-2.686-2.316c-.025-.025-.074-.049-.1-.1l-5.742-4.953v6.949A.545.545,0,0,1,220.277,24.75Zm-2.612-.665h2.489v-8.3l6.9,5.939a.024.024,0,0,0,.025.025l2.538,2.193v-3.7l-.025-10.375H227.1v8.28l-9.438-8.132Z" transform="translate(-217 -9.2)"/></g><g transform="translate(83.007 21.218)"><path class="d" d="M330.4,84.4h.715v4.312h2.39V89.3h-3.1Z" transform="translate(-330.4 -84.4)"/><path class="d" d="M349.3,84.4h.715v4.9H349.3Z" transform="translate(-344.643 -84.4)"/><path class="d" d="M360.051,84.991H358.4V84.4h4.041v.591h-1.676V89.3h-.715Z" transform="translate(-351.5 -84.4)"/><path class="d" d="M380.9,84.4h3.179v.591H381.59v1.528h2.341v.591H381.59v1.626h2.489v.591H380.9Z" transform="translate(-368.455 -84.4)"/></g></svg>