<?xml version="1.0" encoding="utf-8"?>
<!-- Generator: Adobe Illustrator 24.3.0, SVG Export Plug-In . SVG Version: 6.00 Build 0)  -->
<svg version="1.1" id="Layer_1" xmlns="http://www.w3.org/2000/svg" xmlns:xlink="http://www.w3.org/1999/xlink" x="0px" y="0px"
	 viewBox="0 0 99 26.2" style="enable-background:new 0 0 99 26.2;" xml:space="preserve">
<style type="text/css">
	.st0{fill:#003366;}
	.st1{clip-path:url(#SVGID_2_);}
	.st2{clip-path:url(#SVGID_4_);fill:#233A75;}
	.st3{clip-path:url(#SVGID_4_);fill:#70B2D7;}
	.st4{clip-path:url(#SVGID_4_);fill:#2B8DC3;}
</style>
<g transform="translate(67.183 21.301)">
	<path class="st0" d="M0.8,4.8C0.5,4.7,0.2,4.5,0,4.3l0.2-0.5C0.5,4,0.7,4.1,1,4.2c0.3,0.1,0.6,0.1,0.8,0.1c0.3,0,0.6-0.1,0.8-0.2
		C2.8,4,3,3.8,2.9,3.6c0-0.2-0.1-0.4-0.3-0.5C2.4,3,2.1,2.9,1.8,2.8C1.5,2.8,1.2,2.7,0.9,2.5C0.6,2.4,0.4,2.3,0.3,2.1
		C0.1,1.9,0.1,1.7,0.1,1.4c0-0.3,0.1-0.5,0.2-0.7c0.2-0.2,0.4-0.4,0.6-0.5C1.2,0,1.5,0,1.9,0c0.3,0,0.6,0,0.9,0.1
		c0.3,0.1,0.5,0.2,0.7,0.4L3.3,1.1C3.1,0.9,2.9,0.8,2.6,0.7C2.4,0.6,2.1,0.5,1.9,0.6c-0.3,0-0.6,0.1-0.8,0.2
		C0.9,0.9,0.8,1.1,0.8,1.4c0,0.2,0.1,0.4,0.3,0.5C1.3,2,1.6,2.1,1.9,2.2c0.3,0.1,0.7,0.2,1,0.3c0.2,0.1,0.4,0.2,0.6,0.4
		c0.1,0.2,0.2,0.4,0.2,0.7c0,0.3-0.1,0.5-0.2,0.7C3.3,4.5,3.1,4.6,2.8,4.7c-0.3,0.1-0.6,0.2-1,0.2C1.5,4.9,1.1,4.9,0.8,4.8z"/>
	<path class="st0" d="M6.2,4.6C5.9,4.4,5.6,4.1,5.4,3.7C5.2,3.3,5.1,2.9,5.1,2.4c0-0.4,0.1-0.9,0.3-1.3c0.2-0.4,0.5-0.6,0.8-0.8
		C6.6,0.1,7,0,7.4,0c0.3,0,0.6,0,0.9,0.1c0.3,0.1,0.5,0.2,0.7,0.4L8.8,1.1C8.6,0.9,8.4,0.8,8.1,0.7C7.9,0.6,7.7,0.6,7.4,0.6
		C7,0.5,6.5,0.7,6.3,1C6,1.4,5.8,1.9,5.8,2.4c0,0.5,0.1,1,0.4,1.4C6.5,4.2,7,4.3,7.4,4.3c0.2,0,0.5,0,0.7-0.1
		c0.2-0.1,0.5-0.2,0.7-0.4l0.2,0.5C8.8,4.5,8.6,4.6,8.3,4.7C8,4.8,7.7,4.9,7.4,4.9C7,4.9,6.6,4.8,6.2,4.6z"/>
	<path class="st0" d="M14.8,0v4.8H14V2.7h-2.7v2.1h-0.7V0h0.7v2.1h2.7V0H14.8z"/>
	<path class="st0" d="M17.6,4.6c-0.3-0.2-0.6-0.5-0.8-0.8c-0.2-0.4-0.3-0.9-0.3-1.3c0-0.4,0.1-0.9,0.3-1.3c0.2-0.4,0.4-0.7,0.8-0.8
		C17.9,0.1,18.3,0,18.7,0c0.4,0,0.8,0.1,1.2,0.3c0.3,0.2,0.6,0.5,0.8,0.8C21,2,21,2.9,20.7,3.7c-0.2,0.4-0.4,0.7-0.8,0.8
		c-0.4,0.2-0.8,0.3-1.2,0.3C18.3,4.9,17.9,4.8,17.6,4.6z M19.9,3.8c0.5-0.9,0.5-1.9,0-2.8c-0.3-0.3-0.7-0.5-1.1-0.5
		c-0.4,0-0.8,0.2-1.1,0.5c-0.3,0.4-0.4,0.9-0.4,1.4c0,0.5,0.1,1,0.4,1.4C18.2,4.5,19.2,4.5,19.9,3.8C19.8,3.9,19.8,3.9,19.9,3.8z"/>
	<path class="st0" d="M23.6,4.6c-0.3-0.2-0.6-0.5-0.8-0.8c-0.2-0.4-0.3-0.9-0.3-1.3c0-0.4,0.1-0.9,0.3-1.3c0.2-0.4,0.4-0.7,0.8-0.8
		C23.9,0.1,24.4,0,24.8,0c0.4,0,0.8,0.1,1.2,0.3c0.3,0.2,0.6,0.5,0.8,0.8c0.4,0.8,0.4,1.8,0,2.6c-0.2,0.4-0.4,0.7-0.8,0.8
		c-0.4,0.2-0.8,0.3-1.2,0.3C24.4,4.9,23.9,4.8,23.6,4.6z M25.9,3.8c0.5-0.9,0.5-1.9,0-2.8c-0.3-0.3-0.7-0.5-1.1-0.5
		c-0.4,0-0.8,0.2-1.1,0.5c-0.3,0.4-0.4,0.9-0.4,1.4c0,0.5,0.1,1,0.4,1.4C24.2,4.5,25.2,4.5,25.9,3.8C25.9,3.9,25.9,3.9,25.9,3.8z"/>
	<path class="st0" d="M28.8,0h0.7v4.2h2.3v0.6h-3V0z"/>
</g>
<g id="Artwork_3_1_">
	<g>
		<defs>
			<rect id="SVGID_1_" x="25.1" y="3.1" width="72.9" height="16"/>
		</defs>
		<clipPath id="SVGID_2_">
			<use xlink:href="#SVGID_1_"  style="overflow:visible;"/>
		</clipPath>
		<g class="st1">
			<defs>
				<rect id="SVGID_3_" x="25.1" y="3.1" width="72.9" height="16"/>
			</defs>
			<clipPath id="SVGID_4_">
				<use xlink:href="#SVGID_3_"  style="overflow:visible;"/>
			</clipPath>
			<path class="st2" d="M50.5,9.2h-2.9c-0.1,0-0.2,0.1-0.2,0.2v9.3c0,0.1,0.1,0.2,0.2,0.2h2.9c0.1,0,0.2-0.1,0.2-0.2V9.4
				C50.7,9.3,50.6,9.2,50.5,9.2C50.5,9.2,50.5,9.2,50.5,9.2"/>
			<path class="st2" d="M82.9,10.4c0-0.1-0.1-0.2-0.2-0.2h-6c-0.1,0-0.2,0.1-0.2,0.2v2.9c0,0.1,0.1,0.2,0.2,0.2h2.9v0.5
				c-1.6,1.8-4.3,1.9-6,0.3c-1.7-1.6-1.9-4.3-0.3-6c1.6-1.7,4.3-1.9,6-0.3c0.3,0.2,0.5,0.5,0.7,0.8c0,0.1,0.1,0.1,0.2,0.1h0
				c0.1,0,0.1,0,0.1,0l2.4-1.6c0.1-0.1,0.1-0.2,0.1-0.3C80.2,3.4,75.5,2.6,72,5c-3.5,2.4-4.3,7.1-1.9,10.6c2.4,3.4,7.1,4.3,10.6,1.9
				c0.7-0.5,1.4-1.1,1.9-1.9l0.3-0.4c0,0,0-0.1,0-0.1L82.9,10.4z"/>
			<path class="st2" d="M98,18.5L97.7,18l-6-13.4l-0.4-0.8c0-0.1-0.1-0.1-0.2-0.1c-0.1,0-0.2,0.1-0.2,0.1l-0.4,0.8l-6.3,13.4
				L84,18.5c-0.1,0.1,0,0.2,0.1,0.3c0,0,0.1,0,0.1,0h3c0.1,0,0.2-0.1,0.2-0.1l0.1-0.2l0.9-2.1h5.1l0.9,2.1l0.1,0.2
				c0,0.1,0.1,0.1,0.2,0.1h3C97.9,18.8,98,18.7,98,18.5C98,18.6,98,18.6,98,18.5 M89.5,13.5l1.4-3.1c0-0.1,0.2-0.1,0.2-0.1
				c0,0,0.1,0.1,0.1,0.1l1.4,3.1H89.5z"/>
			<path class="st2" d="M49.1,6.8c-1,0-1.8-0.4-1.8-1.8c0-1.4,0.8-1.8,1.8-1.8c1,0,1.8,0.4,1.8,1.8C50.9,6.4,50.1,6.8,49.1,6.8"/>
			<path class="st2" d="M66.7,3.9c0-0.1-0.1-0.2-0.2-0.2h-2.8c-0.1,0-0.2,0.1-0.2,0.2v7.8l-9.3-8l0,0h0h0h0h0h0
				c-0.1,0-0.2,0.1-0.2,0.2v4v10.8c0,0.1,0.1,0.2,0.2,0.2h2.8c0.1,0,0.2-0.1,0.2-0.2v-7.9l6.5,5.6c0,0,0,0,0,0l2.8,2.4
				c0,0,0.1,0.1,0.2,0.1c0.1,0,0.2-0.1,0.2-0.2v-4L66.7,3.9z"/>
			<path class="st3" d="M32.8,3.6c-0.1-0.3-0.3-0.3-0.5,0c-0.1,0.2-7.2,15.1-7.2,15.1c-0.1,0.2,0,0.3,0.1,0.4c0,0,0.1,0,0.1,0h4.1
				l2.8-6.2c0.1-0.3,0.3-0.3,0.5,0c0,0,0.3,0.6,0.8,1.6c0.5,1.1,1.3,2.7,2.1,4.3V9.8L32.8,3.6z"/>
			<path class="st4" d="M35.7,19.1l2.1-4.6l0.7-1.5c0.1-0.3,0.3-0.3,0.5,0c0,0.1,1.4,3,3,6.2h4c0,0,0.1,0,0.1,0
				c0.1-0.1,0.2-0.2,0.1-0.4c0,0-7.1-14.9-7.2-15.1c-0.1-0.3-0.4-0.3-0.5,0L35.6,10l-0.1-0.2v9.1C35.6,18.9,35.6,19,35.7,19.1
				L35.7,19.1z"/>
			<path class="st4" d="M35.7,19.1L35.7,19.1l2.1-4.6L35.6,10l-2.1,4.6C34,15.7,34.8,17.3,35.7,19.1"/>
		</g>
	</g>
</g>
</svg>
