<svg xmlns="http://www.w3.org/2000/svg" width="99" height="26.916" viewBox="0 0 99 26.916"><defs><style>.a{fill:#fc0;}.b{fill:#fff;}.c{fill:#93f;}.d{fill:#036;}.e{fill:#282e70;}</style></defs><g transform="translate(-243 -460.889)"><g transform="translate(243 460.889)"><g transform="translate(0)"><path class="a" d="M9.583,19.364C4.3,19.364,0,17.152,0,9.682,0,2.138,4.3,0,9.583,0s9.583,1.941,9.583,9.682c.025,7.667-4.276,9.682-9.583,9.682"/><path class="b" d="M18.648,21.044h0l-1.818-4.079c-.049-.1-.172-.147-.246-.074q-.074.037-.074.074l-4.571,9.657a.183.183,0,0,0,.074.246.121.121,0,0,0,.074.025h3.784l2.777-5.848Z" transform="translate(-8.991 -12.714)"/><path class="c" d="M46.036,26.471l-4.3-9.706c-.049-.1-.172-.147-.246-.074q-.074.037-.074.074l-1.917,4.1.983,2.236,1.6,3.637h3.784a.194.194,0,0,0,.2-.2C46.061,26.52,46.036,26.5,46.036,26.471Z" transform="translate(-29.794 -12.563)"/><path class="d" d="M30.852,33.9h0L28.1,39.773h5.357Z" transform="translate(-21.195 -25.57)"/></g><g transform="translate(46.119 21.948)"><path class="d" d="M182.781,89.069a2.109,2.109,0,0,1-.811-.86,2.785,2.785,0,0,1-.27-1.327,3.113,3.113,0,0,1,.27-1.327,2.109,2.109,0,0,1,.811-.86,2.458,2.458,0,0,1,1.229-.295,2.861,2.861,0,0,1,.934.147,1.851,1.851,0,0,1,.737.442l-.246.516a2.58,2.58,0,0,0-.688-.418,2.316,2.316,0,0,0-.737-.123,1.466,1.466,0,0,0-1.18.491,2.163,2.163,0,0,0-.418,1.4,2.237,2.237,0,0,0,.418,1.425,1.394,1.394,0,0,0,1.18.491,2.44,2.44,0,0,0,.737-.123,2.343,2.343,0,0,0,.688-.418l.246.516a1.851,1.851,0,0,1-.737.442,2.861,2.861,0,0,1-.934.147A1.869,1.869,0,0,1,182.781,89.069Z" transform="translate(-181.7 -84.4)"/><path class="d" d="M204.557,89.069a1.908,1.908,0,0,1-.786-.86,2.786,2.786,0,0,1-.27-1.327,3.114,3.114,0,0,1,.27-1.327,1.908,1.908,0,0,1,.786-.86,2.364,2.364,0,0,1,1.2-.295,2.3,2.3,0,0,1,1.2.295,1.908,1.908,0,0,1,.786.86,3.392,3.392,0,0,1,0,2.654,1.908,1.908,0,0,1-.786.86,2.364,2.364,0,0,1-1.2.295A1.918,1.918,0,0,1,204.557,89.069Zm2.334-.762a2.64,2.64,0,0,0,0-2.85,1.376,1.376,0,0,0-1.155-.491,1.4,1.4,0,0,0-1.13.491,2.237,2.237,0,0,0-.418,1.425,2.19,2.19,0,0,0,.418,1.425,1.574,1.574,0,0,0,2.285,0Z" transform="translate(-198.143 -84.4)"/><path class="d" d="M233.305,84.5v4.89h-.541l-2.8-3.686v3.711H229.3V84.5h.541l2.826,3.711V84.5Z" transform="translate(-217.603 -84.475)"/><path class="d" d="M253.7,84.5h3.121v.59h-2.408v1.524h2.261v.59h-2.261V89.39H253.7Z" transform="translate(-236.007 -84.475)"/><path class="d" d="M272.8,84.5h3.17v.59h-2.482v1.548h2.334v.59h-2.334v1.622h2.482v.59H272.8Z" transform="translate(-250.414 -84.475)"/><path class="d" d="M296.556,89.415h-.762l-.614-1.622a.726.726,0,0,0-.27-.369,1.016,1.016,0,0,0-.516-.1h-1.081v2.089H292.6V84.5h2.015a1.791,1.791,0,0,1,1.229.369,1.44,1.44,0,0,1,.2,1.843,1.3,1.3,0,0,1-.713.467.784.784,0,0,1,.614.614Zm-1.99-2.678a1.156,1.156,0,0,0,.786-.221.78.78,0,0,0,.27-.639.791.791,0,0,0-.246-.614,1.237,1.237,0,0,0-.811-.2h-1.229v1.671Z" transform="translate(-265.349 -84.475)"/><path class="d" d="M315.4,84.5h3.17v.59h-2.482v1.548h2.334v.59h-2.334v1.622h2.482v.59H315.4Z" transform="translate(-282.546 -84.475)"/><path class="d" d="M339.405,84.5v4.89h-.541l-2.8-3.711V89.39H335.4V84.5h.541l2.8,3.711V84.5Z" transform="translate(-297.631 -84.475)"/><path class="d" d="M360.081,89.069a2.109,2.109,0,0,1-.811-.86,2.785,2.785,0,0,1-.27-1.327,3.113,3.113,0,0,1,.27-1.327,2.109,2.109,0,0,1,.811-.86,2.458,2.458,0,0,1,1.229-.295,2.862,2.862,0,0,1,.934.147,1.851,1.851,0,0,1,.737.442l-.246.516a2.58,2.58,0,0,0-.688-.418,2.316,2.316,0,0,0-.737-.123,1.466,1.466,0,0,0-1.18.491,2.163,2.163,0,0,0-.418,1.4,2.237,2.237,0,0,0,.418,1.425,1.394,1.394,0,0,0,1.18.491,2.44,2.44,0,0,0,.737-.123,2.344,2.344,0,0,0,.688-.418l.246.516a1.851,1.851,0,0,1-.737.442,2.862,2.862,0,0,1-.934.147A1.938,1.938,0,0,1,360.081,89.069Z" transform="translate(-315.432 -84.4)"/><path class="d" d="M381.9,84.5h3.17v.59h-2.482v1.548h2.334v.59h-2.334v1.622h2.482v.59H381.9Z" transform="translate(-332.705 -84.475)"/></g><g transform="translate(27.119 2.306)"><path class="d" d="M198.622,33.043H195.8a.19.19,0,0,0-.2.172v9.19a.175.175,0,0,0,.2.172h2.826a.19.19,0,0,0,.2-.172v-9.19c-.025-.1-.1-.2-.2-.172Z" transform="translate(-173.185 -27.215)"/><path class="a" d="M114.632,15.8h0l-2.777-6.242a.3.3,0,0,0-.393-.147.222.222,0,0,0-.147.147L104.41,24.327a.309.309,0,0,0,.123.393.184.184,0,0,0,.123.025h5.75l4.227-8.945Z" transform="translate(-104.38 -9.382)"/><path class="c" d="M156.126,24.327,149.565,9.559a.3.3,0,0,0-.393-.147.222.222,0,0,0-.147.147L146.1,15.8l1.5,3.416,2.457,5.529h5.775a.284.284,0,0,0,.295-.295C156.15,24.425,156.126,24.376,156.126,24.327Z" transform="translate(-135.848 -9.382)"/><path class="e" d="M133.277,35.5h0L129.1,44.445h8.134Z" transform="translate(-123.026 -29.082)"/><path class="d" d="M294.271,17.4a.22.22,0,0,0-.221-.221H288.2a.22.22,0,0,0-.221.221v2.85a.22.22,0,0,0,.221.221h2.826v.541a4.145,4.145,0,0,1-5.9.344,4.249,4.249,0,0,1-.344-5.947,4.145,4.145,0,0,1,5.9-.344,4.74,4.74,0,0,1,.664.737.149.149,0,0,0,.147.074h.025c.049,0,.074-.025.123-.025l2.334-1.622a.2.2,0,0,0,.049-.295h0a7.423,7.423,0,0,0-10.37-1.917,7.563,7.563,0,0,0-1.892,10.444,7.39,7.39,0,0,0,10.345,1.917,7.2,7.2,0,0,0,1.843-1.818h0l.27-.393c.025-.025.025-.074.025-.147Z" transform="translate(-237.183 -10.363)"/><path class="c" d="M354.956,25.419l-.246-.565-5.848-13.2-.344-.811a.244.244,0,0,0-.2-.147h0a.206.206,0,0,0-.2.147l-.369.786-6.143,13.2-.27.565a.217.217,0,0,0,.123.295.09.09,0,0,0,.074.025h2.924a.206.206,0,0,0,.2-.147l.1-.246.934-2.064h4.988l.885,2.04.1.246a.244.244,0,0,0,.2.147h2.9a.22.22,0,0,0,.221-.221.076.076,0,0,0-.025-.049ZM346.65,20.48l1.4-3.022a.165.165,0,0,1,.246-.074c.025.025.074.049.074.074l1.376,3.022Z" transform="translate(-283.099 -10.376)"/><path class="e" d="M196.694,14.337a1.6,1.6,0,0,1-1.794-1.818,1.6,1.6,0,0,1,1.794-1.818c.983,0,1.794.344,1.794,1.818s-.811,1.818-1.794,1.818" transform="translate(-172.657 -10.376)"/><path class="a" d="M233.406,11.021a.22.22,0,0,0-.221-.221h-2.728a.22.22,0,0,0-.221.221v7.74l-9.067-7.912h0l-.025-.025h-.123a.22.22,0,0,0-.221.221v3.932h0V25.593a.22.22,0,0,0,.221.221h2.728a.22.22,0,0,0,.221-.221V17.828l6.315,5.5.025.025,2.728,2.359a.208.208,0,0,0,.147.049h0a.22.22,0,0,0,.221-.221V21.588h0V11.021Z" transform="translate(-192.192 -10.452)"/></g></g></g></svg>