<svg xmlns="http://www.w3.org/2000/svg" xmlns:xlink="http://www.w3.org/1999/xlink" width="36" height="36" viewBox="0 0 36 36"><defs><style>.a{fill:#ff2424;stroke:#fff;stroke-width:2px;}.b{fill:none;}.c{clip-path:url(#a);}.d{clip-path:url(#b);}.e{fill:#e0001a;}.f{fill:#fff;}</style><clipPath id="a"><circle class="a" cx="18" cy="18" r="18" transform="translate(-225 638)"/></clipPath><clipPath id="b"><path class="b" d="M432.537,157.8c25.332,13.3,50.668-13.3,76,0v44.334c-25.332-13.3-50.668,13.3-76,0Z" transform="translate(-432.537 -153.961)"/></clipPath></defs><g transform="translate(-50 -403)"><g class="c" transform="translate(275 -235)"><g transform="translate(-678.537 476.878)"><g transform="translate(432.537 153.961)"><g class="d"><g transform="translate(0 3.839)"><path class="e" d="M432.537,199.644a34.286,34.286,0,0,0,17.877,3.8V159.11a34.315,34.315,0,0,1-17.877-3.8Z" transform="translate(-432.537 -155.31)"/></g><g transform="translate(58.123 0.001)"><path class="e" d="M452.955,198.334a34.275,34.275,0,0,1,17.877,3.8V157.8a34.274,34.274,0,0,0-17.877-3.8Z" transform="translate(-452.955 -153.962)"/></g><g transform="translate(17.877 0.039)"><path class="f" d="M438.817,205.909c13.414-.558,26.833-7.043,40.246-7.6V153.975c-13.413.555-26.832,7.043-40.246,7.6Z" transform="translate(-438.817 -153.975)"/></g><g class="d"><g transform="translate(22.904 9.584)"><path class="e" d="M455.682,157.328q-1.324,2.912-2.639,5.813a1.024,1.024,0,0,1-1.372.541c-.638-.179-1.275-.367-1.91-.555q.709,3.766,1.423,7.518c.3,1.366-.66,1.608-1.133,1.1-1.11-1.022-2.226-2.055-3.336-3.106-.179.7-.362,1.392-.541,2.087a.811.811,0,0,1-.743.618c-1.406-.02-2.807-.071-4.21-.174q.547,2.015,1.1,4.022c.239.891.418,1.25-.242,1.605-.5.325-1,.646-1.5.957,2.42,1.714,4.837,3.279,7.256,4.774a.837.837,0,0,1,.322.951c-.208.769-.418,1.543-.632,2.311,2.491-.86,4.737-1.717,7.228-2.67.219-.054.592.043.592.31q-.167,4.018-.336,8.036l1.218-.322q-.094-3.941-.194-7.877a.836.836,0,0,1,.552-.626c2.5-.353,4.734-.658,7.233-.928-.214-.677-.424-1.349-.638-2.024a1.221,1.221,0,0,1,.33-1.1c2.42-2.6,4.836-5.124,7.253-7.507q-.747-.261-1.5-.51c-.663-.137-.475-.552-.242-1.526q.551-2.186,1.107-4.367c-1.4.515-2.81,1.082-4.213,1.68a.524.524,0,0,1-.746-.307c-.179-.621-.356-1.238-.538-1.856q-1.661,2.306-3.336,4.66c-.472.74-1.435.979-1.13-.535q.709-4.116,1.418-8.224c-.635.5-1.267,1-1.9,1.5-.541.444-1.073.643-1.372.162Q457,159.543,455.682,157.328Z" transform="translate(-440.583 -157.328)"/></g></g></g></g></g></g></g></svg>