<svg xmlns="http://www.w3.org/2000/svg" xmlns:xlink="http://www.w3.org/1999/xlink" width="36" height="36" viewBox="0 0 36 36"><defs><style>.a,.e{fill:#fff;}.a{stroke:#707070;}.b{clip-path:url(#a);}.c{fill:#3cf;}.d{fill:#179dc9;}</style><clipPath id="a"><circle class="a" cx="18" cy="18" r="18" transform="translate(-34.51 -4.667)"/></clipPath></defs><g transform="translate(34.51 4.667)"><g transform="translate(0 0)"><g class="b"><g transform="translate(-42 -12)"><path class="c" d="M18.013,0A17.674,17.674,0,0,1,35.826,17.814,18.156,18.156,0,0,1,17.814,35.826,17.674,17.674,0,0,1,0,18.013,18.156,18.156,0,0,1,18.013,0Z" transform="translate(0 25.333) rotate(-45)"/><path class="d" d="M47.712,155.212a18.012,18.012,0,0,0,18.013,18.013V137.2A18.013,18.013,0,0,0,47.712,155.212Z" transform="translate(-40.037 -129.947)"/><g transform="translate(7.675 11.785)"><path class="e" d="M451.087,475.871a.544.544,0,0,0-.591-.076C450.658,476.066,450.853,476.059,451.087,475.871Z" transform="translate(-422.909 -456.709)"/><path class="e" d="M365.146,405.9a.714.714,0,0,0,.045-.157c-.135-.031-.3-.038-.407-.066C364.906,405.857,364.945,405.831,365.146,405.9Z" transform="translate(-343.065 -391.526)"/><path class="e" d="M271.166,490.239l.017.009-.014-.012Z" transform="translate(-255.857 -470.198)"/><path class="e" d="M370.724,406.074l-.073-.06c0,.014-.009.029-.013.043A.741.741,0,0,1,370.724,406.074Z" transform="translate(-348.515 -391.836)"/><path class="e" d="M268.9,485.259c0-.007-.011-.021-.014-.029S268.864,485.212,268.9,485.259Z" transform="translate(-253.72 -465.529)"/><path class="e" d="M462.672,572.644l.034.246a1.809,1.809,0,0,0,.326-.266l-.218-.168Z" transform="translate(-434.355 -546.696)"/><path class="e" d="M456.557,576.183c.06.234.056.342.37.141C456.811,576.142,456.731,576.205,456.557,576.183Z" transform="translate(-428.552 -550.163)"/><path class="e" d="M426.835,547.715c-.136.239-.491.082-.7.383-.179.263.1.581-.167.893-.227.264-.018.959.369.914.41-.047.8-1.206,1.014-1.643a1.784,1.784,0,0,0-.048-1.249A2.129,2.129,0,0,0,426.835,547.715Z" transform="translate(-399.989 -523.023)"/><path class="e" d="M429.716,545.588c.1.244.369.548.5.14l-.229.04c.026-.066.052-.133.077-.2Z" transform="translate(-403.551 -521.678)"/><path class="e" d="M454.223,533.058c.042.2-.05.4.248.134Z" transform="translate(-426.376 -510.039)"/><path class="e" d="M460.3,525.229l.184.034c.005-.1.01-.2.015-.295-.021,0-.026,0-.043,0a1.393,1.393,0,0,0-.137-.363l-.208.139c.092.119.105.217.209.237C460.248,525.019,460.306,525.111,460.3,525.229Z" transform="translate(-431.861 -502.175)"/><path class="e" d="M506.387,496.6l-.259-.105c.055.284.026.2.227.354Z" transform="translate(-474.786 -476.02)"/><path class="e" d="M508.152,501.9c.322.022.264-.124.016-.338C508.163,501.677,508.157,501.789,508.152,501.9Z" transform="translate(-476.67 -480.737)"/><path class="e" d="M507.27,508.639c.16.029.156.215.337,0C507.415,508.419,507.425,508.607,507.27,508.639Z" transform="translate(-475.849 -487.221)"/><path class="e" d="M229.366,397.07l.278.156C229.692,396.817,229.583,397,229.366,397.07Z" transform="translate(-216.922 -383.42)"/><path class="e" d="M236.176,395.821c.051.031.228.1.242.107a3.826,3.826,0,0,0,.031.387c.045-.15.141-.379.143-.431C236.408,395.764,236.375,395.618,236.176,395.821Z" transform="translate(-223.267 -382.26)"/><path class="e" d="M244.938,403.64c.14.022.188.145.364-.061C245.038,403.391,245.072,403.559,244.938,403.64Z" transform="translate(-231.428 -389.492)"/><path class="e" d="M264.339,414.873c.148.048.107.24.317.052l-.186-.218Z" transform="translate(-249.5 -399.925)"/><path class="e" d="M270.976,430.831l-.308.177.143.144Z" transform="translate(-255.395 -414.927)"/><path class="e" d="M260.541,431.321c.143.106.084.242.318.194-.157-.286.014-.2-.317-.2-.131-.125.005-.164-.288-.02l.214.19Z" transform="translate(-245.697 -415.27)"/><path class="e" d="M243.218,467.821c.157.208.184.044.357.041C243.409,467.8,243.444,467.594,243.218,467.821Z" transform="translate(-229.826 -449.246)"/><path class="e" d="M248.731,470.158c.14.109.106.268.342.071C248.925,469.959,248.9,470.112,248.731,470.158Z" transform="translate(-234.961 -451.438)"/><path class="e" d="M245.622,472.559c.14.142.134.3.34.139l-.148-.254Z" transform="translate(-232.065 -453.644)"/><path class="e" d="M136.526,460.754c.3-.1.088-.14.1-.257C136.547,460.617,136.363,460.53,136.526,460.754Z" transform="translate(-130.284 -442.528)"/><path class="e" d="M140.111,461.42c-.1.241-.066.171.013.383l.159-.138Z" transform="translate(-133.623 -443.387)"/><path class="e" d="M140.8,466.843c.019-.076.205-.055-.017-.267a1.583,1.583,0,0,0-.08.8,1.136,1.136,0,0,0-.178.092c.222.083.254.019.4-.151l-.106-.174.179-.1Z" transform="translate(-134.065 -448.184)"/><path class="e" d="M127.644,457.889l.118.138.313.046C128.078,457.747,127.912,457.709,127.644,457.889Z" transform="translate(-122.08 -440.002)"/><path class="e" d="M109.352,453.674a.9.9,0,0,1,.561.133c.235-.17.264-.1.546-.138.019-.409-.728-.763-1.038-.387a.517.517,0,0,1,.181.156l-.289.028C109.326,453.535,109.339,453.6,109.352,453.674Z" transform="translate(-105.025 -435.667)"/><path class="e" d="M528.6,485.012c.046.736.674.41.485-.162C528.769,484.495,528.588,484.764,528.6,485.012Z" transform="translate(-495.697 -465.027)"/><path class="e" d="M85.816,442.966c-.443-.221-1.682-1.176-1.93-.33a1.554,1.554,0,0,1,.934.063c.34.184.2.853.826.437Z" transform="translate(-81.368 -425.59)"/><path class="e" d="M100.794,436.754c.076.148.21.243.3.4.034-.2.087-.137.034-.371l-.143.08c0-.277.023-.151-.181-.357C100.8,436.591,100.8,436.673,100.794,436.754Z" transform="translate(-97.099 -420.21)"/><path class="e" d="M108.085,442.354c.012.149.089.208.154.335C108.3,442.476,108.455,442.371,108.085,442.354Z" transform="translate(-103.883 -425.648)"/><path class="e" d="M102.416,430.849c.177.076.159.147.33.228-.178.2-.052.352.237.436a2.889,2.889,0,0,1-.26-.753C102.573,430.755,102.521,430.664,102.416,430.849Z" transform="translate(-98.608 -414.836)"/><path class="e" d="M98.013,457.49c.215.13.334.212.49-.048C98.249,457.229,98.149,457.322,98.013,457.49Z" transform="translate(-94.512 -439.571)"/><path class="e" d="M121.561,211.665c.352-.044.217-.352-.013-.556-.1.1-.2.2-.3.306A.576.576,0,0,1,121.561,211.665Z" transform="translate(-116.127 -210.497)"/><path class="e" d="M128.588,212.971c.02.089.041.179.061.268.548-.162.381-.79-.138-.614C128.762,212.775,128.55,212.821,128.588,212.971Z" transform="translate(-122.887 -211.879)"/><path class="e" d="M87.185,239.948c.192.4.665.571.729.046l.2.138c.1-.426-.2-.385-.2-.66a1.772,1.772,0,0,0-.044-.843q-.541.7-1.012,1.461A.379.379,0,0,0,87.185,239.948Z" transform="translate(-84.132 -236.102)"/><path class="e" d="M108.386,237.946c-.247-.238-.554-.276-.657.078-.232-.167-.166.035-.331.115a1.051,1.051,0,0,1,.26.732C108.258,238.666,108.131,238.375,108.386,237.946Z" transform="translate(-103.244 -235.296)"/><path class="e" d="M114.285,223.947l-.09.232c.507.7.6-1.481-.316-.249C114.008,223.9,114.154,223.962,114.285,223.947Z" transform="translate(-109.273 -222.068)"/><path class="e" d="M65.893,452.775a16.877,16.877,0,0,0-2.475-.968,2.75,2.75,0,0,1-.584-.058c.476-.78-.629-1.673-.875-1.047-.013-.01-.022-.008-.029.005-.352-.325-.745-.63-1.076-.976a.807.807,0,0,0,.07.05c.184-.259.233-.441-.1-.356-.061.079-.118.123-.1.179-.015-.018-.035-.031-.049-.049-.256-.313-.986.13-1.332-.461-.191.2-.3.281-.323.569-.278-.152-.151-.432.094-.636-.4-.07-.7.352-.984.59a1.624,1.624,0,0,1-.854.071,1.752,1.752,0,0,1-.351-.11.44.44,0,0,1-.1-.065c-.183-.144-.081-.364.023-.917-.237-.515-.767-.225-1.047-.41.152-.217.912-1.355.254-1.213a2.666,2.666,0,0,0-.6.13c-.09.046-.06.407-.151.435a1,1,0,0,1-.574-.016c.075.321.153.641.245.955.087.078.172.157.249.213.544.4.972.484,1.337,1.136,0,0-.224,0-.229,0,.243.357.42.294.517.132a4,4,0,0,0,.386.2c.185-.722.666.163.487.6-.186.458-.985,1.17-.552,1.533-.2.121-.2.415-.12.76a18.008,18.008,0,0,0,1.612,2.166c.311.171.629.371.637.548,0,.053,0,.107.007.161a18.053,18.053,0,0,0,3.282,2.678c.079-.144.146-.3.234-.444l.158.162c.532-.771.465-1.305,1.268-1.784.487-.29.483.064.857-.558.206-.342.042-.861.125-1.244.033-.155-.226-.193-.07-.335l.7-.64C65.99,453.636,66.036,452.844,65.893,452.775Z" transform="translate(-54.242 -429.933)"/><path class="e" d="M391.879,409.627c-.317-.149-.9.142-.312.3A3.85,3.85,0,0,0,391.879,409.627Z" transform="translate(-367.781 -395.16)"/><path class="e" d="M316.133,397.691c-.468-.144-.425.263,0,0Z" transform="translate(-297.434 -384.064)"/><path class="e" d="M329.8,393.765c1.035.174-.37-1.183,0,0Z" transform="translate(-310.418 -379.985)"/><path class="e" d="M331.636,386.076l-.048-.23C331.286,386.1,331.364,386.458,331.636,386.076Z" transform="translate(-311.961 -373.073)"/><path class="e" d="M341.382,401.318a3.114,3.114,0,0,0-.394.062.626.626,0,0,0,.536.4C341.6,401.526,341.491,401.458,341.382,401.318Z" transform="translate(-320.901 -387.468)"/><path class="e" d="M345.891,410.29c.329-.137.147-.311,0,0Z" transform="translate(-325.464 -395.654)"/><path class="e" d="M369.989,409.426a.505.505,0,0,0,.518.135C370.681,409.192,370.168,409.254,369.989,409.426Z" transform="translate(-347.915 -394.885)"/><path class="e" d="M180.985,218.368a2.971,2.971,0,0,0,1.31-.573c.211-.626-.442-.489-.6-.9-.2-.515.805.061,1.037-.3l-.3-.168c.207-.28,1.067-1.245.215-1.258.1-.38.911-.827,1.233-1.109-.294-.41-1.02-.172-1.3.185.288-.5-.276-.788-.474-.318a.733.733,0,0,0-.807-.125c.225-.366.857-.218,1.263-.232-.229-.57-2.091-.987-2.053-.386-.314-.11-.326-.051-.372-.323a.454.454,0,0,0-.538.344l.329.114c-.329.371-.537-.181-.982-.194-.132.909-1.246-.859-1.548.26-.811-.255-.625.939-1.335.369-.4.4.109.7.516.539-.22.335-.7.132-1.007.513-.115.145.366.5.554.53.6.1.665-.432,1.172.243a1.037,1.037,0,0,1,.023,1.312.476.476,0,0,1,.63.121,2.411,2.411,0,0,0-.4-.044c.168.091.289.3.457.413a1.935,1.935,0,0,0-.575,1.73c.028.349.009,1.349.678,1.1-.014.233.059.474.315.454.313-.024.215-.47.338-.713a2.135,2.135,0,0,1,1.363-.988C180.482,218.5,180.479,218.368,180.985,218.368Z" transform="translate(-166.843 -212.12)"/><path class="e" d="M200.094,276.977c.271-.867-.817-.169,0,0Z" transform="translate(-189.367 -271.385)"/><path class="e" d="M267.564,269.391a2.17,2.17,0,0,0,.4.2C268.125,269.094,267.4,268.971,267.564,269.391Z" transform="translate(-252.482 -264.486)"/><path class="e" d="M278.626,223.605c-.776.494-3.015,2.1-1.553,2.267a1.178,1.178,0,0,1-1.381-.3,1.045,1.045,0,0,0-.1.5.27.27,0,0,0-.15-.092c-.842-.133-.268.177-.6.462-.39.333.255.782.357,1.036-.806-.549-1.056-.087-1.737.159-.2.073-.252-.113-.663.114s-.444.4-.7.6c.263-.466-.2-.7-.6-.478a2.647,2.647,0,0,0,.247.451.652.652,0,0,0-.294.649c-.2-.033-.427.058-.627.018.339.421.066.433-.284.238-.175-.1-.2-.545-.5-.642.26.05,1.715.441,1.327-.279a1.6,1.6,0,0,0-1.538-.51c.026-.083-.063-.189-.087-.242h.133c-.147-.266-.851-.416-.982.006-.24-.231-.433-.177-.508.137l-.068-.137c-.39.314-1.42,1.408-1.081,1.869a2.26,2.26,0,0,1-.285-.123c-.271.387-.81.593-.73,1.1.09.569.5,1.282.926.4-.009.32.09.367.264.641.293.46.027.633.464.3.35-.265.264-.517.526-.915.283-.43-.455-.419-.156-.921.137-.229.945-1.33.926-.689-.013.449-.612.431-.444,1.043.176.642.787.131,1.188.111.03.057.09.164.124.235-.6.113-1.126.093-.713.809l-.123,0c-.3-.7-.483.593-.643.655l.07-.142c-.5.01-.611.316-1.028.2-.133-.038-.849.052-.435-.411.237-.264-.011-.674-.375-.272-.185.2-.05.457-.04.639a4.707,4.707,0,0,0-.5.492c-.079.09-.158.161-.239.271a1.774,1.774,0,0,1-1.367.685c.147.326.759.486.656.918-.158.666-.882.064-1.214.252s-.36,1.3-.327,1.666a3.992,3.992,0,0,0,1.326.048c.541-.133.515-1.142.928-1.387a3.751,3.751,0,0,1,1.078-.269c.374.117,1.2,1.011,1.148,1.421.2-.166.548-.656.336-.758-.3-.146-1.344-.845-.8-1.079.133.423.575.441.933.8.149.15.164.371.308.55a4.8,4.8,0,0,0,.664.6,1.006,1.006,0,0,0-.241-.753,1.334,1.334,0,0,0,.62-.052c-.159.164-.13.4-.071.708.081.028.631.715.863.122a.6.6,0,0,0,.811.01c.038.021.048.035.051.046a.145.145,0,0,1,.031-.012,1.892,1.892,0,0,1,.23.311,1.322,1.322,0,0,1-1.54.765c-.318-.09-2.013-.674-1.362.175-.691.318-1.111-.938-1.741-.814.2-.093.181-.306.144-.5s-.935-.069-1.141-.025c-1.238.268-2.344.368-2.807,1.607-.167.445-1.793,1.3-1.328,1.906.249.324.011.831-.05,1.178-.021.121.368.642.449.85.048.049.223.259.194.288l-.048.048,0,0c.118-.1.135-.056.268.149a2.879,2.879,0,0,1-.254-.137c.436.327.932.852,1.359,1.113.008-.584,1.033-.116,1.342-.613,0,.05-.018.086-.02.135a.414.414,0,0,1,.21-.056c.447-.371,1.051.256,1.535.3-.223.152-.176.276-.1.23-.057.111-.111.224-.164.338a.3.3,0,0,0-.1-.073.724.724,0,0,1,.022-.1.843.843,0,0,0-.032.1.694.694,0,0,0-.094-.047.719.719,0,0,0,.087.066.908.908,0,0,0-.046.161c-.072-.032-.114.062-.183.029.093.045.08.226.182.11,0,.035,0,.066,0,.106.017-.04.039-.077.057-.117,0-.017-.006-.034-.008-.051s.01-.01.018-.024c-.01-.013-.017-.013-.026-.021a.693.693,0,0,1,.02-.184c.054.038.091.059.1.056-.035.075-.075.148-.109.224.1.49.729.809.952,1.237.565,1.085-.6,1.834.091,2.839a9.23,9.23,0,0,1,.444,1.5c.083.2.157.416.22.628l.273.267c.046.114-.237.163-.124.419.189.429,1.115.154,1.49.031a3.05,3.05,0,0,0,1.435-1.167c.1-.161.067-.461.156-.644.1-.2.364-.078.419-.391.129-.74-.01-.792.629-1.314.961-.786.193-1.193.164-2.185-.028-.972,1.539-1.743,2-2.517,1.243-2.087-1.277-.178-1.261-1.245.322.094.837-.238,1.179-.377a4.67,4.67,0,0,0,.963-.454,2.754,2.754,0,0,0,.744-1.222c0-.427-.847-.233-.65-.852-.436.056-.4.52-.878.448.137-.482-.157-.569-.287-.114-.168-.235-.911-1.043-.26-1.057.047,0,.372.436.49.5.353.192.528.017.772.086a4.182,4.182,0,0,0,1.32.429c.129,0,.374-.343.651-.093s.35.415.705.36c-.44.317.231.824.416.327a9.868,9.868,0,0,0,1.238,2.932c.516-.115.577-.714.558-1.164-.029-.718.359-.943.844-1.48.366-.405.084-.406.6-.4.252,0,.436-.079.622-.085a.756.756,0,0,0,.06.4,17.885,17.885,0,0,0-4.171-15.893Zm-12.052,8.706c.063-.055.119-.116.18-.173C266.746,232.218,266.7,232.281,266.574,232.312Zm5.331,1.444a1.682,1.682,0,0,1-.24.448,1.842,1.842,0,0,1-.344-.261C271.567,233.925,271.712,233.949,271.9,233.755Zm-.355,1.283c-.5-.084-1.126.663-1.234-.2-.035-.276.488-.843.727-.745-.314.509.323.559.587.258.133.4.552.3.785.606C272.776,235.43,271.762,235.216,271.55,235.039Zm1.936,6.072a10.693,10.693,0,0,1-1.881-2.42c-.156,0,.167-.048.2-.05-.216-.28-.549-.535-.477-.886.1.5.913,1.058,1.3,1.529.071.086.34.525.405.632A2.023,2.023,0,0,1,273.485,241.11Zm1.148-6.02c-.067.264.473.835.131,1.007s-1.141-.487-.462-.614c-.188-.543-1.292-1.124-.528-1.68.556-.4.634.3.493.3-.563,0,.173.774.242.9.171-.15.318-.064.4-.085C274.792,235,274.9,235.168,274.633,235.09Zm1.456-7.857c-.145.309.377.977-.429.845a2.226,2.226,0,0,0,.163-1.32c.183.223.46.3.8-.025C276.7,227.232,276.266,226.857,276.089,227.233Z" transform="translate(-247.769 -222.124)"/><path class="e" d="M258.237,300.152c.456.233,1.755-.212,1.177-.7a.751.751,0,0,0-1.018.11c.127-.638-.866-.107-.357.091A.512.512,0,0,0,258.237,300.152Z" transform="translate(-243.504 -292.511)"/><path class="e" d="M331.462,236.582l.145-.248a.922.922,0,0,0,.089.767c.241-.465.927-.966.154-1.225C331.269,235.681,330.618,236.584,331.462,236.582Z" transform="translate(-311.656 -233.515)"/><path class="e" d="M343.41,231.792c.3.4,1.031.114.847-.322-.12-.284-.6-.058-.694.073C343.332,231.034,342.759,231.716,343.41,231.792Z" transform="translate(-322.882 -229.313)"/><path class="e" d="M348.378,244.024c-.228.353-.015.3.321.234C348.859,244.226,348.771,243.715,348.378,244.024Z" transform="translate(-327.696 -241.029)"/><path class="e" d="M395.3,225.021a.636.636,0,0,0,.355-.613C395.207,224.406,394.548,225.007,395.3,225.021Z" transform="translate(-371.175 -222.871)"/><path class="e" d="M407.174,221.39c.092-.112.153-.173.127-.326C406.866,220.922,406.575,221.347,407.174,221.39Z" transform="translate(-382.236 -219.732)"/><path class="e" d="M416.907,221.743c.265-.258.019-.378-.315-.26C416.634,221.738,416.736,221.679,416.907,221.743Z" transform="translate(-391.325 -220.108)"/><path class="e" d="M423.365,219.466c.683-.465-.363-.724,0,0Z" transform="translate(-397.559 -217.853)"/><path class="e" d="M416.576,237.452c.05-.542,1.821-1.191.813-1.437-.091.413-.417.446-.784.529-.3.067-.567.8-.669,1.089a1.444,1.444,0,0,0,.56.142Z" transform="translate(-390.729 -233.67)"/><path class="e" d="M414.178,261.473c.395,0-.117-.948-.565-.877.15.284-.076.274-.1.387C413.486,261.365,413.882,261.473,414.178,261.473Z" transform="translate(-388.461 -256.537)"/><path class="e" d="M475.738,204.193c-.089-.084-.181-.165-.272-.247a.711.711,0,0,0-.306.362A.665.665,0,0,0,475.738,204.193Z" transform="translate(-445.974 -203.833)"/><path class="e" d="M482.751,209.283c-.107-.108-.224-.2-.334-.309a.808.808,0,0,0-.2.376C482.335,209.313,482.556,209.315,482.751,209.283Z" transform="translate(-452.539 -208.511)"/><path class="e" d="M136.237,203.932c-.043.119.052.232-.336.2.233.571.775.575,1.231.258-.2-.3-.8-1.594-1-.814C135.62,203.529,135.725,204.081,136.237,203.932Z" transform="translate(-129.765 -203.257)"/><path class="e" d="M120.878,242.008c.172-.056.257.072.332-.141.258.192.514-.032.712-.282C121.559,241.462,120.424,241.164,120.878,242.008Z" transform="translate(-115.687 -238.71)"/><path class="e" d="M126.306,225.815c-.343-.471-1.363-.01-1.416-.588-.089-.982-1.241-.533-.5-.187-.025.118-.054.161-.07.265-.112-.08-.3-.063-.407-.145l-.092.261c.286.068.392.261.551-.057C124.382,225.932,125.975,226.315,126.306,225.815Z" transform="translate(-118.521 -223.078)"/><path class="e" d="M152.637,250.252c-.183-.316-.5-.614-.781-.295A.747.747,0,0,0,152.637,250.252Z" transform="translate(-144.723 -246.515)"/><path class="e" d="M143.185,202.8c0,.494.512.466.907.263-.184.67-.75.02-1.193.159a4.316,4.316,0,0,0,.314.443c-.519-.3-.665.269-.124.309l-.037.185c-.47-.393-.52-.191-1-.039a1.546,1.546,0,0,0,1.612.477l-.174-.132c.352-.181.984-.306.559-.729.6.232,1.119-.1,1.673-.317-.136-.024-.272-.077-.41-.088.386-.026.687.1.929-.236-.567-.207-1.136-.411-1.7-.623-.3-.114-.435.285-.653.1-.294-.244-.494-.426-.619-.025a.423.423,0,0,0-.641-.089A.473.473,0,0,0,143.185,202.8Z" transform="translate(-135.597 -202.32)"/><path class="e" d="M124.39,284.962l-.735-.717a2.066,2.066,0,0,0-.327.414,2.628,2.628,0,0,0-.022.488C123.785,284.685,124.01,285.35,124.39,284.962Z" transform="translate(-118.044 -278.543)"/><path class="e" d="M169.244,351.307c-.54.518-1.125.795-.223,1.129.843.312.7-.538.115-.6C169.433,351.665,169.377,351.547,169.244,351.307Z" transform="translate(-160.277 -340.938)"/><path class="e" d="M49.823,257.888c.045-.538,1.216-.333.917.448-.285.744.754.718.493-.354-.217-.89,1.032-.881,1.34-1.279.179-.232-.048-.533.278-.885a1.423,1.423,0,0,1,1.106-.5c-.338-.491.138-.594.516-.815a.88.88,0,0,0,1.359-.481c-1.209.633-.006-1.054-1.278-.547.31-.388.644-.315,1.066-.22.456.1.765-.292,1.263-.418.481-.121-.35-.982-.455-1.108-.239-.288-.2-.971-.257-1.339-.11.074-.583.5-.692.466-.441-.12.047-.361-.064-.6-.176-.373-.939-1.091-1.211-.56-.261.51-.3,1.11-.531,1.563-.183.353-.434.089-.573.282-.219.3.09.691-.269,1.015-.22-.258.155-1.051-.036-1.135a2.183,2.183,0,0,1-1.329-1.141c-.1-.2-.483-.026-.226-.369a3.424,3.424,0,0,1,.549-.682c.4-.313,1.254-.435,1.146-1,.508-.243.79.13,1.236-.116s.255-.847-.047-1.15a4.036,4.036,0,0,1,.606.145c.367.18.363.6.828.539-.037.471-.5,1.38-1.027.847-.438.439-.02.812.446.479.071.182.712,1.466,1.032,1.062.133-.168.52-.477.4-.678-.191-.311-.4-.432-.167-.715.051.188.246.336.31.521.1-.09.635-.438.637-.557.006-.34-.307-.314-.522-.176q-.1-.285-.208-.57c-.077-.21.272-.39.223-.539-.124-.37-.538-.687-.832-.411-.04-.221-.18-.579-.405-.55-.575.077-.456-.139-.57-.68-.332.168-.638.407-.582.808h-.162a1.671,1.671,0,0,1,.418-.918c-.637-.183-1.6.626-.993,1.258a2.166,2.166,0,0,0,.421.1c-.165.286-.286.659-.623.586.358-.342.12-.682-.247-.324-.007-.242-.04-2-.706-1.049-.282.4.272.759-.284,1.256a.9.9,0,0,0,.13-.921c-.538.16-.241.925-.875.626-.307-.144-1.261-1.039-1.04.05l-.115-.019a.359.359,0,0,0,0-.245,17.9,17.9,0,0,0-2.5,9.126,18.1,18.1,0,0,0,.234,2.768,2.613,2.613,0,0,1,.212-.528C48.621,257.388,49.131,257.919,49.823,257.888Z" transform="translate(-47.707 -242.543)"/><path class="e" d="M284.934,329.36c-.351-.249-.308.019-.513.16-.26.179-.128-.111-.265.257.041-.111-.036.482-.124.29.149.325.164.325.568.161.451-.183.249-.576.581-.9.364.314-.129.63-.315,1.013l.3.031c-.176.061-.319.213-.491.285.386.284,1.449-.141,1.466-.448.03-.544-.783-.825-.469-1.5H285.3c.982-.863-.927-.275-.36.415C284.94,329.2,284.938,329.28,284.934,329.36Z" transform="translate(-267.857 -319.509)"/><path class="e" d="M359.717,330.345c-.351-.032-.34.114,0,0Z" transform="translate(-338.102 -321.43)"/><path class="e" d="M335.427,341.481c-.122-.527-.494-.069,0,0Z" transform="translate(-315.486 -331.563)"/><path class="e" d="M351.438,331.03c-.142.18-.308.176-.109.436C351.581,331.321,351.469,331.244,351.438,331.03Z" transform="translate(-330.445 -322.072)"/></g><g transform="translate(7.66 11.787)"><path class="e" d="M306.4,374.795a.393.393,0,0,0-.1-.356V375A.492.492,0,0,0,306.4,374.795Z" transform="translate(-288.292 -362.462)"/><path class="e" d="M329.272,510.544a.265.265,0,0,1-.1-.056.736.736,0,0,0-.02.185c.009.008.016.008.026.021-.008.014-.011.012-.018.024s0,.034.008.05C329.2,510.693,329.237,510.619,329.272,510.544Z" transform="translate(-309.544 -489.042)"/><path class="e" d="M175.858,213.783c-.4.4.109.7.515.539-.22.335-.7.132-1.007.513-.115.145.366.5.554.53.6.1.665-.432,1.172.244a1.037,1.037,0,0,1,.023,1.312.476.476,0,0,1,.63.122,2.342,2.342,0,0,0-.4-.044c.168.091.29.3.457.413a1.933,1.933,0,0,0-.575,1.73c.027.349.009,1.349.677,1.1-.014.233.059.473.315.454.313-.024.216-.47.339-.712a2.133,2.133,0,0,1,1.363-.988c.347-.457.343-.589.849-.589a2.973,2.973,0,0,0,1.31-.573c.211-.626-.443-.489-.6-.9-.2-.515.805.061,1.037-.3l-.3-.168c.207-.28,1.067-1.246.215-1.258.1-.381.911-.827,1.233-1.11-.294-.41-1.02-.172-1.3.186.288-.5-.275-.788-.474-.318a.732.732,0,0,0-.807-.125c.225-.366.858-.218,1.263-.232-.229-.57-2.091-.987-2.053-.386-.314-.11-.326-.051-.371-.324a.454.454,0,0,0-.538.344l.328.115c-.329.371-.537-.181-.982-.195-.132.91-1.246-.86-1.548.26C176.382,213.159,176.568,214.353,175.858,213.783Z" transform="translate(-166.451 -212.154)"/><path class="e" d="M199.876,277.016c.271-.867-.817-.169,0,0Z" transform="translate(-188.982 -271.424)"/><path class="e" d="M267.352,269.429a2.181,2.181,0,0,0,.4.2C267.912,269.132,267.186,269.01,267.352,269.429Z" transform="translate(-252.027 -264.524)"/><path class="e" d="M268.683,485.3c0-.007-.012-.021-.014-.029C268.651,485.251,268.648,485.252,268.683,485.3Z" transform="translate(-253.263 -465.568)"/><path class="e" d="M298.8,365.686v-.655a1.012,1.012,0,0,1-.562.092C298.338,365.341,298.64,365.486,298.8,365.686Z" transform="translate(-280.789 -353.709)"/><path class="e" d="M285.725,382.553c-.324.184-.361,1.3-.328,1.667a4.021,4.021,0,0,0,1.326.048.447.447,0,0,0,.121-.06v-1.7C286.588,382.815,286.011,382.391,285.725,382.553Z" transform="translate(-268.83 -369.969)"/><path class="e" d="M265,409.375a2.153,2.153,0,0,0-1.678,1.358c-.166.445-1.793,1.3-1.328,1.905.249.324.011.832-.05,1.178-.021.121.368.642.449.85.048.048.223.259.194.287l-.048.048,0,0,0,0,.017.009c.436.327.932.852,1.359,1.114.006-.468.665-.262,1.086-.416Z" transform="translate(-246.991 -394.967)"/><path class="e" d="M229.148,397.108l.278.156C229.475,396.855,229.365,397.038,229.148,397.108Z" transform="translate(-216.505 -383.459)"/><path class="e" d="M235.958,395.86c.052.03.229.1.242.107a3.826,3.826,0,0,0,.03.387c.045-.15.141-.379.144-.432C236.19,395.8,236.157,395.658,235.958,395.86Z" transform="translate(-222.841 -382.298)"/><path class="e" d="M245.089,403.615c-.265-.187-.23-.019-.364.061C244.865,403.7,244.913,403.822,245.089,403.615Z" transform="translate(-230.998 -389.529)"/><path class="e" d="M264.442,414.959l-.185-.219-.131.166C264.274,414.955,264.233,415.146,264.442,414.959Z" transform="translate(-249.049 -399.958)"/><path class="e" d="M270.767,430.867l-.308.178.142.144Z" transform="translate(-254.941 -414.963)"/><path class="e" d="M260.645,431.552c-.156-.286.015-.2-.316-.2-.131-.125.005-.163-.288-.02l.214.19.073-.161C260.471,431.465,260.411,431.6,260.645,431.552Z" transform="translate(-245.247 -415.308)"/><path class="e" d="M243.36,467.9c-.166-.058-.131-.268-.357-.04C243.16,468.066,243.187,467.9,243.36,467.9Z" transform="translate(-229.396 -449.284)"/><path class="e" d="M248.859,470.264c-.147-.271-.175-.118-.341-.072C248.658,470.3,248.624,470.46,248.859,470.264Z" transform="translate(-234.527 -451.472)"/><path class="e" d="M245.749,472.736l-.148-.253-.192.115C245.549,472.74,245.543,472.895,245.749,472.736Z" transform="translate(-231.635 -453.682)"/><path class="e" d="M136.313,460.79c.3-.1.088-.139.1-.257C136.334,460.653,136.15,460.566,136.313,460.79Z" transform="translate(-130.071 -442.564)"/><path class="e" d="M139.913,461.838l.159-.138-.171-.245C139.8,461.7,139.834,461.626,139.913,461.838Z" transform="translate(-133.412 -443.422)"/><path class="e" d="M140.489,467.42c.036-.045-.171.077-.179.083.222.083.255.019.4-.152l-.106-.174.179-.1-.2-.2c.019-.077.205-.055-.017-.267A1.611,1.611,0,0,0,140.489,467.42Z" transform="translate(-133.85 -448.22)"/><path class="e" d="M127.552,458.063l.312.046c0-.326-.163-.364-.43-.184Z" transform="translate(-121.87 -440.038)"/><path class="e" d="M109.139,453.708a.906.906,0,0,1,.561.133c.235-.169.264-.1.546-.138.019-.409-.728-.763-1.038-.387a.517.517,0,0,1,.18.156l-.289.027Z" transform="translate(-104.812 -435.702)"/><path class="e" d="M257.826,299.692a.511.511,0,0,0,.2.5c.455.233,1.754-.211,1.177-.7a.752.752,0,0,0-1.018.11C258.31,298.964,257.316,299.5,257.826,299.692Z" transform="translate(-243.051 -292.55)"/><path class="e" d="M83.674,442.669a1.555,1.555,0,0,1,.934.063c.34.184.2.853.826.437L85.6,443C85.16,442.778,83.922,441.823,83.674,442.669Z" transform="translate(-81.156 -425.624)"/><path class="e" d="M100.588,436.542c0,.082-.007.164-.01.245.076.148.21.243.3.4.033-.2.087-.136.033-.371l-.142.079C100.771,436.622,100.793,436.749,100.588,436.542Z" transform="translate(-96.884 -420.243)"/><path class="e" d="M107.872,442.388c.012.149.089.208.154.335C108.091,442.51,108.242,442.405,107.872,442.388Z" transform="translate(-103.67 -425.682)"/><path class="e" d="M102.528,431.115c-.178.2-.051.351.238.436a2.908,2.908,0,0,1-.26-.753c-.15-.006-.2-.1-.307.088C102.375,430.962,102.358,431.033,102.528,431.115Z" transform="translate(-98.391 -414.873)"/><path class="e" d="M98.291,457.478c-.255-.213-.355-.12-.491.048C98.015,457.657,98.134,457.738,98.291,457.478Z" transform="translate(-94.299 -439.607)"/><path class="e" d="M121.348,211.7c.352-.044.217-.353-.014-.555-.1.1-.2.2-.3.305A.582.582,0,0,1,121.348,211.7Z" transform="translate(-115.914 -210.536)"/><path class="e" d="M128.377,213.008l.061.268c.548-.162.38-.79-.138-.614C128.55,212.812,128.339,212.858,128.377,213.008Z" transform="translate(-122.676 -211.915)"/><path class="e" d="M136.024,203.967c-.043.119.052.233-.336.2.233.57.775.574,1.231.257-.2-.3-.8-1.594-1-.814C135.407,203.563,135.512,204.116,136.024,203.967Z" transform="translate(-129.452 -203.291)"/><path class="e" d="M87.7,240.027l.2.138c.1-.426-.2-.386-.2-.66a1.772,1.772,0,0,0-.044-.843q-.541.7-1.012,1.461a.378.378,0,0,0,.328-.142C87.164,240.379,87.638,240.552,87.7,240.027Z" transform="translate(-83.919 -236.135)"/><path class="e" d="M107.444,238.907c.6-.2.472-.5.727-.925-.247-.238-.555-.276-.657.079-.231-.168-.166.034-.331.115A1.051,1.051,0,0,1,107.444,238.907Z" transform="translate(-103.029 -235.332)"/><path class="e" d="M121.706,241.623c-.363-.122-1.5-.42-1.044.424.172-.056.257.072.332-.142C121.252,242.1,121.509,241.873,121.706,241.623Z" transform="translate(-115.472 -238.749)"/><path class="e" d="M126.093,225.85c-.342-.472-1.363-.01-1.416-.589-.089-.982-1.24-.533-.5-.187-.026.118-.053.161-.07.266-.113-.08-.295-.064-.407-.145l-.092.26c.286.068.392.261.551-.057C124.169,225.966,125.762,226.349,126.093,225.85Z" transform="translate(-118.308 -223.112)"/><path class="e" d="M113.667,223.965c.128-.026.275.031.406.017l-.09.232C114.49,224.915,114.587,222.734,113.667,223.965Z" transform="translate(-109.062 -222.103)"/><path class="e" d="M151.643,249.992a.746.746,0,0,0,.781.295C152.241,249.971,151.924,249.672,151.643,249.992Z" transform="translate(-144.394 -246.549)"/><path class="e" d="M142.974,202.841c0,.494.512.466.907.263-.184.671-.75.02-1.193.159a4.327,4.327,0,0,0,.314.443c-.519-.3-.665.27-.124.309l-.037.185c-.47-.393-.52-.191-1-.038a1.547,1.547,0,0,0,1.613.477l-.174-.132c.352-.181.983-.306.559-.729.6.232,1.118-.1,1.673-.317-.136-.024-.272-.077-.41-.088.386-.026.687.1.929-.236-.567-.207-1.136-.411-1.7-.623-.3-.113-.436.285-.653.1-.293-.245-.494-.426-.619-.025a.423.423,0,0,0-.641-.089A.473.473,0,0,0,142.974,202.841Z" transform="translate(-135.271 -202.356)"/><path class="e" d="M123.115,284.7a2.614,2.614,0,0,0-.022.488c.479-.463.7.2,1.084-.185l-.735-.717A2.061,2.061,0,0,0,123.115,284.7Z" transform="translate(-117.832 -278.581)"/><path class="e" d="M169.032,351.343c-.541.517-1.125.795-.223,1.128.843.312.7-.538.115-.6C169.221,351.7,169.165,351.583,169.032,351.343Z" transform="translate(-159.929 -340.974)"/><path class="e" d="M64.034,456.565c.487-.29.483.064.857-.558.205-.341.042-.861.124-1.244.033-.155-.226-.193-.069-.336l.7-.639c.126-.115.172-.907.03-.977a16.879,16.879,0,0,0-2.475-.968,2.722,2.722,0,0,1-.584-.057c.476-.78-.629-1.674-.875-1.046-.012-.01-.022-.008-.029.005-.352-.325-.745-.63-1.075-.976a.833.833,0,0,0,.071.049c.184-.259.233-.441-.1-.356-.062.08-.118.122-.1.179-.015-.017-.035-.031-.049-.049-.256-.313-.986.131-1.332-.46-.19.2-.3.281-.323.569-.278-.152-.151-.432.094-.637-.4-.069-.7.352-.985.591a1.626,1.626,0,0,1-.854.071,1.807,1.807,0,0,1-.351-.11.46.46,0,0,1-.1-.065c-.183-.144-.082-.363.023-.917-.237-.515-.767-.224-1.047-.41.153-.218.912-1.355.254-1.213a2.663,2.663,0,0,0-.6.129c-.089.046-.06.407-.152.435a1,1,0,0,1-.574-.016c.075.321.154.64.245.955.087.078.171.156.249.213.543.4.972.484,1.337,1.135,0,0-.224,0-.23,0,.243.358.421.294.517.132a4.01,4.01,0,0,0,.386.2c.185-.722.666.163.488.6-.186.458-.985,1.17-.553,1.534-.2.12-.2.415-.12.76a18.073,18.073,0,0,0,1.612,2.166c.311.171.629.371.637.548,0,.054,0,.107.007.161a18.077,18.077,0,0,0,3.282,2.678c.078-.143.146-.3.235-.444l.158.162C63.3,457.579,63.23,457.044,64.034,456.565Z" transform="translate(-54.027 -429.969)"/><path class="e" d="M50.529,258.37c-.286.744.754.718.493-.354-.217-.89,1.032-.881,1.339-1.278.179-.232-.048-.533.279-.886a1.422,1.422,0,0,1,1.106-.5c-.338-.491.139-.595.516-.815a.88.88,0,0,0,1.359-.481c-1.209.633-.006-1.054-1.279-.547.31-.388.644-.316,1.067-.22.456.1.765-.292,1.262-.417.48-.121-.35-.982-.455-1.108-.239-.288-.2-.971-.257-1.338-.109.074-.583.5-.692.466-.441-.121.047-.361-.064-.6-.176-.374-.939-1.091-1.211-.56-.261.51-.3,1.11-.531,1.563-.183.353-.434.089-.573.281-.22.3.09.691-.269,1.015-.22-.258.155-1.051-.035-1.135a2.183,2.183,0,0,1-1.33-1.141c-.1-.2-.483-.026-.226-.369a3.391,3.391,0,0,1,.549-.682c.4-.313,1.254-.435,1.146-1,.508-.243.79.13,1.237-.115s.256-.847-.047-1.15a4.011,4.011,0,0,1,.606.145c.367.181.363.6.828.54-.037.47-.5,1.38-1.027.846-.438.439-.02.811.446.479.07.182.712,1.467,1.032,1.062.133-.168.52-.477.4-.678-.191-.311-.4-.432-.168-.715.052.188.246.336.311.52.1-.09.635-.438.636-.557.005-.34-.307-.314-.522-.175l-.208-.57c-.077-.211.272-.39.223-.539-.124-.371-.538-.687-.832-.411-.04-.22-.18-.579-.406-.549-.575.076-.455-.139-.57-.68-.332.168-.637.407-.582.808h-.162a1.674,1.674,0,0,1,.419-.918c-.637-.183-1.6.626-.993,1.258a2.21,2.21,0,0,0,.421.1c-.165.286-.286.659-.623.586.358-.342.121-.681-.246-.324-.007-.242-.04-2-.707-1.048-.281.4.273.759-.284,1.256a.9.9,0,0,0,.131-.921c-.538.16-.241.924-.875.626-.306-.144-1.261-1.039-1.039.05L50,247.178a.363.363,0,0,0,0-.246,17.974,17.974,0,0,0-2.324,6.62c-.007.049-.013.1-.019.148-.042.315-.073.633-.1.953-.007.092-.015.183-.021.275-.024.37-.039.742-.039,1.118,0,0,0,.008,0,.012,0,.243.007.485.018.725a19.615,19.615,0,0,0,.216,2.042,2.648,2.648,0,0,1,.212-.528c.467-.875.978-.345,1.67-.376C49.657,257.383,50.828,257.589,50.529,258.37Z" transform="translate(-47.496 -242.577)"/><path class="e" d="M284.727,329.158q0,.119-.01.238c-.351-.249-.308.018-.514.16-.259.179-.128-.111-.265.257.041-.11-.036.481-.125.29.15.325.164.325.568.161.451-.183.249-.576.582-.9.364.314-.129.63-.315,1.013l.3.031c-.176.061-.32.213-.492.285a1.092,1.092,0,0,0,.923-.024v-1.925h-.293C286.069,327.88,284.16,328.468,284.727,329.158Z" transform="translate(-267.367 -319.546)"/></g></g></g></g></g></svg>