<svg xmlns="http://www.w3.org/2000/svg" xmlns:xlink="http://www.w3.org/1999/xlink" width="36" height="36" viewBox="0 0 36 36"><defs><style>.a{fill:#036;stroke:#fff;stroke-width:2px;}.b{fill:none;}.c{clip-path:url(#a);}.d{clip-path:url(#b);}.e{fill:#bc061b;}.f{fill:#fff;}.g{fill:#19294e;}</style><clipPath id="a"><circle class="a" cx="18" cy="18" r="18" transform="translate(-227 491)"/></clipPath><clipPath id="b"><path class="b" d="M308.006,96.622c22.538,11.831,45.076-11.831,67.614,0v39.441c-22.538-11.834-45.076,11.834-67.614,0Z" transform="translate(-308.006 -93.206)"/></clipPath></defs><g transform="translate(-102 -403)"><g class="c" transform="translate(329 -88)"><g transform="translate(-548.006 393.794)"><g transform="translate(308.006 93.206)"><g class="d"><g transform="translate(0 36.409)"><path class="e" d="M308.006,114.031c22.538,11.834,45.076-11.834,67.614,0V111c-22.538-11.834-45.076,11.831-67.614,0Z" transform="translate(-308.006 -107.584)"/></g><g transform="translate(0 33.374)"><path class="f" d="M308.006,112.837c22.538,11.831,45.076-11.834,67.614,0V109.8c-22.538-11.831-45.076,11.834-67.614,0Z" transform="translate(-308.006 -106.385)"/></g><g transform="translate(0 30.343)"><path class="e" d="M308.006,111.635c22.538,11.834,45.076-11.831,67.614,0V108.6c-22.538-11.831-45.076,11.831-67.614,0Z" transform="translate(-308.006 -105.188)"/></g><g transform="translate(0 27.308)"><path class="f" d="M308.006,110.44c22.538,11.831,45.076-11.831,67.614,0v-3.034c-22.538-11.834-45.076,11.831-67.614,0Z" transform="translate(-308.006 -103.99)"/></g><g transform="translate(0 24.272)"><path class="e" d="M308.006,109.243c22.538,11.831,45.076-11.834,67.614,0v-3.036c-22.538-11.834-45.076,11.834-67.614,0Z" transform="translate(-308.006 -102.791)"/></g><g transform="translate(0 21.242)"><path class="f" d="M308.006,108.041c22.538,11.834,45.076-11.834,67.614,0v-3.031c-22.538-11.831-45.076,11.834-67.614,0Z" transform="translate(-308.006 -101.594)"/></g><g transform="translate(0 18.204)"><path class="e" d="M308.006,106.848c22.538,11.834,45.076-11.831,67.614,0v-3.036c-22.538-11.834-45.076,11.831-67.614,0Z" transform="translate(-308.006 -100.395)"/></g><g transform="translate(0 15.17)"><path class="f" d="M308.006,105.647c22.538,11.831,45.076-11.834,67.614,0v-3.034c-22.538-11.834-45.076,11.831-67.614,0Z" transform="translate(-308.006 -99.197)"/></g><g transform="translate(0 12.139)"><path class="e" d="M308.006,104.447c22.538,11.831,45.076-11.834,67.614,0v-3.031c-22.538-11.834-45.076,11.831-67.614,0Z" transform="translate(-308.006 -98)"/></g><g transform="translate(0 9.104)"><path class="f" d="M308.006,103.253c22.538,11.831,45.076-11.834,67.614,0v-3.034c-22.538-11.836-45.076,11.831-67.614,0Z" transform="translate(-308.006 -96.802)"/></g><g transform="translate(0 6.067)"><path class="e" d="M308.006,102.056c22.538,11.831,45.076-11.836,67.614,0V99.018c-22.538-11.831-45.076,11.831-67.614,0Z" transform="translate(-308.006 -95.602)"/></g><g transform="translate(0 3.035)"><path class="f" d="M308.006,100.852c22.538,11.831,45.076-11.831,67.614,0V97.821c-22.538-11.834-45.076,11.831-67.614,0Z" transform="translate(-308.006 -94.405)"/></g><path class="e" d="M308.006,99.658c22.538,11.831,45.076-11.834,67.614,0V96.622c-22.538-11.831-45.076,11.831-67.614,0Z" transform="translate(-308.006 -93.206)"/><g transform="translate(0 3.415)"><path class="g" d="M308.006,115.8c10.291,5.4,20.585,3.4,30.877.765V95.317c-10.291,2.641-20.585,4.642-30.877-.762Z" transform="translate(-308.006 -94.555)"/></g><g transform="translate(1.684 7.044)"><path class="f" d="M309.772,95.988c.091.3.175.605.266.909.279.111.562.215.841.314-.228.084-.451.167-.679.243.086.3.172.6.258.9-.228-.251-.458-.506-.686-.762q-.342.11-.684.213l.266-.689c-.225-.258-.456-.524-.684-.793.279.127.557.246.838.362C309.6,96.454,309.681,96.221,309.772,95.988Z" transform="translate(-308.671 -95.988)"/></g><g transform="translate(1.684 10.592)"><path class="f" d="M309.772,97.389c.091.3.175.6.266.9.279.111.562.215.841.314-.228.084-.451.165-.679.241l.258.907c-.228-.251-.458-.506-.686-.765q-.342.114-.684.213c.089-.228.177-.461.266-.691-.225-.258-.456-.522-.684-.79.279.127.557.246.838.362C309.6,97.85,309.681,97.619,309.772,97.389Z" transform="translate(-308.671 -97.389)"/></g><g transform="translate(1.684 14.135)"><path class="f" d="M309.772,98.788c.091.3.175.605.266.9.279.111.562.215.841.317-.228.084-.451.165-.679.243.086.3.172.6.258.9-.228-.251-.458-.5-.686-.762q-.342.114-.684.213c.089-.228.177-.461.266-.691-.225-.258-.456-.522-.684-.79.279.127.557.246.838.362C309.6,99.251,309.681,99.021,309.772,98.788Z" transform="translate(-308.671 -98.788)"/></g><g transform="translate(1.684 17.68)"><path class="f" d="M309.772,100.188c.091.3.175.6.266.907.279.109.562.213.841.311-.228.089-.451.17-.679.251.086.3.172.6.258.894-.228-.248-.458-.5-.686-.757-.228.073-.456.142-.684.208.089-.225.177-.456.266-.686-.225-.261-.456-.527-.684-.793.279.127.557.246.838.362C309.6,100.651,309.681,100.421,309.772,100.188Z" transform="translate(-308.671 -100.188)"/></g><g transform="translate(1.684 21.223)"><path class="f" d="M309.772,101.587c.091.3.175.608.266.909.279.111.562.215.841.317-.228.081-.451.162-.679.241l.258.9c-.228-.251-.458-.5-.686-.762q-.342.114-.684.213c.089-.23.177-.461.266-.689-.225-.261-.456-.524-.684-.793.279.127.557.246.838.362C309.6,102.053,309.681,101.82,309.772,101.587Z" transform="translate(-308.671 -101.587)"/></g><g transform="translate(4.15 9.772)"><path class="f" d="M310.749,97.065c.084.294.17.585.256.881.281.081.562.16.848.23-.225.109-.453.215-.681.317.084.291.172.58.258.871-.225-.225-.453-.456-.681-.689-.225.1-.453.19-.679.281.084-.238.172-.479.256-.717-.228-.238-.453-.479-.681-.724.286.1.565.187.843.276C310.579,97.549,310.663,97.308,310.749,97.065Z" transform="translate(-309.645 -97.065)"/></g><g transform="translate(4.15 13.322)"><path class="f" d="M310.749,98.467c.084.291.17.582.256.874.281.081.562.162.848.233-.225.106-.453.21-.681.314.084.291.172.58.258.871l-.681-.686c-.225.1-.453.19-.679.279.084-.236.172-.476.256-.717-.228-.236-.453-.476-.681-.719.286.094.565.187.843.273C310.579,98.948,310.663,98.705,310.749,98.467Z" transform="translate(-309.645 -98.467)"/></g><g transform="translate(4.15 16.865)"><path class="f" d="M310.749,99.866c.084.294.17.585.256.876.281.084.562.16.848.233-.225.106-.453.21-.681.309.084.294.172.585.258.879l-.681-.689c-.225.1-.453.187-.679.281.084-.241.172-.481.256-.722-.228-.238-.453-.479-.681-.719.286.1.565.187.843.276C310.579,100.347,310.663,100.107,310.749,99.866Z" transform="translate(-309.645 -99.866)"/></g><g transform="translate(4.15 20.415)"><path class="f" d="M310.749,101.268c.084.289.17.582.256.871.281.081.562.16.848.233-.225.109-.453.213-.681.314.084.291.172.58.258.869-.225-.225-.453-.456-.681-.689-.225.094-.453.192-.679.284.084-.238.172-.479.256-.719-.228-.236-.453-.476-.681-.719.286.1.565.19.843.276C310.579,101.747,310.663,101.506,310.749,101.268Z" transform="translate(-309.645 -101.268)"/></g><g transform="translate(6.652 8.536)"><path class="f" d="M311.73,96.577c.091.286.18.572.268.858.281.053.562.1.846.154-.228.124-.458.248-.689.37.089.281.18.567.268.851-.233-.208-.466-.418-.694-.631-.225.119-.448.238-.674.349.084-.246.17-.5.256-.742-.225-.218-.453-.433-.679-.656.279.071.557.134.838.2C311.557,97.076,311.643,96.825,311.73,96.577Z" transform="translate(-310.633 -96.577)"/></g><g transform="translate(6.652 12.081)"><path class="f" d="M311.73,97.977c.091.286.18.57.268.853.281.056.562.106.846.154-.228.127-.458.248-.689.367l.268.858c-.233-.208-.466-.418-.694-.631-.225.122-.448.236-.674.349.084-.248.17-.5.256-.75-.225-.213-.453-.431-.679-.651.279.068.557.134.838.192C311.557,98.473,311.643,98.228,311.73,97.977Z" transform="translate(-310.633 -97.977)"/></g><g transform="translate(6.652 15.626)"><path class="f" d="M311.73,99.377l.268.853c.281.056.562.106.846.152-.228.127-.458.253-.689.375.089.284.18.567.268.853-.233-.208-.466-.418-.694-.631-.225.116-.448.238-.674.349.084-.248.17-.5.256-.747-.225-.213-.453-.433-.679-.651.279.068.557.132.838.19C311.557,99.873,311.643,99.623,311.73,99.377Z" transform="translate(-310.633 -99.377)"/></g><g transform="translate(6.652 19.169)"><path class="f" d="M311.73,100.776c.091.286.18.57.268.858.281.053.562.1.846.152-.228.127-.458.251-.689.372.089.284.18.567.268.848-.233-.205-.466-.413-.694-.623-.225.116-.448.23-.674.342.084-.243.17-.491.256-.739-.225-.215-.453-.433-.679-.656.279.068.557.132.838.192Z" transform="translate(-310.633 -100.776)"/></g><g transform="translate(6.652 22.714)"><path class="f" d="M311.73,102.176c.091.286.18.57.268.858.281.056.562.106.846.152-.228.127-.458.251-.689.37.089.284.18.57.268.856-.233-.208-.466-.418-.694-.631-.225.119-.448.236-.674.349.084-.251.17-.5.256-.747-.225-.215-.453-.431-.679-.653.279.071.557.134.838.195C311.557,102.675,311.643,102.427,311.73,102.176Z" transform="translate(-310.633 -102.176)"/></g><g transform="translate(9.116 10.802)"><path class="f" d="M312.713,97.472c.089.279.172.557.258.836.286.03.567.058.851.084-.228.147-.458.291-.686.433.089.276.175.55.263.826-.23-.187-.458-.377-.686-.57-.228.139-.456.271-.681.405.091-.253.177-.509.266-.762-.233-.2-.461-.4-.691-.6.284.046.567.086.848.122C312.543,97.986,312.629,97.728,312.713,97.472Z" transform="translate(-311.606 -97.472)"/></g><g transform="translate(9.116 14.347)"><path class="f" d="M312.713,98.872c.089.279.172.557.258.833.286.03.567.061.851.084-.228.147-.458.291-.686.43.089.279.175.555.263.828-.23-.185-.458-.375-.686-.567-.228.134-.456.271-.681.405.091-.256.177-.509.266-.767-.233-.195-.461-.4-.691-.6.284.043.567.084.848.122C312.543,99.389,312.629,99.133,312.713,98.872Z" transform="translate(-311.606 -98.872)"/></g><g transform="translate(9.116 17.895)"><path class="f" d="M312.713,100.273c.089.276.172.555.258.831.286.033.567.058.851.084-.228.144-.458.289-.686.428.089.279.175.555.263.833-.23-.187-.458-.377-.686-.572-.228.139-.456.273-.681.408.091-.258.177-.512.266-.77-.233-.2-.461-.393-.691-.6.284.046.567.089.848.122Q312.587,100.657,312.713,100.273Z" transform="translate(-311.606 -100.273)"/></g><g transform="translate(9.116 21.441)"><path class="f" d="M312.713,101.673c.089.279.172.555.258.831.286.03.567.061.851.084-.228.147-.458.289-.686.433.089.276.175.549.263.826-.23-.187-.458-.38-.686-.572-.228.139-.456.273-.681.405.091-.253.177-.506.266-.762-.233-.2-.461-.4-.691-.6.284.043.567.084.848.122C312.543,102.187,312.629,101.929,312.713,101.673Z" transform="translate(-311.606 -101.673)"/></g><g transform="translate(11.626 9.138)"><path class="f" d="M313.693,96.815c.086.273.182.544.271.818.276.008.555.015.833.018-.23.162-.458.324-.686.481.089.268.182.539.273.808-.23-.17-.461-.344-.691-.519-.228.154-.453.309-.679.461.084-.261.172-.524.256-.788-.225-.175-.451-.355-.674-.539.279.023.557.041.838.053Z" transform="translate(-312.597 -96.815)"/></g><g transform="translate(11.626 12.686)"><path class="f" d="M313.693,98.216c.086.271.182.542.271.81.276.01.555.015.833.02-.23.162-.458.322-.686.479.089.271.182.542.273.815-.23-.172-.461-.347-.691-.522-.228.157-.453.309-.679.458.084-.263.172-.524.256-.79-.225-.177-.451-.357-.674-.537.279.023.557.038.838.053C313.521,98.743,313.607,98.479,313.693,98.216Z" transform="translate(-312.597 -98.216)"/></g><g transform="translate(11.626 16.229)"><path class="f" d="M313.693,99.615c.086.271.182.544.271.813.276.01.555.018.833.023-.23.16-.458.319-.686.476.089.271.182.544.273.813-.23-.17-.461-.344-.691-.519-.228.154-.453.309-.679.461.084-.263.172-.527.256-.79-.225-.18-.451-.36-.674-.539.279.023.557.041.838.053C313.521,100.142,313.607,99.881,313.693,99.615Z" transform="translate(-312.597 -99.615)"/></g><g transform="translate(11.626 19.774)"><path class="f" d="M313.693,101.015c.086.271.182.542.271.813.276.01.555.015.833.02-.23.165-.458.324-.686.481.089.271.182.539.273.808-.23-.167-.461-.342-.691-.517-.228.154-.453.309-.679.456.084-.261.172-.522.256-.783-.225-.177-.451-.36-.674-.542.279.023.557.038.838.053Z" transform="translate(-312.597 -101.015)"/></g><g transform="translate(11.626 23.32)"><path class="f" d="M313.693,102.415c.086.271.182.542.271.815.276.01.555.018.833.02-.23.16-.458.319-.686.476.089.273.182.542.273.813-.23-.17-.461-.344-.691-.522-.228.157-.453.309-.679.461.084-.261.172-.524.256-.788-.225-.177-.451-.357-.674-.539.279.023.557.04.838.056C313.521,102.942,313.607,102.681,313.693,102.415Z" transform="translate(-312.597 -102.415)"/></g><g transform="translate(14.087 11.028)"><path class="f" d="M314.681,97.561c.084.268.172.532.253.8.286-.008.567-.02.848-.033-.228.177-.453.352-.681.527l.251.793c-.223-.157-.448-.314-.671-.474-.228.17-.456.339-.684.5.083-.266.17-.534.256-.8-.228-.162-.456-.329-.684-.5.286,0,.565,0,.843-.005C314.5,98.1,314.592,97.832,314.681,97.561Z" transform="translate(-313.569 -97.561)"/></g><g transform="translate(14.087 14.575)"><path class="f" d="M314.681,98.962c.084.266.172.529.253.8.286-.008.567-.018.848-.035-.228.18-.453.355-.681.527q.125.4.251.79c-.223-.154-.448-.311-.671-.468q-.342.254-.684.5c.083-.266.17-.534.256-.8q-.342-.243-.684-.494c.286,0,.565,0,.843-.005C314.5,99.5,314.592,99.23,314.681,98.962Z" transform="translate(-313.569 -98.962)"/></g><g transform="translate(14.087 18.121)"><path class="f" d="M314.681,100.362c.084.263.172.529.253.8.286-.01.567-.02.848-.033-.228.172-.453.349-.681.522l.251.8c-.223-.157-.448-.317-.671-.476-.228.17-.456.339-.684.506.083-.271.17-.537.256-.808-.228-.162-.456-.327-.684-.491.286,0,.565,0,.843-.005C314.5,100.9,314.592,100.63,314.681,100.362Z" transform="translate(-313.569 -100.362)"/></g><g transform="translate(14.087 21.668)"><path class="f" d="M314.681,101.763c.084.266.172.529.253.793.286-.008.567-.023.848-.035-.228.177-.453.355-.681.527.084.261.167.529.251.79-.223-.157-.448-.314-.671-.474-.228.17-.456.337-.684.5.083-.266.17-.534.256-.8l-.684-.494c.286,0,.565,0,.843-.005C314.5,102.3,314.592,102.031,314.681,101.763Z" transform="translate(-313.569 -101.763)"/></g><g transform="translate(16.589 9.024)"><path class="f" d="M315.659,96.77c.086.261.175.524.263.783.281-.023.557-.051.841-.081-.228.19-.453.377-.684.565.089.258.182.517.271.775-.23-.144-.463-.289-.691-.433-.228.182-.453.365-.674.547l.251-.823c-.225-.144-.453-.294-.679-.446.279-.018.562-.038.843-.058C315.486,97.322,315.575,97.046,315.659,96.77Z" transform="translate(-314.557 -96.77)"/></g><g transform="translate(16.589 12.575)"><path class="f" d="M315.659,98.172c.086.258.175.519.263.777.281-.025.557-.053.841-.084-.228.187-.453.375-.684.56.089.261.182.522.271.782-.23-.144-.463-.286-.691-.436-.228.185-.453.367-.674.55.084-.273.167-.552.251-.826-.225-.147-.453-.3-.679-.448.279-.015.562-.035.843-.058C315.486,98.719,315.575,98.445,315.659,98.172Z" transform="translate(-314.557 -98.172)"/></g><g transform="translate(16.589 16.115)"><path class="f" d="M315.659,99.57c.086.261.175.522.263.78.281-.023.557-.053.841-.081-.228.187-.453.375-.684.562.089.258.182.519.271.78-.23-.144-.463-.289-.691-.433-.228.182-.453.367-.674.547.084-.273.167-.547.251-.823-.225-.149-.453-.3-.679-.451.279-.015.562-.035.843-.058C315.486,100.122,315.575,99.846,315.659,99.57Z" transform="translate(-314.557 -99.57)"/></g><g transform="translate(16.589 19.663)"><path class="f" d="M315.659,100.971c.086.258.175.519.263.78.281-.028.557-.053.841-.084-.228.19-.453.377-.684.565.089.258.182.517.271.772-.23-.142-.463-.284-.691-.428-.228.182-.453.365-.674.544.084-.273.167-.547.251-.818-.225-.147-.453-.3-.679-.451.279-.018.562-.038.843-.061C315.486,101.518,315.575,101.244,315.659,100.971Z" transform="translate(-314.557 -100.971)"/></g><g transform="translate(16.589 23.206)"><path class="f" d="M315.659,102.37c.086.261.175.522.263.782.281-.025.557-.053.841-.084-.228.19-.453.375-.684.562.089.261.182.519.271.777-.23-.142-.463-.286-.691-.433-.228.185-.453.367-.674.55.084-.273.167-.552.251-.826-.225-.144-.453-.3-.679-.446.279-.018.562-.035.843-.058C315.486,102.92,315.575,102.649,315.659,102.37Z" transform="translate(-314.557 -102.37)"/></g><g transform="translate(19.061 10.62)"><path class="f" d="M316.632,97.4l.263.77c.286-.038.565-.081.851-.124-.23.2-.456.4-.686.6l.258.76c-.23-.132-.456-.261-.686-.4-.225.192-.453.387-.681.58.089-.276.177-.555.266-.833q-.342-.205-.684-.418c.281-.03.565-.063.846-.1C316.462,97.962,316.548,97.681,316.632,97.4Z" transform="translate(-315.533 -97.4)"/></g><g transform="translate(19.061 14.17)"><path class="f" d="M316.632,98.8c.089.256.175.509.263.767.286-.041.565-.084.851-.124-.23.2-.456.4-.686.6.086.256.172.512.258.762-.23-.129-.456-.261-.686-.393-.225.192-.453.385-.681.577.089-.276.177-.557.266-.833-.228-.137-.456-.276-.684-.415.281-.033.565-.066.846-.1Z" transform="translate(-315.533 -98.802)"/></g><g transform="translate(19.061 17.715)"><path class="f" d="M316.632,100.2c.089.253.175.509.263.765.286-.041.565-.081.851-.124-.23.2-.456.4-.686.6l.258.767c-.23-.132-.456-.263-.686-.4-.225.195-.453.393-.681.585l.266-.838c-.228-.137-.456-.273-.684-.413.281-.033.565-.066.846-.1Z" transform="translate(-315.533 -100.202)"/></g><g transform="translate(19.061 21.261)"><path class="f" d="M316.632,101.6c.089.256.175.509.263.765.286-.038.565-.081.851-.124-.23.2-.456.4-.686.6l.258.762c-.23-.132-.456-.266-.686-.4-.225.195-.453.393-.681.582.089-.276.177-.552.266-.833-.228-.134-.456-.273-.684-.413.281-.033.565-.066.846-.1C316.462,102.159,316.548,101.881,316.632,101.6Z" transform="translate(-315.533 -101.602)"/></g><g transform="translate(21.56 8.366)"><path class="f" d="M317.624,96.51c.089.251.175.5.263.757.281-.051.56-.1.841-.157l-.681.62c.084.251.172.5.261.757-.228-.124-.456-.248-.684-.375-.225.205-.453.41-.676.615.086-.284.17-.565.253-.848-.225-.124-.456-.253-.681-.382.281-.043.565-.089.843-.139C317.454,97.075,317.538,96.791,317.624,96.51Z" transform="translate(-316.52 -96.51)"/></g><g transform="translate(21.56 11.911)"><path class="f" d="M317.624,97.91c.089.251.175.5.263.755.281-.051.56-.1.841-.16l-.681.62c.084.253.172.506.261.76-.228-.122-.456-.248-.684-.372l-.676.613.253-.851c-.225-.127-.456-.251-.681-.38.281-.043.565-.091.843-.139C317.454,98.472,317.538,98.191,317.624,97.91Z" transform="translate(-316.52 -97.91)"/></g><g transform="translate(21.56 15.457)"><path class="f" d="M317.624,99.31c.089.251.175.5.263.755.281-.051.56-.1.841-.16-.228.21-.456.418-.681.623.084.253.172.506.261.755-.228-.119-.456-.243-.684-.37l-.676.613c.086-.284.17-.565.253-.846-.225-.127-.456-.256-.681-.385.281-.043.565-.091.843-.139C317.454,99.875,317.538,99.591,317.624,99.31Z" transform="translate(-316.52 -99.31)"/></g><g transform="translate(21.56 18.999)"><path class="f" d="M317.624,100.709c.089.253.175.5.263.755.281-.051.56-.1.841-.157l-.681.625c.084.251.172.5.261.752-.228-.122-.456-.246-.684-.37-.225.205-.453.41-.676.61.086-.281.17-.562.253-.843-.225-.127-.456-.256-.681-.385.281-.043.565-.091.843-.139C317.454,101.274,317.538,100.993,317.624,100.709Z" transform="translate(-316.52 -100.709)"/></g><g transform="translate(21.56 22.545)"><path class="f" d="M317.624,102.109c.089.253.175.5.263.757.281-.051.56-.1.841-.157l-.681.62c.084.251.172.506.261.755-.228-.122-.456-.246-.684-.37l-.676.613c.086-.284.17-.567.253-.848-.225-.124-.456-.253-.681-.382.281-.041.565-.091.843-.139C317.454,102.676,317.538,102.393,317.624,102.109Z" transform="translate(-316.52 -102.109)"/></g><g transform="translate(24.034 9.751)"><path class="f" d="M318.6,97.057c.083.248.172.5.258.747.281-.058.565-.122.846-.182-.225.215-.453.433-.676.648.083.246.17.5.253.745-.228-.117-.453-.233-.681-.347-.228.21-.458.42-.686.633.089-.281.175-.567.266-.853-.225-.119-.451-.241-.679-.362l.836-.17C318.421,97.629,318.507,97.343,318.6,97.057Z" transform="translate(-317.497 -97.057)"/></g><g transform="translate(24.034 13.297)"><path class="f" d="M318.6,98.457c.083.251.172.5.258.75.281-.061.565-.122.846-.185l-.676.643c.083.251.17.5.253.747l-.681-.347c-.228.213-.458.425-.686.633.089-.284.175-.567.266-.853l-.679-.36c.279-.056.56-.111.836-.17C318.421,99.029,318.507,98.743,318.6,98.457Z" transform="translate(-317.497 -98.457)"/></g><g transform="translate(24.034 16.842)"><path class="f" d="M318.6,99.857c.083.251.172.5.258.747.281-.058.565-.119.846-.182-.225.215-.453.428-.676.643.083.248.17.5.253.747l-.681-.349-.686.638c.089-.286.175-.572.266-.858l-.679-.36c.279-.056.56-.109.836-.167C318.421,100.429,318.507,100.143,318.6,99.857Z" transform="translate(-317.497 -99.857)"/></g><g transform="translate(24.034 20.392)"><path class="f" d="M318.6,101.259c.083.246.172.494.258.745.281-.063.565-.122.846-.185-.225.215-.453.428-.676.643.083.248.17.5.253.745-.228-.114-.453-.233-.681-.349l-.686.638c.089-.284.175-.57.266-.853-.225-.119-.451-.241-.679-.36l.836-.17C318.421,101.829,318.507,101.543,318.6,101.259Z" transform="translate(-317.497 -101.259)"/></g><g transform="translate(26.529 7.325)"><path class="f" d="M319.581,96.1c.089.246.18.494.266.742.284-.066.562-.137.843-.205-.225.223-.453.443-.679.661.084.246.172.491.261.739-.23-.111-.461-.223-.691-.332-.225.218-.451.438-.676.653.089-.286.172-.575.258-.861-.228-.114-.456-.225-.681-.337l.841-.195Z" transform="translate(-318.482 -96.099)"/></g><g transform="translate(26.529 10.873)"><path class="f" d="M319.581,97.5c.089.246.18.489.266.737l.843-.205c-.225.22-.453.441-.679.658.084.248.172.5.261.742-.23-.106-.461-.218-.691-.332l-.676.658c.089-.291.172-.58.258-.869-.228-.111-.456-.225-.681-.337.284-.063.56-.129.841-.192Z" transform="translate(-318.482 -97.5)"/></g><g transform="translate(26.529 14.413)"><path class="f" d="M319.581,98.9c.089.248.18.494.266.739.284-.066.562-.132.843-.2l-.679.661c.084.246.172.494.261.742-.23-.111-.461-.223-.691-.332l-.676.653c.089-.289.172-.575.258-.866-.228-.111-.456-.223-.681-.339.284-.061.56-.124.841-.19C319.409,99.475,319.495,99.189,319.581,98.9Z" transform="translate(-318.482 -98.898)"/></g><g transform="translate(26.529 17.959)"><path class="f" d="M319.581,100.3c.089.246.18.5.266.739.284-.066.562-.134.843-.2l-.679.663c.084.246.172.489.261.737-.23-.109-.461-.218-.691-.329l-.676.651c.089-.286.172-.572.258-.861-.228-.111-.456-.228-.681-.339l.841-.192Z" transform="translate(-318.482 -100.298)"/></g><g transform="translate(26.529 21.504)"><path class="f" d="M319.581,101.7c.089.248.18.5.266.742.284-.068.562-.132.843-.205-.225.223-.453.441-.679.658.084.248.172.5.261.742-.23-.109-.461-.218-.691-.329q-.338.323-.676.653c.089-.289.172-.577.258-.866-.228-.111-.456-.223-.681-.337.284-.061.56-.127.841-.19C319.409,102.275,319.495,101.989,319.581,101.7Z" transform="translate(-318.482 -101.698)"/></g></g></g></g></g></g></svg>