<?xml version="1.0" encoding="utf-8"?>
<!-- Generator: Adobe Illustrator 25.4.1, SVG Export Plug-In . SVG Version: 6.00 Build 0)  -->
<svg version="1.1" id="Layer_1" xmlns="http://www.w3.org/2000/svg" xmlns:xlink="http://www.w3.org/1999/xlink" x="0px" y="0px"
	 viewBox="0 0 515 140" style="enable-background:new 0 0 515 140;" xml:space="preserve">
<style type="text/css">
	.st0{fill:#C66B7C;}
	.st1{fill:#7A57A4;}
	.st2{fill:#4BA083;}
	.st3{fill:#353D9D;}
	.st4{fill:#369696;}
	.st5{fill:#C6BF6B;}
	.st6{opacity:0.3;fill:#FFFFFF;}
	.st7{opacity:0.1;fill:#FFFFFF;}
	.st8{opacity:0.7;fill:#FFFFFF;}
	.st9{opacity:0.6;fill:#FFFFFF;}
	.st10{opacity:0.2;fill:#FFFFFF;}
	.st11{opacity:0.5;fill:#56A68B;}
	.st12{opacity:0.5;fill:#FFFFFF;}
	.st13{fill:#FFFFFF;}
	.st14{opacity:0.8;fill:#FFFFFF;}
	.st15{fill:#C97383;}
	.st16{fill:#BF596C;}
	.st17{opacity:0.3;fill:#8B6CB0;}
	.st18{fill:#8B6CB0;}
	.st19{fill:#56A68B;}
	.st20{fill:#4CA1A1;}
	.st21{fill:#535AAC;}
	.st22{opacity:0.3;fill:#D3CE8D;}
	.st23{fill:#D3CE8D;}
	.st24{fill:#FFCC00;}
	.st25{fill:#EBD270;}
</style>
<rect class="st0" width="515" height="140"/>
<rect x="479.1" y="-17.4" transform="matrix(0.8739 0.4861 -0.4861 0.8739 81.763 -229.2927)" class="st15" width="7.5" height="120.7"/>
<rect x="460" y="55.2" transform="matrix(0.8739 0.4861 -0.4861 0.8739 110.1677 -212.0277)" class="st15" width="7.5" height="102.3"/>
<rect x="466.6" y="58.8" transform="matrix(0.8739 0.4861 -0.4861 0.8739 112.7608 -214.7484)" class="st16" width="7.5" height="102.3"/>
<rect x="528" y="23.4" transform="matrix(0.8739 0.4861 -0.4861 0.8739 107.729 -247.9098)" class="st15" width="7.5" height="120.7"/>
<rect x="539.6" y="-24.2" transform="matrix(0.8739 0.4861 -0.4861 0.8739 85.7736 -258.3544)" class="st16" width="2.5" height="120.7"/>
<rect x="504.6" y="96.6" transform="matrix(0.8739 0.4861 -0.4861 0.8739 111.9843 -233.3729)" class="st16" width="2.5" height="5.1"/>
<rect x="508.3" y="90" transform="matrix(0.8739 0.4861 -0.4861 0.8739 109.2132 -236.0141)" class="st16" width="2.5" height="5.1"/>
<rect x="484.4" y="-54.7" transform="matrix(0.8739 0.4861 -0.4861 0.8739 63.9703 -235.3299)" class="st16" width="2.5" height="120.7"/>
<rect x="497.6" y="22.9" transform="matrix(0.8739 0.4861 -0.4861 0.8739 103.6783 -233.2125)" class="st15" width="7.5" height="120.7"/>
<rect x="465.4" y="137.6" transform="matrix(0.8739 0.4861 -0.4861 0.8739 127.7818 -210.2394)" class="st15" width="7.5" height="7.1"/>
</svg>
