<?xml version="1.0" encoding="utf-8"?>
<!-- Generator: Adobe Illustrator 25.4.1, SVG Export Plug-In . SVG Version: 6.00 Build 0)  -->
<svg version="1.1" id="Layer_1" xmlns="http://www.w3.org/2000/svg" xmlns:xlink="http://www.w3.org/1999/xlink" x="0px" y="0px"
	 viewBox="0 0 515 140" style="enable-background:new 0 0 515 140;" xml:space="preserve">
<style type="text/css">
	.st0{fill:#C66B7C;}
	.st1{fill:#7A57A4;}
	.st2{fill:#4BA083;}
	.st3{fill:#353D9D;}
	.st4{fill:#369696;}
	.st5{fill:#C6BF6B;}
	.st6{opacity:0.3;fill:#FFFFFF;}
	.st7{opacity:0.1;fill:#FFFFFF;}
	.st8{opacity:0.7;fill:#FFFFFF;}
	.st9{opacity:0.6;fill:#FFFFFF;}
	.st10{opacity:0.2;fill:#FFFFFF;}
	.st11{opacity:0.5;fill:#56A68B;}
	.st12{opacity:0.5;fill:#FFFFFF;}
	.st13{fill:#FFFFFF;}
	.st14{opacity:0.8;fill:#FFFFFF;}
	.st15{fill:#C97383;}
	.st16{fill:#BF596C;}
	.st17{opacity:0.3;fill:#8B6CB0;}
	.st18{fill:#8B6CB0;}
	.st19{fill:#56A68B;}
	.st20{fill:#4CA1A1;}
	.st21{fill:#535AAC;}
	.st22{opacity:0.3;fill:#D3CE8D;}
	.st23{fill:#D3CE8D;}
	.st24{fill:#FFCC00;}
	.st25{fill:#EBD270;}
</style>
<rect class="st3" width="515" height="140"/>
<circle class="st11" cx="420" cy="-19.4" r="21"/>
<g>
	<polygon class="st21" points="489.2,123.2 482.6,119.6 467.6,146.6 476.2,146.6 	"/>
	<polygon class="st21" points="460,146.6 503.8,67.9 497.2,64.2 451.4,146.6 	"/>
	<polygon class="st21" points="497.2,64.2 490.7,60.6 442.8,146.6 451.4,146.6 	"/>
	<polygon class="st21" points="440.3,82.5 433.7,78.8 396.1,146.6 404.6,146.6 	"/>
	<polygon class="st21" points="429,128.8 426.8,127.6 416.2,146.6 419.1,146.6 	"/>
	
		<rect x="431" y="116.7" transform="matrix(0.4861 -0.8739 0.8739 0.4861 119.7602 439.5179)" class="st21" width="5.1" height="2.5"/>
	
		<rect x="427.3" y="123.3" transform="matrix(0.4861 -0.8739 0.8739 0.4861 112.0334 439.7035)" class="st21" width="5.1" height="2.5"/>
	<polygon class="st21" points="514.2,99.3 512.1,98.1 485.1,146.6 487.9,146.6 	"/>
	<polygon class="st21" points="470.6,82.9 464.1,79.3 426.7,146.6 435.2,146.6 	"/>
</g>
</svg>
